solid 5293
facet normal -4.974017811876035e-16 -1.063254915351008e-16 1
  outer loop
    vertex -192.4494018554688 -478.8153686523438 15
    vertex -195.8542785644531 -462.886962890625 15
    vertex -196.70703125 -486.0562133789063 15
  endloop
endfacet
facet normal 0 0 1
  outer loop
    vertex -192.1404418945313 -470.4212036132813 15
    vertex -195.8542785644531 -462.886962890625 15
    vertex -192.4494018554688 -478.8153686523438 15
  endloop
endfacet
facet normal 0 0 1
  outer loop
    vertex -280.2583312988281 -500.2753295898438 15
    vertex -281.4771118164063 -487.1789855957031 15
    vertex -282.9311828613281 -489.6050109863281 15
  endloop
endfacet
facet normal 0 0 1
  outer loop
    vertex -212.9569854736328 -470.0150756835938 15
    vertex -281.4771118164063 -487.1789855957031 15
    vertex -280.2583312988281 -500.2753295898438 15
  endloop
endfacet
facet normal 0 0 1
  outer loop
    vertex -212.9569854736328 -470.0150756835938 15
    vertex -280.2583312988281 -500.2753295898438 15
    vertex -277.8323059082031 -501.7294311523438 15
  endloop
endfacet
facet normal 0 0 1
  outer loop
    vertex -212.9569854736328 -470.0150756835938 15
    vertex -277.8323059082031 -501.7294311523438 15
    vertex -219.8633422851563 -487.2085266113281 15
  endloop
endfacet
facet normal 0 0 1
  outer loop
    vertex -212.2816925048828 -490.8246154785156 15
    vertex -212.9569854736328 -470.0150756835938 15
    vertex -219.8633422851563 -487.2085266113281 15
  endloop
endfacet
facet normal -4.360034068657935e-16 -1.414874239798478e-17 1
  outer loop
    vertex -20.74018478393555 341.7269287109375 15
    vertex -212.9569854736328 -470.0150756835938 15
    vertex -212.2816925048828 -490.8246154785156 15
  endloop
endfacet
facet normal 5.761540854690596e-18 -1.157836731823791e-16 1
  outer loop
    vertex -20.74018478393555 341.7269287109375 15
    vertex -212.2816925048828 -490.8246154785156 15
    vertex -203.8922271728516 -490.4071350097656 15
  endloop
endfacet
facet normal 1.332021248841655e-16 -1.43833248640044e-16 1
  outer loop
    vertex -20.74018478393555 341.7269287109375 15
    vertex -203.8922271728516 -490.4071350097656 15
    vertex -195.8542785644531 -462.886962890625 15
  endloop
endfacet
facet normal 7.71902977717416e-17 -1.274736145921051e-16 1
  outer loop
    vertex -195.8542785644531 -462.886962890625 15
    vertex -203.8922271728516 -490.4071350097656 15
    vertex -196.70703125 -486.0562133789063 15
  endloop
endfacet
facet normal 1.739330144069788e-16 -1.526978190099747e-16 1
  outer loop
    vertex -5.763890266418457 339.8750915527344 15
    vertex -20.74018478393555 341.7269287109375 15
    vertex -195.8542785644531 -462.886962890625 15
  endloop
endfacet
facet normal 0 0 1
  outer loop
    vertex -145.9174957275391 318.2696533203125 15
    vertex -147.5153503417969 325.5974731445313 15
    vertex -147.6981658935547 321.7195129394531 15
  endloop
endfacet
facet normal 0 0 1
  outer loop
    vertex -145.4180450439453 328.864501953125 15
    vertex -147.5153503417969 325.5974731445313 15
    vertex -145.9174957275391 318.2696533203125 15
  endloop
endfacet
facet normal 0 0 1
  outer loop
    vertex -142.6504821777344 316.17236328125 15
    vertex -145.4180450439453 328.864501953125 15
    vertex -145.9174957275391 318.2696533203125 15
  endloop
endfacet
facet normal 0 0 1
  outer loop
    vertex -141.9682159423828 330.6451721191406 15
    vertex -145.4180450439453 328.864501953125 15
    vertex -142.6504821777344 316.17236328125 15
  endloop
endfacet
facet normal 0 0 1
  outer loop
    vertex -138.7724914550781 315.9895324707031 15
    vertex -141.9682159423828 330.6451721191406 15
    vertex -142.6504821777344 316.17236328125 15
  endloop
endfacet
facet normal 1.315292745180077e-16 2.868045949341425e-17 1
  outer loop
    vertex 654.4319458007813 504.3032531738281 15
    vertex -141.9682159423828 330.6451721191406 15
    vertex -138.7724914550781 315.9895324707031 15
  endloop
endfacet
facet normal 2.419981335937213e-16 -4.366302906561005e-16 1
  outer loop
    vertex 654.4319458007813 504.3032531738281 15
    vertex -138.7724914550781 315.9895324707031 15
    vertex -20.74018478393555 341.7269287109375 15
  endloop
endfacet
facet normal 1.73829994024769e-16 -1.535310082624973e-16 1
  outer loop
    vertex 654.4319458007813 504.3032531738281 15
    vertex -20.74018478393555 341.7269287109375 15
    vertex -5.763890266418457 339.8750915527344 15
  endloop
endfacet
facet normal 1.635160841076372e-16 -1.121196336456836e-16 1
  outer loop
    vertex 658.6929321289063 484.7624206542969 15
    vertex 654.4319458007813 504.3032531738281 15
    vertex -5.763890266418457 339.8750915527344 15
  endloop
endfacet
facet normal 1.300368051119236e-15 1.357752521592465e-16 1
  outer loop
    vertex 658.6929321289063 484.7624206542969 15
    vertex 656.8121337890625 502.7752685546875 15
    vertex 654.4319458007813 504.3032531738281 15
  endloop
endfacet
facet normal 0 0 1
  outer loop
    vertex 660.2208862304688 487.1426086425781 15
    vertex 656.8121337890625 502.7752685546875 15
    vertex 658.6929321289063 484.7624206542969 15
  endloop
endfacet
facet normal 0.9770417809486389 0.213047668337822 -6.348071879585103e-17
  outer loop
    vertex 656.8121337890625 502.7752685546875 5.85132001089606e-16
    vertex 660.2208862304688 487.1426086425781 15
    vertex 660.2208862304688 487.1426086425781 6.480754296816569e-17
  endloop
endfacet
facet normal 0.9770417809486389 0.213047668337822 2.116024125297823e-17
  outer loop
    vertex 656.8121337890625 502.7752685546875 15
    vertex 660.2208862304688 487.1426086425781 15
    vertex 656.8121337890625 502.7752685546875 5.85132001089606e-16
  endloop
endfacet
facet normal 0.5402254462242126 0.8415203094482422 0
  outer loop
    vertex 656.8121337890625 502.7752685546875 15
    vertex 656.8121337890625 502.7752685546875 5.85132001089606e-16
    vertex 654.4319458007813 504.3032531738281 9.580425442226072e-16
  endloop
endfacet
facet normal 0.5402254462242126 0.8415203094482422 -1.228398116663096e-17
  outer loop
    vertex 654.4319458007813 504.3032531738281 15
    vertex 656.8121337890625 502.7752685546875 15
    vertex 654.4319458007813 504.3032531738281 9.580425442226072e-16
  endloop
endfacet
facet normal 0.8415203094482422 -0.5402254462242126 0
  outer loop
    vertex 660.2208862304688 487.1426086425781 6.480754296816569e-17
    vertex 658.6929321289063 484.7624206542969 15
    vertex 658.6929321289063 484.7624206542969 2.707204384999633e-16
  endloop
endfacet
facet normal 0.8415203094482422 -0.5402254462242126 0
  outer loop
    vertex 660.2208862304688 487.1426086425781 15
    vertex 658.6929321289063 484.7624206542969 15
    vertex 660.2208862304688 487.1426086425781 6.480754296816569e-17
  endloop
endfacet
facet normal -0.213047668337822 0.9770417809486389 1.068646518288298e-15
  outer loop
    vertex 654.4319458007813 504.3032531738281 15
    vertex 654.4319458007813 504.3032531738281 9.580425442226072e-16
    vertex -141.9682159423828 330.6451721191406 1.119055274335402e-13
  endloop
endfacet
facet normal -0.213047668337822 0.9770417809486389 1.068646518288298e-15
  outer loop
    vertex -141.9682159423828 330.6451721191406 15
    vertex 654.4319458007813 504.3032531738281 15
    vertex -141.9682159423828 330.6451721191406 1.119055274335402e-13
  endloop
endfacet
facet normal 0.213047668337822 -0.9770417809486389 0
  outer loop
    vertex 658.6929321289063 484.7624206542969 15
    vertex -5.763890266418457 339.8750915527344 9.240437598033099e-14
    vertex 658.6929321289063 484.7624206542969 2.707204384999633e-16
  endloop
endfacet
facet normal 0.213047668337822 -0.9770417809486389 1.535193959701861e-15
  outer loop
    vertex -5.763890266418457 339.8750915527344 15
    vertex -5.763890266418457 339.8750915527344 9.240437598033099e-14
    vertex 658.6929321289063 484.7624206542969 15
  endloop
endfacet
facet normal -0.4586652815341949 0.8886091113090515 -1.234917623378994e-17
  outer loop
    vertex -145.4180450439453 328.864501953125 15
    vertex -141.9682159423828 330.6451721191406 1.119055274335402e-13
    vertex -145.4180450439453 328.864501953125 1.118671873342157e-13
  endloop
endfacet
facet normal -0.4586652815341949 0.8886091113090515 -3.704752704700859e-17
  outer loop
    vertex -141.9682159423828 330.6451721191406 15
    vertex -141.9682159423828 330.6451721191406 1.119055274335402e-13
    vertex -145.4180450439453 328.864501953125 15
  endloop
endfacet
facet normal 0.9730904698371887 -0.2304233908653259 0
  outer loop
    vertex -5.763890266418457 339.8750915527344 9.240437598033099e-14
    vertex -195.8542785644531 -462.886962890625 15
    vertex -195.8542785644531 -462.886962890625 2.366836424183669e-15
  endloop
endfacet
facet normal 0.9730904698371887 -0.2304233908653259 -2.095044091958735e-15
  outer loop
    vertex -5.763890266418457 339.8750915527344 15
    vertex -195.8542785644531 -462.886962890625 15
    vertex -5.763890266418457 339.8750915527344 9.240437598033099e-14
  endloop
endfacet
facet normal -0.8415203094482422 0.5402254462242126 0
  outer loop
    vertex -145.4180450439453 328.864501953125 15
    vertex -147.5153503417969 325.5974731445313 1.117968361657486e-13
    vertex -147.5153503417969 325.5974731445313 15
  endloop
endfacet
facet normal -0.8415203094482422 0.5402254462242126 2.608039260014367e-17
  outer loop
    vertex -145.4180450439453 328.864501953125 1.118671873342157e-13
    vertex -147.5153503417969 325.5974731445313 1.117968361657486e-13
    vertex -145.4180450439453 328.864501953125 15
  endloop
endfacet
facet normal 0.8969503045082092 0.4421314001083374 2.090751110606368e-17
  outer loop
    vertex -195.8542785644531 -462.886962890625 2.366836424183669e-15
    vertex -192.1404418945313 -470.4212036132813 15
    vertex -192.1404418945313 -470.4212036132813 1.587261074969583e-15
  endloop
endfacet
facet normal 0.8969503045082092 0.4421314001083374 4.181502221212737e-17
  outer loop
    vertex -195.8542785644531 -462.886962890625 15
    vertex -192.1404418945313 -470.4212036132813 15
    vertex -195.8542785644531 -462.886962890625 2.366836424183669e-15
  endloop
endfacet
facet normal -0.9988906979560852 0.04708877950906754 1.373222077041253e-18
  outer loop
    vertex -147.5153503417969 325.5974731445313 15
    vertex -147.6981658935547 321.7195129394531 1.117133322696764e-13
    vertex -147.6981658935547 321.7195129394531 15
  endloop
endfacet
facet normal -0.9988906979560852 0.04708877950906754 -1.373222077041253e-18
  outer loop
    vertex -147.5153503417969 325.5974731445313 1.117968361657486e-13
    vertex -147.6981658935547 321.7195129394531 1.117133322696764e-13
    vertex -147.5153503417969 325.5974731445313 15
  endloop
endfacet
facet normal 0.9993233680725098 -0.03678055480122566 0
  outer loop
    vertex -192.1404418945313 -470.4212036132813 1.587261074969583e-15
    vertex -192.4494018554688 -478.8153686523438 15
    vertex -192.4494018554688 -478.8153686523438 7.543750073025276e-16
  endloop
endfacet
facet normal 0.9993233680725098 -0.03678055480122566 2.345711956837822e-18
  outer loop
    vertex -192.1404418945313 -470.4212036132813 15
    vertex -192.4494018554688 -478.8153686523438 15
    vertex -192.1404418945313 -470.4212036132813 1.587261074969583e-15
  endloop
endfacet
facet normal -0.8886091113090515 -0.4586652815341949 1.234917623378994e-17
  outer loop
    vertex -147.6981658935547 321.7195129394531 15
    vertex -145.9174957275391 318.2696533203125 1.116390440920705e-13
    vertex -145.9174957275391 318.2696533203125 15
  endloop
endfacet
facet normal -0.8886091113090515 -0.4586652815341949 0
  outer loop
    vertex -147.6981658935547 321.7195129394531 1.117133322696764e-13
    vertex -145.9174957275391 318.2696533203125 1.116390440920705e-13
    vertex -147.6981658935547 321.7195129394531 15
  endloop
endfacet
facet normal 0.862021803855896 -0.5068711638450623 4.350933626081973e-17
  outer loop
    vertex -192.4494018554688 -478.8153686523438 7.543750073025276e-16
    vertex -196.70703125 -486.0562133789063 15
    vertex -196.70703125 -486.0562133789063 6.793495404555107e-17
  endloop
endfacet
facet normal 0.862021803855896 -0.5068711638450623 -2.175466813040987e-17
  outer loop
    vertex -192.4494018554688 -478.8153686523438 15
    vertex -196.70703125 -486.0562133789063 15
    vertex -192.4494018554688 -478.8153686523438 7.543750073025276e-16
  endloop
endfacet
facet normal -0.5402254462242126 -0.8415203094482422 -2.608039260014367e-17
  outer loop
    vertex -142.6504821777344 316.17236328125 15
    vertex -145.9174957275391 318.2696533203125 1.116390440920705e-13
    vertex -142.6504821777344 316.17236328125 1.115938802953229e-13
  endloop
endfacet
facet normal -0.5402254462242126 -0.8415203094482422 3.912059055457674e-17
  outer loop
    vertex -145.9174957275391 318.2696533203125 15
    vertex -145.9174957275391 318.2696533203125 1.116390440920705e-13
    vertex -142.6504821777344 316.17236328125 15
  endloop
endfacet
facet normal 0.5179756283760071 -0.8553953766822815 -2.192319459968897e-17
  outer loop
    vertex -203.8922271728516 -490.4071350097656 15
    vertex -203.8922271728516 -490.4071350097656 -3.074253407198076e-16
    vertex -196.70703125 -486.0562133789063 6.793495404555107e-17
  endloop
endfacet
facet normal 0.5179756283760071 -0.8553953766822815 -2.192319459968897e-17
  outer loop
    vertex -203.8922271728516 -490.4071350097656 15
    vertex -196.70703125 -486.0562133789063 6.793495404555107e-17
    vertex -196.70703125 -486.0562133789063 15
  endloop
endfacet
facet normal -0.04708877950906754 -0.9988906979560852 -1.373222077041253e-18
  outer loop
    vertex -138.7724914550781 315.9895324707031 15
    vertex -142.6504821777344 316.17236328125 1.115938802953229e-13
    vertex -138.7724914550781 315.9895324707031 1.11589943286184e-13
  endloop
endfacet
facet normal -0.04708877950906754 -0.9988906979560852 1.373222077041253e-18
  outer loop
    vertex -142.6504821777344 316.17236328125 15
    vertex -142.6504821777344 316.17236328125 1.115938802953229e-13
    vertex -138.7724914550781 315.9895324707031 15
  endloop
endfacet
facet normal 0.04969975724816322 -0.9987642168998718 -2.347025312855403e-18
  outer loop
    vertex -203.8922271728516 -490.4071350097656 15
    vertex -212.2816925048828 -490.8246154785156 -2.8168064779074e-16
    vertex -203.8922271728516 -490.4071350097656 -3.074253407198076e-16
  endloop
endfacet
facet normal 0.04969975724816322 -0.9987642168998718 -2.347025312855403e-18
  outer loop
    vertex -212.2816925048828 -490.8246154785156 15
    vertex -212.2816925048828 -490.8246154785156 -2.8168064779074e-16
    vertex -203.8922271728516 -490.4071350097656 15
  endloop
endfacet
facet normal 0.213047668337822 -0.9770417809486389 -1.900443619222539e-16
  outer loop
    vertex -20.74018478393555 341.7269287109375 15
    vertex -138.7724914550781 315.9895324707031 1.11589943286184e-13
    vertex -20.74018478393555 341.7269287109375 9.359581252393889e-14
  endloop
endfacet
facet normal 0.213047668337822 -0.9770417809486389 0
  outer loop
    vertex -138.7724914550781 315.9895324707031 15
    vertex -138.7724914550781 315.9895324707031 1.11589943286184e-13
    vertex -20.74018478393555 341.7269287109375 15
  endloop
endfacet
facet normal -0.430495947599411 -0.9025925397872925 2.07768165692803e-17
  outer loop
    vertex -212.2816925048828 -490.8246154785156 15
    vertex -219.8633422851563 -487.2085266113281 1.389945067544049e-16
    vertex -212.2816925048828 -490.8246154785156 -2.8168064779074e-16
  endloop
endfacet
facet normal -0.430495947599411 -0.9025925397872925 -2.07768165692803e-17
  outer loop
    vertex -219.8633422851563 -487.2085266113281 15
    vertex -219.8633422851563 -487.2085266113281 1.389945067544049e-16
    vertex -212.2816925048828 -490.8246154785156 15
  endloop
endfacet
facet normal -0.9730904698371887 0.2304233908653259 0
  outer loop
    vertex -20.74018478393555 341.7269287109375 15
    vertex -212.9569854736328 -470.0150756835938 6.808534474533607e-16
    vertex -212.9569854736328 -470.0150756835938 15
  endloop
endfacet
facet normal -0.9730904698371887 0.2304233908653259 1.024473644209867e-15
  outer loop
    vertex -20.74018478393555 341.7269287109375 9.359581252393889e-14
    vertex -212.9569854736328 -470.0150756835938 6.808534474533607e-16
    vertex -20.74018478393555 341.7269287109375 15
  endloop
endfacet
facet normal 0.242987185716629 -0.9700294733047485 9.77794452580071e-17
  outer loop
    vertex -277.8323059082031 -501.7294311523438 15
    vertex -277.8323059082031 -501.7294311523438 4.500234349973813e-18
    vertex -219.8633422851563 -487.2085266113281 1.389945067544049e-16
  endloop
endfacet
facet normal 0.242987185716629 -0.9700294733047485 -1.955588905160142e-16
  outer loop
    vertex -277.8323059082031 -501.7294311523438 15
    vertex -219.8633422851563 -487.2085266113281 1.389945067544049e-16
    vertex -219.8633422851563 -487.2085266113281 15
  endloop
endfacet
facet normal -0.242987185716629 0.9700294733047485 -1.399691637440087e-16
  outer loop
    vertex -281.4771118164063 -487.1789855957031 15
    vertex -212.9569854736328 -470.0150756835938 6.808534474533607e-16
    vertex -281.4771118164063 -487.1789855957031 1.874625525594636e-17
  endloop
endfacet
facet normal -0.242987185716629 0.9700294733047485 -1.399691637440087e-16
  outer loop
    vertex -212.9569854736328 -470.0150756835938 15
    vertex -212.9569854736328 -470.0150756835938 6.808534474533607e-16
    vertex -281.4771118164063 -487.1789855957031 15
  endloop
endfacet
facet normal -0.5140965580940247 -0.8577322959899902 -1.205180149485467e-17
  outer loop
    vertex -280.2583312988281 -500.2753295898438 15
    vertex -280.2583312988281 -500.2753295898438 -8.518956625789254e-22
    vertex -277.8323059082031 -501.7294311523438 4.500234349973813e-18
  endloop
endfacet
facet normal -0.5140965580940247 -0.8577322959899902 1.205180149485467e-17
  outer loop
    vertex -280.2583312988281 -500.2753295898438 15
    vertex -277.8323059082031 -501.7294311523438 4.500234349973813e-18
    vertex -277.8323059082031 -501.7294311523438 15
  endloop
endfacet
facet normal -0.8577322959899902 0.5140965580940247 0
  outer loop
    vertex -281.4771118164063 -487.1789855957031 15
    vertex -282.9311828613281 -489.6050109863281 -5.172223449284485e-22
    vertex -282.9311828613281 -489.6050109863281 15
  endloop
endfacet
facet normal -0.8577322959899902 0.5140965580940247 -1.205180149485467e-17
  outer loop
    vertex -281.4771118164063 -487.1789855957031 1.874625525594636e-17
    vertex -282.9311828613281 -489.6050109863281 -5.172223449284485e-22
    vertex -281.4771118164063 -487.1789855957031 15
  endloop
endfacet
facet normal -0.9700294733047485 -0.242987185716629 0
  outer loop
    vertex -282.9311828613281 -489.6050109863281 15
    vertex -280.2583312988281 -500.2753295898438 -8.518956625789254e-22
    vertex -280.2583312988281 -500.2753295898438 15
  endloop
endfacet
facet normal -0.9700294733047485 -0.242987185716629 0
  outer loop
    vertex -282.9311828613281 -489.6050109863281 -5.172223449284485e-22
    vertex -280.2583312988281 -500.2753295898438 -8.518956625789254e-22
    vertex -282.9311828613281 -489.6050109863281 15
  endloop
endfacet
facet normal -8.659861697169524e-17 2.309596531646624e-16 -1
  outer loop
    vertex -1519.563842773438 854.103759765625 0.2599999904632568
    vertex -3041.31591796875 -828.8541259765625 0.2599999904632568
    vertex -3115.00341796875 -721.5853271484375 0.2599999904632568
  endloop
endfacet
facet normal -8.659861697169524e-17 2.309596531646624e-16 -1
  outer loop
    vertex -3041.31591796875 -828.8541259765625 0.2599999904632568
    vertex -1519.563842773438 854.103759765625 0.2599999904632568
    vertex -3024.662353515625 -826.7464599609375 0.2599999904632568
  endloop
endfacet
facet normal -8.659861697169524e-17 2.309596531646624e-16 -1
  outer loop
    vertex -3024.662353515625 -826.7464599609375 0.2599999904632568
    vertex -1519.563842773438 854.103759765625 0.2599999904632568
    vertex -3003.153564453125 -806.23681640625 0.2599999904632568
  endloop
endfacet
facet normal -8.659861697169524e-17 2.309596531646624e-16 -1
  outer loop
    vertex -3003.153564453125 -806.23681640625 0.2599999904632568
    vertex -1519.563842773438 854.103759765625 0.2599999904632568
    vertex -2858.826904296875 -780.3711547851563 0.2599999904632568
  endloop
endfacet
facet normal -8.659861697169524e-17 2.309596531646624e-16 -1
  outer loop
    vertex -3003.153564453125 -806.23681640625 0.2599999904632568
    vertex -2858.826904296875 -780.3711547851563 0.2599999904632568
    vertex -2922.674560546875 -890.63671875 0.2599999904632568
  endloop
endfacet
facet normal -8.659861697169524e-17 2.309596531646624e-16 -1
  outer loop
    vertex -2858.826904296875 -780.3711547851563 0.2599999904632568
    vertex -1519.563842773438 854.103759765625 0.2599999904632568
    vertex -1773.345703125 194.5494537353516 0.2599999904632568
  endloop
endfacet
facet normal -8.659861697169524e-17 2.309596531646624e-16 -1
  outer loop
    vertex -1773.345703125 194.5494537353516 0.2599999904632568
    vertex -1519.563842773438 854.103759765625 0.2599999904632568
    vertex -1481.017456054688 279.8523864746094 0.2599999904632568
  endloop
endfacet
facet normal -8.659861697169524e-17 2.309596531646624e-16 -1
  outer loop
    vertex -1481.017456054688 279.8523864746094 0.2599999904632568
    vertex -1519.563842773438 854.103759765625 0.2599999904632568
    vertex -1160.82421875 854.103759765625 0.2599999904632568
  endloop
endfacet
facet normal -8.659861697169524e-17 2.309596531646624e-16 -1
  outer loop
    vertex -1481.017456054688 279.8523864746094 0.2599999904632568
    vertex -1160.82421875 854.103759765625 0.2599999904632568
    vertex -1311.160400390625 504.2436218261719 0.2599999904632568
  endloop
endfacet
facet normal -8.659861697169524e-17 2.309596531646624e-16 -1
  outer loop
    vertex -1311.160400390625 504.2436218261719 0.2599999904632568
    vertex -1160.82421875 854.103759765625 0.2599999904632568
    vertex -1160.82421875 764.0037231445313 0.2599999904632568
  endloop
endfacet
facet normal -8.659861697169524e-17 2.309596531646624e-16 -1
  outer loop
    vertex -1311.160400390625 504.2436218261719 0.2599999904632568
    vertex -1160.82421875 764.0037231445313 0.2599999904632568
    vertex -1090.138061523438 375.1322631835938 0.2599999904632568
  endloop
endfacet
facet normal -8.659861697169524e-17 2.309596531646624e-16 -1
  outer loop
    vertex -1090.138061523438 375.1322631835938 0.2599999904632568
    vertex -1160.82421875 764.0037231445313 0.2599999904632568
    vertex -1009.30908203125 641.4578857421875 0.2599999904632568
  endloop
endfacet
facet normal -8.659861697169524e-17 2.309596531646624e-16 -1
  outer loop
    vertex -1090.138061523438 375.1322631835938 0.2599999904632568
    vertex -1009.30908203125 641.4578857421875 0.2599999904632568
    vertex -1065.706176757813 276.7178955078125 0.2599999904632568
  endloop
endfacet
facet normal -8.659861697169524e-17 2.309596531646624e-16 -1
  outer loop
    vertex -1065.706176757813 276.7178955078125 0.2599999904632568
    vertex -1009.30908203125 641.4578857421875 0.2599999904632568
    vertex -1028.328857421875 316.4774475097656 0.2599999904632568
  endloop
endfacet
facet normal -8.659861697169524e-17 2.309596531646624e-16 -1
  outer loop
    vertex -1028.328857421875 316.4774475097656 0.2599999904632568
    vertex -1009.30908203125 641.4578857421875 0.2599999904632568
    vertex -1006.638549804688 296.0867309570313 0.2599999904632568
  endloop
endfacet
facet normal -8.659861697169524e-17 2.309596531646624e-16 -1
  outer loop
    vertex -1006.638549804688 296.0867309570313 0.2599999904632568
    vertex -1009.30908203125 641.4578857421875 0.2599999904632568
    vertex -884.6708984375 425.8280639648438 0.2599999904632568
  endloop
endfacet
facet normal -8.659861697169524e-17 2.309596531646624e-16 -1
  outer loop
    vertex -1065.706176757813 276.7178955078125 0.2599999904632568
    vertex -1140.75146484375 332.4623718261719 0.2599999904632568
    vertex -1090.138061523438 375.1322631835938 0.2599999904632568
  endloop
endfacet
facet normal -8.659861697169524e-17 2.309596531646624e-16 -1
  outer loop
    vertex -2834.162841796875 -806.23681640625 0.2599999904632568
    vertex -2922.674560546875 -890.63671875 0.2599999904632568
    vertex -2858.826904296875 -780.3711547851563 0.2599999904632568
  endloop
endfacet
facet normal -8.659861697169524e-17 2.309596531646624e-16 -1
  outer loop
    vertex -2811.008544921875 -997.5703735351563 0.2599999904632568
    vertex -2831.503173828125 -1027.780151367188 0.2599999904632568
    vertex -2837.597900390625 -1022.924499511719 0.2599999904632568
  endloop
endfacet
facet normal -8.659861697169524e-17 2.309596531646624e-16 -1
  outer loop
    vertex -2831.503173828125 -1027.780151367188 0.2599999904632568
    vertex -2811.008544921875 -997.5703735351563 0.2599999904632568
    vertex -2805.68115234375 -1003.157470703125 0.2599999904632568
  endloop
endfacet
facet normal -8.659861697169524e-17 2.309596531646624e-16 -1
  outer loop
    vertex -2022.377319335938 -801.4375 0.2599999904632568
    vertex -2123.66748046875 -994.3790283203125 0.2599999904632568
    vertex -2144.81640625 -1001.751342773438 0.2599999904632568
  endloop
endfacet
facet normal -8.659861697169524e-17 2.309596531646624e-16 -1
  outer loop
    vertex -2123.66748046875 -994.3790283203125 0.2599999904632568
    vertex -2022.377319335938 -801.4375 0.2599999904632568
    vertex -2010.261352539063 -808.8432006835938 0.2599999904632568
  endloop
endfacet
facet normal -8.659861697169524e-17 2.309596531646624e-16 -1
  outer loop
    vertex -1766.570190429688 -733.5867919921875 0.2599999904632568
    vertex -1871.1962890625 -927.1581420898438 0.2599999904632568
    vertex -1888.329956054688 -935.0425415039063 0.2599999904632568
  endloop
endfacet
facet normal -8.659861697169524e-17 2.309596531646624e-16 -1
  outer loop
    vertex -1871.1962890625 -927.1581420898438 0.2599999904632568
    vertex -1766.570190429688 -733.5867919921875 0.2599999904632568
    vertex -1756.752075195313 -737.8063354492188 0.2599999904632568
  endloop
endfacet
facet normal -8.659861697169524e-17 2.309596531646624e-16 -1
  outer loop
    vertex -3024.662353515625 -826.7464599609375 0.2599999904632568
    vertex -2703.977294921875 -1180.665405273438 0.2599999904632568
    vertex -3041.31591796875 -828.8541259765625 0.2599999904632568
  endloop
endfacet
facet normal -8.659861697169524e-17 2.309596531646624e-16 -1
  outer loop
    vertex -2703.977294921875 -1180.665405273438 0.2599999904632568
    vertex -3024.662353515625 -826.7464599609375 0.2599999904632568
    vertex -2837.597900390625 -1022.924499511719 0.2599999904632568
  endloop
endfacet
facet normal -8.659861697169524e-17 2.309596531646624e-16 -1
  outer loop
    vertex -2703.977294921875 -1180.665405273438 0.2599999904632568
    vertex -2837.597900390625 -1022.924499511719 0.2599999904632568
    vertex -2831.503173828125 -1027.780151367188 0.2599999904632568
  endloop
endfacet
facet normal -8.659861697169524e-17 2.309596531646624e-16 -1
  outer loop
    vertex -2703.977294921875 -1180.665405273438 0.2599999904632568
    vertex -2831.503173828125 -1027.780151367188 0.2599999904632568
    vertex -2715.270263671875 -1149.67578125 0.2599999904632568
  endloop
endfacet
facet normal -8.659861697169524e-17 2.309596531646624e-16 -1
  outer loop
    vertex -2703.977294921875 -1180.665405273438 0.2599999904632568
    vertex -2715.270263671875 -1149.67578125 0.2599999904632568
    vertex -2676.38037109375 -1149.67578125 0.2599999904632568
  endloop
endfacet
facet normal -8.659861697169524e-17 2.309596531646624e-16 -1
  outer loop
    vertex -2703.977294921875 -1180.665405273438 0.2599999904632568
    vertex -2676.38037109375 -1149.67578125 0.2599999904632568
    vertex -2676.38037109375 -1164.565795898438 0.2599999904632568
  endloop
endfacet
facet normal -8.659861697169524e-17 2.309596531646624e-16 -1
  outer loop
    vertex -2703.977294921875 -1180.665405273438 0.2599999904632568
    vertex -2676.38037109375 -1164.565795898438 0.2599999904632568
    vertex -2606.7978515625 -1180.665405273438 0.2599999904632568
  endloop
endfacet
facet normal -8.659861697169524e-17 2.309596531646624e-16 -1
  outer loop
    vertex -2606.7978515625 -1180.665405273438 0.2599999904632568
    vertex -2676.38037109375 -1164.565795898438 0.2599999904632568
    vertex -2598.490234375 -1164.565795898438 0.2599999904632568
  endloop
endfacet
facet normal -8.659861697169524e-17 2.309596531646624e-16 -1
  outer loop
    vertex -2606.7978515625 -1180.665405273438 0.2599999904632568
    vertex -2598.490234375 -1164.565795898438 0.2599999904632568
    vertex -573.5147094726563 -583.2225341796875 0.2599999904632568
  endloop
endfacet
facet normal -8.659861697169524e-17 2.309596531646624e-16 -1
  outer loop
    vertex -573.5147094726563 -583.2225341796875 0.2599999904632568
    vertex -2598.490234375 -1164.565795898438 0.2599999904632568
    vertex -1871.1962890625 -955.0481567382813 0.2599999904632568
  endloop
endfacet
facet normal -8.659861697169524e-17 2.309596531646624e-16 -1
  outer loop
    vertex -1871.1962890625 -955.0481567382813 0.2599999904632568
    vertex -2598.490234375 -1164.565795898438 0.2599999904632568
    vertex -2158.38037109375 -1036.980224609375 0.2599999904632568
  endloop
endfacet
facet normal -8.659861697169524e-17 2.309596531646624e-16 -1
  outer loop
    vertex -1871.1962890625 -955.0481567382813 0.2599999904632568
    vertex -2158.38037109375 -1036.980224609375 0.2599999904632568
    vertex -2123.66748046875 -1026.588989257813 0.2599999904632568
  endloop
endfacet
facet normal -8.659861697169524e-17 2.309596531646624e-16 -1
  outer loop
    vertex -2123.66748046875 -1026.588989257813 0.2599999904632568
    vertex -2158.38037109375 -1036.980224609375 0.2599999904632568
    vertex -2144.81640625 -1001.751342773438 0.2599999904632568
  endloop
endfacet
facet normal -8.659861697169524e-17 2.309596531646624e-16 -1
  outer loop
    vertex -2123.66748046875 -1026.588989257813 0.2599999904632568
    vertex -2144.81640625 -1001.751342773438 0.2599999904632568
    vertex -2123.66748046875 -994.3790283203125 0.2599999904632568
  endloop
endfacet
facet normal -8.659861697169524e-17 2.309596531646624e-16 -1
  outer loop
    vertex -1871.1962890625 -955.0481567382813 0.2599999904632568
    vertex -2123.66748046875 -1026.588989257813 0.2599999904632568
    vertex -1898.538208007813 -961.068115234375 0.2599999904632568
  endloop
endfacet
facet normal -8.659861697169524e-17 2.309596531646624e-16 -1
  outer loop
    vertex -1871.1962890625 -955.0481567382813 0.2599999904632568
    vertex -1898.538208007813 -961.068115234375 0.2599999904632568
    vertex -1888.329956054688 -935.0425415039063 0.2599999904632568
  endloop
endfacet
facet normal -8.659861697169524e-17 2.309596531646624e-16 -1
  outer loop
    vertex -1871.1962890625 -955.0481567382813 0.2599999904632568
    vertex -1888.329956054688 -935.0425415039063 0.2599999904632568
    vertex -1871.1962890625 -927.1581420898438 0.2599999904632568
  endloop
endfacet
facet normal -8.659861697169524e-17 2.309596531646624e-16 -1
  outer loop
    vertex -573.5147094726563 -583.2225341796875 0.2599999904632568
    vertex -1871.1962890625 -955.0481567382813 0.2599999904632568
    vertex -576.0773315429688 -574.501220703125 0.2599999904632568
  endloop
endfacet
facet normal -0.6445602774620056 0.7645534873008728 -3.711925803214682e-15
  outer loop
    vertex -1140.75146484375 332.4623718261719 12.53999996185303
    vertex -1090.138061523438 375.1322631835938 0.2599999904632568
    vertex -1140.75146484375 332.4623718261719 0.2599999904632568
  endloop
endfacet
facet normal -0.6445602774620056 0.7645534873008728 -3.711925803214682e-15
  outer loop
    vertex -1090.138061523438 375.1322631835938 0.2599999904632568
    vertex -1140.75146484375 332.4623718261719 12.53999996185303
    vertex -1090.138061523438 375.1322631835938 12.53999996185303
  endloop
endfacet
facet normal 0.723717212677002 0.6900966167449951 7.649483395886017e-15
  outer loop
    vertex -2858.826904296875 -780.3711547851563 0.2599999904632568
    vertex -2834.162841796875 -806.23681640625 12.53999996185303
    vertex -2834.162841796875 -806.23681640625 0.2599999904632568
  endloop
endfacet
facet normal 0.723717212677002 0.6900966167449951 7.649483395886017e-15
  outer loop
    vertex -2834.162841796875 -806.23681640625 12.53999996185303
    vertex -2858.826904296875 -780.3711547851563 0.2599999904632568
    vertex -2858.826904296875 -780.3711547851563 12.53999996185303
  endloop
endfacet
facet normal 0.6900966167449951 -0.723717212677002 1.458824516265347e-14
  outer loop
    vertex -2834.162841796875 -806.23681640625 12.53999996185303
    vertex -2922.674560546875 -890.63671875 0.2599999904632568
    vertex -2834.162841796875 -806.23681640625 0.2599999904632568
  endloop
endfacet
facet normal 0.6900966167449951 -0.723717212677002 1.458824516265347e-14
  outer loop
    vertex -2922.674560546875 -890.63671875 0.2599999904632568
    vertex -2834.162841796875 -806.23681640625 12.53999996185303
    vertex -2922.674560546875 -890.63671875 12.53999996185303
  endloop
endfacet
facet normal 0.723717212677002 0.6900966167449951 7.649483395886017e-15
  outer loop
    vertex -2831.503173828125 -1027.780151367188 0.2599999904632568
    vertex -2715.270263671875 -1149.67578125 12.53999996185303
    vertex -2715.270263671875 -1149.67578125 0.2599999904632568
  endloop
endfacet
facet normal 0.723717212677002 0.6900966167449951 7.649483395886017e-15
  outer loop
    vertex -2715.270263671875 -1149.67578125 12.53999996185303
    vertex -2831.503173828125 -1027.780151367188 0.2599999904632568
    vertex -2831.503173828125 -1027.780151367188 12.53999996185303
  endloop
endfacet
facet normal 0.6900966167449951 -0.723717212677002 7.294122581326737e-15
  outer loop
    vertex -3003.153564453125 -806.23681640625 12.53999996185303
    vertex -3024.662353515625 -826.7464599609375 0.2599999904632568
    vertex -3003.153564453125 -806.23681640625 0.2599999904632568
  endloop
endfacet
facet normal 0.6900966167449951 -0.723717212677002 7.294122581326737e-15
  outer loop
    vertex -3024.662353515625 -826.7464599609375 0.2599999904632568
    vertex -3003.153564453125 -806.23681640625 12.53999996185303
    vertex -3024.662353515625 -826.7464599609375 12.53999996185303
  endloop
endfacet
facet normal 0.6682023406028748 -0.7439795732498169 6.420947232704853e-15
  outer loop
    vertex -1773.345703125 194.5494537353516 12.53999996185303
    vertex -2858.826904296875 -780.3711547851563 0.2599999904632568
    vertex -1773.345703125 194.5494537353516 0.2599999904632568
  endloop
endfacet
facet normal 0.6682023406028748 -0.7439795732498169 6.420947232704853e-15
  outer loop
    vertex -2858.826904296875 -780.3711547851563 0.2599999904632568
    vertex -1773.345703125 194.5494537353516 12.53999996185303
    vertex -2858.826904296875 -780.3711547851563 12.53999996185303
  endloop
endfacet
facet normal -0.504400372505188 -0.8634698987007141 -7.542100793997853e-15
  outer loop
    vertex -1090.138061523438 375.1322631835938 12.53999996185303
    vertex -1311.160400390625 504.2436218261719 0.2599999904632568
    vertex -1090.138061523438 375.1322631835938 0.2599999904632568
  endloop
endfacet
facet normal -0.504400372505188 -0.8634698987007141 -7.542100793997853e-15
  outer loop
    vertex -1311.160400390625 504.2436218261719 0.2599999904632568
    vertex -1090.138061523438 375.1322631835938 12.53999996185303
    vertex -1311.160400390625 504.2436218261719 12.53999996185303
  endloop
endfacet
facet normal 0.723717212677002 0.6900966167449951 1.205299057107161e-30
  outer loop
    vertex -3024.662353515625 -826.7464599609375 0.2599999904632568
    vertex -2837.597900390625 -1022.924499511719 12.53999996185303
    vertex -2837.597900390625 -1022.924499511719 0.2599999904632568
  endloop
endfacet
facet normal 0.723717212677002 0.6900966167449951 1.205299057107161e-30
  outer loop
    vertex -2837.597900390625 -1022.924499511719 12.53999996185303
    vertex -3024.662353515625 -826.7464599609375 0.2599999904632568
    vertex -3024.662353515625 -826.7464599609375 12.53999996185303
  endloop
endfacet
facet normal -0.6900966167449951 0.723717212677002 -7.294122581326737e-15
  outer loop
    vertex -2837.597900390625 -1022.924499511719 12.53999996185303
    vertex -2811.008544921875 -997.5703735351563 0.2599999904632568
    vertex -2837.597900390625 -1022.924499511719 0.2599999904632568
  endloop
endfacet
facet normal -0.6900966167449951 0.723717212677002 -7.294122581326737e-15
  outer loop
    vertex -2811.008544921875 -997.5703735351563 0.2599999904632568
    vertex -2837.597900390625 -1022.924499511719 12.53999996185303
    vertex -2811.008544921875 -997.5703735351563 12.53999996185303
  endloop
endfacet
facet normal 0.6900966167449951 -0.723717212677002 1.841298686059648e-14
  outer loop
    vertex -2805.68115234375 -1003.157470703125 12.53999996185303
    vertex -2831.503173828125 -1027.780151367188 0.2599999904632568
    vertex -2805.68115234375 -1003.157470703125 0.2599999904632568
  endloop
endfacet
facet normal 0.6900966167449951 -0.723717212677002 1.841298686059648e-14
  outer loop
    vertex -2831.503173828125 -1027.780151367188 0.2599999904632568
    vertex -2805.68115234375 -1003.157470703125 12.53999996185303
    vertex -2831.503173828125 -1027.780151367188 12.53999996185303
  endloop
endfacet
facet normal 1 0 0
  outer loop
    vertex -2676.38037109375 -1149.67578125 0.2599999904632568
    vertex -2676.38037109375 -1164.565795898438 12.53999996185303
    vertex -2676.38037109375 -1164.565795898438 0.2599999904632568
  endloop
endfacet
facet normal 1 0 0
  outer loop
    vertex -2676.38037109375 -1164.565795898438 12.53999996185303
    vertex -2676.38037109375 -1149.67578125 0.2599999904632568
    vertex -2676.38037109375 -1149.67578125 12.53999996185303
  endloop
endfacet
facet normal -0.2784312665462494 0.9604561328887939 -1.617450239770144e-14
  outer loop
    vertex -2598.490234375 -1164.565795898438 12.53999996185303
    vertex -2158.38037109375 -1036.980224609375 0.2599999904632568
    vertex -2598.490234375 -1164.565795898438 0.2599999904632568
  endloop
endfacet
facet normal -0.2784312665462494 0.9604561328887939 -1.617450239770144e-14
  outer loop
    vertex -2158.38037109375 -1036.980224609375 0.2599999904632568
    vertex -2598.490234375 -1164.565795898438 12.53999996185303
    vertex -2158.38037109375 -1036.980224609375 12.53999996185303
  endloop
endfacet
facet normal 0.7973251938819885 -0.6035499572753906 3.421601448895008e-15
  outer loop
    vertex -1311.160400390625 504.2436218261719 0.2599999904632568
    vertex -1481.017456054688 279.8523864746094 12.53999996185303
    vertex -1481.017456054688 279.8523864746094 0.2599999904632568
  endloop
endfacet
facet normal 0.7973251938819885 -0.6035499572753906 3.421601448895008e-15
  outer loop
    vertex -1481.017456054688 279.8523864746094 12.53999996185303
    vertex -1311.160400390625 504.2436218261719 0.2599999904632568
    vertex -1311.160400390625 504.2436218261719 12.53999996185303
  endloop
endfacet
facet normal -0.723717212677002 -0.6900966167449951 -1.529896679177203e-14
  outer loop
    vertex -3003.153564453125 -806.23681640625 12.53999996185303
    vertex -2922.674560546875 -890.63671875 0.2599999904632568
    vertex -2922.674560546875 -890.63671875 12.53999996185303
  endloop
endfacet
facet normal -0.723717212677002 -0.6900966167449951 -1.529896679177203e-14
  outer loop
    vertex -2922.674560546875 -890.63671875 0.2599999904632568
    vertex -3003.153564453125 -806.23681640625 12.53999996185303
    vertex -3003.153564453125 -806.23681640625 0.2599999904632568
  endloop
endfacet
facet normal 0 1 0
  outer loop
    vertex -2715.270263671875 -1149.67578125 12.53999996185303
    vertex -2676.38037109375 -1149.67578125 0.2599999904632568
    vertex -2715.270263671875 -1149.67578125 0.2599999904632568
  endloop
endfacet
facet normal 0 1 0
  outer loop
    vertex -2676.38037109375 -1149.67578125 0.2599999904632568
    vertex -2715.270263671875 -1149.67578125 12.53999996185303
    vertex -2676.38037109375 -1149.67578125 12.53999996185303
  endloop
endfacet
facet normal -0.596300482749939 -0.8027613162994385 -9.558579615483436e-15
  outer loop
    vertex -1065.706176757813 276.7178955078125 12.53999996185303
    vertex -1140.75146484375 332.4623718261719 0.2599999904632568
    vertex -1065.706176757813 276.7178955078125 0.2599999904632568
  endloop
endfacet
facet normal -0.596300482749939 -0.8027613162994385 -9.558579615483436e-15
  outer loop
    vertex -1140.75146484375 332.4623718261719 0.2599999904632568
    vertex -1065.706176757813 276.7178955078125 12.53999996185303
    vertex -1140.75146484375 332.4623718261719 12.53999996185303
  endloop
endfacet
facet normal 0.723717212677002 0.6900966167449951 1.165190465407572e-14
  outer loop
    vertex -2811.008544921875 -997.5703735351563 0.2599999904632568
    vertex -2805.68115234375 -1003.157470703125 12.53999996185303
    vertex -2805.68115234375 -1003.157470703125 0.2599999904632568
  endloop
endfacet
facet normal 0.723717212677002 0.6900966167449951 1.165190465407572e-14
  outer loop
    vertex -2805.68115234375 -1003.157470703125 12.53999996185303
    vertex -2811.008544921875 -997.5703735351563 0.2599999904632568
    vertex -2811.008544921875 -997.5703735351563 12.53999996185303
  endloop
endfacet
facet normal 1.545909885839668e-33 1 -1.057261611971724e-14
  outer loop
    vertex -2676.38037109375 -1164.565795898438 12.53999996185303
    vertex -2598.490234375 -1164.565795898438 0.2599999904632568
    vertex -2676.38037109375 -1164.565795898438 0.2599999904632568
  endloop
endfacet
facet normal 1.545909885839668e-33 1 -1.057261611971724e-14
  outer loop
    vertex -2598.490234375 -1164.565795898438 0.2599999904632568
    vertex -2676.38037109375 -1164.565795898438 12.53999996185303
    vertex -2598.490234375 -1164.565795898438 12.53999996185303
  endloop
endfacet
facet normal 0.2801226377487183 -0.9599642157554626 -8.834995155786109e-16
  outer loop
    vertex -1481.017456054688 279.8523864746094 12.53999996185303
    vertex -1773.345703125 194.5494537353516 0.2599999904632568
    vertex -1481.017456054688 279.8523864746094 0.2599999904632568
  endloop
endfacet
facet normal 0.2801226377487183 -0.9599642157554626 -8.834995155786109e-16
  outer loop
    vertex -1773.345703125 194.5494537353516 0.2599999904632568
    vertex -1481.017456054688 279.8523864746094 12.53999996185303
    vertex -1773.345703125 194.5494537353516 12.53999996185303
  endloop
endfacet
facet normal 0.7285974621772766 -0.6849421858787537 2.929897340706229e-15
  outer loop
    vertex -884.6708984375 425.8280639648438 0.2599999904632568
    vertex -1006.638549804688 296.0867309570313 12.53999996185303
    vertex -1006.638549804688 296.0867309570313 0.2599999904632568
  endloop
endfacet
facet normal 0.7285974621772766 -0.6849421858787537 2.929897340706229e-15
  outer loop
    vertex -1006.638549804688 296.0867309570313 12.53999996185303
    vertex -884.6708984375 425.8280639648438 0.2599999904632568
    vertex -884.6708984375 425.8280639648438 12.53999996185303
  endloop
endfacet
facet normal 0.8657745718955994 0.5004342198371887 4.681900924081734e-15
  outer loop
    vertex -1009.30908203125 641.4578857421875 0.2599999904632568
    vertex -884.6708984375 425.8280639648438 12.53999996185303
    vertex -884.6708984375 425.8280639648438 0.2599999904632568
  endloop
endfacet
facet normal 0.8657745718955994 0.5004342198371887 4.681900924081734e-15
  outer loop
    vertex -884.6708984375 425.8280639648438 12.53999996185303
    vertex -1009.30908203125 641.4578857421875 0.2599999904632568
    vertex -1009.30908203125 641.4578857421875 12.53999996185303
  endloop
endfacet
facet normal 1 0 0
  outer loop
    vertex -1871.1962890625 -927.1581420898438 0.2599999904632568
    vertex -1871.1962890625 -955.0481567382813 12.53999996185303
    vertex -1871.1962890625 -955.0481567382813 0.2599999904632568
  endloop
endfacet
facet normal 1 0 0
  outer loop
    vertex -1871.1962890625 -955.0481567382813 12.53999996185303
    vertex -1871.1962890625 -927.1581420898438 0.2599999904632568
    vertex -1871.1962890625 -927.1581420898438 12.53999996185303
  endloop
endfacet
facet normal 0.7285974621772766 -0.6849421858787537 1.072530587867932e-15
  outer loop
    vertex -1065.706176757813 276.7178955078125 0.2599999904632568
    vertex -1028.328857421875 316.4774475097656 12.53999996185303
    vertex -1065.706176757813 276.7178955078125 12.53999996185303
  endloop
endfacet
facet normal 0.7285974621772766 -0.6849421858787537 1.072530587867932e-15
  outer loop
    vertex -1028.328857421875 316.4774475097656 12.53999996185303
    vertex -1065.706176757813 276.7178955078125 0.2599999904632568
    vertex -1028.328857421875 316.4774475097656 0.2599999904632568
  endloop
endfacet
facet normal 0 1 -1.057261611971724e-14
  outer loop
    vertex -1519.563842773438 854.103759765625 12.53999996185303
    vertex -1160.82421875 854.103759765625 0.2599999904632568
    vertex -1519.563842773438 854.103759765625 0.2599999904632568
  endloop
endfacet
facet normal 0 1 -1.057261611971724e-14
  outer loop
    vertex -1160.82421875 854.103759765625 0.2599999904632568
    vertex -1519.563842773438 854.103759765625 12.53999996185303
    vertex -1160.82421875 854.103759765625 12.53999996185303
  endloop
endfacet
facet normal 0.855827271938324 -0.5172617435455322 -2.542933938643127e-15
  outer loop
    vertex -1871.1962890625 -927.1581420898438 0.2599999904632568
    vertex -1756.752075195313 -737.8063354492188 12.53999996185303
    vertex -1871.1962890625 -927.1581420898438 12.53999996185303
  endloop
endfacet
facet normal 0.855827271938324 -0.5172617435455322 -2.542933938643127e-15
  outer loop
    vertex -1756.752075195313 -737.8063354492188 12.53999996185303
    vertex -1871.1962890625 -927.1581420898438 0.2599999904632568
    vertex -1756.752075195313 -737.8063354492188 0.2599999904632568
  endloop
endfacet
facet normal 0.5215275287628174 0.8532344698905945 5.525504658449075e-15
  outer loop
    vertex -2022.377319335938 -801.4375 12.53999996185303
    vertex -2010.261352539063 -808.8432006835938 0.2599999904632568
    vertex -2022.377319335938 -801.4375 0.2599999904632568
  endloop
endfacet
facet normal 0.5215275287628174 0.8532344698905945 5.525504658449075e-15
  outer loop
    vertex -2010.261352539063 -808.8432006835938 0.2599999904632568
    vertex -2022.377319335938 -801.4375 12.53999996185303
    vertex -2010.261352539063 -808.8432006835938 12.53999996185303
  endloop
endfacet
facet normal 0.959439754486084 0.2819137275218964 -2.660486207944892e-30
  outer loop
    vertex -576.0773315429688 -574.501220703125 0.2599999904632568
    vertex -573.5147094726563 -583.2225341796875 12.53999996185303
    vertex -573.5147094726563 -583.2225341796875 0.2599999904632568
  endloop
endfacet
facet normal 0.959439754486084 0.2819137275218964 -2.660486207944892e-30
  outer loop
    vertex -573.5147094726563 -583.2225341796875 12.53999996185303
    vertex -576.0773315429688 -574.501220703125 0.2599999904632568
    vertex -576.0773315429688 -574.501220703125 12.53999996185303
  endloop
endfacet
facet normal -0.8242568373680115 -0.5662160515785217 -8.712158226017053e-15
  outer loop
    vertex -3115.00341796875 -721.5853271484375 12.53999996185303
    vertex -3041.31591796875 -828.8541259765625 0.2599999904632568
    vertex -3041.31591796875 -828.8541259765625 12.53999996185303
  endloop
endfacet
facet normal -0.8242568373680115 -0.5662160515785217 -8.712158226017053e-15
  outer loop
    vertex -3041.31591796875 -828.8541259765625 0.2599999904632568
    vertex -3115.00341796875 -721.5853271484375 12.53999996185303
    vertex -3115.00341796875 -721.5853271484375 0.2599999904632568
  endloop
endfacet
facet normal -0.2819137275218964 0.959439754486084 4.923808703814747e-31
  outer loop
    vertex -1871.1962890625 -955.0481567382813 12.53999996185303
    vertex -576.0773315429688 -574.501220703125 0.2599999904632568
    vertex -1871.1962890625 -955.0481567382813 0.2599999904632568
  endloop
endfacet
facet normal -0.2819137275218964 0.959439754486084 4.923808703814747e-31
  outer loop
    vertex -576.0773315429688 -574.501220703125 0.2599999904632568
    vertex -1871.1962890625 -955.0481567382813 12.53999996185303
    vertex -576.0773315429688 -574.501220703125 12.53999996185303
  endloop
endfacet
facet normal -0.9332157969474792 0.359316349029541 -2.352551679396346e-14
  outer loop
    vertex -2158.38037109375 -1036.980224609375 12.53999996185303
    vertex -2144.81640625 -1001.751342773438 0.2599999904632568
    vertex -2158.38037109375 -1036.980224609375 0.2599999904632568
  endloop
endfacet
facet normal -0.9332157969474792 0.359316349029541 -2.352551679396346e-14
  outer loop
    vertex -2144.81640625 -1001.751342773438 0.2599999904632568
    vertex -2158.38037109375 -1036.980224609375 12.53999996185303
    vertex -2144.81640625 -1001.751342773438 12.53999996185303
  endloop
endfacet
facet normal 0.6288595795631409 0.7775189280509949 1.402715148015091e-16
  outer loop
    vertex -1160.82421875 764.0037231445313 0.2599999904632568
    vertex -1009.30908203125 641.4578857421875 12.53999996185303
    vertex -1009.30908203125 641.4578857421875 0.2599999904632568
  endloop
endfacet
facet normal 0.6288595795631409 0.7775189280509949 1.402715148015091e-16
  outer loop
    vertex -1009.30908203125 641.4578857421875 12.53999996185303
    vertex -1160.82421875 764.0037231445313 0.2599999904632568
    vertex -1160.82421875 764.0037231445313 12.53999996185303
  endloop
endfacet
facet normal -0.2794425189495087 0.9601624011993408 -2.884938102415391e-15
  outer loop
    vertex -2123.66748046875 -1026.588989257813 12.53999996185303
    vertex -1898.538208007813 -961.068115234375 0.2599999904632568
    vertex -2123.66748046875 -1026.588989257813 0.2599999904632568
  endloop
endfacet
facet normal -0.2794425189495087 0.9601624011993408 -2.884938102415391e-15
  outer loop
    vertex -1898.538208007813 -961.068115234375 0.2599999904632568
    vertex -2123.66748046875 -1026.588989257813 12.53999996185303
    vertex -1898.538208007813 -961.068115234375 12.53999996185303
  endloop
endfacet
facet normal -0.7217974662780762 -0.6921043395996094 -7.096922299777621e-15
  outer loop
    vertex -3041.31591796875 -828.8541259765625 12.53999996185303
    vertex -2703.977294921875 -1180.665405273438 0.2599999904632568
    vertex -2703.977294921875 -1180.665405273438 12.53999996185303
  endloop
endfacet
facet normal -0.7217974662780762 -0.6921043395996094 -7.096922299777621e-15
  outer loop
    vertex -2703.977294921875 -1180.665405273438 0.2599999904632568
    vertex -3041.31591796875 -828.8541259765625 12.53999996185303
    vertex -3041.31591796875 -828.8541259765625 0.2599999904632568
  endloop
endfacet
facet normal 0.8532344698905945 -0.5215275287628174 1.803688559729073e-14
  outer loop
    vertex -2010.261352539063 -808.8432006835938 0.2599999904632568
    vertex -2123.66748046875 -994.3790283203125 12.53999996185303
    vertex -2123.66748046875 -994.3790283203125 0.2599999904632568
  endloop
endfacet
facet normal 0.8532344698905945 -0.5215275287628174 1.803688559729073e-14
  outer loop
    vertex -2123.66748046875 -994.3790283203125 12.53999996185303
    vertex -2010.261352539063 -808.8432006835938 0.2599999904632568
    vertex -2010.261352539063 -808.8432006835938 12.53999996185303
  endloop
endfacet
facet normal -0.6849421858787537 -0.7285974621772766 -1.925266290318741e-15
  outer loop
    vertex -1006.638549804688 296.0867309570313 12.53999996185303
    vertex -1028.328857421875 316.4774475097656 0.2599999904632568
    vertex -1006.638549804688 296.0867309570313 0.2599999904632568
  endloop
endfacet
facet normal -0.6849421858787537 -0.7285974621772766 -1.925266290318741e-15
  outer loop
    vertex -1028.328857421875 316.4774475097656 0.2599999904632568
    vertex -1006.638549804688 296.0867309570313 12.53999996185303
    vertex -1028.328857421875 316.4774475097656 12.53999996185303
  endloop
endfacet
facet normal -0.7026891708374023 0.7114969491958618 -1.152691308424708e-14
  outer loop
    vertex -3115.00341796875 -721.5853271484375 12.53999996185303
    vertex -1519.563842773438 854.103759765625 0.2599999904632568
    vertex -3115.00341796875 -721.5853271484375 0.2599999904632568
  endloop
endfacet
facet normal -0.7026891708374023 0.7114969491958618 -1.152691308424708e-14
  outer loop
    vertex -1519.563842773438 854.103759765625 0.2599999904632568
    vertex -3115.00341796875 -721.5853271484375 12.53999996185303
    vertex -1519.563842773438 854.103759765625 12.53999996185303
  endloop
endfacet
facet normal 1 0 0
  outer loop
    vertex -1160.82421875 854.103759765625 0.2599999904632568
    vertex -1160.82421875 764.0037231445313 12.53999996185303
    vertex -1160.82421875 764.0037231445313 0.2599999904632568
  endloop
endfacet
facet normal 1 0 0
  outer loop
    vertex -1160.82421875 764.0037231445313 12.53999996185303
    vertex -1160.82421875 854.103759765625 0.2599999904632568
    vertex -1160.82421875 854.103759765625 12.53999996185303
  endloop
endfacet
facet normal 0.2819137275218964 -0.959439754486084 3.326229350682436e-15
  outer loop
    vertex -573.5147094726563 -583.2225341796875 12.53999996185303
    vertex -2606.7978515625 -1180.665405273438 0.2599999904632568
    vertex -573.5147094726563 -583.2225341796875 0.2599999904632568
  endloop
endfacet
facet normal 0.2819137275218964 -0.959439754486084 3.326229350682436e-15
  outer loop
    vertex -2606.7978515625 -1180.665405273438 0.2599999904632568
    vertex -573.5147094726563 -583.2225341796875 12.53999996185303
    vertex -2606.7978515625 -1180.665405273438 12.53999996185303
  endloop
endfacet
facet normal 0 -1 0
  outer loop
    vertex -2606.7978515625 -1180.665405273438 12.53999996185303
    vertex -2703.977294921875 -1180.665405273438 0.2599999904632568
    vertex -2606.7978515625 -1180.665405273438 0.2599999904632568
  endloop
endfacet
facet normal 0 -1 0
  outer loop
    vertex -2703.977294921875 -1180.665405273438 0.2599999904632568
    vertex -2606.7978515625 -1180.665405273438 12.53999996185303
    vertex -2703.977294921875 -1180.665405273438 12.53999996185303
  endloop
endfacet
facet normal 1 0 2.114523223943447e-14
  outer loop
    vertex -2123.66748046875 -994.3790283203125 0.2599999904632568
    vertex -2123.66748046875 -1026.588989257813 12.53999996185303
    vertex -2123.66748046875 -1026.588989257813 0.2599999904632568
  endloop
endfacet
facet normal 1 0 2.114523223943447e-14
  outer loop
    vertex -2123.66748046875 -1026.588989257813 12.53999996185303
    vertex -2123.66748046875 -994.3790283203125 0.2599999904632568
    vertex -2123.66748046875 -994.3790283203125 12.53999996185303
  endloop
endfacet
facet normal -0.8532344698905945 0.5215275287628174 -1.183873894641634e-14
  outer loop
    vertex -2144.81640625 -1001.751342773438 12.53999996185303
    vertex -2022.377319335938 -801.4375 0.2599999904632568
    vertex -2144.81640625 -1001.751342773438 0.2599999904632568
  endloop
endfacet
facet normal -0.8532344698905945 0.5215275287628174 -1.183873894641634e-14
  outer loop
    vertex -2022.377319335938 -801.4375 0.2599999904632568
    vertex -2144.81640625 -1001.751342773438 12.53999996185303
    vertex -2022.377319335938 -801.4375 12.53999996185303
  endloop
endfacet
facet normal 5.44290772290523e-16 -9.118284266204126e-16 1
  outer loop
    vertex -2834.162841796875 -806.23681640625 12.53999996185303
    vertex -2858.826904296875 -780.3711547851563 12.53999996185303
    vertex -2922.674560546875 -890.63671875 12.53999996185303
  endloop
endfacet
facet normal 5.44290772290523e-16 -9.118284266204126e-16 1
  outer loop
    vertex -1065.706176757813 276.7178955078125 12.53999996185303
    vertex -1090.138061523438 375.1322631835938 12.53999996185303
    vertex -1140.75146484375 332.4623718261719 12.53999996185303
  endloop
endfacet
facet normal 5.44290772290523e-16 -9.118284266204126e-16 1
  outer loop
    vertex -1090.138061523438 375.1322631835938 12.53999996185303
    vertex -1160.82421875 764.0037231445313 12.53999996185303
    vertex -1311.160400390625 504.2436218261719 12.53999996185303
  endloop
endfacet
facet normal 5.44290772290523e-16 -9.118284266204126e-16 1
  outer loop
    vertex -1160.82421875 764.0037231445313 12.53999996185303
    vertex -1090.138061523438 375.1322631835938 12.53999996185303
    vertex -1009.30908203125 641.4578857421875 12.53999996185303
  endloop
endfacet
facet normal 5.44290772290523e-16 -9.118284266204126e-16 1
  outer loop
    vertex -1009.30908203125 641.4578857421875 12.53999996185303
    vertex -1090.138061523438 375.1322631835938 12.53999996185303
    vertex -1065.706176757813 276.7178955078125 12.53999996185303
  endloop
endfacet
facet normal 5.44290772290523e-16 -9.118284266204126e-16 1
  outer loop
    vertex -1009.30908203125 641.4578857421875 12.53999996185303
    vertex -1065.706176757813 276.7178955078125 12.53999996185303
    vertex -1028.328857421875 316.4774475097656 12.53999996185303
  endloop
endfacet
facet normal 5.44290772290523e-16 -9.118284266204126e-16 1
  outer loop
    vertex -1009.30908203125 641.4578857421875 12.53999996185303
    vertex -1028.328857421875 316.4774475097656 12.53999996185303
    vertex -1006.638549804688 296.0867309570313 12.53999996185303
  endloop
endfacet
facet normal 5.44290772290523e-16 -9.118284266204126e-16 1
  outer loop
    vertex -1009.30908203125 641.4578857421875 12.53999996185303
    vertex -1006.638549804688 296.0867309570313 12.53999996185303
    vertex -884.6708984375 425.8280639648438 12.53999996185303
  endloop
endfacet
facet normal 5.44290772290523e-16 -9.118284266204126e-16 1
  outer loop
    vertex -3024.662353515625 -826.7464599609375 12.53999996185303
    vertex -1519.563842773438 854.103759765625 12.53999996185303
    vertex -3115.00341796875 -721.5853271484375 12.53999996185303
  endloop
endfacet
facet normal 5.44290772290523e-16 -9.118284266204126e-16 1
  outer loop
    vertex -1519.563842773438 854.103759765625 12.53999996185303
    vertex -3024.662353515625 -826.7464599609375 12.53999996185303
    vertex -3003.153564453125 -806.23681640625 12.53999996185303
  endloop
endfacet
facet normal 5.44290772290523e-16 -9.118284266204126e-16 1
  outer loop
    vertex -1519.563842773438 854.103759765625 12.53999996185303
    vertex -3003.153564453125 -806.23681640625 12.53999996185303
    vertex -2858.826904296875 -780.3711547851563 12.53999996185303
  endloop
endfacet
facet normal 5.44290772290523e-16 -9.118284266204126e-16 1
  outer loop
    vertex -2858.826904296875 -780.3711547851563 12.53999996185303
    vertex -3003.153564453125 -806.23681640625 12.53999996185303
    vertex -2922.674560546875 -890.63671875 12.53999996185303
  endloop
endfacet
facet normal 5.44290772290523e-16 -9.118284266204126e-16 1
  outer loop
    vertex -1519.563842773438 854.103759765625 12.53999996185303
    vertex -2858.826904296875 -780.3711547851563 12.53999996185303
    vertex -1773.345703125 194.5494537353516 12.53999996185303
  endloop
endfacet
facet normal 5.44290772290523e-16 -9.118284266204126e-16 1
  outer loop
    vertex -1519.563842773438 854.103759765625 12.53999996185303
    vertex -1773.345703125 194.5494537353516 12.53999996185303
    vertex -1481.017456054688 279.8523864746094 12.53999996185303
  endloop
endfacet
facet normal 5.44290772290523e-16 -9.118284266204126e-16 1
  outer loop
    vertex -1519.563842773438 854.103759765625 12.53999996185303
    vertex -1481.017456054688 279.8523864746094 12.53999996185303
    vertex -1160.82421875 854.103759765625 12.53999996185303
  endloop
endfacet
facet normal 5.44290772290523e-16 -9.118284266204126e-16 1
  outer loop
    vertex -1160.82421875 854.103759765625 12.53999996185303
    vertex -1481.017456054688 279.8523864746094 12.53999996185303
    vertex -1311.160400390625 504.2436218261719 12.53999996185303
  endloop
endfacet
facet normal 5.44290772290523e-16 -9.118284266204126e-16 1
  outer loop
    vertex -1160.82421875 854.103759765625 12.53999996185303
    vertex -1311.160400390625 504.2436218261719 12.53999996185303
    vertex -1160.82421875 764.0037231445313 12.53999996185303
  endloop
endfacet
facet normal -0.9271664619445801 0.3746495842933655 -8.319315409448382e-17
  outer loop
    vertex -1887.816162109375 -934.53369140625 12.53999996185303
    vertex -1898.538208007813 -961.068115234375 0.2599999904632568
    vertex -1898.538208007813 -961.068115234375 12.53999996185303
  endloop
endfacet
facet normal -0.9306825995445251 0.3650520741939545 0.02380819246172905
  outer loop
    vertex -1887.816162109375 -934.53369140625 12.53999996185303
    vertex -1888.329956054688 -935.0425415039063 0.2599999904632568
    vertex -1898.538208007813 -961.068115234375 0.2599999904632568
  endloop
endfacet
facet normal 0.3942657709121704 0.9173787236213684 -0.05450478941202164
  outer loop
    vertex -1766.056396484375 -733.0780029296875 12.53999996185303
    vertex -1756.752075195313 -737.8063354492188 0.2599999904632568
    vertex -1766.570190429688 -733.5867919921875 0.2599999904632568
  endloop
endfacet
facet normal 0.4530446529388428 0.8914878368377686 -4.066077107664842e-17
  outer loop
    vertex -1766.056396484375 -733.0780029296875 12.53999996185303
    vertex -1756.752075195313 -737.8063354492188 12.53999996185303
    vertex -1756.752075195313 -737.8063354492188 0.2599999904632568
  endloop
endfacet
facet normal -1.07607305501564e-17 -2.997596991646011e-17 1
  outer loop
    vertex -3041.31591796875 -828.8541259765625 12.53999996185303
    vertex -3024.662353515625 -826.7464599609375 12.53999996185303
    vertex -3115.00341796875 -721.5853271484375 12.53999996185303
  endloop
endfacet
facet normal -1.07607305501564e-17 -2.997596991646011e-17 1
  outer loop
    vertex -3024.662353515625 -826.7464599609375 12.53999996185303
    vertex -3041.31591796875 -828.8541259765625 12.53999996185303
    vertex -2703.977294921875 -1180.665405273438 12.53999996185303
  endloop
endfacet
facet normal -1.07607305501564e-17 -2.997596991646011e-17 1
  outer loop
    vertex -3024.662353515625 -826.7464599609375 12.53999996185303
    vertex -2703.977294921875 -1180.665405273438 12.53999996185303
    vertex -2837.597900390625 -1022.924499511719 12.53999996185303
  endloop
endfacet
facet normal -1.07607305501564e-17 -2.997596991646011e-17 1
  outer loop
    vertex -2837.597900390625 -1022.924499511719 12.53999996185303
    vertex -2703.977294921875 -1180.665405273438 12.53999996185303
    vertex -2831.503173828125 -1027.780151367188 12.53999996185303
  endloop
endfacet
facet normal -1.07607305501564e-17 -2.997596991646011e-17 1
  outer loop
    vertex -2831.503173828125 -1027.780151367188 12.53999996185303
    vertex -2703.977294921875 -1180.665405273438 12.53999996185303
    vertex -2715.270263671875 -1149.67578125 12.53999996185303
  endloop
endfacet
facet normal -1.07607305501564e-17 -2.997596991646011e-17 1
  outer loop
    vertex -2715.270263671875 -1149.67578125 12.53999996185303
    vertex -2703.977294921875 -1180.665405273438 12.53999996185303
    vertex -2676.38037109375 -1149.67578125 12.53999996185303
  endloop
endfacet
facet normal -1.07607305501564e-17 -2.997596991646011e-17 1
  outer loop
    vertex -2676.38037109375 -1149.67578125 12.53999996185303
    vertex -2703.977294921875 -1180.665405273438 12.53999996185303
    vertex -2676.38037109375 -1164.565795898438 12.53999996185303
  endloop
endfacet
facet normal -1.07607305501564e-17 -2.997596991646011e-17 1
  outer loop
    vertex -2606.7978515625 -1180.665405273438 12.53999996185303
    vertex -2676.38037109375 -1164.565795898438 12.53999996185303
    vertex -2703.977294921875 -1180.665405273438 12.53999996185303
  endloop
endfacet
facet normal -1.07607305501564e-17 -2.997596991646011e-17 1
  outer loop
    vertex -2676.38037109375 -1164.565795898438 12.53999996185303
    vertex -2606.7978515625 -1180.665405273438 12.53999996185303
    vertex -2598.490234375 -1164.565795898438 12.53999996185303
  endloop
endfacet
facet normal -1.07607305501564e-17 -2.997596991646011e-17 1
  outer loop
    vertex -2598.490234375 -1164.565795898438 12.53999996185303
    vertex -2606.7978515625 -1180.665405273438 12.53999996185303
    vertex -573.5147094726563 -583.2225341796875 12.53999996185303
  endloop
endfacet
facet normal -1.07607305501564e-17 -2.997596991646011e-17 1
  outer loop
    vertex -2598.490234375 -1164.565795898438 12.53999996185303
    vertex -573.5147094726563 -583.2225341796875 12.53999996185303
    vertex -1871.1962890625 -955.0481567382813 12.53999996185303
  endloop
endfacet
facet normal -1.07607305501564e-17 -2.997596991646011e-17 1
  outer loop
    vertex -2598.490234375 -1164.565795898438 12.53999996185303
    vertex -1871.1962890625 -955.0481567382813 12.53999996185303
    vertex -2158.38037109375 -1036.980224609375 12.53999996185303
  endloop
endfacet
facet normal -1.07607305501564e-17 -2.997596991646011e-17 1
  outer loop
    vertex -2158.38037109375 -1036.980224609375 12.53999996185303
    vertex -1871.1962890625 -955.0481567382813 12.53999996185303
    vertex -2123.66748046875 -1026.588989257813 12.53999996185303
  endloop
endfacet
facet normal -1.07607305501564e-17 -2.997596991646011e-17 1
  outer loop
    vertex -2158.38037109375 -1036.980224609375 12.53999996185303
    vertex -2123.66748046875 -1026.588989257813 12.53999996185303
    vertex -2144.81640625 -1001.751342773438 12.53999996185303
  endloop
endfacet
facet normal -1.07607305501564e-17 -2.997596991646011e-17 1
  outer loop
    vertex -2123.66748046875 -1026.588989257813 12.53999996185303
    vertex -1871.1962890625 -955.0481567382813 12.53999996185303
    vertex -1898.538208007813 -961.068115234375 12.53999996185303
  endloop
endfacet
facet normal -1.07607305501564e-17 -2.997596991646011e-17 1
  outer loop
    vertex -1898.538208007813 -961.068115234375 12.53999996185303
    vertex -1871.1962890625 -955.0481567382813 12.53999996185303
    vertex -1887.816162109375 -934.53369140625 12.53999996185303
  endloop
endfacet
facet normal -1.07607305501564e-17 -2.997596991646011e-17 1
  outer loop
    vertex -1871.1962890625 -955.0481567382813 12.53999996185303
    vertex -573.5147094726563 -583.2225341796875 12.53999996185303
    vertex -576.0773315429688 -574.501220703125 12.53999996185303
  endloop
endfacet
facet normal -1.07607305501564e-17 -2.997596991646011e-17 1
  outer loop
    vertex -1887.816162109375 -934.53369140625 12.53999996185303
    vertex -1871.1962890625 -927.1581420898438 12.53999996185303
    vertex -1766.056396484375 -733.0780029296875 12.53999996185303
  endloop
endfacet
facet normal -1.07607305501564e-17 -2.997596991646011e-17 1
  outer loop
    vertex -1871.1962890625 -927.1581420898438 12.53999996185303
    vertex -1887.816162109375 -934.53369140625 12.53999996185303
    vertex -1871.1962890625 -955.0481567382813 12.53999996185303
  endloop
endfacet
facet normal -1.07607305501564e-17 -2.997596991646011e-17 1
  outer loop
    vertex -1766.056396484375 -733.0780029296875 12.53999996185303
    vertex -1871.1962890625 -927.1581420898438 12.53999996185303
    vertex -1756.752075195313 -737.8063354492188 12.53999996185303
  endloop
endfacet
facet normal -1.07607305501564e-17 -2.997596991646011e-17 1
  outer loop
    vertex -2144.81640625 -1001.751342773438 12.53999996185303
    vertex -2123.66748046875 -994.3790283203125 12.53999996185303
    vertex -2022.377319335938 -801.4375 12.53999996185303
  endloop
endfacet
facet normal -1.07607305501564e-17 -2.997596991646011e-17 1
  outer loop
    vertex -2123.66748046875 -994.3790283203125 12.53999996185303
    vertex -2144.81640625 -1001.751342773438 12.53999996185303
    vertex -2123.66748046875 -1026.588989257813 12.53999996185303
  endloop
endfacet
facet normal -1.07607305501564e-17 -2.997596991646011e-17 1
  outer loop
    vertex -2022.377319335938 -801.4375 12.53999996185303
    vertex -2123.66748046875 -994.3790283203125 12.53999996185303
    vertex -2010.261352539063 -808.8432006835938 12.53999996185303
  endloop
endfacet
facet normal -1.07607305501564e-17 -2.997596991646011e-17 1
  outer loop
    vertex -2831.503173828125 -1027.780151367188 12.53999996185303
    vertex -2811.008544921875 -997.5703735351563 12.53999996185303
    vertex -2837.597900390625 -1022.924499511719 12.53999996185303
  endloop
endfacet
facet normal -1.07607305501564e-17 -2.997596991646011e-17 1
  outer loop
    vertex -2811.008544921875 -997.5703735351563 12.53999996185303
    vertex -2831.503173828125 -1027.780151367188 12.53999996185303
    vertex -2805.68115234375 -1003.157470703125 12.53999996185303
  endloop
endfacet
facet normal -0.8557389378547668 0.5172083377838135 0.01436849124729633
  outer loop
    vertex -1887.816162109375 -934.53369140625 12.53999996185303
    vertex -1766.570190429688 -733.5867919921875 0.2599999904632568
    vertex -1888.329956054688 -935.0425415039063 0.2599999904632568
  endloop
endfacet
facet normal -0.8557389378547668 0.5172083377838135 0.01436849124729633
  outer loop
    vertex -1766.570190429688 -733.5867919921875 0.2599999904632568
    vertex -1887.816162109375 -934.53369140625 12.53999996185303
    vertex -1766.056396484375 -733.0780029296875 12.53999996185303
  endloop
endfacet
endsolid 5293
