<?xml version="1.0" encoding="utf-8"?>
<!-- Generator: Adobe Illustrator 16.0.3, SVG Export Plug-In . SVG Version: 6.00 Build 0)  -->
<!DOCTYPE svg PUBLIC "-//W3C//DTD SVG 1.1//EN" "http://www.w3.org/Graphics/SVG/1.1/DTD/svg11.dtd">
<svg version="1.1" id="Layer_1" xmlns="http://www.w3.org/2000/svg" xmlns:xlink="http://www.w3.org/1999/xlink" x="0px" y="0px"
	 width="100px" height="100px" viewBox="0 0 100 100" enable-background="new 0 0 100 100" xml:space="preserve">
<path fill="#F3CD5B" d="M50,61.998c-6.627,0-12-5.372-12-11.999c0-6.626,5.373-11.998,12-11.998s11.998,5.372,11.998,11.998
	C61.998,56.626,56.627,61.998,50,61.998z"/>
<path fill="#E99600" d="M53.387,43.119c-1.597,0.114-4.086,1.2-3.202,3.363c0.406,0.993,3.397,2.12,4.481,1.916
	c1.112-0.209,2.783-1.67,2.72-3.039C57.298,43.466,55.178,43.056,53.387,43.119"/>
<image display="none" overflow="visible" width="1024" height="1024" xlink:href="T:\Documents\Images\Photos\Photos_2017\17-02-07-08_Lune\traitées\Lune_7348.jpg"  transform="matrix(0.028 0 0 0.028 36.9951 35.6841)">
</image>
<path fill="#E99600" d="M42.421,46.375c-1.452-1.992,2.94-4.406,4.488-2.661c0.636,0.716,0.729,1.637-0.155,2.324
	c-0.971,0.756-3.113,0.889-4.189,0.462"/>
<path fill="#E99600" d="M48.983,47.601l0.914,0.336l0.913,0.685l1.056-1.021l0.962-0.501l-0.723-1.028l0.228-0.533l0.495-0.418
	l0.914,0.267l1.37-0.114l0.875-0.495c0,0-0.207-0.8-0.427-0.99s-0.753-0.875-0.753-0.875l-2.17,0.182l-1.294,0.503
	c0,0-0.685,0.41-0.951,0.376s-0.686-0.224-0.686-0.224l-0.724,1.256l-0.304,0.781v1.351L48.983,47.601z"/>
<polygon fill="#E99600" points="42.129,53.972 42.129,52.449 41.673,51.078 41.901,49.594 42.853,48.338 43.88,47.691 
	45.555,49.061 46.088,50.419 46.48,50.831 47.162,50.419 47.42,51.307 48.067,51.421 48.41,50.66 48.715,49.556 49.797,49.29 
	50.58,49.746 49.654,51.649 48.905,52.259 50.351,53.21 50.58,53.972 52.178,54.352 54.271,55.413 53.814,56.826 54.006,58.082 
	53.033,58.996 51.646,59.643 49.654,58.691 48.752,59.643 47.972,60.023 45.327,59.566 42.548,57.321 41.673,55.837 "/>
</svg>
