<?xml version="1.0" encoding="utf-8"?>
<!-- Generator: Adobe Illustrator 16.0.3, SVG Export Plug-In . SVG Version: 6.00 Build 0)  -->
<!DOCTYPE svg PUBLIC "-//W3C//DTD SVG 1.1//EN" "http://www.w3.org/Graphics/SVG/1.1/DTD/svg11.dtd">
<svg version="1.1" id="Layer_1" xmlns="http://www.w3.org/2000/svg" xmlns:xlink="http://www.w3.org/1999/xlink" x="0px" y="0px"
	 width="100px" height="100px" viewBox="0 0 100 100" enable-background="new 0 0 100 100" xml:space="preserve">
<linearGradient id="SVGID_1_" gradientUnits="userSpaceOnUse" x1="50.7578" y1="35.2134" x2="50.7578" y2="65.5112" gradientTransform="matrix(1 0 0 -1 0.04 99.1543)">
	<stop  offset="0" style="stop-color:#FFFFFF"/>
	<stop  offset="1" style="stop-color:#000000"/>
</linearGradient>
<path fill="url(#SVGID_1_)" d="M36.8,63.48c-4.777-2.769-8-7.922-8-13.84c0-8.835,7.163-15.997,15.998-15.997
	c6.004,0,11.229,3.311,13.966,8.203c0.663-0.113,1.338-0.205,2.032-0.205c6.627,0,11.998,5.372,11.998,12
	c0,5.223-3.34,8.652-7.998,10.301L36.8,63.48z"/>
<linearGradient id="SVGID_2_" gradientUnits="userSpaceOnUse" x1="52.9258" y1="41.52" x2="52.9258" y2="19.144" gradientTransform="matrix(1 0 0 -1 0.04 99.1543)">
	<stop  offset="0" style="stop-color:#E9FFFE"/>
	<stop  offset="0.2346" style="stop-color:#E7FEFD"/>
	<stop  offset="0.3191" style="stop-color:#E0F9F9"/>
	<stop  offset="0.3793" style="stop-color:#D5F0F2"/>
	<stop  offset="0.428" style="stop-color:#C4E4E9"/>
	<stop  offset="0.4692" style="stop-color:#AED5DC"/>
	<stop  offset="0.5" style="stop-color:#98C5D0"/>
	<stop  offset="0.7907" style="stop-color:#86BCC8"/>
	<stop  offset="1" style="stop-color:#7FB8C5"/>
</linearGradient>
<path fill="url(#SVGID_2_)" d="M42.186,58.771c1.067-0.28,2.161,0.358,2.442,1.426l4.073,15.472
	c0.281,1.067-0.356,2.161-1.424,2.442c-1.067,0.281-2.162-0.355-2.443-1.426l-4.072-15.471
	C40.479,60.148,41.118,59.055,42.186,58.771z M50.939,60.604c1.065-0.281,2.162,0.356,2.442,1.426L57.455,77.5
	c0.281,1.068-0.357,2.162-1.426,2.443c-1.067,0.281-2.161-0.356-2.442-1.426l-4.073-15.471
	C49.233,61.979,49.872,60.887,50.939,60.604z M58.654,57.7c1.07-0.281,2.162,0.356,2.443,1.425l4.073,15.471
	c0.281,1.069-0.356,2.162-1.426,2.443c-1.065,0.281-2.161-0.355-2.442-1.426L57.23,60.145C56.949,59.076,57.589,57.98,58.654,57.7z"
	/>
</svg>
