<?xml version="1.0" encoding="utf-8"?>
<!-- Generator: Adobe Illustrator 16.0.3, SVG Export Plug-In . SVG Version: 6.00 Build 0)  -->
<!DOCTYPE svg PUBLIC "-//W3C//DTD SVG 1.1//EN" "http://www.w3.org/Graphics/SVG/1.1/DTD/svg11.dtd">
<svg version="1.1" id="Layer_1" xmlns="http://www.w3.org/2000/svg" xmlns:xlink="http://www.w3.org/1999/xlink" x="0px" y="0px"
	 width="100px" height="100px" viewBox="0 0 100 100" enable-background="new 0 0 100 100" xml:space="preserve">
<linearGradient id="SVGID_1_" gradientUnits="userSpaceOnUse" x1="49.7568" y1="42.2134" x2="49.7568" y2="72.5112" gradientTransform="matrix(1 0 0 -1 0.04 99.1543)">
	<stop  offset="0" style="stop-color:#FFFFFF"/>
	<stop  offset="1" style="stop-color:#000000"/>
</linearGradient>
<path fill="url(#SVGID_1_)" d="M35.8,56.48c-4.777-2.769-8-7.922-8-13.84c0-8.835,7.163-15.997,15.998-15.997
	c6.004,0,11.229,3.311,13.966,8.203c0.663-0.113,1.338-0.205,2.032-0.205c6.627,0,11.998,5.372,11.998,12
	c0,5.223-3.34,8.652-7.998,10.301L35.8,56.48z"/>
<linearGradient id="SVGID_2_" gradientUnits="userSpaceOnUse" x1="52.502" y1="34.3716" x2="49.18" y2="49.1863" gradientTransform="matrix(0.9758 0.2188 0.2188 -0.9758 -6.7043 86.8303)">
	<stop  offset="0" style="stop-color:#E9FFFE"/>
	<stop  offset="0.2346" style="stop-color:#E7FEFD"/>
	<stop  offset="0.3191" style="stop-color:#E0F9F9"/>
	<stop  offset="0.3793" style="stop-color:#D5F0F2"/>
	<stop  offset="0.428" style="stop-color:#C4E4E9"/>
	<stop  offset="0.5498" style="stop-color:#AED5DC"/>
	<stop  offset="0.5914" style="stop-color:#98C5D0"/>
	<stop  offset="0.7316" style="stop-color:#86BCC8"/>
	<stop  offset="1" style="stop-color:#7FB8C5"/>
</linearGradient>
<path fill="url(#SVGID_2_)" d="M43.813,49.599c1.102-0.04,2.03,0.822,2.07,1.925l0,6.531c0.04,1.103-0.82,2.031-1.924,2.071
	c-1.103,0.041-2.032-0.819-2.072-1.926l0.001-6.529C41.846,50.568,42.708,49.641,43.813,49.599z M51.953,53.301
	c1.102-0.041,2.032,0.821,2.072,1.926l0.019,7.479c0.041,1.104-0.821,2.031-1.926,2.072c-1.103,0.04-2.03-0.821-2.07-1.926
	l-0.02-7.479C49.988,54.27,50.85,53.344,51.953,53.301z M60.117,52.156c1.105-0.04,2.031,0.82,2.072,1.925l0.014,5.263
	c0.039,1.104-0.822,2.031-1.927,2.071c-1.101,0.042-2.03-0.819-2.071-1.925l-0.013-5.261C58.152,53.126,59.016,52.196,60.117,52.156
	z"/>
<linearGradient id="SVGID_3_" gradientUnits="userSpaceOnUse" x1="55.4346" y1="21.2949" x2="52.1526" y2="35.9315" gradientTransform="matrix(0.9758 0.2188 0.2188 -0.9758 -6.7043 86.8303)">
	<stop  offset="0" style="stop-color:#E9FFFE"/>
	<stop  offset="0.2346" style="stop-color:#E7FEFD"/>
	<stop  offset="0.3191" style="stop-color:#E0F9F9"/>
	<stop  offset="0.3793" style="stop-color:#D5F0F2"/>
	<stop  offset="0.428" style="stop-color:#C4E4E9"/>
	<stop  offset="0.5498" style="stop-color:#AED5DC"/>
	<stop  offset="0.5914" style="stop-color:#98C5D0"/>
	<stop  offset="0.7316" style="stop-color:#86BCC8"/>
	<stop  offset="1" style="stop-color:#7FB8C5"/>
</linearGradient>
<path fill="url(#SVGID_3_)" d="M43.813,63.183c1.102-0.04,2.03,0.822,2.07,1.925l0,6.531c0.04,1.103-0.82,2.031-1.924,2.071
	c-1.103,0.041-2.032-0.819-2.072-1.926l0.001-6.529C41.846,64.152,42.708,63.225,43.813,63.183z M51.953,66.885
	c1.102-0.041,2.032,0.821,2.072,1.926l0.019,7.297c0.041,1.104-0.821,2.031-1.926,2.072c-1.103,0.04-2.03-0.821-2.07-1.926
	l-0.02-7.297C49.988,67.854,50.85,66.928,51.953,66.885z M60.117,65.74c1.105-0.04,2.031,0.82,2.072,1.925l0.014,5.892
	c0.039,1.104-0.822,2.031-1.927,2.071c-1.101,0.042-2.03-0.819-2.071-1.925l-0.013-5.89C58.152,66.71,59.016,65.78,60.117,65.74z"/>
</svg>
