<?xml version="1.0" encoding="utf-8"?>
<!-- Generator: Adobe Illustrator 16.0.3, SVG Export Plug-In . SVG Version: 6.00 Build 0)  -->
<!DOCTYPE svg PUBLIC "-//W3C//DTD SVG 1.1//EN" "http://www.w3.org/Graphics/SVG/1.1/DTD/svg11.dtd">
<svg version="1.1" id="Layer_1" xmlns="http://www.w3.org/2000/svg" xmlns:xlink="http://www.w3.org/1999/xlink" x="0px" y="0px"
	  width="100px" height="100px" viewBox="0 0 100 100" enable-background="new 0 0 100 100" xml:space="preserve">
<path fill="#F7C90B" d="M77.303,49.702h-4c-1.104,0-2-0.895-2-2c0-1.104,0.896-2,2-2h4c1.104,0,2,0.896,2,2
	C79.303,48.808,78.408,49.702,77.303,49.702z M69.447,36.39c-0.781,0.781-2.049,0.781-2.828,0c-0.781-0.78-0.781-2.047,0-2.828
	l2.828-2.828c0.779-0.78,2.047-0.78,2.826,0c0.781,0.781,0.781,2.048,0,2.828L69.447,36.39z M55.272,47.908
	c-1.6,0-9.432-7.287-9.573-7.467c2.195-2.827,5.749-4.737,9.606-4.737c6.627,0,11.998,5.371,11.998,11.998
	c0,1.516-0.291,2.96-0.805,4.296l0,0 M55.305,39.704c-2.213,0-4.459,1.081-5.907,2.533c2.34,1.435,4.966,3.368,6.31,5.771
	c0.664-0.113,0.899-0.305,1.597-0.305c2.125,0,4.119,0.559,5.852,1.527l0,0c0.096-0.494,0.148-1.004,0.148-1.527
	C63.305,43.284,59.723,39.704,55.305,39.704z M55.305,31.704c-1.104,0-2-0.895-2-2v-3.999c0-1.104,0.896-1.999,2-1.999
	c1.105,0,2,0.895,2,1.999v3.999C57.305,30.81,56.41,31.704,55.305,31.704z M41.164,36.39l-2.828-2.828
	c-0.781-0.78-0.781-2.047,0-2.828c0.781-0.78,2.047-0.78,2.828,0l2.828,2.828c0.781,0.781,0.781,2.048,0,2.828
	C43.211,37.17,41.946,37.17,41.164,36.39z"/>
<path fill="#383838" d="M63.714,49.039l3.311,2.933l0,0c1.748,2.084,2.807,4.771,2.807,7.703l0,0
	c0,6.627-5.371,11.998-11.998,11.998c-0.268,0-0.615,0-1,0c0-1.371-0.32-2.742-0.943-3.998c0.777,0,1.451,0,1.943,0
	c4.418,0,7.998-3.582,7.998-8s-3.58-7.998-7.998-7.998c-1.602,0-3.084,0.48-4.335,1.291c-1.23-5.318-5.973-9.291-11.664-9.291
	c-6.627,0-11.998,5.373-11.998,11.998c0,1.406,0.254,2.748,0.697,4h-0.005c1.437,4.053,4.987,7.104,9.331,7.824
	c-0.637,1.215-0.969,2.547-1.012,3.887c-6.096-1.151-10.964-5.76-12.498-11.711h0.011c-0.33-1.279-0.524-2.615-0.524-4
	c0-8.834,7.162-15.997,15.998-15.997c1.572,0,5.283,1.057,7.086,2.102s6.539,4.816,6.879,6.102c0.837-0.269,1.336-0.205,2.033-0.205
	C59.958,47.677,61.981,48.071,63.714,49.039L63.714,49.039"/>
<path fill="#1E6BC1" d="M49.017,63.197l3.536,3.535c1.951,1.951,1.951,5.117,0,7.067c-1.953,1.953-5.119,1.953-7.071,0
	c-1.952-1.95-1.952-5.116,0-7.067L49.017,63.197z"/>
</svg>
