solid baseNew
facet normal 1.000000e+00 0.000000e+00 0.000000e+00
    outer loop
vertex 171.93630056143581 93.50844620807099 2.500008
vertex 179.1952297114007 17.002048367132943 2.500008
vertex 179.1952297114007 17.002048367132943 7.86805E-6
    endloop
  endfacet
  facet normal 1.000000e+00 0.000000e+00 0.000000e+00
    outer loop
vertex 179.1952297114007 17.002048367132943 7.86805E-6
vertex 171.93630056143581 93.50844620807099 7.86805E-6
vertex 171.93630056143581 93.50844620807099 2.500008
    endloop
  endfacet
  facet normal 0.000000e+00 1.000000e+00 0.000000e+00
    outer loop
vertex 165.45152385689642 92.89317041441173 2.500008
vertex 171.93630056143581 93.50844620807099 2.500008
vertex 171.93630056143581 93.50844620807099 7.86805E-6
    endloop
  endfacet
  facet normal -0.000000e+00 1.000000e+00 0.000000e+00
    outer loop
vertex 171.93630056143581 93.50844620807099 7.86805E-6
vertex 165.45152385689642 92.89317041441173 7.86805E-6
vertex 165.45152385689642 92.89317041441173 2.500008
    endloop
  endfacet
  facet normal 1.000000e+00 0.000000e+00 0.000000e+00
    outer loop
vertex 162.96733473425152 119.07559448864582 2.500008
vertex 165.45152385689642 92.89317041441173 2.500008
vertex 165.45152385689642 92.89317041441173 7.86805E-6
    endloop
  endfacet
  facet normal 1.000000e+00 0.000000e+00 0.000000e+00
    outer loop
vertex 165.45152385689642 92.89317041441173 7.86805E-6
vertex 162.96733473425152 119.07559448864582 7.86805E-6
vertex 162.96733473425152 119.07559448864582 2.500008
    endloop
  endfacet
  facet normal 0.000000e+00 -1.000000e+00 0.000000e+00
    outer loop
vertex 169.45211143879092 119.69087028230508 2.500008
vertex 162.96733473425152 119.07559448864582 2.500008
vertex 162.96733473425152 119.07559448864582 7.86805E-6
    endloop
  endfacet
  facet normal -0.000000e+00 -1.000000e+00 0.000000e+00
    outer loop
vertex 162.96733473425152 119.07559448864582 7.86805E-6
vertex 169.45211143879092 119.69087028230508 7.86805E-6
vertex 169.45211143879092 119.69087028230508 2.500008
    endloop
  endfacet
  facet normal 1.000000e+00 0.000000e+00 0.000000e+00
    outer loop
vertex 162.19318134426777 196.19727807853366 2.500008
vertex 169.45211143879092 119.69087028230508 2.500008
vertex 169.45211143879092 119.69087028230508 7.86805E-6
    endloop
  endfacet
  facet normal 1.000000e+00 0.000000e+00 0.000000e+00
    outer loop
vertex 169.45211143879092 119.69087028230508 7.86805E-6
vertex 162.19318134426777 196.19727807853366 7.86805E-6
vertex 162.19318134426777 196.19727807853366 2.500008
    endloop
  endfacet
  facet normal -8.676759e-04 9.999996e-01 0.000000e+00
    outer loop
vertex 85.69307375151746 188.8719461961119 2.500008
vertex 162.19318134426777 196.19727807853366 2.500008
vertex 162.19318134426777 196.19727807853366 7.86805E-6
    endloop
  endfacet
  facet normal -8.676759e-04 9.999996e-01 0.000000e+00
    outer loop
vertex 162.19318134426777 196.19727807853366 7.86805E-6
vertex 85.69307375151746 188.8719461961119 7.86805E-6
vertex 85.69307375151746 188.8719461961119 2.500008
    endloop
  endfacet
  facet normal -1.000000e+00 0.000000e+00 0.000000e+00
    outer loop
vertex 86.33537335649804 182.10234862923676 2.500008
vertex 85.69307375151746 188.8719461961119 2.500008
vertex 85.69307375151746 188.8719461961119 7.86805E-6
    endloop
  endfacet
  facet normal -1.000000e+00 0.000000e+00 0.000000e+00
    outer loop
vertex 85.69307375151746 188.8719461961119 7.86805E-6
vertex 86.33537335649804 182.10234862923676 7.86805E-6
vertex 86.33537335649804 182.10234862923676 2.500008
    endloop
  endfacet
  facet normal 0.000000e+00 1.000000e+00 0.000000e+00
    outer loop
vertex 60.15294928226395 179.61815950659187 2.500008
vertex 86.33537335649804 182.10234862923676 2.500008
vertex 86.33537335649804 182.10234862923676 7.86805E-6
    endloop
  endfacet
  facet normal -0.000000e+00 1.000000e+00 0.000000e+00
    outer loop
vertex 86.33537335649804 182.10234862923676 7.86805E-6
vertex 60.15294928226395 179.61815950659187 7.86805E-6
vertex 60.15294928226395 179.61815950659187 2.500008
    endloop
  endfacet
  facet normal 1.000000e+00 0.000000e+00 0.000000e+00
    outer loop
vertex 59.51064967728337 186.38775707346701 2.500008
vertex 60.15294928226395 179.61815950659187 2.500008
vertex 60.15294928226395 179.61815950659187 7.86805E-6
    endloop
  endfacet
  facet normal 1.000000e+00 0.000000e+00 0.000000e+00
    outer loop
vertex 60.15294928226395 179.61815950659187 7.86805E-6
vertex 59.51064967728337 186.38775707346701 7.86805E-6
vertex 59.51064967728337 186.38775707346701 2.500008
    endloop
  endfacet
  facet normal 8.676759e-04 9.999996e-01 0.000000e+00
    outer loop
vertex -17.002048367132943 179.1952297114007 2.500008
vertex 59.51064967728337 186.38775707346701 2.500008
vertex 59.51064967728337 186.38775707346701 7.86805E-6
    endloop
  endfacet
  facet normal 8.676759e-04 9.999996e-01 0.000000e+00
    outer loop
vertex 59.51064967728337 186.38775707346701 7.86805E-6
vertex -17.002048367132943 179.1952297114007 7.86805E-6
vertex -17.002048367132943 179.1952297114007 2.500008
    endloop
  endfacet
  facet normal -1.000000e+00 0.000000e+00 0.000000e+00
    outer loop
vertex -9.743118272609795 102.68882191517214 2.500008
vertex -17.002048367132943 179.1952297114007 2.500008
vertex -17.002048367132943 179.1952297114007 7.86805E-6
    endloop
  endfacet
  facet normal -1.000000e+00 0.000000e+00 0.000000e+00
    outer loop
vertex -17.002048367132943 179.1952297114007 7.86805E-6
vertex -9.743118272609795 102.68882191517214 7.86805E-6
vertex -9.743118272609795 102.68882191517214 2.500008
    endloop
  endfacet
  facet normal 0.000000e+00 -1.000000e+00 0.000000e+00
    outer loop
vertex -3.258367451825791 103.30409525297998 2.500008
vertex -9.743118272609795 102.68882191517214 2.500008
vertex -9.743118272609795 102.68882191517214 7.86805E-6
    endloop
  endfacet
  facet normal -0.000000e+00 -1.000000e+00 0.000000e+00
    outer loop
vertex -9.743118272609795 102.68882191517214 7.86805E-6
vertex -3.258367451825791 103.30409525297998 7.86805E-6
vertex -3.258367451825791 103.30409525297998 2.500008
    endloop
  endfacet
  facet normal -1.000000e+00 0.000000e+00 0.000000e+00
    outer loop
vertex -0.7741783291809021 77.12167117874588 2.500008
vertex -3.258367451825791 103.30409525297998 2.500008
vertex -3.258367451825791 103.30409525297998 7.86805E-6
    endloop
  endfacet
  facet normal -1.000000e+00 0.000000e+00 0.000000e+00
    outer loop
vertex -3.258367451825791 103.30409525297998 7.86805E-6
vertex -0.7741783291809021 77.12167117874588 7.86805E-6
vertex -0.7741783291809021 77.12167117874588 2.500008
    endloop
  endfacet
  facet normal 0.000000e+00 1.000000e+00 0.000000e+00
    outer loop
vertex -7.2589291499649065 76.50639784093805 2.500008
vertex -0.7741783291809021 77.12167117874588 2.500008
vertex -0.7741783291809021 77.12167117874588 7.86805E-6
    endloop
  endfacet
  facet normal -0.000000e+00 1.000000e+00 0.000000e+00
    outer loop
vertex -0.7741783291809021 77.12167117874588 7.86805E-6
vertex -7.2589291499649065 76.50639784093805 7.86805E-6
vertex -7.2589291499649065 76.50639784093805 2.500008
    endloop
  endfacet
  facet normal -1.000000e+00 0.000000e+00 0.000000e+00
    outer loop
vertex 0.0 0.0 2.500008
vertex -7.2589291499649065 76.50639784093805 2.500008
vertex -7.2589291499649065 76.50639784093805 7.86805E-6
    endloop
  endfacet
  facet normal -1.000000e+00 0.000000e+00 0.000000e+00
    outer loop
vertex -7.2589291499649065 76.50639784093805 7.86805E-6
vertex 0.0 0.0 7.86805E-6
vertex 0.0 0.0 2.500008
    endloop
  endfacet
  facet normal 8.676759e-04 -9.999996e-01 0.000000e+00
    outer loop
vertex 76.50009944062147 7.32531193321388 2.500008
vertex 0.0 0.0 2.500008
vertex 0.0 0.0 7.86805E-6
    endloop
  endfacet
  facet normal 8.676759e-04 -9.999996e-01 0.000000e+00
    outer loop
vertex 0.0 0.0 7.86805E-6
vertex 76.50009944062147 7.32531193321388 7.86805E-6
vertex 76.50009944062147 7.32531193321388 2.500008
    endloop
  endfacet
  facet normal 1.000000e+00 0.000000e+00 0.000000e+00
    outer loop
vertex 75.85780247190294 14.094881714873123 2.500008
vertex 76.50009944062147 7.32531193321388 2.500008
vertex 76.50009944062147 7.32531193321388 7.86805E-6
    endloop
  endfacet
  facet normal 1.000000e+00 0.000000e+00 0.000000e+00
    outer loop
vertex 76.50009944062147 7.32531193321388 7.86805E-6
vertex 75.85780247190294 14.094881714873123 7.86805E-6
vertex 75.85780247190294 14.094881714873123 2.500008
    endloop
  endfacet
  facet normal 0.000000e+00 -1.000000e+00 0.000000e+00
    outer loop
vertex 102.04022654613703 16.57907083751801 2.500008
vertex 75.85780247190294 14.094881714873123 2.500008
vertex 75.85780247190294 14.094881714873123 7.86805E-6
    endloop
  endfacet
  facet normal -0.000000e+00 -1.000000e+00 0.000000e+00
    outer loop
vertex 75.85780247190294 14.094881714873123 7.86805E-6
vertex 102.04022654613703 16.57907083751801 7.86805E-6
vertex 102.04022654613703 16.57907083751801 2.500008
    endloop
  endfacet
  facet normal -1.000000e+00 0.000000e+00 0.000000e+00
    outer loop
vertex 102.68252351485556 9.80950105585877 2.500008
vertex 102.04022654613703 16.57907083751801 2.500008
vertex 102.04022654613703 16.57907083751801 7.86805E-6
    endloop
  endfacet
  facet normal -1.000000e+00 0.000000e+00 0.000000e+00
    outer loop
vertex 102.04022654613703 16.57907083751801 7.86805E-6
vertex 102.68252351485556 9.80950105585877 7.86805E-6
vertex 102.68252351485556 9.80950105585877 2.500008
    endloop
  endfacet
  facet normal -8.676759e-04 -9.999996e-01 0.000000e+00
    outer loop
vertex 179.1952297114007 17.002048367132943 2.500008
vertex 102.68252351485556 9.80950105585877 2.500008
vertex 102.68252351485556 9.80950105585877 7.86805E-6
    endloop
  endfacet
  facet normal -8.676759e-04 -9.999996e-01 0.000000e+00
    outer loop
vertex 102.68252351485556 9.80950105585877 7.86805E-6
vertex 179.1952297114007 17.002048367132943 7.86805E-6
vertex 179.1952297114007 17.002048367132943 2.500008
    endloop
  endfacet
  facet normal 0.000000e+00 0.000000e+00 -1.000000e+00
    outer loop
vertex -3.258367451825791 103.30409525297998 7.86805E-6
vertex -9.743118272609795 102.68882191517214 7.86805E-6
vertex -17.002048367132943 179.1952297114007 7.86805E-6
    endloop
  endfacet
  facet normal 0.000000e+00 0.000000e+00 -1.000000e+00
    outer loop
vertex -17.002048367132943 179.1952297114007 7.86805E-6
vertex 59.51064967728337 186.38775707346701 7.86805E-6
vertex 60.15294928226395 179.61815950659187 7.86805E-6
    endloop
  endfacet
  facet normal 0.000000e+00 -0.000000e+00 -1.000000e+00
    outer loop
vertex -3.258367451825791 103.30409525297998 7.86805E-6
vertex -17.002048367132943 179.1952297114007 7.86805E-6
vertex 60.15294928226395 179.61815950659187 7.86805E-6
    endloop
  endfacet
  facet normal 0.000000e+00 -0.000000e+00 -1.000000e+00
    outer loop
vertex 86.33537335649804 182.10234862923676 7.86805E-6
vertex 85.69307375151746 188.8719461961119 7.86805E-6
vertex 162.19318134426777 196.19727807853366 7.86805E-6
    endloop
  endfacet
  facet normal 0.000000e+00 0.000000e+00 -1.000000e+00
    outer loop
vertex 162.19318134426777 196.19727807853366 7.86805E-6
vertex 169.45211143879092 119.69087028230508 7.86805E-6
vertex 162.96733473425152 119.07559448864582 7.86805E-6
    endloop
  endfacet
  facet normal -0.000000e+00 0.000000e+00 -1.000000e+00
    outer loop
vertex 86.33537335649804 182.10234862923676 7.86805E-6
vertex 162.19318134426777 196.19727807853366 7.86805E-6
vertex 162.96733473425152 119.07559448864582 7.86805E-6
    endloop
  endfacet
  facet normal 0.000000e+00 0.000000e+00 -1.000000e+00
    outer loop
vertex 60.15294928226395 179.61815950659187 7.86805E-6
vertex 86.33537335649804 182.10234862923676 7.86805E-6
vertex 162.96733473425152 119.07559448864582 7.86805E-6
    endloop
  endfacet
  facet normal 0.000000e+00 0.000000e+00 -1.000000e+00
    outer loop
vertex 165.45152385689642 92.89317041441173 7.86805E-6
vertex 171.93630056143581 93.50844620807099 7.86805E-6
vertex 179.1952297114007 17.002048367132943 7.86805E-6
    endloop
  endfacet
  facet normal 0.000000e+00 0.000000e+00 -1.000000e+00
    outer loop
vertex 179.1952297114007 17.002048367132943 7.86805E-6
vertex 102.68252351485556 9.80950105585877 7.86805E-6
vertex 102.04022654613703 16.57907083751801 7.86805E-6
    endloop
  endfacet
  facet normal 0.000000e+00 0.000000e+00 -1.000000e+00
    outer loop
vertex 165.45152385689642 92.89317041441173 7.86805E-6
vertex 179.1952297114007 17.002048367132943 7.86805E-6
vertex 102.04022654613703 16.57907083751801 7.86805E-6
    endloop
  endfacet
  facet normal 0.000000e+00 0.000000e+00 -1.000000e+00
    outer loop
vertex 162.96733473425152 119.07559448864582 7.86805E-6
vertex 165.45152385689642 92.89317041441173 7.86805E-6
vertex 102.04022654613703 16.57907083751801 7.86805E-6
    endloop
  endfacet
  facet normal 0.000000e+00 0.000000e+00 -1.000000e+00
    outer loop
vertex 75.85780247190294 14.094881714873123 7.86805E-6
vertex 76.50009944062147 7.32531193321388 7.86805E-6
vertex 0.0 0.0 7.86805E-6
    endloop
  endfacet
  facet normal 0.000000e+00 -0.000000e+00 -1.000000e+00
    outer loop
vertex 0.0 0.0 7.86805E-6
vertex -7.2589291499649065 76.50639784093805 7.86805E-6
vertex -0.7741783291809021 77.12167117874588 7.86805E-6
    endloop
  endfacet
  facet normal 0.000000e+00 0.000000e+00 -1.000000e+00
    outer loop
vertex 75.85780247190294 14.094881714873123 7.86805E-6
vertex 0.0 0.0 7.86805E-6
vertex -0.7741783291809021 77.12167117874588 7.86805E-6
    endloop
  endfacet
  facet normal 0.000000e+00 0.000000e+00 -1.000000e+00
    outer loop
vertex 102.04022654613703 16.57907083751801 7.86805E-6
vertex 75.85780247190294 14.094881714873123 7.86805E-6
vertex -0.7741783291809021 77.12167117874588 7.86805E-6
    endloop
  endfacet
  facet normal 0.000000e+00 0.000000e+00 -1.000000e+00
    outer loop
vertex 162.96733473425152 119.07559448864582 7.86805E-6
vertex 102.04022654613703 16.57907083751801 7.86805E-6
vertex -0.7741783291809021 77.12167117874588 7.86805E-6
    endloop
  endfacet
  facet normal 0.000000e+00 0.000000e+00 -1.000000e+00
    outer loop
vertex 60.15294928226395 179.61815950659187 7.86805E-6
vertex 162.96733473425152 119.07559448864582 7.86805E-6
vertex -0.7741783291809021 77.12167117874588 7.86805E-6
    endloop
  endfacet
  facet normal -0.000000e+00 0.000000e+00 -1.000000e+00
    outer loop
vertex -3.258367451825791 103.30409525297998 7.86805E-6
vertex 60.15294928226395 179.61815950659187 7.86805E-6
vertex -0.7741783291809021 77.12167117874588 7.86805E-6
    endloop
  endfacet
  facet normal 0.000000e+00 0.000000e+00 1.000000e+00
    outer loop
vertex -0.7741783291809021 77.12167117874588 2.500008
vertex -7.2589291499649065 76.50639784093805 2.500008
vertex 0.0 0.0 2.500008
    endloop
  endfacet
  facet normal 0.000000e+00 0.000000e+00 1.000000e+00
    outer loop
vertex 0.0 0.0 2.500008
vertex 76.50009944062147 7.32531193321388 2.500008
vertex 75.85780247190294 14.094881714873123 2.500008
    endloop
  endfacet
  facet normal 0.000000e+00 -0.000000e+00 1.000000e+00
    outer loop
vertex -0.7741783291809021 77.12167117874588 2.500008
vertex 0.0 0.0 2.500008
vertex 75.85780247190294 14.094881714873123 2.500008
    endloop
  endfacet
  facet normal 0.000000e+00 -0.000000e+00 1.000000e+00
    outer loop
vertex -3.258367451825791 103.30409525297998 2.500008
vertex -0.7741783291809021 77.12167117874588 2.500008
vertex 75.85780247190294 14.094881714873123 2.500008
    endloop
  endfacet
  facet normal 0.000000e+00 -0.000000e+00 1.000000e+00
    outer loop
vertex 102.04022654613703 16.57907083751801 2.500008
vertex 102.68252351485556 9.80950105585877 2.500008
vertex 179.1952297114007 17.002048367132943 2.500008
    endloop
  endfacet
  facet normal 0.000000e+00 0.000000e+00 1.000000e+00
    outer loop
vertex 179.1952297114007 17.002048367132943 2.500008
vertex 171.93630056143581 93.50844620807099 2.500008
vertex 165.45152385689642 92.89317041441173 2.500008
    endloop
  endfacet
  facet normal 0.000000e+00 0.000000e+00 1.000000e+00
    outer loop
vertex 102.04022654613703 16.57907083751801 2.500008
vertex 179.1952297114007 17.002048367132943 2.500008
vertex 165.45152385689642 92.89317041441173 2.500008
    endloop
  endfacet
  facet normal 0.000000e+00 0.000000e+00 1.000000e+00
    outer loop
vertex 75.85780247190294 14.094881714873123 2.500008
vertex 102.04022654613703 16.57907083751801 2.500008
vertex 165.45152385689642 92.89317041441173 2.500008
    endloop
  endfacet
  facet normal 0.000000e+00 0.000000e+00 1.000000e+00
    outer loop
vertex -3.258367451825791 103.30409525297998 2.500008
vertex 75.85780247190294 14.094881714873123 2.500008
vertex 165.45152385689642 92.89317041441173 2.500008
    endloop
  endfacet
  facet normal 0.000000e+00 0.000000e+00 1.000000e+00
    outer loop
vertex 162.96733473425152 119.07559448864582 2.500008
vertex 169.45211143879092 119.69087028230508 2.500008
vertex 162.19318134426777 196.19727807853366 2.500008
    endloop
  endfacet
  facet normal 0.000000e+00 0.000000e+00 1.000000e+00
    outer loop
vertex 162.19318134426777 196.19727807853366 2.500008
vertex 85.69307375151746 188.8719461961119 2.500008
vertex 86.33537335649804 182.10234862923676 2.500008
    endloop
  endfacet
  facet normal 0.000000e+00 0.000000e+00 1.000000e+00
    outer loop
vertex 162.96733473425152 119.07559448864582 2.500008
vertex 162.19318134426777 196.19727807853366 2.500008
vertex 86.33537335649804 182.10234862923676 2.500008
    endloop
  endfacet
  facet normal 0.000000e+00 0.000000e+00 1.000000e+00
    outer loop
vertex 165.45152385689642 92.89317041441173 2.500008
vertex 162.96733473425152 119.07559448864582 2.500008
vertex 86.33537335649804 182.10234862923676 2.500008
    endloop
  endfacet
  facet normal 0.000000e+00 0.000000e+00 1.000000e+00
    outer loop
vertex -3.258367451825791 103.30409525297998 2.500008
vertex 165.45152385689642 92.89317041441173 2.500008
vertex 86.33537335649804 182.10234862923676 2.500008
    endloop
  endfacet
  facet normal 0.000000e+00 0.000000e+00 1.000000e+00
    outer loop
vertex -3.258367451825791 103.30409525297998 2.500008
vertex 86.33537335649804 182.10234862923676 2.500008
vertex 60.15294928226395 179.61815950659187 2.500008
    endloop
  endfacet
  facet normal 0.000000e+00 0.000000e+00 1.000000e+00
    outer loop
vertex 60.15294928226395 179.61815950659187 2.500008
vertex 59.51064967728337 186.38775707346701 2.500008
vertex -17.002048367132943 179.1952297114007 2.500008
    endloop
  endfacet
  facet normal 0.000000e+00 0.000000e+00 1.000000e+00
    outer loop
vertex -3.258367451825791 103.30409525297998 2.500008
vertex 60.15294928226395 179.61815950659187 2.500008
vertex -17.002048367132943 179.1952297114007 2.500008
    endloop
  endfacet
  facet normal -0.000000e+00 0.000000e+00 1.000000e+00
    outer loop
vertex -3.258367451825791 103.30409525297998 2.500008
vertex -17.002048367132943 179.1952297114007 2.500008
vertex -9.743118272609795 102.68882191517214 2.500008
    endloop
  endfacet
  facet normal 0.000000e+00 -0.000000e+00 -1.000000e+00
    outer loop
vertex 0.0 0.0 2.500008
vertex -17.002048367132943 179.1952297114007 2.500008
vertex 162.19318134426777 196.19727807853366 2.500008
    endloop
  endfacet
  facet normal 0.000000e+00 0.000000e+00 -1.000000e+00
    outer loop
vertex 162.19318134426777 196.19727807853366 2.500008
vertex 179.1952297114007 17.002048367132943 2.500008
vertex 0.0 0.0 2.500008
    endloop
  endfacet
  facet normal 0.000000e+00 0.000000e+00 1.000000e+00
    outer loop
vertex 0.0 0.0 4.000008
vertex 179.1952297114007 17.002048367132943 4.000008
vertex 162.19318134426777 196.19727807853366 4.000008
    endloop
  endfacet
  facet normal 0.000000e+00 0.000000e+00 1.000000e+00
    outer loop
vertex 162.19318134426777 196.19727807853366 4.000008
vertex -17.002048367132943 179.1952297114007 4.000008
vertex 0.0 0.0 4.000008
    endloop
  endfacet
  facet normal -0.000000e+00 -1.000000e+00 0.000000e+00
    outer loop
vertex 0.0 0.0 2.500008
vertex 179.1952297114007 17.002048367132943 2.500008
vertex 179.1952297114007 17.002048367132943 4.000008
    endloop
  endfacet
  facet normal 0.000000e+00 -1.000000e+00 0.000000e+00
    outer loop
vertex 179.1952297114007 17.002048367132943 4.000008
vertex 0.0 0.0 4.000008
vertex 0.0 0.0 2.500008
    endloop
  endfacet
  facet normal 1.000000e+00 0.000000e+00 0.000000e+00
    outer loop
vertex 179.1952297114007 17.002048367132943 2.500008
vertex 162.19318134426777 196.19727807853366 2.500008
vertex 162.19318134426777 196.19727807853366 4.000008
    endloop
  endfacet
  facet normal 1.000000e+00 0.000000e+00 0.000000e+00
    outer loop
vertex 162.19318134426777 196.19727807853366 4.000008
vertex 179.1952297114007 17.002048367132943 4.000008
vertex 179.1952297114007 17.002048367132943 2.500008
    endloop
  endfacet
  facet normal -0.000000e+00 1.000000e+00 0.000000e+00
    outer loop
vertex 162.19318134426777 196.19727807853366 2.500008
vertex -17.002048367132943 179.1952297114007 2.500008
vertex -17.002048367132943 179.1952297114007 4.000008
    endloop
  endfacet
  facet normal 0.000000e+00 1.000000e+00 0.000000e+00
    outer loop
vertex -17.002048367132943 179.1952297114007 4.000008
vertex 162.19318134426777 196.19727807853366 4.000008
vertex 162.19318134426777 196.19727807853366 2.500008
    endloop
  endfacet
  facet normal -1.000000e+00 0.000000e+00 0.000000e+00
    outer loop
vertex -17.002048367132943 179.1952297114007 2.500008
vertex 0.0 0.0 2.500008
vertex 0.0 0.0 4.000008
    endloop
  endfacet
  facet normal -1.000000e+00 0.000000e+00 0.000000e+00
    outer loop
vertex 0.0 0.0 4.000008
vertex -17.002048367132943 179.1952297114007 4.000008
vertex -17.002048367132943 179.1952297114007 2.500008
    endloop
  endfacet
endsolid baseNew
