solid socle1mm
  facet normal 0.000000e+00 -0.000000e+00 -1.000000e+00
    outer loop
      vertex 0.000000e+00 0.000000e+00 7.868050e-06
      vertex 0.000000e+00 1.800000e+02 7.868050e-06
      vertex 1.800000e+02 1.800000e+02 7.868050e-06
    endloop
  endfacet
  facet normal 0.000000e+00 0.000000e+00 -1.000000e+00
    outer loop
      vertex 1.800000e+02 1.800000e+02 7.868050e-06
      vertex 1.800000e+02 0.000000e+00 7.868050e-06
      vertex 0.000000e+00 0.000000e+00 7.868050e-06
    endloop
  endfacet
  facet normal 0.000000e+00 0.000000e+00 1.000000e+00
    outer loop
      vertex 0.000000e+00 0.000000e+00 1.000008e+00
      vertex 1.800000e+02 0.000000e+00 1.000008e+00
      vertex 1.800000e+02 1.800000e+02 1.000008e+00
    endloop
  endfacet
  facet normal 0.000000e+00 0.000000e+00 1.000000e+00
    outer loop
      vertex 1.800000e+02 1.800000e+02 1.000008e+00
      vertex 0.000000e+00 1.800000e+02 1.000008e+00
      vertex 0.000000e+00 0.000000e+00 1.000008e+00
    endloop
  endfacet
  facet normal -0.000000e+00 -1.000000e+00 0.000000e+00
    outer loop
      vertex 0.000000e+00 0.000000e+00 7.868050e-06
      vertex 1.800000e+02 0.000000e+00 7.868050e-06
      vertex 1.800000e+02 0.000000e+00 1.000008e+00
    endloop
  endfacet
  facet normal 0.000000e+00 -1.000000e+00 0.000000e+00
    outer loop
      vertex 1.800000e+02 0.000000e+00 1.000008e+00
      vertex 0.000000e+00 0.000000e+00 1.000008e+00
      vertex 0.000000e+00 0.000000e+00 7.868050e-06
    endloop
  endfacet
  facet normal 1.000000e+00 0.000000e+00 0.000000e+00
    outer loop
      vertex 1.800000e+02 0.000000e+00 7.868050e-06
      vertex 1.800000e+02 1.800000e+02 7.868050e-06
      vertex 1.800000e+02 1.800000e+02 1.000008e+00
    endloop
  endfacet
  facet normal 1.000000e+00 0.000000e+00 0.000000e+00
    outer loop
      vertex 1.800000e+02 1.800000e+02 1.000008e+00
      vertex 1.800000e+02 0.000000e+00 1.000008e+00
      vertex 1.800000e+02 0.000000e+00 7.868050e-06
    endloop
  endfacet
  facet normal -0.000000e+00 1.000000e+00 0.000000e+00
    outer loop
      vertex 1.800000e+02 1.800000e+02 7.868050e-06
      vertex 0.000000e+00 1.800000e+02 7.868050e-06
      vertex 0.000000e+00 1.800000e+02 1.000008e+00
    endloop
  endfacet
  facet normal 0.000000e+00 1.000000e+00 0.000000e+00
    outer loop
      vertex 0.000000e+00 1.800000e+02 1.000008e+00
      vertex 1.800000e+02 1.800000e+02 1.000008e+00
      vertex 1.800000e+02 1.800000e+02 7.868050e-06
    endloop
  endfacet
  facet normal -1.000000e+00 0.000000e+00 0.000000e+00
    outer loop
      vertex 0.000000e+00 1.800000e+02 7.868050e-06
      vertex 0.000000e+00 0.000000e+00 7.868050e-06
      vertex 0.000000e+00 0.000000e+00 1.000008e+00
    endloop
  endfacet
  facet normal -1.000000e+00 0.000000e+00 0.000000e+00
    outer loop
      vertex 0.000000e+00 0.000000e+00 1.000008e+00
      vertex 0.000000e+00 1.800000e+02 1.000008e+00
      vertex 0.000000e+00 1.800000e+02 7.868050e-06
    endloop
  endfacet
endsolid socle1mm
