solid Objet01
  facet normal 0.000000e+00 1.000000e+00 0.000000e+00
    outer loop
      vertex 1.800000e+02 7.659999e+01 7.867813e-06
      vertex 1.734861e+02 7.659999e+01 2.500008e+00
      vertex 1.800000e+02 7.659999e+01 2.500008e+00
    endloop
  endfacet
  facet normal 1.000000e+00 0.000000e+00 0.000000e+00
    outer loop
      vertex 1.734861e+02 7.659999e+01 7.867813e-06
      vertex 1.734861e+02 1.034000e+02 2.500008e+00
      vertex 1.734861e+02 7.659999e+01 2.500008e+00
    endloop
  endfacet
  facet normal 0.000000e+00 -1.000000e+00 -0.000000e+00
    outer loop
      vertex 1.734861e+02 1.034000e+02 7.867813e-06
      vertex 1.800000e+02 1.034000e+02 2.500008e+00
      vertex 1.734861e+02 1.034000e+02 2.500008e+00
    endloop
  endfacet
  facet normal -8.705077e-04 9.999996e-01 0.000000e+00
    outer loop
      vertex 1.800000e+02 1.800000e+02 7.868050e-06
      vertex 1.034000e+02 1.799333e+02 2.500008e+00
      vertex 1.800000e+02 1.800000e+02 2.500008e+00
    endloop
  endfacet
  facet normal -1.000000e+00 0.000000e+00 0.000000e+00
    outer loop
      vertex 1.034000e+02 1.799333e+02 7.867813e-06
      vertex 1.034000e+02 1.731333e+02 2.500008e+00
      vertex 1.034000e+02 1.799333e+02 2.500008e+00
    endloop
  endfacet
  facet normal 0.000000e+00 1.000000e+00 0.000000e+00
    outer loop
      vertex 1.034000e+02 1.731333e+02 7.867813e-06
      vertex 7.659999e+01 1.731333e+02 2.500008e+00
      vertex 1.034000e+02 1.731333e+02 2.500008e+00
    endloop
  endfacet
  facet normal 1.000000e+00 0.000000e+00 0.000000e+00
    outer loop
      vertex 7.659999e+01 1.731333e+02 7.867813e-06
      vertex 7.659999e+01 1.799333e+02 2.500008e+00
      vertex 7.659999e+01 1.731333e+02 2.500008e+00
    endloop
  endfacet
  facet normal 8.705077e-04 9.999996e-01 0.000000e+00
    outer loop
      vertex 0.000000e+00 1.800000e+02 7.868050e-06
      vertex 7.659999e+01 1.799333e+02 2.500008e+00
      vertex 7.659999e+01 1.799333e+02 7.867813e-06
    endloop
  endfacet
  facet normal 0.000000e+00 -1.000000e+00 -0.000000e+00
    outer loop
      vertex 0.000000e+00 1.034000e+02 7.867813e-06
      vertex 6.513870e+00 1.034000e+02 2.500008e+00
      vertex 0.000000e+00 1.034000e+02 2.500008e+00
    endloop
  endfacet
  facet normal -1.000000e+00 0.000000e+00 0.000000e+00
    outer loop
      vertex 6.513870e+00 1.034000e+02 7.867813e-06
      vertex 6.513870e+00 7.659999e+01 2.500008e+00
      vertex 6.513870e+00 1.034000e+02 2.500008e+00
    endloop
  endfacet
  facet normal 0.000000e+00 1.000000e+00 0.000000e+00
    outer loop
      vertex 6.513870e+00 7.659999e+01 7.867813e-06
      vertex 0.000000e+00 7.659999e+01 2.500008e+00
      vertex 6.513870e+00 7.659999e+01 2.500008e+00
    endloop
  endfacet
  facet normal 8.705077e-04 -9.999996e-01 0.000000e+00
    outer loop
      vertex 0.000000e+00 0.000000e+00 7.868050e-06
      vertex 7.659999e+01 6.668091e-02 2.500008e+00
      vertex 0.000000e+00 0.000000e+00 2.500008e+00
    endloop
  endfacet
  facet normal 1.000000e+00 0.000000e+00 0.000000e+00
    outer loop
      vertex 7.659999e+01 6.668091e-02 7.867813e-06
      vertex 7.659999e+01 6.866653e+00 2.500008e+00
      vertex 7.659999e+01 6.668091e-02 2.500008e+00
    endloop
  endfacet
  facet normal 0.000000e+00 -1.000000e+00 -0.000000e+00
    outer loop
      vertex 7.659999e+01 6.866653e+00 7.867813e-06
      vertex 1.034000e+02 6.866653e+00 2.500008e+00
      vertex 7.659999e+01 6.866653e+00 2.500008e+00
    endloop
  endfacet
  facet normal -1.000000e+00 0.000000e+00 0.000000e+00
    outer loop
      vertex 1.034000e+02 6.866653e+00 7.867813e-06
      vertex 1.034000e+02 6.668091e-02 2.500008e+00
      vertex 1.034000e+02 6.866653e+00 2.500008e+00
    endloop
  endfacet
  facet normal -8.705077e-04 -9.999996e-01 0.000000e+00
    outer loop
      vertex 1.800000e+02 0.000000e+00 7.868050e-06
      vertex 1.034000e+02 6.668091e-02 2.500008e+00
      vertex 1.034000e+02 6.668091e-02 7.867813e-06
    endloop
  endfacet
  facet normal 0.000000e+00 1.000000e+00 0.000000e+00
    outer loop
      vertex 1.800000e+02 1.800000e+02 2.500008e+00
      vertex 0.000000e+00 1.800000e+02 4.000008e+00
      vertex 1.800000e+02 1.800000e+02 4.000008e+00
    endloop
  endfacet
  facet normal 0.000000e+00 -1.000000e+00 -0.000000e+00
    outer loop
      vertex 0.000000e+00 0.000000e+00 2.500008e+00
      vertex 1.800000e+02 0.000000e+00 4.000008e+00
      vertex 0.000000e+00 0.000000e+00 4.000008e+00
    endloop
  endfacet
  facet normal 0.000000e+00 0.000000e+00 -1.000000e+00
    outer loop
      vertex 6.513870e+00 7.659999e+01 2.500008e+00
      vertex 0.000000e+00 1.034000e+02 2.500008e+00
      vertex 6.513870e+00 1.034000e+02 2.500008e+00
    endloop
  endfacet
  facet normal 0.000000e+00 0.000000e+00 -1.000000e+00
    outer loop
      vertex 1.800000e+02 7.659999e+01 2.500008e+00
      vertex 1.734861e+02 1.034000e+02 2.500008e+00
      vertex 1.800000e+02 1.034000e+02 2.500008e+00
    endloop
  endfacet
  facet normal 0.000000e+00 0.000000e+00 1.000000e+00
    outer loop
      vertex 0.000000e+00 0.000000e+00 4.000008e+00
      vertex 1.800000e+02 1.800000e+02 4.000008e+00
      vertex 0.000000e+00 1.800000e+02 4.000008e+00
    endloop
  endfacet
  facet normal 1.000000e+00 -0.000000e+00 0.000000e+00
    outer loop
      vertex 1.399680e+02 1.643932e+02 7.868050e-06
      vertex 1.399680e+02 1.463932e+02 2.000000e+00
      vertex 1.399680e+02 1.463932e+02 7.868050e-06
    endloop
  endfacet
  facet normal 0.000000e+00 -1.000000e+00 0.000000e+00
    outer loop
      vertex 1.699680e+02 1.643932e+02 7.868050e-06
      vertex 1.399680e+02 1.643932e+02 2.000000e+00
      vertex 1.399680e+02 1.643932e+02 7.868050e-06
    endloop
  endfacet
  facet normal -1.000000e+00 -0.000000e+00 0.000000e+00
    outer loop
      vertex 1.699680e+02 1.463932e+02 7.868050e-06
      vertex 1.699680e+02 1.643932e+02 2.000000e+00
      vertex 1.699680e+02 1.643932e+02 7.868050e-06
    endloop
  endfacet
  facet normal 0.000000e+00 1.000000e+00 0.000000e+00
    outer loop
      vertex 1.399680e+02 1.463932e+02 7.868050e-06
      vertex 1.699680e+02 1.463932e+02 2.000000e+00
      vertex 1.699680e+02 1.463932e+02 7.868050e-06
    endloop
  endfacet
  facet normal 3.207652e-12 -4.456649e-12 -1.000000e+00
    outer loop
      vertex 6.513870e+00 1.034000e+02 7.867813e-06
      vertex 1.034000e+02 1.731333e+02 7.867813e-06
      vertex 1.399680e+02 1.463932e+02 7.868050e-06
    endloop
  endfacet
  facet normal 0.000000e+00 0.000000e+00 -1.000000e+00
    outer loop
      vertex 7.659999e+01 1.799333e+02 2.500008e+00
      vertex 1.034000e+02 1.731333e+02 2.500008e+00
      vertex 7.659999e+01 1.731333e+02 2.500008e+00
    endloop
  endfacet
  facet normal 1.000000e+00 -0.000000e+00 0.000000e+00
    outer loop
      vertex 1.800000e+02 7.659999e+01 2.500008e+00
      vertex 1.800000e+02 0.000000e+00 4.000008e+00
      vertex 1.800000e+02 0.000000e+00 2.500008e+00
    endloop
  endfacet
  facet normal -1.000000e+00 -0.000000e+00 0.000000e+00
    outer loop
      vertex 0.000000e+00 1.034000e+02 2.500008e+00
      vertex 0.000000e+00 1.800000e+02 4.000008e+00
      vertex 0.000000e+00 1.800000e+02 2.500008e+00
    endloop
  endfacet
  facet normal 0.000000e+00 0.000000e+00 -1.000000e+00
    outer loop
      vertex 1.034000e+02 6.668091e-02 2.500008e+00
      vertex 7.659999e+01 6.866653e+00 2.500008e+00
      vertex 1.034000e+02 6.866653e+00 2.500008e+00
    endloop
  endfacet
  facet normal 0.000000e+00 0.000000e+00 -1.000000e+00
    outer loop
      vertex 1.399680e+02 1.643932e+02 2.000000e+00
      vertex 1.463069e+02 1.585367e+02 2.000000e+00
      vertex 1.453535e+02 1.585367e+02 2.000000e+00
    endloop
  endfacet
  facet normal 0.000000e+00 -1.000000e+00 0.000000e+00
    outer loop
      vertex 1.625654e+02 1.521267e+02 2.000000e+00
      vertex 1.615907e+02 1.521267e+02 2.980232e-07
      vertex 1.625654e+02 1.521267e+02 2.980232e-07
    endloop
  endfacet
  facet normal 9.203235e-01 -3.911582e-01 0.000000e+00
    outer loop
      vertex 1.652898e+02 1.585367e+02 2.000000e+00
      vertex 1.625654e+02 1.521267e+02 2.980232e-07
      vertex 1.652898e+02 1.585367e+02 -2.623568e-07
    endloop
  endfacet
  facet normal 0.000000e+00 1.000000e+00 -0.000000e+00
    outer loop
      vertex 1.642789e+02 1.585367e+02 2.000000e+00
      vertex 1.652898e+02 1.585367e+02 -2.623568e-07
      vertex 1.642789e+02 1.585367e+02 -2.623568e-07
    endloop
  endfacet
  facet normal -9.303632e-01 3.666391e-01 0.000000e+00
    outer loop
      vertex 1.642789e+02 1.585367e+02 2.000000e+00
      vertex 1.624441e+02 1.538809e+02 1.446645e-07
      vertex 1.624441e+02 1.538809e+02 2.000000e+00
    endloop
  endfacet
  facet normal -9.319786e-01 3.625132e-01 0.000000e+00
    outer loop
      vertex 1.624441e+02 1.538809e+02 2.000000e+00
      vertex 1.623723e+02 1.536963e+02 1.608002e-07
      vertex 1.623723e+02 1.536963e+02 2.000000e+00
    endloop
  endfacet
  facet normal -9.362609e-01 3.513054e-01 0.000000e+00
    outer loop
      vertex 1.623723e+02 1.536963e+02 2.000000e+00
      vertex 1.623045e+02 1.535156e+02 1.765966e-07
      vertex 1.623045e+02 1.535156e+02 2.000000e+00
    endloop
  endfacet
  facet normal -9.406461e-01 3.393891e-01 0.000000e+00
    outer loop
      vertex 1.623045e+02 1.535156e+02 2.000000e+00
      vertex 1.622407e+02 1.533388e+02 1.920538e-07
      vertex 1.622407e+02 1.533388e+02 2.000000e+00
    endloop
  endfacet
  facet normal -9.451139e-01 3.267410e-01 0.000000e+00
    outer loop
      vertex 1.622407e+02 1.533388e+02 2.000000e+00
      vertex 1.621809e+02 1.531659e+02 2.071718e-07
      vertex 1.621809e+02 1.531659e+02 2.000000e+00
    endloop
  endfacet
  facet normal -9.496304e-01 3.133720e-01 0.000000e+00
    outer loop
      vertex 1.621809e+02 1.531659e+02 2.000000e+00
      vertex 1.621252e+02 1.529968e+02 2.219506e-07
      vertex 1.621252e+02 1.529968e+02 2.000000e+00
    endloop
  endfacet
  facet normal -9.541909e-01 2.991984e-01 0.000000e+00
    outer loop
      vertex 1.621252e+02 1.529968e+02 2.000000e+00
      vertex 1.620734e+02 1.528317e+02 2.363902e-07
      vertex 1.620734e+02 1.528317e+02 2.000000e+00
    endloop
  endfacet
  facet normal 9.524212e-01 3.047848e-01 -0.000000e+00
    outer loop
      vertex 1.620174e+02 1.530065e+02 2.000000e+00
      vertex 1.620734e+02 1.528317e+02 2.363902e-07
      vertex 1.620174e+02 1.530065e+02 2.211045e-07
    endloop
  endfacet
  facet normal 9.477029e-01 3.191540e-01 -0.000000e+00
    outer loop
      vertex 1.619585e+02 1.531814e+02 2.000000e+00
      vertex 1.620174e+02 1.530065e+02 2.211045e-07
      vertex 1.619585e+02 1.531814e+02 2.058180e-07
    endloop
  endfacet
  facet normal 9.428536e-01 3.332074e-01 -0.000000e+00
    outer loop
      vertex 1.618967e+02 1.533562e+02 2.000000e+00
      vertex 1.619585e+02 1.531814e+02 2.058180e-07
      vertex 1.618967e+02 1.533562e+02 1.905308e-07
    endloop
  endfacet
  facet normal 9.377705e-01 3.472557e-01 -0.000000e+00
    outer loop
      vertex 1.618320e+02 1.535311e+02 2.000000e+00
      vertex 1.618967e+02 1.533562e+02 1.905308e-07
      vertex 1.618320e+02 1.535311e+02 1.752428e-07
    endloop
  endfacet
  facet normal 9.326096e-01 3.608868e-01 -0.000000e+00
    outer loop
      vertex 1.617643e+02 1.537060e+02 2.000000e+00
      vertex 1.618320e+02 1.535311e+02 1.752428e-07
      vertex 1.617643e+02 1.537060e+02 1.599540e-07
    endloop
  endfacet
  facet normal 9.272834e-01 3.743600e-01 -0.000000e+00
    outer loop
      vertex 1.616937e+02 1.538809e+02 2.000000e+00
      vertex 1.617643e+02 1.537060e+02 1.599540e-07
      vertex 1.616937e+02 1.538809e+02 1.446645e-07
    endloop
  endfacet
  facet normal 9.256730e-01 3.783245e-01 0.000000e+00
    outer loop
      vertex 1.616937e+02 1.538809e+02 1.446645e-07
      vertex 1.597909e+02 1.585367e+02 2.000000e+00
      vertex 1.616937e+02 1.538809e+02 2.000000e+00
    endloop
  endfacet
  facet normal 0.000000e+00 1.000000e+00 -0.000000e+00
    outer loop
      vertex 1.588375e+02 1.585367e+02 2.000000e+00
      vertex 1.597909e+02 1.585367e+02 -2.623568e-07
      vertex 1.588375e+02 1.585367e+02 -2.623568e-07
    endloop
  endfacet
  facet normal -9.188271e-01 -3.946604e-01 0.000000e+00
    outer loop
      vertex 1.615907e+02 1.521267e+02 2.980232e-07
      vertex 1.588375e+02 1.585367e+02 2.000000e+00
      vertex 1.588375e+02 1.585367e+02 -2.623568e-07
    endloop
  endfacet
  facet normal -2.529513e-11 -8.743861e-08 -1.000000e+00
    outer loop
      vertex 1.588375e+02 1.585367e+02 -2.623568e-07
      vertex 1.616937e+02 1.538809e+02 1.446645e-07
      vertex 1.617643e+02 1.537060e+02 1.599540e-07
    endloop
  endfacet
  facet normal 0.000000e+00 1.000000e+00 -0.000000e+00
    outer loop
      vertex 1.566089e+02 1.585367e+02 2.000000e+00
      vertex 1.575439e+02 1.585367e+02 -2.623568e-07
      vertex 1.566089e+02 1.585367e+02 -2.623568e-07
    endloop
  endfacet
  facet normal -1.000000e+00 0.000000e+00 0.000000e+00
    outer loop
      vertex 1.566089e+02 1.585367e+02 2.000000e+00
      vertex 1.566089e+02 1.521267e+02 2.980232e-07
      vertex 1.566089e+02 1.521267e+02 2.000000e+00
    endloop
  endfacet
  facet normal 0.000000e+00 -1.000000e+00 0.000000e+00
    outer loop
      vertex 1.575439e+02 1.521267e+02 2.000000e+00
      vertex 1.566089e+02 1.521267e+02 2.980232e-07
      vertex 1.575439e+02 1.521267e+02 2.980232e-07
    endloop
  endfacet
  facet normal 0.000000e+00 -8.742274e-08 -1.000000e+00
    outer loop
      vertex 1.575439e+02 1.521267e+02 2.980232e-07
      vertex 1.566089e+02 1.585367e+02 -2.623568e-07
      vertex 1.575439e+02 1.585367e+02 -2.623568e-07
    endloop
  endfacet
  facet normal 1.000000e+00 0.000000e+00 0.000000e+00
    outer loop
      vertex 1.575439e+02 1.585367e+02 2.000000e+00
      vertex 1.575439e+02 1.521267e+02 2.980232e-07
      vertex 1.575439e+02 1.585367e+02 -2.623568e-07
    endloop
  endfacet
  facet normal 0.000000e+00 1.000000e+00 -0.000000e+00
    outer loop
      vertex 1.524479e+02 1.548367e+02 2.000000e+00
      vertex 1.551099e+02 1.548367e+02 6.110747e-08
      vertex 1.524479e+02 1.548367e+02 6.110747e-08
    endloop
  endfacet
  facet normal -1.000000e+00 0.000000e+00 0.000000e+00
    outer loop
      vertex 1.524479e+02 1.548367e+02 2.000000e+00
      vertex 1.524479e+02 1.540467e+02 1.301715e-07
      vertex 1.524479e+02 1.540467e+02 2.000000e+00
    endloop
  endfacet
  facet normal 0.000000e+00 -1.000000e+00 0.000000e+00
    outer loop
      vertex 1.551099e+02 1.540467e+02 2.000000e+00
      vertex 1.524479e+02 1.540467e+02 1.301715e-07
      vertex 1.551099e+02 1.540467e+02 1.301715e-07
    endloop
  endfacet
  facet normal 0.000000e+00 -8.742186e-08 -1.000000e+00
    outer loop
      vertex 1.551099e+02 1.540467e+02 1.301715e-07
      vertex 1.524479e+02 1.548367e+02 6.110747e-08
      vertex 1.551099e+02 1.548367e+02 6.110747e-08
    endloop
  endfacet
  facet normal 1.000000e+00 0.000000e+00 0.000000e+00
    outer loop
      vertex 1.551099e+02 1.548367e+02 2.000000e+00
      vertex 1.551099e+02 1.540467e+02 1.301715e-07
      vertex 1.551099e+02 1.548367e+02 6.110747e-08
    endloop
  endfacet
  facet normal 0.000000e+00 1.000000e+00 -0.000000e+00
    outer loop
      vertex 1.507949e+02 1.585367e+02 2.000000e+00
      vertex 1.518058e+02 1.585367e+02 -2.623568e-07
      vertex 1.507949e+02 1.585367e+02 -2.623568e-07
    endloop
  endfacet
  facet normal -9.303632e-01 3.666391e-01 0.000000e+00
    outer loop
      vertex 1.507949e+02 1.585367e+02 2.000000e+00
      vertex 1.489601e+02 1.538809e+02 1.446645e-07
      vertex 1.489601e+02 1.538809e+02 2.000000e+00
    endloop
  endfacet
  facet normal -9.319786e-01 3.625132e-01 0.000000e+00
    outer loop
      vertex 1.489601e+02 1.538809e+02 2.000000e+00
      vertex 1.488883e+02 1.536963e+02 1.608002e-07
      vertex 1.488883e+02 1.536963e+02 2.000000e+00
    endloop
  endfacet
  facet normal -9.362869e-01 3.512361e-01 0.000000e+00
    outer loop
      vertex 1.488883e+02 1.536963e+02 2.000000e+00
      vertex 1.488205e+02 1.535156e+02 1.765966e-07
      vertex 1.488205e+02 1.535156e+02 2.000000e+00
    endloop
  endfacet
  facet normal -9.406461e-01 3.393891e-01 0.000000e+00
    outer loop
      vertex 1.488205e+02 1.535156e+02 2.000000e+00
      vertex 1.487567e+02 1.533388e+02 1.920538e-07
      vertex 1.487567e+02 1.533388e+02 2.000000e+00
    endloop
  endfacet
  facet normal -9.451139e-01 3.267410e-01 0.000000e+00
    outer loop
      vertex 1.487567e+02 1.533388e+02 2.000000e+00
      vertex 1.486969e+02 1.531659e+02 2.071718e-07
      vertex 1.486969e+02 1.531659e+02 2.000000e+00
    endloop
  endfacet
  facet normal -9.496304e-01 3.133720e-01 0.000000e+00
    outer loop
      vertex 1.486969e+02 1.531659e+02 2.000000e+00
      vertex 1.486412e+02 1.529968e+02 2.219506e-07
      vertex 1.486412e+02 1.529968e+02 2.000000e+00
    endloop
  endfacet
  facet normal -9.541909e-01 2.991984e-01 0.000000e+00
    outer loop
      vertex 1.486412e+02 1.529968e+02 2.000000e+00
      vertex 1.485894e+02 1.528317e+02 2.363902e-07
      vertex 1.485894e+02 1.528317e+02 2.000000e+00
    endloop
  endfacet
  facet normal 9.524212e-01 3.047848e-01 -0.000000e+00
    outer loop
      vertex 1.485334e+02 1.530065e+02 2.000000e+00
      vertex 1.485894e+02 1.528317e+02 2.363902e-07
      vertex 1.485334e+02 1.530065e+02 2.211045e-07
    endloop
  endfacet
  facet normal 9.477029e-01 3.191540e-01 -0.000000e+00
    outer loop
      vertex 1.484745e+02 1.531814e+02 2.000000e+00
      vertex 1.485334e+02 1.530065e+02 2.211045e-07
      vertex 1.484745e+02 1.531814e+02 2.058180e-07
    endloop
  endfacet
  facet normal 9.428277e-01 3.332805e-01 -0.000000e+00
    outer loop
      vertex 1.484127e+02 1.533562e+02 2.000000e+00
      vertex 1.484745e+02 1.531814e+02 2.058180e-07
      vertex 1.484127e+02 1.533562e+02 1.905308e-07
    endloop
  endfacet
  facet normal 9.377971e-01 3.471838e-01 -0.000000e+00
    outer loop
      vertex 1.483480e+02 1.535311e+02 2.000000e+00
      vertex 1.484127e+02 1.533562e+02 1.905308e-07
      vertex 1.483480e+02 1.535311e+02 1.752428e-07
    endloop
  endfacet
  facet normal 9.326096e-01 3.608868e-01 -0.000000e+00
    outer loop
      vertex 1.482803e+02 1.537060e+02 2.000000e+00
      vertex 1.483480e+02 1.535311e+02 1.752428e-07
      vertex 1.482803e+02 1.537060e+02 1.599540e-07
    endloop
  endfacet
  facet normal 9.272553e-01 3.744296e-01 -0.000000e+00
    outer loop
      vertex 1.482097e+02 1.538809e+02 2.000000e+00
      vertex 1.482803e+02 1.537060e+02 1.599540e-07
      vertex 1.482097e+02 1.538809e+02 1.446645e-07
    endloop
  endfacet
  facet normal 9.256741e-01 3.783219e-01 -0.000000e+00
    outer loop
      vertex 1.463069e+02 1.585367e+02 2.000000e+00
      vertex 1.482097e+02 1.538809e+02 1.446645e-07
      vertex 1.463069e+02 1.585367e+02 -2.623568e-07
    endloop
  endfacet
  facet normal 0.000000e+00 1.000000e+00 -0.000000e+00
    outer loop
      vertex 1.453535e+02 1.585367e+02 2.000000e+00
      vertex 1.463069e+02 1.585367e+02 -2.623568e-07
      vertex 1.453535e+02 1.585367e+02 -2.623568e-07
    endloop
  endfacet
  facet normal -9.188271e-01 -3.946604e-01 0.000000e+00
    outer loop
      vertex 1.453535e+02 1.585367e+02 2.000000e+00
      vertex 1.481067e+02 1.521267e+02 2.980232e-07
      vertex 1.481067e+02 1.521267e+02 2.000000e+00
    endloop
  endfacet
  facet normal 0.000000e+00 -1.000000e+00 0.000000e+00
    outer loop
      vertex 1.490814e+02 1.521267e+02 2.000000e+00
      vertex 1.481067e+02 1.521267e+02 2.980232e-07
      vertex 1.490814e+02 1.521267e+02 2.980232e-07
    endloop
  endfacet
  facet normal -2.530573e-11 -8.743861e-08 -1.000000e+00
    outer loop
      vertex 1.453535e+02 1.585367e+02 -2.623568e-07
      vertex 1.482097e+02 1.538809e+02 1.446645e-07
      vertex 1.482803e+02 1.537060e+02 1.599540e-07
    endloop
  endfacet
  facet normal 9.203235e-01 -3.911582e-01 0.000000e+00
    outer loop
      vertex 1.518058e+02 1.585367e+02 2.000000e+00
      vertex 1.490814e+02 1.521267e+02 2.980232e-07
      vertex 1.518058e+02 1.585367e+02 -2.623568e-07
    endloop
  endfacet
  facet normal 0.000000e+00 1.000000e+00 -0.000000e+00
    outer loop
      vertex 1.734861e+02 7.659999e+01 2.500008e+00
      vertex 1.800000e+02 7.659999e+01 7.867813e-06
      vertex 1.734861e+02 7.659999e+01 7.867813e-06
    endloop
  endfacet
  facet normal 1.000000e+00 0.000000e+00 0.000000e+00
    outer loop
      vertex 1.734861e+02 1.034000e+02 2.500008e+00
      vertex 1.734861e+02 7.659999e+01 7.867813e-06
      vertex 1.734861e+02 1.034000e+02 7.867813e-06
    endloop
  endfacet
  facet normal 0.000000e+00 -1.000000e+00 0.000000e+00
    outer loop
      vertex 1.800000e+02 1.034000e+02 2.500008e+00
      vertex 1.734861e+02 1.034000e+02 7.867813e-06
      vertex 1.800000e+02 1.034000e+02 7.867813e-06
    endloop
  endfacet
  facet normal -8.705077e-04 9.999996e-01 0.000000e+00
    outer loop
      vertex 1.034000e+02 1.799333e+02 2.500008e+00
      vertex 1.800000e+02 1.800000e+02 7.868050e-06
      vertex 1.034000e+02 1.799333e+02 7.867813e-06
    endloop
  endfacet
  facet normal -1.000000e+00 0.000000e+00 0.000000e+00
    outer loop
      vertex 1.034000e+02 1.731333e+02 2.500008e+00
      vertex 1.034000e+02 1.799333e+02 7.867813e-06
      vertex 1.034000e+02 1.731333e+02 7.867813e-06
    endloop
  endfacet
  facet normal 0.000000e+00 1.000000e+00 -0.000000e+00
    outer loop
      vertex 7.659999e+01 1.731333e+02 2.500008e+00
      vertex 1.034000e+02 1.731333e+02 7.867813e-06
      vertex 7.659999e+01 1.731333e+02 7.867813e-06
    endloop
  endfacet
  facet normal 1.000000e+00 0.000000e+00 0.000000e+00
    outer loop
      vertex 7.659999e+01 1.799333e+02 2.500008e+00
      vertex 7.659999e+01 1.731333e+02 7.867813e-06
      vertex 7.659999e+01 1.799333e+02 7.867813e-06
    endloop
  endfacet
  facet normal 8.705077e-04 9.999996e-01 0.000000e+00
    outer loop
      vertex 7.659999e+01 1.799333e+02 2.500008e+00
      vertex 0.000000e+00 1.800000e+02 7.868050e-06
      vertex 0.000000e+00 1.800000e+02 2.500008e+00
    endloop
  endfacet
  facet normal 0.000000e+00 -1.000000e+00 0.000000e+00
    outer loop
      vertex 6.513870e+00 1.034000e+02 2.500008e+00
      vertex 0.000000e+00 1.034000e+02 7.867813e-06
      vertex 6.513870e+00 1.034000e+02 7.867813e-06
    endloop
  endfacet
  facet normal -1.000000e+00 0.000000e+00 0.000000e+00
    outer loop
      vertex 6.513870e+00 7.659999e+01 2.500008e+00
      vertex 6.513870e+00 1.034000e+02 7.867813e-06
      vertex 6.513870e+00 7.659999e+01 7.867813e-06
    endloop
  endfacet
  facet normal 0.000000e+00 1.000000e+00 -0.000000e+00
    outer loop
      vertex 0.000000e+00 7.659999e+01 2.500008e+00
      vertex 6.513870e+00 7.659999e+01 7.867813e-06
      vertex 0.000000e+00 7.659999e+01 7.867813e-06
    endloop
  endfacet
  facet normal 8.705077e-04 -9.999996e-01 0.000000e+00
    outer loop
      vertex 7.659999e+01 6.668091e-02 2.500008e+00
      vertex 0.000000e+00 0.000000e+00 7.868050e-06
      vertex 7.659999e+01 6.668091e-02 7.867813e-06
    endloop
  endfacet
  facet normal 1.000000e+00 0.000000e+00 0.000000e+00
    outer loop
      vertex 7.659999e+01 6.866653e+00 2.500008e+00
      vertex 7.659999e+01 6.668091e-02 7.867813e-06
      vertex 7.659999e+01 6.866653e+00 7.867813e-06
    endloop
  endfacet
  facet normal 0.000000e+00 -1.000000e+00 0.000000e+00
    outer loop
      vertex 1.034000e+02 6.866653e+00 2.500008e+00
      vertex 7.659999e+01 6.866653e+00 7.867813e-06
      vertex 1.034000e+02 6.866653e+00 7.867813e-06
    endloop
  endfacet
  facet normal -1.000000e+00 0.000000e+00 0.000000e+00
    outer loop
      vertex 1.034000e+02 6.668091e-02 2.500008e+00
      vertex 1.034000e+02 6.866653e+00 7.867813e-06
      vertex 1.034000e+02 6.668091e-02 7.867813e-06
    endloop
  endfacet
  facet normal -8.705077e-04 -9.999996e-01 0.000000e+00
    outer loop
      vertex 1.034000e+02 6.668091e-02 2.500008e+00
      vertex 1.800000e+02 0.000000e+00 7.868050e-06
      vertex 1.800000e+02 0.000000e+00 2.500008e+00
    endloop
  endfacet
  facet normal 0.000000e+00 1.000000e+00 -0.000000e+00
    outer loop
      vertex 0.000000e+00 1.800000e+02 4.000008e+00
      vertex 1.800000e+02 1.800000e+02 2.500008e+00
      vertex 0.000000e+00 1.800000e+02 2.500008e+00
    endloop
  endfacet
  facet normal 0.000000e+00 -1.000000e+00 0.000000e+00
    outer loop
      vertex 1.800000e+02 0.000000e+00 4.000008e+00
      vertex 0.000000e+00 0.000000e+00 2.500008e+00
      vertex 1.800000e+02 0.000000e+00 2.500008e+00
    endloop
  endfacet
  facet normal 0.000000e+00 0.000000e+00 -1.000000e+00
    outer loop
      vertex 0.000000e+00 1.034000e+02 2.500008e+00
      vertex 6.513870e+00 7.659999e+01 2.500008e+00
      vertex 0.000000e+00 7.659999e+01 2.500008e+00
    endloop
  endfacet
  facet normal 0.000000e+00 0.000000e+00 -1.000000e+00
    outer loop
      vertex 1.734861e+02 1.034000e+02 2.500008e+00
      vertex 1.800000e+02 7.659999e+01 2.500008e+00
      vertex 1.734861e+02 7.659999e+01 2.500008e+00
    endloop
  endfacet
  facet normal 0.000000e+00 0.000000e+00 1.000000e+00
    outer loop
      vertex 1.800000e+02 1.800000e+02 4.000008e+00
      vertex 0.000000e+00 0.000000e+00 4.000008e+00
      vertex 1.800000e+02 0.000000e+00 4.000008e+00
    endloop
  endfacet
  facet normal 1.000000e+00 0.000000e+00 0.000000e+00
    outer loop
      vertex 1.399680e+02 1.463932e+02 2.000000e+00
      vertex 1.399680e+02 1.643932e+02 7.868050e-06
      vertex 1.399680e+02 1.643932e+02 2.000000e+00
    endloop
  endfacet
  facet normal 0.000000e+00 -1.000000e+00 0.000000e+00
    outer loop
      vertex 1.399680e+02 1.643932e+02 2.000000e+00
      vertex 1.699680e+02 1.643932e+02 7.868050e-06
      vertex 1.699680e+02 1.643932e+02 2.000000e+00
    endloop
  endfacet
  facet normal -1.000000e+00 0.000000e+00 0.000000e+00
    outer loop
      vertex 1.699680e+02 1.643932e+02 2.000000e+00
      vertex 1.699680e+02 1.463932e+02 7.868050e-06
      vertex 1.699680e+02 1.463932e+02 2.000000e+00
    endloop
  endfacet
  facet normal 0.000000e+00 1.000000e+00 0.000000e+00
    outer loop
      vertex 1.699680e+02 1.463932e+02 2.000000e+00
      vertex 1.399680e+02 1.463932e+02 7.868050e-06
      vertex 1.399680e+02 1.463932e+02 2.000000e+00
    endloop
  endfacet
  facet normal -4.802529e-12 3.087058e-12 -1.000000e+00
    outer loop
      vertex 1.800000e+02 1.034000e+02 7.867813e-06
      vertex 1.699680e+02 1.643932e+02 7.868050e-06
      vertex 1.800000e+02 1.800000e+02 7.868050e-06
    endloop
  endfacet
  facet normal -2.357144e-11 0.000000e+00 -1.000000e+00
    outer loop
      vertex 1.800000e+02 1.034000e+02 7.867813e-06
      vertex 1.699680e+02 1.463932e+02 7.868050e-06
      vertex 1.699680e+02 1.643932e+02 7.868050e-06
    endloop
  endfacet
  facet normal 3.088787e-12 -1.985468e-12 -1.000000e+00
    outer loop
      vertex 1.699680e+02 1.643932e+02 7.868050e-06
      vertex 1.034000e+02 1.799333e+02 7.867813e-06
      vertex 1.800000e+02 1.800000e+02 7.868050e-06
    endloop
  endfacet
  facet normal -0.000000e+00 -1.521670e-11 -1.000000e+00
    outer loop
      vertex 1.399680e+02 1.643932e+02 7.868050e-06
      vertex 1.034000e+02 1.799333e+02 7.867813e-06
      vertex 1.699680e+02 1.643932e+02 7.868050e-06
    endloop
  endfacet
  facet normal 6.466546e-12 0.000000e+00 -1.000000e+00
    outer loop
      vertex 1.399680e+02 1.643932e+02 7.868050e-06
      vertex 1.034000e+02 1.731333e+02 7.867813e-06
      vertex 1.034000e+02 1.799333e+02 7.867813e-06
    endloop
  endfacet
  facet normal 0.000000e+00 5.500135e-12 -1.000000e+00
    outer loop
      vertex 1.734861e+02 1.034000e+02 7.867813e-06
      vertex 1.699680e+02 1.463932e+02 7.868050e-06
      vertex 1.800000e+02 1.034000e+02 7.867813e-06
    endloop
  endfacet
  facet normal 3.084371e-12 -3.087058e-12 -1.000000e+00
    outer loop
      vertex 1.034000e+02 6.668091e-02 7.867813e-06
      vertex 1.800000e+02 7.659999e+01 7.867813e-06
      vertex 1.800000e+02 0.000000e+00 7.868050e-06
    endloop
  endfacet
  facet normal 0.000000e+00 0.000000e+00 -1.000000e+00
    outer loop
      vertex 1.034000e+02 6.668091e-02 7.867813e-06
      vertex 1.734861e+02 7.659999e+01 7.867813e-06
      vertex 1.800000e+02 7.659999e+01 7.867813e-06
    endloop
  endfacet
  facet normal -0.000000e+00 0.000000e+00 -1.000000e+00
    outer loop
      vertex 1.034000e+02 6.866653e+00 7.867813e-06
      vertex 1.734861e+02 7.659999e+01 7.867813e-06
      vertex 1.034000e+02 6.668091e-02 7.867813e-06
    endloop
  endfacet
  facet normal -3.084371e-12 -3.087058e-12 -1.000000e+00
    outer loop
      vertex 0.000000e+00 7.659999e+01 7.867813e-06
      vertex 7.659999e+01 6.668091e-02 7.867813e-06
      vertex 0.000000e+00 0.000000e+00 7.868050e-06
    endloop
  endfacet
  facet normal 0.000000e+00 0.000000e+00 -1.000000e+00
    outer loop
      vertex 6.513870e+00 7.659999e+01 7.867813e-06
      vertex 7.659999e+01 6.668091e-02 7.867813e-06
      vertex 0.000000e+00 7.659999e+01 7.867813e-06
    endloop
  endfacet
  facet normal 0.000000e+00 0.000000e+00 -1.000000e+00
    outer loop
      vertex 6.513870e+00 7.659999e+01 7.867813e-06
      vertex 7.659999e+01 6.866653e+00 7.867813e-06
      vertex 7.659999e+01 6.668091e-02 7.867813e-06
    endloop
  endfacet
  facet normal -3.084371e-12 3.087058e-12 -1.000000e+00
    outer loop
      vertex 7.659999e+01 1.799333e+02 7.867813e-06
      vertex 0.000000e+00 1.034000e+02 7.867813e-06
      vertex 0.000000e+00 1.800000e+02 7.868050e-06
    endloop
  endfacet
  facet normal 0.000000e+00 0.000000e+00 -1.000000e+00
    outer loop
      vertex 7.659999e+01 1.799333e+02 7.867813e-06
      vertex 6.513870e+00 1.034000e+02 7.867813e-06
      vertex 0.000000e+00 1.034000e+02 7.867813e-06
    endloop
  endfacet
  facet normal 0.000000e+00 0.000000e+00 -1.000000e+00
    outer loop
      vertex 7.659999e+01 1.731333e+02 7.867813e-06
      vertex 6.513870e+00 1.034000e+02 7.867813e-06
      vertex 7.659999e+01 1.799333e+02 7.867813e-06
    endloop
  endfacet
  facet normal 0.000000e+00 5.500136e-12 -1.000000e+00
    outer loop
      vertex 1.734861e+02 1.034000e+02 7.867813e-06
      vertex 1.399680e+02 1.463932e+02 7.868050e-06
      vertex 1.699680e+02 1.463932e+02 7.868050e-06
    endloop
  endfacet
  facet normal 6.466546e-12 0.000000e+00 -1.000000e+00
    outer loop
      vertex 1.399680e+02 1.463932e+02 7.868050e-06
      vertex 1.034000e+02 1.731333e+02 7.867813e-06
      vertex 1.399680e+02 1.643932e+02 7.868050e-06
    endloop
  endfacet
  facet normal 0.000000e+00 0.000000e+00 -1.000000e+00
    outer loop
      vertex 1.034000e+02 6.866653e+00 7.867813e-06
      vertex 1.734861e+02 1.034000e+02 7.867813e-06
      vertex 1.734861e+02 7.659999e+01 7.867813e-06
    endloop
  endfacet
  facet normal -3.653011e-12 2.652196e-12 -1.000000e+00
    outer loop
      vertex 1.034000e+02 6.866653e+00 7.867813e-06
      vertex 1.399680e+02 1.463932e+02 7.868050e-06
      vertex 1.734861e+02 1.034000e+02 7.867813e-06
    endloop
  endfacet
  facet normal 0.000000e+00 1.694792e-12 -1.000000e+00
    outer loop
      vertex 7.659999e+01 6.866653e+00 7.867813e-06
      vertex 1.399680e+02 1.463932e+02 7.868050e-06
      vertex 1.034000e+02 6.866653e+00 7.867813e-06
    endloop
  endfacet
  facet normal 1.161435e-12 1.167310e-12 -1.000000e+00
    outer loop
      vertex 6.513870e+00 7.659999e+01 7.867813e-06
      vertex 1.399680e+02 1.463932e+02 7.868050e-06
      vertex 7.659999e+01 6.866653e+00 7.867813e-06
    endloop
  endfacet
  facet normal 1.771909e-12 0.000000e+00 -1.000000e+00
    outer loop
      vertex 6.513870e+00 1.034000e+02 7.867813e-06
      vertex 1.399680e+02 1.463932e+02 7.868050e-06
      vertex 6.513870e+00 7.659999e+01 7.867813e-06
    endloop
  endfacet
  facet normal 0.000000e+00 0.000000e+00 -1.000000e+00
    outer loop
      vertex 1.034000e+02 1.731333e+02 7.867813e-06
      vertex 6.513870e+00 1.034000e+02 7.867813e-06
      vertex 7.659999e+01 1.731333e+02 7.867813e-06
    endloop
  endfacet
  facet normal 0.000000e+00 0.000000e+00 -1.000000e+00
    outer loop
      vertex 1.800000e+02 1.800000e+02 2.500008e+00
      vertex 7.659999e+01 1.799333e+02 2.500008e+00
      vertex 0.000000e+00 1.800000e+02 2.500008e+00
    endloop
  endfacet
  facet normal 0.000000e+00 -0.000000e+00 -1.000000e+00
    outer loop
      vertex 1.034000e+02 1.799333e+02 2.500008e+00
      vertex 7.659999e+01 1.799333e+02 2.500008e+00
      vertex 1.800000e+02 1.800000e+02 2.500008e+00
    endloop
  endfacet
  facet normal 0.000000e+00 0.000000e+00 -1.000000e+00
    outer loop
      vertex 1.034000e+02 1.731333e+02 2.500008e+00
      vertex 7.659999e+01 1.799333e+02 2.500008e+00
      vertex 1.034000e+02 1.799333e+02 2.500008e+00
    endloop
  endfacet
  facet normal 1.000000e+00 0.000000e+00 0.000000e+00
    outer loop
      vertex 1.800000e+02 7.659999e+01 2.500008e+00
      vertex 1.800000e+02 0.000000e+00 7.868050e-06
      vertex 1.800000e+02 7.659999e+01 7.867813e-06
    endloop
  endfacet
  facet normal 1.000000e+00 0.000000e+00 0.000000e+00
    outer loop
      vertex 1.800000e+02 7.659999e+01 2.500008e+00
      vertex 1.800000e+02 0.000000e+00 2.500008e+00
      vertex 1.800000e+02 0.000000e+00 7.868050e-06
    endloop
  endfacet
  facet normal 1.000000e+00 -0.000000e+00 0.000000e+00
    outer loop
      vertex 1.800000e+02 1.800000e+02 7.868050e-06
      vertex 1.800000e+02 1.034000e+02 2.500008e+00
      vertex 1.800000e+02 1.034000e+02 7.867813e-06
    endloop
  endfacet
  facet normal 1.000000e+00 0.000000e+00 0.000000e+00
    outer loop
      vertex 1.800000e+02 1.800000e+02 2.500008e+00
      vertex 1.800000e+02 1.034000e+02 2.500008e+00
      vertex 1.800000e+02 1.800000e+02 7.868050e-06
    endloop
  endfacet
  facet normal 1.000000e+00 0.000000e+00 0.000000e+00
    outer loop
      vertex 1.800000e+02 1.800000e+02 4.000008e+00
      vertex 1.800000e+02 1.034000e+02 2.500008e+00
      vertex 1.800000e+02 1.800000e+02 2.500008e+00
    endloop
  endfacet
  facet normal 1.000000e+00 0.000000e+00 0.000000e+00
    outer loop
      vertex 1.800000e+02 0.000000e+00 4.000008e+00
      vertex 1.800000e+02 1.034000e+02 2.500008e+00
      vertex 1.800000e+02 1.800000e+02 4.000008e+00
    endloop
  endfacet
  facet normal 1.000000e+00 0.000000e+00 0.000000e+00
    outer loop
      vertex 1.800000e+02 0.000000e+00 4.000008e+00
      vertex 1.800000e+02 7.659999e+01 2.500008e+00
      vertex 1.800000e+02 1.034000e+02 2.500008e+00
    endloop
  endfacet
  facet normal -1.000000e+00 0.000000e+00 0.000000e+00
    outer loop
      vertex 0.000000e+00 1.034000e+02 2.500008e+00
      vertex 0.000000e+00 1.800000e+02 7.868050e-06
      vertex 0.000000e+00 1.034000e+02 7.867813e-06
    endloop
  endfacet
  facet normal -1.000000e+00 0.000000e+00 0.000000e+00
    outer loop
      vertex 0.000000e+00 1.034000e+02 2.500008e+00
      vertex 0.000000e+00 1.800000e+02 2.500008e+00
      vertex 0.000000e+00 1.800000e+02 7.868050e-06
    endloop
  endfacet
  facet normal -1.000000e+00 -0.000000e+00 0.000000e+00
    outer loop
      vertex 0.000000e+00 0.000000e+00 7.868050e-06
      vertex 0.000000e+00 7.659999e+01 2.500008e+00
      vertex 0.000000e+00 7.659999e+01 7.867813e-06
    endloop
  endfacet
  facet normal -1.000000e+00 0.000000e+00 0.000000e+00
    outer loop
      vertex 0.000000e+00 0.000000e+00 2.500008e+00
      vertex 0.000000e+00 7.659999e+01 2.500008e+00
      vertex 0.000000e+00 0.000000e+00 7.868050e-06
    endloop
  endfacet
  facet normal -1.000000e+00 0.000000e+00 0.000000e+00
    outer loop
      vertex 0.000000e+00 0.000000e+00 4.000008e+00
      vertex 0.000000e+00 7.659999e+01 2.500008e+00
      vertex 0.000000e+00 0.000000e+00 2.500008e+00
    endloop
  endfacet
  facet normal -1.000000e+00 0.000000e+00 0.000000e+00
    outer loop
      vertex 0.000000e+00 1.800000e+02 4.000008e+00
      vertex 0.000000e+00 7.659999e+01 2.500008e+00
      vertex 0.000000e+00 0.000000e+00 4.000008e+00
    endloop
  endfacet
  facet normal -1.000000e+00 0.000000e+00 0.000000e+00
    outer loop
      vertex 0.000000e+00 1.800000e+02 4.000008e+00
      vertex 0.000000e+00 1.034000e+02 2.500008e+00
      vertex 0.000000e+00 7.659999e+01 2.500008e+00
    endloop
  endfacet
  facet normal -0.000000e+00 0.000000e+00 -1.000000e+00
    outer loop
      vertex 0.000000e+00 0.000000e+00 2.500008e+00
      vertex 1.034000e+02 6.668091e-02 2.500008e+00
      vertex 1.800000e+02 0.000000e+00 2.500008e+00
    endloop
  endfacet
  facet normal 0.000000e+00 0.000000e+00 -1.000000e+00
    outer loop
      vertex 7.659999e+01 6.668091e-02 2.500008e+00
      vertex 1.034000e+02 6.668091e-02 2.500008e+00
      vertex 0.000000e+00 0.000000e+00 2.500008e+00
    endloop
  endfacet
  facet normal 0.000000e+00 0.000000e+00 -1.000000e+00
    outer loop
      vertex 7.659999e+01 6.866653e+00 2.500008e+00
      vertex 1.034000e+02 6.668091e-02 2.500008e+00
      vertex 7.659999e+01 6.668091e-02 2.500008e+00
    endloop
  endfacet
  facet normal 0.000000e+00 0.000000e+00 -1.000000e+00
    outer loop
      vertex 1.524479e+02 1.548367e+02 2.000000e+00
      vertex 1.490814e+02 1.521267e+02 2.000000e+00
      vertex 1.518058e+02 1.585367e+02 2.000000e+00
    endloop
  endfacet
  facet normal 0.000000e+00 0.000000e+00 -1.000000e+00
    outer loop
      vertex 1.485334e+02 1.530065e+02 2.000000e+00
      vertex 1.486412e+02 1.529968e+02 2.000000e+00
      vertex 1.485894e+02 1.528317e+02 2.000000e+00
    endloop
  endfacet
  facet normal 0.000000e+00 0.000000e+00 -1.000000e+00
    outer loop
      vertex 1.620174e+02 1.530065e+02 2.000000e+00
      vertex 1.621252e+02 1.529968e+02 2.000000e+00
      vertex 1.620734e+02 1.528317e+02 2.000000e+00
    endloop
  endfacet
  facet normal -0.000000e+00 0.000000e+00 -1.000000e+00
    outer loop
      vertex 1.551099e+02 1.540467e+02 2.000000e+00
      vertex 1.566089e+02 1.585367e+02 2.000000e+00
      vertex 1.566089e+02 1.521267e+02 2.000000e+00
    endloop
  endfacet
  facet normal -0.000000e+00 0.000000e+00 -1.000000e+00
    outer loop
      vertex 1.551099e+02 1.548367e+02 2.000000e+00
      vertex 1.566089e+02 1.585367e+02 2.000000e+00
      vertex 1.551099e+02 1.540467e+02 2.000000e+00
    endloop
  endfacet
  facet normal 0.000000e+00 0.000000e+00 -1.000000e+00
    outer loop
      vertex 1.699680e+02 1.463932e+02 2.000000e+00
      vertex 1.652898e+02 1.585367e+02 2.000000e+00
      vertex 1.699680e+02 1.643932e+02 2.000000e+00
    endloop
  endfacet
  facet normal 0.000000e+00 0.000000e+00 -1.000000e+00
    outer loop
      vertex 1.699680e+02 1.463932e+02 2.000000e+00
      vertex 1.625654e+02 1.521267e+02 2.000000e+00
      vertex 1.652898e+02 1.585367e+02 2.000000e+00
    endloop
  endfacet
  facet normal -0.000000e+00 0.000000e+00 -1.000000e+00
    outer loop
      vertex 1.399680e+02 1.463932e+02 2.000000e+00
      vertex 1.625654e+02 1.521267e+02 2.000000e+00
      vertex 1.699680e+02 1.463932e+02 2.000000e+00
    endloop
  endfacet
  facet normal 0.000000e+00 0.000000e+00 -1.000000e+00
    outer loop
      vertex 1.399680e+02 1.463932e+02 2.000000e+00
      vertex 1.615907e+02 1.521267e+02 2.000000e+00
      vertex 1.625654e+02 1.521267e+02 2.000000e+00
    endloop
  endfacet
  facet normal 0.000000e+00 0.000000e+00 -1.000000e+00
    outer loop
      vertex 1.524479e+02 1.540467e+02 2.000000e+00
      vertex 1.490814e+02 1.521267e+02 2.000000e+00
      vertex 1.524479e+02 1.548367e+02 2.000000e+00
    endloop
  endfacet
  facet normal 0.000000e+00 -0.000000e+00 -1.000000e+00
    outer loop
      vertex 1.652898e+02 1.585367e+02 2.000000e+00
      vertex 1.399680e+02 1.643932e+02 2.000000e+00
      vertex 1.699680e+02 1.643932e+02 2.000000e+00
    endloop
  endfacet
  facet normal -0.000000e+00 -0.000000e+00 -1.000000e+00
    outer loop
      vertex 1.642789e+02 1.585367e+02 2.000000e+00
      vertex 1.399680e+02 1.643932e+02 2.000000e+00
      vertex 1.652898e+02 1.585367e+02 2.000000e+00
    endloop
  endfacet
  facet normal 0.000000e+00 0.000000e+00 -1.000000e+00
    outer loop
      vertex 1.588375e+02 1.585367e+02 2.000000e+00
      vertex 1.575439e+02 1.521267e+02 2.000000e+00
      vertex 1.575439e+02 1.585367e+02 2.000000e+00
    endloop
  endfacet
  facet normal 0.000000e+00 0.000000e+00 -1.000000e+00
    outer loop
      vertex 1.615907e+02 1.521267e+02 2.000000e+00
      vertex 1.575439e+02 1.521267e+02 2.000000e+00
      vertex 1.588375e+02 1.585367e+02 2.000000e+00
    endloop
  endfacet
  facet normal 0.000000e+00 0.000000e+00 -1.000000e+00
    outer loop
      vertex 1.399680e+02 1.463932e+02 2.000000e+00
      vertex 1.575439e+02 1.521267e+02 2.000000e+00
      vertex 1.615907e+02 1.521267e+02 2.000000e+00
    endloop
  endfacet
  facet normal 0.000000e+00 0.000000e+00 -1.000000e+00
    outer loop
      vertex 1.399680e+02 1.463932e+02 2.000000e+00
      vertex 1.566089e+02 1.521267e+02 2.000000e+00
      vertex 1.575439e+02 1.521267e+02 2.000000e+00
    endloop
  endfacet
  facet normal 0.000000e+00 0.000000e+00 -1.000000e+00
    outer loop
      vertex 1.399680e+02 1.463932e+02 2.000000e+00
      vertex 1.551099e+02 1.540467e+02 2.000000e+00
      vertex 1.566089e+02 1.521267e+02 2.000000e+00
    endloop
  endfacet
  facet normal 0.000000e+00 0.000000e+00 -1.000000e+00
    outer loop
      vertex 1.399680e+02 1.463932e+02 2.000000e+00
      vertex 1.524479e+02 1.540467e+02 2.000000e+00
      vertex 1.551099e+02 1.540467e+02 2.000000e+00
    endloop
  endfacet
  facet normal 0.000000e+00 0.000000e+00 -1.000000e+00
    outer loop
      vertex 1.399680e+02 1.463932e+02 2.000000e+00
      vertex 1.490814e+02 1.521267e+02 2.000000e+00
      vertex 1.524479e+02 1.540467e+02 2.000000e+00
    endloop
  endfacet
  facet normal 0.000000e+00 0.000000e+00 -1.000000e+00
    outer loop
      vertex 1.399680e+02 1.463932e+02 2.000000e+00
      vertex 1.481067e+02 1.521267e+02 2.000000e+00
      vertex 1.490814e+02 1.521267e+02 2.000000e+00
    endloop
  endfacet
  facet normal 0.000000e+00 0.000000e+00 -1.000000e+00
    outer loop
      vertex 1.399680e+02 1.643932e+02 2.000000e+00
      vertex 1.481067e+02 1.521267e+02 2.000000e+00
      vertex 1.399680e+02 1.463932e+02 2.000000e+00
    endloop
  endfacet
  facet normal 0.000000e+00 0.000000e+00 -1.000000e+00
    outer loop
      vertex 1.399680e+02 1.643932e+02 2.000000e+00
      vertex 1.453535e+02 1.585367e+02 2.000000e+00
      vertex 1.481067e+02 1.521267e+02 2.000000e+00
    endloop
  endfacet
  facet normal 0.000000e+00 0.000000e+00 -1.000000e+00
    outer loop
      vertex 1.518058e+02 1.585367e+02 2.000000e+00
      vertex 1.551099e+02 1.548367e+02 2.000000e+00
      vertex 1.524479e+02 1.548367e+02 2.000000e+00
    endloop
  endfacet
  facet normal 0.000000e+00 0.000000e+00 -1.000000e+00
    outer loop
      vertex 1.518058e+02 1.585367e+02 2.000000e+00
      vertex 1.566089e+02 1.585367e+02 2.000000e+00
      vertex 1.551099e+02 1.548367e+02 2.000000e+00
    endloop
  endfacet
  facet normal -0.000000e+00 0.000000e+00 -1.000000e+00
    outer loop
      vertex 1.485334e+02 1.530065e+02 2.000000e+00
      vertex 1.486969e+02 1.531659e+02 2.000000e+00
      vertex 1.486412e+02 1.529968e+02 2.000000e+00
    endloop
  endfacet
  facet normal 0.000000e+00 0.000000e+00 -1.000000e+00
    outer loop
      vertex 1.484745e+02 1.531814e+02 2.000000e+00
      vertex 1.486969e+02 1.531659e+02 2.000000e+00
      vertex 1.485334e+02 1.530065e+02 2.000000e+00
    endloop
  endfacet
  facet normal -0.000000e+00 0.000000e+00 -1.000000e+00
    outer loop
      vertex 1.620174e+02 1.530065e+02 2.000000e+00
      vertex 1.621809e+02 1.531659e+02 2.000000e+00
      vertex 1.621252e+02 1.529968e+02 2.000000e+00
    endloop
  endfacet
  facet normal 0.000000e+00 0.000000e+00 -1.000000e+00
    outer loop
      vertex 1.619585e+02 1.531814e+02 2.000000e+00
      vertex 1.621809e+02 1.531659e+02 2.000000e+00
      vertex 1.620174e+02 1.530065e+02 2.000000e+00
    endloop
  endfacet
  facet normal -0.000000e+00 0.000000e+00 -1.000000e+00
    outer loop
      vertex 1.619585e+02 1.531814e+02 2.000000e+00
      vertex 1.622407e+02 1.533388e+02 2.000000e+00
      vertex 1.621809e+02 1.531659e+02 2.000000e+00
    endloop
  endfacet
  facet normal 0.000000e+00 0.000000e+00 -1.000000e+00
    outer loop
      vertex 1.618967e+02 1.533562e+02 2.000000e+00
      vertex 1.622407e+02 1.533388e+02 2.000000e+00
      vertex 1.619585e+02 1.531814e+02 2.000000e+00
    endloop
  endfacet
  facet normal -0.000000e+00 0.000000e+00 -1.000000e+00
    outer loop
      vertex 1.484745e+02 1.531814e+02 2.000000e+00
      vertex 1.487567e+02 1.533388e+02 2.000000e+00
      vertex 1.486969e+02 1.531659e+02 2.000000e+00
    endloop
  endfacet
  facet normal 0.000000e+00 0.000000e+00 -1.000000e+00
    outer loop
      vertex 1.484127e+02 1.533562e+02 2.000000e+00
      vertex 1.487567e+02 1.533388e+02 2.000000e+00
      vertex 1.484745e+02 1.531814e+02 2.000000e+00
    endloop
  endfacet
  facet normal -0.000000e+00 0.000000e+00 -1.000000e+00
    outer loop
      vertex 1.618967e+02 1.533562e+02 2.000000e+00
      vertex 1.623045e+02 1.535156e+02 2.000000e+00
      vertex 1.622407e+02 1.533388e+02 2.000000e+00
    endloop
  endfacet
  facet normal 0.000000e+00 0.000000e+00 -1.000000e+00
    outer loop
      vertex 1.618320e+02 1.535311e+02 2.000000e+00
      vertex 1.623045e+02 1.535156e+02 2.000000e+00
      vertex 1.618967e+02 1.533562e+02 2.000000e+00
    endloop
  endfacet
  facet normal -0.000000e+00 0.000000e+00 -1.000000e+00
    outer loop
      vertex 1.484127e+02 1.533562e+02 2.000000e+00
      vertex 1.488205e+02 1.535156e+02 2.000000e+00
      vertex 1.487567e+02 1.533388e+02 2.000000e+00
    endloop
  endfacet
  facet normal 0.000000e+00 0.000000e+00 -1.000000e+00
    outer loop
      vertex 1.483480e+02 1.535311e+02 2.000000e+00
      vertex 1.488205e+02 1.535156e+02 2.000000e+00
      vertex 1.484127e+02 1.533562e+02 2.000000e+00
    endloop
  endfacet
  facet normal -0.000000e+00 0.000000e+00 -1.000000e+00
    outer loop
      vertex 1.483480e+02 1.535311e+02 2.000000e+00
      vertex 1.488883e+02 1.536963e+02 2.000000e+00
      vertex 1.488205e+02 1.535156e+02 2.000000e+00
    endloop
  endfacet
  facet normal 0.000000e+00 0.000000e+00 -1.000000e+00
    outer loop
      vertex 1.482803e+02 1.537060e+02 2.000000e+00
      vertex 1.488883e+02 1.536963e+02 2.000000e+00
      vertex 1.483480e+02 1.535311e+02 2.000000e+00
    endloop
  endfacet
  facet normal -0.000000e+00 0.000000e+00 -1.000000e+00
    outer loop
      vertex 1.618320e+02 1.535311e+02 2.000000e+00
      vertex 1.623723e+02 1.536963e+02 2.000000e+00
      vertex 1.623045e+02 1.535156e+02 2.000000e+00
    endloop
  endfacet
  facet normal 0.000000e+00 0.000000e+00 -1.000000e+00
    outer loop
      vertex 1.617643e+02 1.537060e+02 2.000000e+00
      vertex 1.623723e+02 1.536963e+02 2.000000e+00
      vertex 1.618320e+02 1.535311e+02 2.000000e+00
    endloop
  endfacet
  facet normal -0.000000e+00 0.000000e+00 -1.000000e+00
    outer loop
      vertex 1.482803e+02 1.537060e+02 2.000000e+00
      vertex 1.489601e+02 1.538809e+02 2.000000e+00
      vertex 1.488883e+02 1.536963e+02 2.000000e+00
    endloop
  endfacet
  facet normal 0.000000e+00 0.000000e+00 -1.000000e+00
    outer loop
      vertex 1.482097e+02 1.538809e+02 2.000000e+00
      vertex 1.489601e+02 1.538809e+02 2.000000e+00
      vertex 1.482803e+02 1.537060e+02 2.000000e+00
    endloop
  endfacet
  facet normal -0.000000e+00 0.000000e+00 -1.000000e+00
    outer loop
      vertex 1.617643e+02 1.537060e+02 2.000000e+00
      vertex 1.624441e+02 1.538809e+02 2.000000e+00
      vertex 1.623723e+02 1.536963e+02 2.000000e+00
    endloop
  endfacet
  facet normal 0.000000e+00 0.000000e+00 -1.000000e+00
    outer loop
      vertex 1.616937e+02 1.538809e+02 2.000000e+00
      vertex 1.624441e+02 1.538809e+02 2.000000e+00
      vertex 1.617643e+02 1.537060e+02 2.000000e+00
    endloop
  endfacet
  facet normal -0.000000e+00 0.000000e+00 -1.000000e+00
    outer loop
      vertex 1.616937e+02 1.538809e+02 2.000000e+00
      vertex 1.642789e+02 1.585367e+02 2.000000e+00
      vertex 1.624441e+02 1.538809e+02 2.000000e+00
    endloop
  endfacet
  facet normal 0.000000e+00 0.000000e+00 -1.000000e+00
    outer loop
      vertex 1.597909e+02 1.585367e+02 2.000000e+00
      vertex 1.642789e+02 1.585367e+02 2.000000e+00
      vertex 1.616937e+02 1.538809e+02 2.000000e+00
    endloop
  endfacet
  facet normal -0.000000e+00 -0.000000e+00 -1.000000e+00
    outer loop
      vertex 1.597909e+02 1.585367e+02 2.000000e+00
      vertex 1.399680e+02 1.643932e+02 2.000000e+00
      vertex 1.642789e+02 1.585367e+02 2.000000e+00
    endloop
  endfacet
  facet normal -0.000000e+00 -0.000000e+00 -1.000000e+00
    outer loop
      vertex 1.588375e+02 1.585367e+02 2.000000e+00
      vertex 1.399680e+02 1.643932e+02 2.000000e+00
      vertex 1.597909e+02 1.585367e+02 2.000000e+00
    endloop
  endfacet
  facet normal -0.000000e+00 -0.000000e+00 -1.000000e+00
    outer loop
      vertex 1.575439e+02 1.585367e+02 2.000000e+00
      vertex 1.399680e+02 1.643932e+02 2.000000e+00
      vertex 1.588375e+02 1.585367e+02 2.000000e+00
    endloop
  endfacet
  facet normal -0.000000e+00 -0.000000e+00 -1.000000e+00
    outer loop
      vertex 1.566089e+02 1.585367e+02 2.000000e+00
      vertex 1.399680e+02 1.643932e+02 2.000000e+00
      vertex 1.575439e+02 1.585367e+02 2.000000e+00
    endloop
  endfacet
  facet normal -0.000000e+00 -0.000000e+00 -1.000000e+00
    outer loop
      vertex 1.518058e+02 1.585367e+02 2.000000e+00
      vertex 1.399680e+02 1.643932e+02 2.000000e+00
      vertex 1.566089e+02 1.585367e+02 2.000000e+00
    endloop
  endfacet
  facet normal -0.000000e+00 -0.000000e+00 -1.000000e+00
    outer loop
      vertex 1.507949e+02 1.585367e+02 2.000000e+00
      vertex 1.399680e+02 1.643932e+02 2.000000e+00
      vertex 1.518058e+02 1.585367e+02 2.000000e+00
    endloop
  endfacet
  facet normal -0.000000e+00 0.000000e+00 -1.000000e+00
    outer loop
      vertex 1.482097e+02 1.538809e+02 2.000000e+00
      vertex 1.507949e+02 1.585367e+02 2.000000e+00
      vertex 1.489601e+02 1.538809e+02 2.000000e+00
    endloop
  endfacet
  facet normal 0.000000e+00 0.000000e+00 -1.000000e+00
    outer loop
      vertex 1.463069e+02 1.585367e+02 2.000000e+00
      vertex 1.507949e+02 1.585367e+02 2.000000e+00
      vertex 1.482097e+02 1.538809e+02 2.000000e+00
    endloop
  endfacet
  facet normal -0.000000e+00 -0.000000e+00 -1.000000e+00
    outer loop
      vertex 1.463069e+02 1.585367e+02 2.000000e+00
      vertex 1.399680e+02 1.643932e+02 2.000000e+00
      vertex 1.507949e+02 1.585367e+02 2.000000e+00
    endloop
  endfacet
  facet normal 0.000000e+00 -1.000000e+00 -0.000000e+00
    outer loop
      vertex 1.615907e+02 1.521267e+02 2.980232e-07
      vertex 1.625654e+02 1.521267e+02 2.000000e+00
      vertex 1.615907e+02 1.521267e+02 2.000000e+00
    endloop
  endfacet
  facet normal 9.203234e-01 -3.911582e-01 0.000000e+00
    outer loop
      vertex 1.625654e+02 1.521267e+02 2.980232e-07
      vertex 1.652898e+02 1.585367e+02 2.000000e+00
      vertex 1.625654e+02 1.521267e+02 2.000000e+00
    endloop
  endfacet
  facet normal 0.000000e+00 1.000000e+00 0.000000e+00
    outer loop
      vertex 1.652898e+02 1.585367e+02 -2.623568e-07
      vertex 1.642789e+02 1.585367e+02 2.000000e+00
      vertex 1.652898e+02 1.585367e+02 2.000000e+00
    endloop
  endfacet
  facet normal -9.303632e-01 3.666391e-01 0.000000e+00
    outer loop
      vertex 1.624441e+02 1.538809e+02 1.446645e-07
      vertex 1.642789e+02 1.585367e+02 2.000000e+00
      vertex 1.642789e+02 1.585367e+02 -2.623568e-07
    endloop
  endfacet
  facet normal -9.319786e-01 3.625132e-01 0.000000e+00
    outer loop
      vertex 1.623723e+02 1.536963e+02 1.608002e-07
      vertex 1.624441e+02 1.538809e+02 2.000000e+00
      vertex 1.624441e+02 1.538809e+02 1.446645e-07
    endloop
  endfacet
  facet normal -9.362609e-01 3.513054e-01 0.000000e+00
    outer loop
      vertex 1.623045e+02 1.535156e+02 1.765966e-07
      vertex 1.623723e+02 1.536963e+02 2.000000e+00
      vertex 1.623723e+02 1.536963e+02 1.608002e-07
    endloop
  endfacet
  facet normal -9.406461e-01 3.393891e-01 0.000000e+00
    outer loop
      vertex 1.622407e+02 1.533388e+02 1.920538e-07
      vertex 1.623045e+02 1.535156e+02 2.000000e+00
      vertex 1.623045e+02 1.535156e+02 1.765966e-07
    endloop
  endfacet
  facet normal -9.451139e-01 3.267410e-01 0.000000e+00
    outer loop
      vertex 1.621809e+02 1.531659e+02 2.071718e-07
      vertex 1.622407e+02 1.533388e+02 2.000000e+00
      vertex 1.622407e+02 1.533388e+02 1.920538e-07
    endloop
  endfacet
  facet normal -9.496304e-01 3.133720e-01 0.000000e+00
    outer loop
      vertex 1.621252e+02 1.529968e+02 2.219506e-07
      vertex 1.621809e+02 1.531659e+02 2.000000e+00
      vertex 1.621809e+02 1.531659e+02 2.071718e-07
    endloop
  endfacet
  facet normal -9.541909e-01 2.991984e-01 0.000000e+00
    outer loop
      vertex 1.620734e+02 1.528317e+02 2.363902e-07
      vertex 1.621252e+02 1.529968e+02 2.000000e+00
      vertex 1.621252e+02 1.529968e+02 2.219506e-07
    endloop
  endfacet
  facet normal 9.524212e-01 3.047848e-01 0.000000e+00
    outer loop
      vertex 1.620734e+02 1.528317e+02 2.363902e-07
      vertex 1.620174e+02 1.530065e+02 2.000000e+00
      vertex 1.620734e+02 1.528317e+02 2.000000e+00
    endloop
  endfacet
  facet normal 9.477029e-01 3.191540e-01 0.000000e+00
    outer loop
      vertex 1.620174e+02 1.530065e+02 2.211045e-07
      vertex 1.619585e+02 1.531814e+02 2.000000e+00
      vertex 1.620174e+02 1.530065e+02 2.000000e+00
    endloop
  endfacet
  facet normal 9.428536e-01 3.332074e-01 0.000000e+00
    outer loop
      vertex 1.619585e+02 1.531814e+02 2.058180e-07
      vertex 1.618967e+02 1.533562e+02 2.000000e+00
      vertex 1.619585e+02 1.531814e+02 2.000000e+00
    endloop
  endfacet
  facet normal 9.377705e-01 3.472557e-01 0.000000e+00
    outer loop
      vertex 1.618967e+02 1.533562e+02 1.905308e-07
      vertex 1.618320e+02 1.535311e+02 2.000000e+00
      vertex 1.618967e+02 1.533562e+02 2.000000e+00
    endloop
  endfacet
  facet normal 9.326096e-01 3.608868e-01 0.000000e+00
    outer loop
      vertex 1.618320e+02 1.535311e+02 1.752428e-07
      vertex 1.617643e+02 1.537060e+02 2.000000e+00
      vertex 1.618320e+02 1.535311e+02 2.000000e+00
    endloop
  endfacet
  facet normal 9.272834e-01 3.743600e-01 0.000000e+00
    outer loop
      vertex 1.617643e+02 1.537060e+02 1.599540e-07
      vertex 1.616937e+02 1.538809e+02 2.000000e+00
      vertex 1.617643e+02 1.537060e+02 2.000000e+00
    endloop
  endfacet
  facet normal 9.256730e-01 3.783245e-01 -0.000000e+00
    outer loop
      vertex 1.597909e+02 1.585367e+02 2.000000e+00
      vertex 1.616937e+02 1.538809e+02 1.446645e-07
      vertex 1.597909e+02 1.585367e+02 -2.623568e-07
    endloop
  endfacet
  facet normal 0.000000e+00 1.000000e+00 0.000000e+00
    outer loop
      vertex 1.597909e+02 1.585367e+02 -2.623568e-07
      vertex 1.588375e+02 1.585367e+02 2.000000e+00
      vertex 1.597909e+02 1.585367e+02 2.000000e+00
    endloop
  endfacet
  facet normal -9.188271e-01 -3.946604e-01 0.000000e+00
    outer loop
      vertex 1.588375e+02 1.585367e+02 2.000000e+00
      vertex 1.615907e+02 1.521267e+02 2.980232e-07
      vertex 1.615907e+02 1.521267e+02 2.000000e+00
    endloop
  endfacet
  facet normal 0.000000e+00 -8.742274e-08 -1.000000e+00
    outer loop
      vertex 1.625654e+02 1.521267e+02 2.980232e-07
      vertex 1.642789e+02 1.585367e+02 -2.623568e-07
      vertex 1.652898e+02 1.585367e+02 -2.623568e-07
    endloop
  endfacet
  facet normal 1.231975e-12 -8.742307e-08 -1.000000e+00
    outer loop
      vertex 1.625654e+02 1.521267e+02 2.980232e-07
      vertex 1.624441e+02 1.538809e+02 1.446645e-07
      vertex 1.642789e+02 1.585367e+02 -2.623568e-07
    endloop
  endfacet
  facet normal 7.664206e-13 -8.742310e-08 -1.000000e+00
    outer loop
      vertex 1.625654e+02 1.521267e+02 2.980232e-07
      vertex 1.623723e+02 1.536963e+02 1.608002e-07
      vertex 1.624441e+02 1.538809e+02 1.446645e-07
    endloop
  endfacet
  facet normal -9.654374e-12 -8.742438e-08 -1.000000e+00
    outer loop
      vertex 1.625654e+02 1.521267e+02 2.980232e-07
      vertex 1.623045e+02 1.535156e+02 1.765966e-07
      vertex 1.623723e+02 1.536963e+02 1.608002e-07
    endloop
  endfacet
  facet normal 7.698753e-12 -8.742112e-08 -1.000000e+00
    outer loop
      vertex 1.625654e+02 1.521267e+02 2.980232e-07
      vertex 1.622407e+02 1.533388e+02 1.920538e-07
      vertex 1.623045e+02 1.535156e+02 1.765966e-07
    endloop
  endfacet
  facet normal -8.286521e-13 -8.742339e-08 -1.000000e+00
    outer loop
      vertex 1.625654e+02 1.521267e+02 2.980232e-07
      vertex 1.621809e+02 1.531659e+02 2.071718e-07
      vertex 1.622407e+02 1.533388e+02 1.920538e-07
    endloop
  endfacet
  facet normal 2.368950e-12 -8.742222e-08 -1.000000e+00
    outer loop
      vertex 1.625654e+02 1.521267e+02 2.980232e-07
      vertex 1.621252e+02 1.529968e+02 2.219506e-07
      vertex 1.621809e+02 1.531659e+02 2.071718e-07
    endloop
  endfacet
  facet normal -4.433975e-12 -8.742565e-08 -1.000000e+00
    outer loop
      vertex 1.625654e+02 1.521267e+02 2.980232e-07
      vertex 1.620734e+02 1.528317e+02 2.363902e-07
      vertex 1.621252e+02 1.529968e+02 2.219506e-07
    endloop
  endfacet
  facet normal -0.000000e+00 -8.742256e-08 -1.000000e+00
    outer loop
      vertex 1.615907e+02 1.521267e+02 2.980232e-07
      vertex 1.620734e+02 1.528317e+02 2.363902e-07
      vertex 1.625654e+02 1.521267e+02 2.980232e-07
    endloop
  endfacet
  facet normal 1.806469e-13 -8.742266e-08 -1.000000e+00
    outer loop
      vertex 1.588375e+02 1.585367e+02 -2.623568e-07
      vertex 1.620734e+02 1.528317e+02 2.363902e-07
      vertex 1.615907e+02 1.521267e+02 2.980232e-07
    endloop
  endfacet
  facet normal 4.610579e-12 -8.742027e-08 -1.000000e+00
    outer loop
      vertex 1.588375e+02 1.585367e+02 -2.623568e-07
      vertex 1.620174e+02 1.530065e+02 2.211045e-07
      vertex 1.620734e+02 1.528317e+02 2.363902e-07
    endloop
  endfacet
  facet normal -1.283051e-11 -8.743057e-08 -1.000000e+00
    outer loop
      vertex 1.588375e+02 1.585367e+02 -2.623568e-07
      vertex 1.619585e+02 1.531814e+02 2.058180e-07
      vertex 1.620174e+02 1.530065e+02 2.211045e-07
    endloop
  endfacet
  facet normal 0.000000e+00 -8.742237e-08 -1.000000e+00
    outer loop
      vertex 1.588375e+02 1.585367e+02 -2.623568e-07
      vertex 1.618967e+02 1.533562e+02 1.905308e-07
      vertex 1.619585e+02 1.531814e+02 2.058180e-07
    endloop
  endfacet
  facet normal 1.367465e-11 -8.741403e-08 -1.000000e+00
    outer loop
      vertex 1.588375e+02 1.585367e+02 -2.623568e-07
      vertex 1.618320e+02 1.535311e+02 1.752428e-07
      vertex 1.618967e+02 1.533562e+02 1.905308e-07
    endloop
  endfacet
  facet normal -3.688330e-12 -8.742572e-08 -1.000000e+00
    outer loop
      vertex 1.588375e+02 1.585367e+02 -2.623568e-07
      vertex 1.617643e+02 1.537060e+02 1.599540e-07
      vertex 1.618320e+02 1.535311e+02 1.752428e-07
    endloop
  endfacet
  facet normal 0.000000e+00 -8.742258e-08 -1.000000e+00
    outer loop
      vertex 1.616937e+02 1.538809e+02 1.446645e-07
      vertex 1.588375e+02 1.585367e+02 -2.623568e-07
      vertex 1.597909e+02 1.585367e+02 -2.623568e-07
    endloop
  endfacet
  facet normal 0.000000e+00 1.000000e+00 0.000000e+00
    outer loop
      vertex 1.575439e+02 1.585367e+02 -2.623568e-07
      vertex 1.566089e+02 1.585367e+02 2.000000e+00
      vertex 1.575439e+02 1.585367e+02 2.000000e+00
    endloop
  endfacet
  facet normal -1.000000e+00 -0.000000e+00 0.000000e+00
    outer loop
      vertex 1.566089e+02 1.521267e+02 2.980232e-07
      vertex 1.566089e+02 1.585367e+02 2.000000e+00
      vertex 1.566089e+02 1.585367e+02 -2.623568e-07
    endloop
  endfacet
  facet normal 0.000000e+00 -1.000000e+00 -0.000000e+00
    outer loop
      vertex 1.566089e+02 1.521267e+02 2.980232e-07
      vertex 1.575439e+02 1.521267e+02 2.000000e+00
      vertex 1.566089e+02 1.521267e+02 2.000000e+00
    endloop
  endfacet
  facet normal 0.000000e+00 -8.742274e-08 -1.000000e+00
    outer loop
      vertex 1.566089e+02 1.585367e+02 -2.623568e-07
      vertex 1.575439e+02 1.521267e+02 2.980232e-07
      vertex 1.566089e+02 1.521267e+02 2.980232e-07
    endloop
  endfacet
  facet normal 1.000000e+00 0.000000e+00 0.000000e+00
    outer loop
      vertex 1.575439e+02 1.521267e+02 2.980232e-07
      vertex 1.575439e+02 1.585367e+02 2.000000e+00
      vertex 1.575439e+02 1.521267e+02 2.000000e+00
    endloop
  endfacet
  facet normal 0.000000e+00 1.000000e+00 0.000000e+00
    outer loop
      vertex 1.551099e+02 1.548367e+02 6.110747e-08
      vertex 1.524479e+02 1.548367e+02 2.000000e+00
      vertex 1.551099e+02 1.548367e+02 2.000000e+00
    endloop
  endfacet
  facet normal -1.000000e+00 -0.000000e+00 0.000000e+00
    outer loop
      vertex 1.524479e+02 1.540467e+02 1.301715e-07
      vertex 1.524479e+02 1.548367e+02 2.000000e+00
      vertex 1.524479e+02 1.548367e+02 6.110747e-08
    endloop
  endfacet
  facet normal 0.000000e+00 -1.000000e+00 -0.000000e+00
    outer loop
      vertex 1.524479e+02 1.540467e+02 1.301715e-07
      vertex 1.551099e+02 1.540467e+02 2.000000e+00
      vertex 1.524479e+02 1.540467e+02 2.000000e+00
    endloop
  endfacet
  facet normal 0.000000e+00 -8.742186e-08 -1.000000e+00
    outer loop
      vertex 1.524479e+02 1.548367e+02 6.110747e-08
      vertex 1.551099e+02 1.540467e+02 1.301715e-07
      vertex 1.524479e+02 1.540467e+02 1.301715e-07
    endloop
  endfacet
  facet normal 1.000000e+00 0.000000e+00 0.000000e+00
    outer loop
      vertex 1.551099e+02 1.540467e+02 1.301715e-07
      vertex 1.551099e+02 1.548367e+02 2.000000e+00
      vertex 1.551099e+02 1.540467e+02 2.000000e+00
    endloop
  endfacet
  facet normal 0.000000e+00 1.000000e+00 0.000000e+00
    outer loop
      vertex 1.518058e+02 1.585367e+02 -2.623568e-07
      vertex 1.507949e+02 1.585367e+02 2.000000e+00
      vertex 1.518058e+02 1.585367e+02 2.000000e+00
    endloop
  endfacet
  facet normal -9.303632e-01 3.666391e-01 0.000000e+00
    outer loop
      vertex 1.489601e+02 1.538809e+02 1.446645e-07
      vertex 1.507949e+02 1.585367e+02 2.000000e+00
      vertex 1.507949e+02 1.585367e+02 -2.623568e-07
    endloop
  endfacet
  facet normal -9.319786e-01 3.625132e-01 0.000000e+00
    outer loop
      vertex 1.488883e+02 1.536963e+02 1.608002e-07
      vertex 1.489601e+02 1.538809e+02 2.000000e+00
      vertex 1.489601e+02 1.538809e+02 1.446645e-07
    endloop
  endfacet
  facet normal -9.362869e-01 3.512361e-01 0.000000e+00
    outer loop
      vertex 1.488205e+02 1.535156e+02 1.765966e-07
      vertex 1.488883e+02 1.536963e+02 2.000000e+00
      vertex 1.488883e+02 1.536963e+02 1.608002e-07
    endloop
  endfacet
  facet normal -9.406461e-01 3.393891e-01 0.000000e+00
    outer loop
      vertex 1.487567e+02 1.533388e+02 1.920538e-07
      vertex 1.488205e+02 1.535156e+02 2.000000e+00
      vertex 1.488205e+02 1.535156e+02 1.765966e-07
    endloop
  endfacet
  facet normal -9.451139e-01 3.267410e-01 0.000000e+00
    outer loop
      vertex 1.486969e+02 1.531659e+02 2.071718e-07
      vertex 1.487567e+02 1.533388e+02 2.000000e+00
      vertex 1.487567e+02 1.533388e+02 1.920538e-07
    endloop
  endfacet
  facet normal -9.496304e-01 3.133720e-01 0.000000e+00
    outer loop
      vertex 1.486412e+02 1.529968e+02 2.219506e-07
      vertex 1.486969e+02 1.531659e+02 2.000000e+00
      vertex 1.486969e+02 1.531659e+02 2.071718e-07
    endloop
  endfacet
  facet normal -9.541909e-01 2.991984e-01 0.000000e+00
    outer loop
      vertex 1.485894e+02 1.528317e+02 2.363902e-07
      vertex 1.486412e+02 1.529968e+02 2.000000e+00
      vertex 1.486412e+02 1.529968e+02 2.219506e-07
    endloop
  endfacet
  facet normal 9.524212e-01 3.047848e-01 0.000000e+00
    outer loop
      vertex 1.485894e+02 1.528317e+02 2.363902e-07
      vertex 1.485334e+02 1.530065e+02 2.000000e+00
      vertex 1.485894e+02 1.528317e+02 2.000000e+00
    endloop
  endfacet
  facet normal 9.477029e-01 3.191540e-01 0.000000e+00
    outer loop
      vertex 1.485334e+02 1.530065e+02 2.211045e-07
      vertex 1.484745e+02 1.531814e+02 2.000000e+00
      vertex 1.485334e+02 1.530065e+02 2.000000e+00
    endloop
  endfacet
  facet normal 9.428277e-01 3.332805e-01 0.000000e+00
    outer loop
      vertex 1.484745e+02 1.531814e+02 2.058180e-07
      vertex 1.484127e+02 1.533562e+02 2.000000e+00
      vertex 1.484745e+02 1.531814e+02 2.000000e+00
    endloop
  endfacet
  facet normal 9.377971e-01 3.471838e-01 0.000000e+00
    outer loop
      vertex 1.484127e+02 1.533562e+02 1.905308e-07
      vertex 1.483480e+02 1.535311e+02 2.000000e+00
      vertex 1.484127e+02 1.533562e+02 2.000000e+00
    endloop
  endfacet
  facet normal 9.326096e-01 3.608868e-01 0.000000e+00
    outer loop
      vertex 1.483480e+02 1.535311e+02 1.752428e-07
      vertex 1.482803e+02 1.537060e+02 2.000000e+00
      vertex 1.483480e+02 1.535311e+02 2.000000e+00
    endloop
  endfacet
  facet normal 9.272553e-01 3.744296e-01 0.000000e+00
    outer loop
      vertex 1.482803e+02 1.537060e+02 1.599540e-07
      vertex 1.482097e+02 1.538809e+02 2.000000e+00
      vertex 1.482803e+02 1.537060e+02 2.000000e+00
    endloop
  endfacet
  facet normal 9.256741e-01 3.783219e-01 0.000000e+00
    outer loop
      vertex 1.482097e+02 1.538809e+02 1.446645e-07
      vertex 1.463069e+02 1.585367e+02 2.000000e+00
      vertex 1.482097e+02 1.538809e+02 2.000000e+00
    endloop
  endfacet
  facet normal 0.000000e+00 1.000000e+00 0.000000e+00
    outer loop
      vertex 1.463069e+02 1.585367e+02 -2.623568e-07
      vertex 1.453535e+02 1.585367e+02 2.000000e+00
      vertex 1.463069e+02 1.585367e+02 2.000000e+00
    endloop
  endfacet
  facet normal -9.188271e-01 -3.946604e-01 0.000000e+00
    outer loop
      vertex 1.481067e+02 1.521267e+02 2.980232e-07
      vertex 1.453535e+02 1.585367e+02 2.000000e+00
      vertex 1.453535e+02 1.585367e+02 -2.623568e-07
    endloop
  endfacet
  facet normal 0.000000e+00 -1.000000e+00 -0.000000e+00
    outer loop
      vertex 1.481067e+02 1.521267e+02 2.980232e-07
      vertex 1.490814e+02 1.521267e+02 2.000000e+00
      vertex 1.481067e+02 1.521267e+02 2.000000e+00
    endloop
  endfacet
  facet normal 0.000000e+00 -8.742274e-08 -1.000000e+00
    outer loop
      vertex 1.490814e+02 1.521267e+02 2.980232e-07
      vertex 1.507949e+02 1.585367e+02 -2.623568e-07
      vertex 1.518058e+02 1.585367e+02 -2.623568e-07
    endloop
  endfacet
  facet normal 1.231975e-12 -8.742307e-08 -1.000000e+00
    outer loop
      vertex 1.490814e+02 1.521267e+02 2.980232e-07
      vertex 1.489601e+02 1.538809e+02 1.446645e-07
      vertex 1.507949e+02 1.585367e+02 -2.623568e-07
    endloop
  endfacet
  facet normal 7.664206e-13 -8.742310e-08 -1.000000e+00
    outer loop
      vertex 1.490814e+02 1.521267e+02 2.980232e-07
      vertex 1.488883e+02 1.536963e+02 1.608002e-07
      vertex 1.489601e+02 1.538809e+02 1.446645e-07
    endloop
  endfacet
  facet normal -9.656011e-12 -8.742437e-08 -1.000000e+00
    outer loop
      vertex 1.490814e+02 1.521267e+02 2.980232e-07
      vertex 1.488205e+02 1.535156e+02 1.765966e-07
      vertex 1.488883e+02 1.536963e+02 1.608002e-07
    endloop
  endfacet
  facet normal 7.698907e-12 -8.742112e-08 -1.000000e+00
    outer loop
      vertex 1.490814e+02 1.521267e+02 2.980232e-07
      vertex 1.487567e+02 1.533388e+02 1.920538e-07
      vertex 1.488205e+02 1.535156e+02 1.765966e-07
    endloop
  endfacet
  facet normal -8.286691e-13 -8.742338e-08 -1.000000e+00
    outer loop
      vertex 1.490814e+02 1.521267e+02 2.980232e-07
      vertex 1.486969e+02 1.531659e+02 2.071718e-07
      vertex 1.487567e+02 1.533388e+02 1.920538e-07
    endloop
  endfacet
  facet normal 2.369000e-12 -8.742224e-08 -1.000000e+00
    outer loop
      vertex 1.490814e+02 1.521267e+02 2.980232e-07
      vertex 1.486412e+02 1.529968e+02 2.219506e-07
      vertex 1.486969e+02 1.531659e+02 2.071718e-07
    endloop
  endfacet
  facet normal -4.434069e-12 -8.742565e-08 -1.000000e+00
    outer loop
      vertex 1.490814e+02 1.521267e+02 2.980232e-07
      vertex 1.485894e+02 1.528317e+02 2.363902e-07
      vertex 1.486412e+02 1.529968e+02 2.219506e-07
    endloop
  endfacet
  facet normal -0.000000e+00 -8.742256e-08 -1.000000e+00
    outer loop
      vertex 1.481067e+02 1.521267e+02 2.980232e-07
      vertex 1.485894e+02 1.528317e+02 2.363902e-07
      vertex 1.490814e+02 1.521267e+02 2.980232e-07
    endloop
  endfacet
  facet normal 1.806434e-13 -8.742267e-08 -1.000000e+00
    outer loop
      vertex 1.453535e+02 1.585367e+02 -2.623568e-07
      vertex 1.485894e+02 1.528317e+02 2.363902e-07
      vertex 1.481067e+02 1.521267e+02 2.980232e-07
    endloop
  endfacet
  facet normal 4.610508e-12 -8.741983e-08 -1.000000e+00
    outer loop
      vertex 1.453535e+02 1.585367e+02 -2.623568e-07
      vertex 1.485334e+02 1.530065e+02 2.211045e-07
      vertex 1.485894e+02 1.528317e+02 2.363902e-07
    endloop
  endfacet
  facet normal -1.283041e-11 -8.743034e-08 -1.000000e+00
    outer loop
      vertex 1.453535e+02 1.585367e+02 -2.623568e-07
      vertex 1.484745e+02 1.531814e+02 2.058180e-07
      vertex 1.485334e+02 1.530065e+02 2.211045e-07
    endloop
  endfacet
  facet normal 0.000000e+00 -8.742268e-08 -1.000000e+00
    outer loop
      vertex 1.453535e+02 1.585367e+02 -2.623568e-07
      vertex 1.484127e+02 1.533562e+02 1.905308e-07
      vertex 1.484745e+02 1.531814e+02 2.058180e-07
    endloop
  endfacet
  facet normal 1.366922e-11 -8.741411e-08 -1.000000e+00
    outer loop
      vertex 1.453535e+02 1.585367e+02 -2.623568e-07
      vertex 1.483480e+02 1.535311e+02 1.752428e-07
      vertex 1.484127e+02 1.533562e+02 1.905308e-07
    endloop
  endfacet
  facet normal -3.688273e-12 -8.742560e-08 -1.000000e+00
    outer loop
      vertex 1.453535e+02 1.585367e+02 -2.623568e-07
      vertex 1.482803e+02 1.537060e+02 1.599540e-07
      vertex 1.483480e+02 1.535311e+02 1.752428e-07
    endloop
  endfacet
  facet normal 0.000000e+00 -8.742257e-08 -1.000000e+00
    outer loop
      vertex 1.482097e+02 1.538809e+02 1.446645e-07
      vertex 1.453535e+02 1.585367e+02 -2.623568e-07
      vertex 1.463069e+02 1.585367e+02 -2.623568e-07
    endloop
  endfacet
  facet normal 9.203234e-01 -3.911582e-01 0.000000e+00
    outer loop
      vertex 1.490814e+02 1.521267e+02 2.980232e-07
      vertex 1.518058e+02 1.585367e+02 2.000000e+00
      vertex 1.490814e+02 1.521267e+02 2.000000e+00
    endloop
  endfacet
endsolid Objet01
