solid est
  facet normal 0.000000e+00 -0.000000e+00 1.000000e+00
    outer loop
      vertex 0.000000e+00 2.766994e+00 7.000000e+00
      vertex -3.000000e+00 1.034943e+00 7.000000e+00
      vertex 3.000000e+00 1.034943e+00 7.000000e+00
    endloop
  endfacet
  facet normal 0.000000e+00 0.000000e+00 1.000000e+00
    outer loop
      vertex 0.000000e+00 2.766994e+00 7.000000e+00
      vertex 3.000000e+00 1.034943e+00 7.000000e+00
      vertex -2.384186e-07 6.231095e+00 7.000000e+00
    endloop
  endfacet
  facet normal -0.000000e+00 0.000000e+00 1.000000e+00
    outer loop
      vertex 0.000000e+00 2.766994e+00 7.000000e+00
      vertex -2.384186e-07 6.231095e+00 7.000000e+00
      vertex -3.000000e+00 1.034943e+00 7.000000e+00
    endloop
  endfacet
  facet normal 0.000000e+00 -1.000000e+00 0.000000e+00
    outer loop
      vertex -3.000000e+00 1.034943e+00 7.000000e+00
      vertex -3.000000e+00 1.034943e+00 -3.337860e-07
      vertex 3.000000e+00 1.034943e+00 -3.337860e-07
    endloop
  endfacet
  facet normal 0.000000e+00 -1.000000e+00 0.000000e+00
    outer loop
      vertex -3.000000e+00 1.034943e+00 7.000000e+00
      vertex 3.000000e+00 1.034943e+00 -3.337860e-07
      vertex 3.000000e+00 1.034943e+00 7.000000e+00
    endloop
  endfacet
  facet normal 8.660254e-01 5.000000e-01 -0.000000e+00
    outer loop
      vertex 3.000000e+00 1.034943e+00 7.000000e+00
      vertex 3.000000e+00 1.034943e+00 -3.337860e-07
      vertex -2.384186e-07 6.231095e+00 -3.337860e-07
    endloop
  endfacet
  facet normal 8.660254e-01 5.000000e-01 0.000000e+00
    outer loop
      vertex 3.000000e+00 1.034943e+00 7.000000e+00
      vertex -2.384186e-07 6.231095e+00 -3.337860e-07
      vertex -2.384186e-07 6.231095e+00 7.000000e+00
    endloop
  endfacet
  facet normal -8.660254e-01 4.999999e-01 0.000000e+00
    outer loop
      vertex -2.384186e-07 6.231095e+00 7.000000e+00
      vertex -2.384186e-07 6.231095e+00 -3.337860e-07
      vertex -3.000000e+00 1.034943e+00 -3.337860e-07
    endloop
  endfacet
  facet normal -8.660254e-01 4.999999e-01 0.000000e+00
    outer loop
      vertex -2.384186e-07 6.231095e+00 7.000000e+00
      vertex -3.000000e+00 1.034943e+00 -3.337860e-07
      vertex -3.000000e+00 1.034943e+00 7.000000e+00
    endloop
  endfacet
  facet normal -0.000000e+00 0.000000e+00 -1.000000e+00
    outer loop
      vertex -3.000000e+00 1.034943e+00 -3.337860e-07
      vertex 0.000000e+00 2.766994e+00 -3.337860e-07
      vertex 3.000000e+00 1.034943e+00 -3.337860e-07
    endloop
  endfacet
  facet normal 0.000000e+00 0.000000e+00 -1.000000e+00
    outer loop
      vertex 3.000000e+00 1.034943e+00 -3.337860e-07
      vertex 0.000000e+00 2.766994e+00 -3.337860e-07
      vertex -2.384186e-07 6.231095e+00 -3.337860e-07
    endloop
  endfacet
  facet normal 0.000000e+00 0.000000e+00 -1.000000e+00
    outer loop
      vertex -2.384186e-07 6.231095e+00 -3.337860e-07
      vertex 0.000000e+00 2.766994e+00 -3.337860e-07
      vertex -3.000000e+00 1.034943e+00 -3.337860e-07
    endloop
  endfacet
  facet normal 0.000000e+00 0.000000e+00 1.000000e+00
    outer loop
      vertex 0.000000e+00 -2.766990e+00 7.000000e+00
      vertex 3.000000e+00 -1.034939e+00 7.000000e+00
      vertex -3.000000e+00 -1.034940e+00 7.000000e+00
    endloop
  endfacet
  facet normal -0.000000e+00 -0.000000e+00 1.000000e+00
    outer loop
      vertex 0.000000e+00 -2.766990e+00 7.000000e+00
      vertex -3.000000e+00 -1.034940e+00 7.000000e+00
      vertex 7.152557e-07 -6.231092e+00 7.000000e+00
    endloop
  endfacet
  facet normal 0.000000e+00 0.000000e+00 1.000000e+00
    outer loop
      vertex 0.000000e+00 -2.766990e+00 7.000000e+00
      vertex 7.152557e-07 -6.231092e+00 7.000000e+00
      vertex 3.000000e+00 -1.034939e+00 7.000000e+00
    endloop
  endfacet
  facet normal -1.589457e-07 1.000000e+00 0.000000e+00
    outer loop
      vertex 3.000000e+00 -1.034939e+00 7.000000e+00
      vertex 3.000000e+00 -1.034939e+00 -3.337860e-07
      vertex -3.000000e+00 -1.034940e+00 -3.337860e-07
    endloop
  endfacet
  facet normal -1.589457e-07 1.000000e+00 0.000000e+00
    outer loop
      vertex 3.000000e+00 -1.034939e+00 7.000000e+00
      vertex -3.000000e+00 -1.034940e+00 -3.337860e-07
      vertex -3.000000e+00 -1.034940e+00 7.000000e+00
    endloop
  endfacet
  facet normal -8.660253e-01 -5.000001e-01 0.000000e+00
    outer loop
      vertex -3.000000e+00 -1.034940e+00 7.000000e+00
      vertex -3.000000e+00 -1.034940e+00 -3.337860e-07
      vertex 7.152557e-07 -6.231092e+00 -3.337860e-07
    endloop
  endfacet
  facet normal -8.660253e-01 -5.000001e-01 0.000000e+00
    outer loop
      vertex -3.000000e+00 -1.034940e+00 7.000000e+00
      vertex 7.152557e-07 -6.231092e+00 -3.337860e-07
      vertex 7.152557e-07 -6.231092e+00 7.000000e+00
    endloop
  endfacet
  facet normal 8.660255e-01 -4.999998e-01 0.000000e+00
    outer loop
      vertex 7.152557e-07 -6.231092e+00 7.000000e+00
      vertex 7.152557e-07 -6.231092e+00 -3.337860e-07
      vertex 3.000000e+00 -1.034939e+00 -3.337860e-07
    endloop
  endfacet
  facet normal 8.660255e-01 -4.999998e-01 0.000000e+00
    outer loop
      vertex 7.152557e-07 -6.231092e+00 7.000000e+00
      vertex 3.000000e+00 -1.034939e+00 -3.337860e-07
      vertex 3.000000e+00 -1.034939e+00 7.000000e+00
    endloop
  endfacet
  facet normal 0.000000e+00 0.000000e+00 -1.000000e+00
    outer loop
      vertex 3.000000e+00 -1.034939e+00 -3.337860e-07
      vertex 0.000000e+00 -2.766990e+00 -3.337860e-07
      vertex -3.000000e+00 -1.034940e+00 -3.337860e-07
    endloop
  endfacet
  facet normal 0.000000e+00 0.000000e+00 -1.000000e+00
    outer loop
      vertex -3.000000e+00 -1.034940e+00 -3.337860e-07
      vertex 0.000000e+00 -2.766990e+00 -3.337860e-07
      vertex 7.152557e-07 -6.231092e+00 -3.337860e-07
    endloop
  endfacet
  facet normal 0.000000e+00 -0.000000e+00 -1.000000e+00
    outer loop
      vertex 7.152557e-07 -6.231092e+00 -3.337860e-07
      vertex 0.000000e+00 -2.766990e+00 -3.337860e-07
      vertex 3.000000e+00 -1.034939e+00 -3.337860e-07
    endloop
  endfacet
endsolid est
