solid BCNCAR_1
facet normal 0.000000e+00 -0.000000e+00 1.000000e+00
    outer loop
      vertex 0.000000e+00 -4.461072e+00 5.000000e+00
      vertex -3.000000e+00 -6.193123e+00 5.000000e+00
      vertex 3.000000e+00 -6.193123e+00 5.000000e+00
    endloop
  endfacet
  facet normal 0.000000e+00 0.000000e+00 1.000000e+00
    outer loop
      vertex 0.000000e+00 -4.461072e+00 5.000000e+00
      vertex 3.000000e+00 -6.193123e+00 5.000000e+00
      vertex -2.384186e-07 -9.969702e-01 5.000000e+00
    endloop
  endfacet
  facet normal -0.000000e+00 0.000000e+00 1.000000e+00
    outer loop
      vertex 0.000000e+00 -4.461072e+00 5.000000e+00
      vertex -2.384186e-07 -9.969702e-01 5.000000e+00
      vertex -3.000000e+00 -6.193123e+00 5.000000e+00
    endloop
  endfacet
  facet normal 0.000000e+00 -1.000000e+00 0.000000e+00
    outer loop
      vertex -3.000000e+00 -6.193123e+00 5.000000e+00
      vertex -3.000000e+00 -6.193123e+00 0.000000e+00
      vertex 3.000000e+00 -6.193123e+00 0.000000e+00
    endloop
  endfacet
  facet normal 0.000000e+00 -1.000000e+00 0.000000e+00
    outer loop
      vertex -3.000000e+00 -6.193123e+00 5.000000e+00
      vertex 3.000000e+00 -6.193123e+00 0.000000e+00
      vertex 3.000000e+00 -6.193123e+00 5.000000e+00
    endloop
  endfacet
  facet normal 8.660254e-01 5.000000e-01 -0.000000e+00
    outer loop
      vertex 3.000000e+00 -6.193123e+00 5.000000e+00
      vertex 3.000000e+00 -6.193123e+00 0.000000e+00
      vertex -2.384186e-07 -9.969702e-01 0.000000e+00
    endloop
  endfacet
  facet normal 8.660254e-01 5.000000e-01 0.000000e+00
    outer loop
      vertex 3.000000e+00 -6.193123e+00 5.000000e+00
      vertex -2.384186e-07 -9.969702e-01 0.000000e+00
      vertex -2.384186e-07 -9.969702e-01 5.000000e+00
    endloop
  endfacet
  facet normal -8.660254e-01 5.000000e-01 0.000000e+00
    outer loop
      vertex -2.384186e-07 -9.969702e-01 5.000000e+00
      vertex -2.384186e-07 -9.969702e-01 0.000000e+00
      vertex -3.000000e+00 -6.193123e+00 0.000000e+00
    endloop
  endfacet
  facet normal -8.660254e-01 5.000000e-01 0.000000e+00
    outer loop
      vertex -2.384186e-07 -9.969702e-01 5.000000e+00
      vertex -3.000000e+00 -6.193123e+00 0.000000e+00
      vertex -3.000000e+00 -6.193123e+00 5.000000e+00
    endloop
  endfacet
  facet normal -0.000000e+00 0.000000e+00 -1.000000e+00
    outer loop
      vertex -3.000000e+00 -6.193123e+00 0.000000e+00
      vertex 0.000000e+00 -4.461072e+00 0.000000e+00
      vertex 3.000000e+00 -6.193123e+00 0.000000e+00
    endloop
  endfacet
  facet normal 0.000000e+00 0.000000e+00 -1.000000e+00
    outer loop
      vertex 3.000000e+00 -6.193123e+00 0.000000e+00
      vertex 0.000000e+00 -4.461072e+00 0.000000e+00
      vertex -2.384186e-07 -9.969702e-01 0.000000e+00
    endloop
  endfacet
  facet normal 0.000000e+00 0.000000e+00 -1.000000e+00
    outer loop
      vertex -2.384186e-07 -9.969702e-01 0.000000e+00
      vertex 0.000000e+00 -4.461072e+00 0.000000e+00
      vertex -3.000000e+00 -6.193123e+00 0.000000e+00
    endloop
  endfacet
  facet normal 0.000000e+00 -0.000000e+00 1.000000e+00
    outer loop
      vertex 0.000000e+00 2.729020e+00 5.000000e+00
      vertex -3.000000e+00 9.969692e-01 5.000000e+00
      vertex 3.000000e+00 9.969692e-01 5.000000e+00
    endloop
  endfacet
  facet normal 0.000000e+00 0.000000e+00 1.000000e+00
    outer loop
      vertex 0.000000e+00 2.729020e+00 5.000000e+00
      vertex 3.000000e+00 9.969692e-01 5.000000e+00
      vertex -2.384186e-07 6.193122e+00 5.000000e+00
    endloop
  endfacet
  facet normal -0.000000e+00 0.000000e+00 1.000000e+00
    outer loop
      vertex 0.000000e+00 2.729020e+00 5.000000e+00
      vertex -2.384186e-07 6.193122e+00 5.000000e+00
      vertex -3.000000e+00 9.969692e-01 5.000000e+00
    endloop
  endfacet
  facet normal 0.000000e+00 -1.000000e+00 0.000000e+00
    outer loop
      vertex -3.000000e+00 9.969692e-01 5.000000e+00
      vertex -3.000000e+00 9.969692e-01 0.000000e+00
      vertex 3.000000e+00 9.969692e-01 0.000000e+00
    endloop
  endfacet
  facet normal 0.000000e+00 -1.000000e+00 0.000000e+00
    outer loop
      vertex -3.000000e+00 9.969692e-01 5.000000e+00
      vertex 3.000000e+00 9.969692e-01 0.000000e+00
      vertex 3.000000e+00 9.969692e-01 5.000000e+00
    endloop
  endfacet
  facet normal 8.660254e-01 5.000000e-01 -0.000000e+00
    outer loop
      vertex 3.000000e+00 9.969692e-01 5.000000e+00
      vertex 3.000000e+00 9.969692e-01 0.000000e+00
      vertex -2.384186e-07 6.193122e+00 0.000000e+00
    endloop
  endfacet
  facet normal 8.660254e-01 5.000000e-01 0.000000e+00
    outer loop
      vertex 3.000000e+00 9.969692e-01 5.000000e+00
      vertex -2.384186e-07 6.193122e+00 0.000000e+00
      vertex -2.384186e-07 6.193122e+00 5.000000e+00
    endloop
  endfacet
  facet normal -8.660254e-01 5.000000e-01 0.000000e+00
    outer loop
      vertex -2.384186e-07 6.193122e+00 5.000000e+00
      vertex -2.384186e-07 6.193122e+00 0.000000e+00
      vertex -3.000000e+00 9.969692e-01 0.000000e+00
    endloop
  endfacet
  facet normal -8.660254e-01 5.000000e-01 0.000000e+00
    outer loop
      vertex -2.384186e-07 6.193122e+00 5.000000e+00
      vertex -3.000000e+00 9.969692e-01 0.000000e+00
      vertex -3.000000e+00 9.969692e-01 5.000000e+00
    endloop
  endfacet
  facet normal -0.000000e+00 0.000000e+00 -1.000000e+00
    outer loop
      vertex -3.000000e+00 9.969692e-01 0.000000e+00
      vertex 0.000000e+00 2.729020e+00 0.000000e+00
      vertex 3.000000e+00 9.969692e-01 0.000000e+00
    endloop
  endfacet
  facet normal 0.000000e+00 0.000000e+00 -1.000000e+00
    outer loop
      vertex 3.000000e+00 9.969692e-01 0.000000e+00
      vertex 0.000000e+00 2.729020e+00 0.000000e+00
      vertex -2.384186e-07 6.193122e+00 0.000000e+00
    endloop
  endfacet
  facet normal 0.000000e+00 0.000000e+00 -1.000000e+00
    outer loop
      vertex -2.384186e-07 6.193122e+00 0.000000e+00
      vertex 0.000000e+00 2.729020e+00 0.000000e+00
      vertex -3.000000e+00 9.969692e-01 0.000000e+00
    endloop
  endfacet
endsolid BCNCAR_1