solid 
facet normal -0.000000e+00 0.000000e+00 1.000000e+00
    outer loop
vertex 66.52268598356261 71.09921934681121 5.231994520189398
vertex 66.24340703545674 72.4095156847779 5.231994520189398
vertex 66.17345811267266 70.50353860565394 5.231994520189398
    endloop
  endfacet
  facet normal 0.000000e+00 0.000000e+00 1.000000e+00
    outer loop
vertex 66.24340703545674 72.4095156847779 5.231994520189398
vertex 66.52268598356261 71.09921934681121 5.231994520189398
vertex 66.54802278250301 71.78974352220781 5.231994520189398
    endloop
  endfacet
  facet normal 0.000000e+00 0.000000e+00 1.000000e+00
    outer loop
vertex 59.32035841699267 69.3333153043044 5.231994520189398
vertex 59.22038920168262 70.4106539602699 5.231994520189398
vertex 59.10112005493194 70.21106612910569 5.231994520189398
    endloop
  endfacet
  facet normal 0.000000e+00 0.000000e+00 1.000000e+00
    outer loop
vertex 59.22038920168262 70.4106539602699 5.231994520189398
vertex 59.32035841699267 69.3333153043044 5.231994520189398
vertex 64.84059812336844 71.82304000808803 5.231994520189398
    endloop
  endfacet
  facet normal 0.000000e+00 0.000000e+00 1.000000e+00
    outer loop
vertex 64.84059812336844 71.82304000808803 5.231994520189398
vertex 59.32035841699267 69.3333153043044 5.231994520189398
vertex 59.51934538480195 69.21371343539745 5.231994520189398
    endloop
  endfacet
  facet normal 0.000000e+00 0.000000e+00 1.000000e+00
    outer loop
vertex 64.84059812336844 71.82304000808803 5.231994520189398
vertex 59.51934538480195 69.21371343539745 5.231994520189398
vertex 64.2741168387798 70.40861319963852 5.231994520189398
    endloop
  endfacet
  facet normal 0.000000e+00 -0.000000e+00 1.000000e+00
    outer loop
vertex 64.84059812336844 71.82304000808803 5.231994520189398
vertex 64.2741168387798 70.40861319963852 5.231994520189398
vertex 64.89597982202439 70.11118727233773 5.231994520189398
    endloop
  endfacet
  facet normal 0.000000e+00 0.000000e+00 1.000000e+00
    outer loop
vertex 64.84059812336844 71.82304000808803 5.231994520189398
vertex 64.89597982202439 70.11118727233773 5.231994520189398
vertex 80.60673097984986 138.60009513973986 5.231994520189398
    endloop
  endfacet
  facet normal 0.000000e+00 0.000000e+00 1.000000e+00
    outer loop
vertex 80.60673097984986 138.60009513973986 5.231994520189398
vertex 64.89597982202439 70.11118727233773 5.231994520189398
vertex 65.58410891089332 70.14558050859368 5.231994520189398
    endloop
  endfacet
  facet normal 0.000000e+00 0.000000e+00 1.000000e+00
    outer loop
vertex 80.60673097984986 138.60009513973986 5.231994520189398
vertex 65.58410891089332 70.14558050859368 5.231994520189398
vertex 66.24340703545674 72.4095156847779 5.231994520189398
    endloop
  endfacet
  facet normal 0.000000e+00 0.000000e+00 1.000000e+00
    outer loop
vertex 66.24340703545674 72.4095156847779 5.231994520189398
vertex 65.58410891089332 70.14558050859368 5.231994520189398
vertex 66.17345811267266 70.50353860565394 5.231994520189398
    endloop
  endfacet
  facet normal 0.000000e+00 -0.000000e+00 1.000000e+00
    outer loop
vertex 80.60673097984986 138.60009513973986 5.231994520189398
vertex 66.24340703545674 72.4095156847779 5.231994520189398
vertex 81.83512691467347 138.44779690942704 5.231994520189398
    endloop
  endfacet
  facet normal 0.000000e+00 0.000000e+00 1.000000e+00
    outer loop
vertex 70.33935610283972 136.66993368743397 5.231994520189398
vertex 70.2082920975762 137.2727314695718 5.231994520189398
vertex 70.19329835572718 136.95371530033364 5.231994520189398
    endloop
  endfacet
  facet normal 0.000000e+00 0.000000e+00 1.000000e+00
    outer loop
vertex 70.2082920975762 137.2727314695718 5.231994520189398
vertex 70.33935610283972 136.66993368743397 5.231994520189398
vertex 70.38031821830374 137.54149440353368 5.231994520189398
    endloop
  endfacet
  facet normal 0.000000e+00 -0.000000e+00 1.000000e+00
    outer loop
vertex 70.38031821830374 137.54149440353368 5.231994520189398
vertex 70.33935610283972 136.66993368743397 5.231994520189398
vertex 70.60732412665674 136.4974197125503 5.231994520189398
    endloop
  endfacet
  facet normal 0.000000e+00 0.000000e+00 1.000000e+00
    outer loop
vertex 70.38031821830374 137.54149440353368 5.231994520189398
vertex 70.60732412665674 136.4974197125503 5.231994520189398
vertex 70.66327998396831 137.6879965596091 5.231994520189398
    endloop
  endfacet
  facet normal 0.000000e+00 -0.000000e+00 1.000000e+00
    outer loop
vertex 70.66327998396831 137.6879965596091 5.231994520189398
vertex 70.60732412665674 136.4974197125503 5.231994520189398
vertex 70.92540799448429 136.48240070118032 5.231994520189398
    endloop
  endfacet
  facet normal 0.000000e+00 0.000000e+00 1.000000e+00
    outer loop
vertex 70.66327998396831 137.6879965596091 5.231994520189398
vertex 70.92540799448429 136.48240070118032 5.231994520189398
vertex 135.9861411204078 151.97285154869485 5.231994520189398
    endloop
  endfacet
  facet normal 0.000000e+00 0.000000e+00 1.000000e+00
    outer loop
vertex 135.9861411204078 151.97285154869485 5.231994520189398
vertex 70.92540799448429 136.48240070118032 5.231994520189398
vertex 80.60673097984986 138.60009513973986 5.231994520189398
    endloop
  endfacet
  facet normal 0.000000e+00 0.000000e+00 1.000000e+00
    outer loop
vertex 135.9861411204078 151.97285154869485 5.231994520189398
vertex 80.60673097984986 138.60009513973986 5.231994520189398
vertex 81.83512691467347 138.44779690942704 5.231994520189398
    endloop
  endfacet
  facet normal 0.000000e+00 -0.000000e+00 1.000000e+00
    outer loop
vertex 135.9861411204078 151.97285154869485 5.231994520189398
vertex 81.83512691467347 138.44779690942704 5.231994520189398
vertex 136.33563966227982 150.36534121196007 5.231994520189398
    endloop
  endfacet
  facet normal 0.000000e+00 0.000000e+00 1.000000e+00
    outer loop
vertex 135.9861411204078 151.97285154869485 5.231994520189398
vertex 136.33563966227982 150.36534121196007 5.231994520189398
vertex 136.18137144874873 151.84713791690564 5.231994520189398
    endloop
  endfacet
  facet normal 0.000000e+00 0.000000e+00 1.000000e+00
    outer loop
vertex 136.18137144874873 151.84713791690564 5.231994520189398
vertex 136.33563966227982 150.36534121196007 5.231994520189398
vertex 136.4609702823398 150.56112461554028 5.231994520189398
    endloop
  endfacet
  facet normal 9.770417e-01 2.130481e-01 0.000000e+00
    outer loop
vertex 136.18138785339374 151.84715436825792 4.0
vertex 136.4609866869896 150.56114106648522 5.231994520189398
vertex 136.4609866869896 150.56114106648522 4.0
    endloop
  endfacet
  facet normal 9.770417e-01 2.130481e-01 0.000000e+00
    outer loop
vertex 136.4609866869896 150.56114106648522 5.231994520189398
vertex 136.18138785339374 151.84715436825792 4.0
vertex 136.18138785339374 151.84715436825792 5.231994520189398
    endloop
  endfacet
  facet normal 5.402348e-01 8.415143e-01 0.000000e+00
    outer loop
vertex 135.98615752488374 151.9728680001053 4.0
vertex 136.18138785339374 151.84715436825792 5.231994520189398
vertex 136.18138785339374 151.84715436825792 4.0
    endloop
  endfacet
  facet normal 5.402348e-01 8.415143e-01 0.000000e+00
    outer loop
vertex 136.18138785339374 151.84715436825792 5.231994520189398
vertex 135.98615752488374 151.9728680001053 4.0
vertex 135.98615752488374 151.9728680001053 5.231994520189398
    endloop
  endfacet
  facet normal 8.415111e-01 -5.402398e-01 0.000000e+00
    outer loop
vertex 136.4609866869896 150.56114106648522 4.0
vertex 136.3356478645153 150.36534943747617 5.231994520189398
vertex 136.3356478645153 150.36534943747617 4.0
    endloop
  endfacet
  facet normal 8.415111e-01 -5.402398e-01 0.000000e+00
    outer loop
vertex 136.3356478645153 150.36534943747617 5.231994520189398
vertex 136.4609866869896 150.56114106648522 4.0
vertex 136.4609866869896 150.56114106648522 5.231994520189398
    endloop
  endfacet
  facet normal -2.130477e-01 9.770418e-01 0.000000e+00
    outer loop
vertex 70.66327178155878 137.68800478561892 4.000000000000009
vertex 135.98615752488374 151.9728680001053 5.231994520189398
vertex 135.98615752488374 151.9728680001053 4.0
    endloop
  endfacet
  facet normal -2.130477e-01 9.770418e-01 0.000000e+00
    outer loop
vertex 135.98615752488374 151.9728680001053 5.231994520189398
vertex 70.66327178155878 137.68800478561892 4.000000000000009
vertex 70.66327178155878 137.68800478561892 5.231994520189398
    endloop
  endfacet
  facet normal 2.130477e-01 -9.770418e-01 0.000000e+00
    outer loop
vertex 136.3356478645153 150.36534943747617 5.231994520189398
vertex 81.83511871243788 138.44781336185395 4.000000000000008
vertex 136.3356478645153 150.36534943747617 4.0
    endloop
  endfacet
  facet normal 2.130477e-01 -9.770418e-01 0.000000e+00
    outer loop
vertex 81.83511871243788 138.44781336185395 4.000000000000008
vertex 136.3356478645153 150.36534943747617 5.231994520189398
vertex 81.83511871243788 138.44781336185395 5.231994520189398
    endloop
  endfacet
  facet normal -4.586712e-01 8.886061e-01 0.000000e+00
    outer loop
vertex 70.38031001589421 137.54151085566957 5.231994520189398
vertex 70.66327178155878 137.68800478561892 4.000000000000009
vertex 70.38031001589421 137.54151085566957 4.000000000000009
    endloop
  endfacet
  facet normal -4.586712e-01 8.886061e-01 0.000000e+00
    outer loop
vertex 70.66327178155878 137.68800478561892 4.000000000000009
vertex 70.38031001589421 137.54151085566957 5.231994520189398
vertex 70.66327178155878 137.68800478561892 5.231994520189398
    endloop
  endfacet
  facet normal 9.730905e-01 -2.304234e-01 0.000000e+00
    outer loop
vertex 81.83511871243788 138.44781336185395 4.000000000000008
vertex 66.24339063080677 72.40949923075885 5.231994520189398
vertex 66.24339063080677 72.40949923075885 4.0
    endloop
  endfacet
  facet normal 9.730905e-01 -2.304234e-01 0.000000e+00
    outer loop
vertex 66.24339063080677 72.40949923075885 5.231994520189398
vertex 81.83511871243788 138.44781336185395 4.000000000000008
vertex 81.83511871243788 138.44781336185395 5.231994520189398
    endloop
  endfacet
  facet normal -8.415183e-01 5.402286e-01 0.000000e+00
    outer loop
vertex 70.38031001589421 137.54151085566957 5.231994520189398
vertex 70.20828389533575 137.27274792167853 4.000000000000009
vertex 70.20828389533575 137.27274792167853 5.231994520189398
    endloop
  endfacet
  facet normal -8.415183e-01 5.402286e-01 0.000000e+00
    outer loop
vertex 70.20828389533575 137.27274792167853 4.000000000000009
vertex 70.38031001589421 137.54151085566957 5.231994520189398
vertex 70.38031001589421 137.54151085566957 4.000000000000009
    endloop
  endfacet
  facet normal 8.969500e-01 4.421319e-01 0.000000e+00
    outer loop
vertex 66.24339063080677 72.40949923075885 4.0
vertex 66.54801458026742 71.78973529556187 5.231994520189398
vertex 66.54801458026742 71.78973529556187 4.0
    endloop
  endfacet
  facet normal 8.969500e-01 4.421319e-01 0.000000e+00
    outer loop
vertex 66.54801458026742 71.78973529556187 5.231994520189398
vertex 66.24339063080677 72.40949923075885 4.0
vertex 66.24339063080677 72.40949923075885 5.231994520189398
    endloop
  endfacet
  facet normal -9.988908e-01 4.708825e-02 0.000000e+00
    outer loop
vertex 70.20828389533575 137.27274792167853 5.231994520189398
vertex 70.19329015349159 136.95372352631435 4.000000000000009
vertex 70.19329015349159 136.95372352631435 5.231994520189398
    endloop
  endfacet
  facet normal -9.988908e-01 4.708825e-02 0.000000e+00
    outer loop
vertex 70.19329015349159 136.95372352631435 4.000000000000009
vertex 70.20828389533575 137.27274792167853 5.231994520189398
vertex 70.20828389533575 137.27274792167853 4.000000000000009
    endloop
  endfacet
  facet normal 9.993234e-01 -3.677857e-02 0.000000e+00
    outer loop
vertex 66.54801458026742 71.78973529556187 4.0
vertex 66.52266957891263 71.09919466696071 5.231994520189398
vertex 66.52266957891263 71.09919466696071 4.0
    endloop
  endfacet
  facet normal 9.993234e-01 -3.677857e-02 0.000000e+00
    outer loop
vertex 66.52266957891263 71.09919466696071 5.231994520189398
vertex 66.54801458026742 71.78973529556187 4.0
vertex 66.54801458026742 71.78973529556187 5.231994520189398
    endloop
  endfacet
  facet normal -8.886093e-01 -4.586649e-01 0.000000e+00
    outer loop
vertex 70.19329015349159 136.95372352631435 5.231994520189398
vertex 70.33933969836369 136.66994191257126 4.000000000000009
vertex 70.33933969836369 136.66994191257126 5.231994520189398
    endloop
  endfacet
  facet normal -8.886093e-01 -4.586649e-01 0.000000e+00
    outer loop
vertex 70.33933969836369 136.66994191257126 4.000000000000009
vertex 70.19329015349159 136.95372352631435 5.231994520189398
vertex 70.19329015349159 136.95372352631435 4.000000000000009
    endloop
  endfacet
  facet normal 8.620198e-01 -5.068746e-01 0.000000e+00
    outer loop
vertex 66.52266957891263 71.09919466696071 4.0
vertex 66.17344991043707 70.50352215215858 5.231994520189398
vertex 66.17344991043707 70.50352215215858 4.0
    endloop
  endfacet
  facet normal 8.620198e-01 -5.068746e-01 0.000000e+00
    outer loop
vertex 66.17344991043707 70.50352215215858 5.231994520189398
vertex 66.52266957891263 71.09919466696071 4.0
vertex 66.52266957891263 71.09919466696071 5.231994520189398
    endloop
  endfacet
  facet normal -5.402250e-01 -8.415207e-01 0.000000e+00
    outer loop
vertex 70.60731592424722 136.49742793824015 5.231994520189398
vertex 70.33933969836369 136.66994191257126 4.000000000000009
vertex 70.60731592424722 136.49742793824015 4.000000000000009
    endloop
  endfacet
  facet normal -5.402250e-01 -8.415207e-01 -0.000000e+00
    outer loop
vertex 70.33933969836369 136.66994191257126 4.000000000000009
vertex 70.60731592424722 136.49742793824015 5.231994520189398
vertex 70.33933969836369 136.66994191257126 5.231994520189398
    endloop
  endfacet
  facet normal 5.179777e-01 -8.553941e-01 0.000000e+00
    outer loop
vertex 66.17344991043707 70.50352215215858 4.0
vertex 65.58410070865772 70.14556405565095 5.231994520189398
vertex 65.58410070865772 70.14556405565095 4.0
    endloop
  endfacet
  facet normal 5.179777e-01 -8.553941e-01 0.000000e+00
    outer loop
vertex 65.58410070865772 70.14556405565095 5.231994520189398
vertex 66.17344991043707 70.50352215215858 4.0
vertex 66.17344991043707 70.50352215215858 5.231994520189398
    endloop
  endfacet
  facet normal -4.708901e-02 -9.988907e-01 0.000000e+00
    outer loop
vertex 70.92539158983917 136.48240892660837 5.231994520189398
vertex 70.60731592424722 136.49742793824015 4.000000000000009
vertex 70.92539158983917 136.48240892660837 4.000000000000009
    endloop
  endfacet
  facet normal -4.708901e-02 -9.988907e-01 -0.000000e+00
    outer loop
vertex 70.60731592424722 136.49742793824015 4.000000000000009
vertex 70.92539158983917 136.48240892660837 5.231994520189398
vertex 70.60731592424722 136.49742793824015 5.231994520189398
    endloop
  endfacet
  facet normal 4.969956e-02 -9.987642e-01 0.000000e+00
    outer loop
vertex 65.58410070865772 70.14556405565095 5.231994520189398
vertex 64.8959716197888 70.11117081919139 4.0
vertex 65.58410070865772 70.14556405565095 4.0
    endloop
  endfacet
  facet normal 4.969956e-02 -9.987642e-01 0.000000e+00
    outer loop
vertex 64.8959716197888 70.11117081919139 4.0
vertex 65.58410070865772 70.14556405565095 5.231994520189398
vertex 64.8959716197888 70.11117081919139 5.231994520189398
    endloop
  endfacet
  facet normal 2.130477e-01 -9.770418e-01 0.000000e+00
    outer loop
vertex 80.60672277761428 138.60010336569152 5.231994520189398
vertex 70.92539158983917 136.48240892660837 4.000000000000009
vertex 80.60672277761428 138.60010336569152 4.000000000000008
    endloop
  endfacet
  facet normal 2.130477e-01 -9.770418e-01 0.000000e+00
    outer loop
vertex 70.92539158983917 136.48240892660837 4.000000000000009
vertex 80.60672277761428 138.60010336569152 5.231994520189398
vertex 70.92539158983917 136.48240892660837 5.231994520189398
    endloop
  endfacet
  facet normal -4.304990e-01 -9.025910e-01 0.000000e+00
    outer loop
vertex 64.8959716197888 70.11117081919139 5.231994520189398
vertex 64.27410863654421 70.40859674672484 4.0
vertex 64.8959716197888 70.11117081919139 4.0
    endloop
  endfacet
  facet normal -4.304990e-01 -9.025910e-01 -0.000000e+00
    outer loop
vertex 64.27410863654421 70.40859674672484 4.0
vertex 64.8959716197888 70.11117081919139 5.231994520189398
vertex 64.27410863654421 70.40859674672484 5.231994520189398
    endloop
  endfacet
  facet normal -9.730905e-01 2.304234e-01 0.000000e+00
    outer loop
vertex 80.60672277761428 138.60010336569152 5.231994520189398
vertex 64.8405817188924 71.82302355470885 4.0
vertex 64.8405817188924 71.82302355470885 5.231994520189398
    endloop
  endfacet
  facet normal -9.730905e-01 2.304234e-01 0.000000e+00
    outer loop
vertex 64.8405817188924 71.82302355470885 4.0
vertex 80.60672277761428 138.60010336569152 5.231994520189398
vertex 80.60672277761428 138.60010336569152 4.000000000000008
    endloop
  endfacet
  facet normal 2.429869e-01 -9.700296e-01 0.000000e+00
    outer loop
vertex 64.27410863654421 70.40859674672484 4.0
vertex 59.51933718256635 69.21369698219304 5.231994520189398
vertex 59.51933718256635 69.21369698219304 4.0
    endloop
  endfacet
  facet normal 2.429869e-01 -9.700296e-01 0.000000e+00
    outer loop
vertex 59.51933718256635 69.21369698219304 5.231994520189398
vertex 64.27410863654421 70.40859674672484 4.0
vertex 64.27410863654421 70.40859674672484 5.231994520189398
    endloop
  endfacet
  facet normal -2.429878e-01 9.700294e-01 0.000000e+00
    outer loop
vertex 59.220380999447016 70.4106292809139 5.231994520189398
vertex 64.8405817188924 71.82302355470885 4.0
vertex 59.220380999447016 70.4106292809139 4.0
    endloop
  endfacet
  facet normal -2.429878e-01 9.700294e-01 0.000000e+00
    outer loop
vertex 64.8405817188924 71.82302355470885 4.0
vertex 59.220380999447016 70.4106292809139 5.231994520189398
vertex 64.8405817188924 71.82302355470885 5.231994520189398
    endloop
  endfacet
  facet normal -5.140830e-01 -8.577405e-01 0.000000e+00
    outer loop
vertex 59.51933718256635 69.21369698219304 4.0
vertex 59.320350214752246 69.33329885089643 5.231994520189398
vertex 59.320350214752246 69.33329885089643 4.0
    endloop
  endfacet
  facet normal -5.140830e-01 -8.577405e-01 0.000000e+00
    outer loop
vertex 59.320350214752246 69.33329885089643 5.231994520189398
vertex 59.51933718256635 69.21369698219304 4.0
vertex 59.51933718256635 69.21369698219304 5.231994520189398
    endloop
  endfacet
  facet normal -8.577307e-01 5.140993e-01 0.000000e+00
    outer loop
vertex 59.220380999447016 70.4106292809139 5.231994520189398
vertex 59.10111185269633 70.2110496760466 4.0
vertex 59.10111185269633 70.2110496760466 5.231994520189398
    endloop
  endfacet
  facet normal -8.577307e-01 5.140993e-01 0.000000e+00
    outer loop
vertex 59.10111185269633 70.2110496760466 4.0
vertex 59.220380999447016 70.4106292809139 5.231994520189398
vertex 59.220380999447016 70.4106292809139 4.0
    endloop
  endfacet
  facet normal -9.700300e-01 -2.429854e-01 0.000000e+00
    outer loop
vertex 59.10111185269633 70.2110496760466 5.231994520189398
vertex 59.320350214752246 69.33329885089643 4.0
vertex 59.320350214752246 69.33329885089643 5.231994520189398
    endloop
  endfacet
  facet normal -9.700300e-01 -2.429854e-01 0.000000e+00
    outer loop
vertex 59.320350214752246 69.33329885089643 4.0
vertex 59.10111185269633 70.2110496760466 5.231994520189398
vertex 59.10111185269633 70.2110496760466 4.0
    endloop
  endfacet
endsolid 
