solid SPP_new - croix.stl
 facet normal 0.000000 0.000000 1.000000
  outer loop
   vertex -2.500000 -1.874999 3.500000
   vertex -1.875442 -2.500001 3.500000
   vertex 0.000320 -0.624429 3.500000
  endloop
 endfacet
 facet normal 0.000000 0.000000 1.000000
  outer loop
   vertex -2.500000 -1.874999 3.500000
   vertex 0.000320 -0.624429 3.500000
   vertex -0.624434 0.000751 3.500000
  endloop
 endfacet
 facet normal -0.707142 0.707072 0.000000
  outer loop
   vertex -2.500000 -1.874999 -3.500000
   vertex -2.500000 -1.874999 3.500000
   vertex -0.624434 0.000751 3.500000
  endloop
 endfacet
 facet normal -0.707142 0.707072 0.000000
  outer loop
   vertex -2.500000 -1.874999 -3.500000
   vertex -0.624434 0.000751 3.500000
   vertex -0.624434 0.000751 -3.500000
  endloop
 endfacet
 facet normal 0.000000 0.000000 -1.000000
  outer loop
   vertex -1.875442 -2.500001 -3.500000
   vertex -2.500000 -1.874999 -3.500000
   vertex 0.000320 -0.624429 -3.500000
  endloop
 endfacet
 facet normal 0.000000 0.000000 -1.000000
  outer loop
   vertex -0.624434 0.000751 -3.500000
   vertex 0.000320 -0.624429 -3.500000
   vertex -2.500000 -1.874999 -3.500000
  endloop
 endfacet
 facet normal -0.707358 -0.706856 0.000000
  outer loop
   vertex -2.500000 -1.874999 3.500000
   vertex -2.500000 -1.874999 -3.500000
   vertex -1.875442 -2.500001 -3.500000
  endloop
 endfacet
 facet normal -0.707358 -0.706856 0.000000
  outer loop
   vertex -2.500000 -1.874999 3.500000
   vertex -1.875442 -2.500001 -3.500000
   vertex -1.875442 -2.500001 3.500000
  endloop
 endfacet
 facet normal 0.707071 -0.707143 0.000000
  outer loop
   vertex -1.875442 -2.500001 3.500000
   vertex -1.875442 -2.500001 -3.500000
   vertex 0.000320 -0.624429 -3.500000
  endloop
 endfacet
 facet normal 0.707071 -0.707143 0.000000
  outer loop
   vertex -1.875442 -2.500001 3.500000
   vertex 0.000320 -0.624429 -3.500000
   vertex 0.000320 -0.624429 3.500000
  endloop
 endfacet
 facet normal -0.707359 -0.706855 0.000000
  outer loop
   vertex -2.497350 1.875001 3.500000
   vertex -2.497350 1.875001 -3.500000
   vertex -0.624434 0.000751 -3.500000
  endloop
 endfacet
 facet normal -0.707359 -0.706855 0.000000
  outer loop
   vertex -2.497350 1.875001 3.500000
   vertex -0.624434 0.000751 -3.500000
   vertex -0.624434 0.000751 3.500000
  endloop
 endfacet
 facet normal 0.707071 -0.707143 0.000000
  outer loop
   vertex 0.625380 0.000571 -3.500000
   vertex 2.500000 1.875001 -3.500000
   vertex 2.500000 1.875001 3.500000
  endloop
 endfacet
 facet normal 0.707071 -0.707143 0.000000
  outer loop
   vertex 0.625380 0.000571 -3.500000
   vertex 2.500000 1.875001 3.500000
   vertex 0.625380 0.000571 3.500000
  endloop
 endfacet
 facet normal -0.707358 -0.706856 0.000000
  outer loop
   vertex 1.874560 -2.500001 -3.500000
   vertex 1.874560 -2.500001 3.500000
   vertex 0.000320 -0.624429 3.500000
  endloop
 endfacet
 facet normal -0.707358 -0.706856 0.000000
  outer loop
   vertex 1.874560 -2.500001 -3.500000
   vertex 0.000320 -0.624429 3.500000
   vertex 0.000320 -0.624429 -3.500000
  endloop
 endfacet
 facet normal 0.000000 0.000000 1.000000
  outer loop
   vertex 0.000500 0.625751 3.500000
   vertex 0.625380 0.000571 3.500000
   vertex 2.500000 1.875001 3.500000
  endloop
 endfacet
 facet normal 0.000000 0.000000 1.000000
  outer loop
   vertex 0.000500 0.625751 3.500000
   vertex 2.500000 1.875001 3.500000
   vertex 1.874560 2.500001 3.500000
  endloop
 endfacet
 facet normal -0.707143 0.707071 0.000000
  outer loop
   vertex 1.874560 2.500001 3.500000
   vertex 1.874560 2.500001 -3.500000
   vertex 0.000500 0.625751 -3.500000
  endloop
 endfacet
 facet normal -0.707143 0.707071 0.000000
  outer loop
   vertex 1.874560 2.500001 3.500000
   vertex 0.000500 0.625751 -3.500000
   vertex 0.000500 0.625751 3.500000
  endloop
 endfacet
 facet normal 0.706859 -0.707354 0.000000
  outer loop
   vertex 1.874560 -2.500001 3.500000
   vertex 1.874560 -2.500001 -3.500000
   vertex 2.500000 -1.874999 -3.500000
  endloop
 endfacet
 facet normal 0.706859 -0.707354 0.000000
  outer loop
   vertex 1.874560 -2.500001 3.500000
   vertex 2.500000 -1.874999 -3.500000
   vertex 2.500000 -1.874999 3.500000
  endloop
 endfacet
 facet normal 0.000000 0.000000 -1.000000
  outer loop
   vertex 0.625380 0.000571 -3.500000
   vertex 0.000500 0.625751 -3.500000
   vertex 2.500000 1.875001 -3.500000
  endloop
 endfacet
 facet normal 0.000000 0.000000 -1.000000
  outer loop
   vertex 1.874560 2.500001 -3.500000
   vertex 2.500000 1.875001 -3.500000
   vertex 0.000500 0.625751 -3.500000
  endloop
 endfacet
 facet normal 0.706858 0.707355 0.000000
  outer loop
   vertex 2.500000 1.875001 3.500000
   vertex 2.500000 1.875001 -3.500000
   vertex 1.874560 2.500001 -3.500000
  endloop
 endfacet
 facet normal 0.706858 0.707355 0.000000
  outer loop
   vertex 2.500000 1.875001 3.500000
   vertex 1.874560 2.500001 -3.500000
   vertex 1.874560 2.500001 3.500000
  endloop
 endfacet
 facet normal 0.707288 0.706926 0.000000
  outer loop
   vertex 0.000500 0.625751 -3.500000
   vertex -1.872792 2.500001 -3.500000
   vertex -1.872792 2.500001 3.500000
  endloop
 endfacet
 facet normal 0.707288 0.706926 0.000000
  outer loop
   vertex 0.000500 0.625751 -3.500000
   vertex -1.872792 2.500001 3.500000
   vertex 0.000500 0.625751 3.500000
  endloop
 endfacet
 facet normal 0.707286 0.706928 0.000000
  outer loop
   vertex 2.500000 -1.874999 3.500000
   vertex 2.500000 -1.874999 -3.500000
   vertex 0.625380 0.000571 -3.500000
  endloop
 endfacet
 facet normal 0.707286 0.706928 0.000000
  outer loop
   vertex 2.500000 -1.874999 3.500000
   vertex 0.625380 0.000571 -3.500000
   vertex 0.625380 0.000571 3.500000
  endloop
 endfacet
 facet normal 0.000000 0.000000 1.000000
  outer loop
   vertex 0.625380 0.000571 3.500000
   vertex 0.000320 -0.624429 3.500000
   vertex 2.500000 -1.874999 3.500000
  endloop
 endfacet
 facet normal 0.000000 0.000000 1.000000
  outer loop
   vertex -2.497350 1.875001 3.500000
   vertex -0.624434 0.000751 3.500000
   vertex 0.000500 0.625751 3.500000
  endloop
 endfacet
 facet normal 0.000000 0.000000 1.000000
  outer loop
   vertex -1.872792 2.500001 3.500000
   vertex -2.497350 1.875001 3.500000
   vertex 0.000500 0.625751 3.500000
  endloop
 endfacet
 facet normal 0.000000 0.000000 1.000000
  outer loop
   vertex 0.625380 0.000571 3.500000
   vertex 0.000500 0.625751 3.500000
   vertex -0.624434 0.000751 3.500000
  endloop
 endfacet
 facet normal 0.000000 0.000000 1.000000
  outer loop
   vertex -0.624434 0.000751 3.500000
   vertex 0.000320 -0.624429 3.500000
   vertex 0.625380 0.000571 3.500000
  endloop
 endfacet
 facet normal 0.000000 0.000000 1.000000
  outer loop
   vertex 1.874560 -2.500001 3.500000
   vertex 2.500000 -1.874999 3.500000
   vertex 0.000320 -0.624429 3.500000
  endloop
 endfacet
 facet normal 0.000000 0.000000 -1.000000
  outer loop
   vertex -2.497350 1.875001 -3.500000
   vertex -1.872792 2.500001 -3.500000
   vertex 0.000500 0.625751 -3.500000
  endloop
 endfacet
 facet normal 0.000000 0.000000 -1.000000
  outer loop
   vertex 0.000320 -0.624429 -3.500000
   vertex -0.624434 0.000751 -3.500000
   vertex 0.625380 0.000571 -3.500000
  endloop
 endfacet
 facet normal 0.000000 0.000000 -1.000000
  outer loop
   vertex 1.874560 -2.500001 -3.500000
   vertex 0.000320 -0.624429 -3.500000
   vertex 2.500000 -1.874999 -3.500000
  endloop
 endfacet
 facet normal 0.000000 0.000000 -1.000000
  outer loop
   vertex 0.625380 0.000571 -3.500000
   vertex 2.500000 -1.874999 -3.500000
   vertex 0.000320 -0.624429 -3.500000
  endloop
 endfacet
 facet normal 0.000000 0.000000 -1.000000
  outer loop
   vertex 0.000500 0.625751 -3.500000
   vertex 0.625380 0.000571 -3.500000
   vertex -0.624434 0.000751 -3.500000
  endloop
 endfacet
 facet normal 0.000000 0.000000 -1.000000
  outer loop
   vertex -2.497350 1.875001 -3.500000
   vertex 0.000500 0.625751 -3.500000
   vertex -0.624434 0.000751 -3.500000
  endloop
 endfacet
 facet normal -0.707357 0.706857 0.000000
  outer loop
   vertex -1.872792 2.500001 3.500000
   vertex -1.872792 2.500001 -3.500000
   vertex -2.497350 1.875001 -3.500000
  endloop
 endfacet
 facet normal -0.707357 0.706857 0.000000
  outer loop
   vertex -1.872792 2.500001 3.500000
   vertex -2.497350 1.875001 -3.500000
   vertex -2.497350 1.875001 3.500000
  endloop
 endfacet
endsolid SPP_new - croix.stl
