solid UWTROC
  facet normal 5.000004e-01 8.660252e-01 0.000000e+00
    outer loop
      vertex 1.216850e+01 1.540541e+01 0.000000e+00
      vertex 1.143238e+01 1.583041e+01 4.000000e+00
      vertex 1.216850e+01 1.540541e+01 4.000000e+00
    endloop
  endfacet
  facet normal -5.000001e-01 -8.660253e-01 -0.000000e+00
    outer loop
      vertex 7.832382e+00 9.595028e+00 0.000000e+00
      vertex 8.568503e+00 9.170028e+00 4.000000e+00
      vertex 7.832382e+00 9.595028e+00 4.000000e+00
    endloop
  endfacet
  facet normal -8.660254e-01 4.999999e-01 0.000000e+00
    outer loop
      vertex 1.143238e+01 1.583041e+01 0.000000e+00
      vertex 1.000044e+01 1.335022e+01 4.000000e+00
      vertex 1.143238e+01 1.583041e+01 4.000000e+00
    endloop
  endfacet
  facet normal 8.660253e-01 -5.000001e-01 0.000000e+00
    outer loop
      vertex 8.568503e+00 9.170028e+00 0.000000e+00
      vertex 1.000044e+01 1.165022e+01 4.000000e+00
      vertex 8.568503e+00 9.170028e+00 4.000000e+00
    endloop
  endfacet
  facet normal 8.660252e-01 5.000003e-01 -0.000000e+00
    outer loop
      vertex 8.568504e+00 1.583041e+01 4.000000e+00
      vertex 1.000044e+01 1.335022e+01 0.000000e+00
      vertex 8.568504e+00 1.583041e+01 0.000000e+00
    endloop
  endfacet
  facet normal -5.000004e-01 8.660252e-01 0.000000e+00
    outer loop
      vertex 7.832383e+00 1.540541e+01 4.000000e+00
      vertex 8.568504e+00 1.583041e+01 0.000000e+00
      vertex 7.832383e+00 1.540541e+01 0.000000e+00
    endloop
  endfacet
  facet normal -8.660254e-01 -5.000000e-01 0.000000e+00
    outer loop
      vertex 1.143238e+01 9.170027e+00 4.000000e+00
      vertex 1.000044e+01 1.165022e+01 0.000000e+00
      vertex 1.143238e+01 9.170027e+00 0.000000e+00
    endloop
  endfacet
  facet normal 5.000004e-01 -8.660252e-01 0.000000e+00
    outer loop
      vertex 1.216850e+01 9.595027e+00 4.000000e+00
      vertex 1.143238e+01 9.170027e+00 0.000000e+00
      vertex 1.216850e+01 9.595027e+00 0.000000e+00
    endloop
  endfacet
  facet normal 0.000000e+00 0.000000e+00 -1.000000e+00
    outer loop
      vertex 1.000044e+01 1.165022e+01 0.000000e+00
      vertex 1.073656e+01 1.292522e+01 0.000000e+00
      vertex 1.073657e+01 1.207522e+01 0.000000e+00
    endloop
  endfacet
  facet normal 0.000000e+00 0.000000e+00 1.000000e+00
    outer loop
      vertex 1.000044e+01 1.165022e+01 4.000000e+00
      vertex 1.073656e+01 1.292522e+01 4.000000e+00
      vertex 1.000044e+01 1.335022e+01 4.000000e+00
    endloop
  endfacet
  facet normal 8.660255e-01 -4.999999e-01 0.000000e+00
    outer loop
      vertex 1.073656e+01 1.292522e+01 4.000000e+00
      vertex 1.216850e+01 1.540541e+01 0.000000e+00
      vertex 1.216850e+01 1.540541e+01 4.000000e+00
    endloop
  endfacet
  facet normal -8.660254e-01 -5.000000e-01 0.000000e+00
    outer loop
      vertex 9.264322e+00 1.292522e+01 4.000000e+00
      vertex 7.832383e+00 1.540541e+01 0.000000e+00
      vertex 9.264322e+00 1.292522e+01 0.000000e+00
    endloop
  endfacet
  facet normal 8.660254e-01 5.000000e-01 -0.000000e+00
    outer loop
      vertex 1.073657e+01 1.207522e+01 4.000000e+00
      vertex 1.216850e+01 9.595027e+00 0.000000e+00
      vertex 1.073657e+01 1.207522e+01 0.000000e+00
    endloop
  endfacet
  facet normal -8.660254e-01 5.000001e-01 0.000000e+00
    outer loop
      vertex 9.264320e+00 1.207522e+01 4.000000e+00
      vertex 7.832382e+00 9.595028e+00 0.000000e+00
      vertex 7.832382e+00 9.595028e+00 4.000000e+00
    endloop
  endfacet
  facet normal 3.330010e-07 -1.000000e+00 0.000000e+00
    outer loop
      vertex 1.073657e+01 1.207522e+01 4.000000e+00
      vertex 1.360044e+01 1.207522e+01 0.000000e+00
      vertex 1.360044e+01 1.207522e+01 4.000000e+00
    endloop
  endfacet
  facet normal 0.000000e+00 1.000000e+00 0.000000e+00
    outer loop
      vertex 1.360044e+01 1.292522e+01 0.000000e+00
      vertex 1.073656e+01 1.292522e+01 4.000000e+00
      vertex 1.360044e+01 1.292522e+01 4.000000e+00
    endloop
  endfacet
  facet normal 1.000000e+00 0.000000e+00 0.000000e+00
    outer loop
      vertex 1.360044e+01 1.292522e+01 4.000000e+00
      vertex 1.360044e+01 1.207522e+01 0.000000e+00
      vertex 1.360044e+01 1.292522e+01 0.000000e+00
    endloop
  endfacet
  facet normal -3.330010e-07 1.000000e+00 0.000000e+00
    outer loop
      vertex 9.264322e+00 1.292522e+01 4.000000e+00
      vertex 6.400444e+00 1.292522e+01 0.000000e+00
      vertex 6.400444e+00 1.292522e+01 4.000000e+00
    endloop
  endfacet
  facet normal 0.000000e+00 -1.000000e+00 -0.000000e+00
    outer loop
      vertex 6.400444e+00 1.207522e+01 0.000000e+00
      vertex 9.264320e+00 1.207522e+01 4.000000e+00
      vertex 6.400444e+00 1.207522e+01 4.000000e+00
    endloop
  endfacet
  facet normal -1.000000e+00 0.000000e+00 0.000000e+00
    outer loop
      vertex 6.400444e+00 1.207522e+01 4.000000e+00
      vertex 6.400444e+00 1.292522e+01 0.000000e+00
      vertex 6.400444e+00 1.207522e+01 0.000000e+00
    endloop
  endfacet
  facet normal 5.000004e-01 8.660252e-01 -0.000000e+00
    outer loop
      vertex 1.143238e+01 1.583041e+01 4.000000e+00
      vertex 1.216850e+01 1.540541e+01 0.000000e+00
      vertex 1.143238e+01 1.583041e+01 0.000000e+00
    endloop
  endfacet
  facet normal -5.000001e-01 -8.660253e-01 0.000000e+00
    outer loop
      vertex 8.568503e+00 9.170028e+00 4.000000e+00
      vertex 7.832382e+00 9.595028e+00 0.000000e+00
      vertex 8.568503e+00 9.170028e+00 0.000000e+00
    endloop
  endfacet
  facet normal -8.660254e-01 4.999999e-01 0.000000e+00
    outer loop
      vertex 1.000044e+01 1.335022e+01 4.000000e+00
      vertex 1.143238e+01 1.583041e+01 0.000000e+00
      vertex 1.000044e+01 1.335022e+01 0.000000e+00
    endloop
  endfacet
  facet normal 8.660253e-01 -5.000001e-01 0.000000e+00
    outer loop
      vertex 1.000044e+01 1.165022e+01 4.000000e+00
      vertex 8.568503e+00 9.170028e+00 0.000000e+00
      vertex 1.000044e+01 1.165022e+01 0.000000e+00
    endloop
  endfacet
  facet normal 8.660252e-01 5.000003e-01 0.000000e+00
    outer loop
      vertex 1.000044e+01 1.335022e+01 0.000000e+00
      vertex 8.568504e+00 1.583041e+01 4.000000e+00
      vertex 1.000044e+01 1.335022e+01 4.000000e+00
    endloop
  endfacet
  facet normal -5.000004e-01 8.660252e-01 0.000000e+00
    outer loop
      vertex 8.568504e+00 1.583041e+01 0.000000e+00
      vertex 7.832383e+00 1.540541e+01 4.000000e+00
      vertex 8.568504e+00 1.583041e+01 4.000000e+00
    endloop
  endfacet
  facet normal -8.660254e-01 -5.000000e-01 -0.000000e+00
    outer loop
      vertex 1.000044e+01 1.165022e+01 0.000000e+00
      vertex 1.143238e+01 9.170027e+00 4.000000e+00
      vertex 1.000044e+01 1.165022e+01 4.000000e+00
    endloop
  endfacet
  facet normal 5.000004e-01 -8.660252e-01 0.000000e+00
    outer loop
      vertex 1.143238e+01 9.170027e+00 0.000000e+00
      vertex 1.216850e+01 9.595027e+00 4.000000e+00
      vertex 1.143238e+01 9.170027e+00 4.000000e+00
    endloop
  endfacet
  facet normal 0.000000e+00 0.000000e+00 -1.000000e+00
    outer loop
      vertex 1.073657e+01 1.207522e+01 0.000000e+00
      vertex 1.360044e+01 1.292522e+01 0.000000e+00
      vertex 1.360044e+01 1.207522e+01 0.000000e+00
    endloop
  endfacet
  facet normal 0.000000e+00 -0.000000e+00 -1.000000e+00
    outer loop
      vertex 1.073657e+01 1.207522e+01 0.000000e+00
      vertex 1.073656e+01 1.292522e+01 0.000000e+00
      vertex 1.360044e+01 1.292522e+01 0.000000e+00
    endloop
  endfacet
  facet normal 0.000000e+00 0.000000e+00 -1.000000e+00
    outer loop
      vertex 9.264322e+00 1.292522e+01 0.000000e+00
      vertex 6.400444e+00 1.207522e+01 0.000000e+00
      vertex 6.400444e+00 1.292522e+01 0.000000e+00
    endloop
  endfacet
  facet normal 0.000000e+00 0.000000e+00 -1.000000e+00
    outer loop
      vertex 9.264322e+00 1.292522e+01 0.000000e+00
      vertex 9.264320e+00 1.207522e+01 0.000000e+00
      vertex 6.400444e+00 1.207522e+01 0.000000e+00
    endloop
  endfacet
  facet normal 0.000000e+00 0.000000e+00 -1.000000e+00
    outer loop
      vertex 8.568504e+00 1.583041e+01 0.000000e+00
      vertex 9.264322e+00 1.292522e+01 0.000000e+00
      vertex 7.832383e+00 1.540541e+01 0.000000e+00
    endloop
  endfacet
  facet normal 0.000000e+00 0.000000e+00 -1.000000e+00
    outer loop
      vertex 1.000044e+01 1.335022e+01 0.000000e+00
      vertex 9.264322e+00 1.292522e+01 0.000000e+00
      vertex 8.568504e+00 1.583041e+01 0.000000e+00
    endloop
  endfacet
  facet normal 0.000000e+00 -0.000000e+00 -1.000000e+00
    outer loop
      vertex 1.143238e+01 9.170027e+00 0.000000e+00
      vertex 1.073657e+01 1.207522e+01 0.000000e+00
      vertex 1.216850e+01 9.595027e+00 0.000000e+00
    endloop
  endfacet
  facet normal -0.000000e+00 0.000000e+00 -1.000000e+00
    outer loop
      vertex 1.000044e+01 1.165022e+01 0.000000e+00
      vertex 1.073657e+01 1.207522e+01 0.000000e+00
      vertex 1.143238e+01 9.170027e+00 0.000000e+00
    endloop
  endfacet
  facet normal 0.000000e+00 0.000000e+00 -1.000000e+00
    outer loop
      vertex 9.264320e+00 1.207522e+01 0.000000e+00
      vertex 8.568503e+00 9.170028e+00 0.000000e+00
      vertex 7.832382e+00 9.595028e+00 0.000000e+00
    endloop
  endfacet
  facet normal 0.000000e+00 0.000000e+00 -1.000000e+00
    outer loop
      vertex 9.264320e+00 1.207522e+01 0.000000e+00
      vertex 1.000044e+01 1.165022e+01 0.000000e+00
      vertex 8.568503e+00 9.170028e+00 0.000000e+00
    endloop
  endfacet
  facet normal 0.000000e+00 0.000000e+00 -1.000000e+00
    outer loop
      vertex 1.216850e+01 1.540541e+01 0.000000e+00
      vertex 1.000044e+01 1.335022e+01 0.000000e+00
      vertex 1.143238e+01 1.583041e+01 0.000000e+00
    endloop
  endfacet
  facet normal 0.000000e+00 -0.000000e+00 -1.000000e+00
    outer loop
      vertex 1.073656e+01 1.292522e+01 0.000000e+00
      vertex 1.000044e+01 1.335022e+01 0.000000e+00
      vertex 1.216850e+01 1.540541e+01 0.000000e+00
    endloop
  endfacet
  facet normal 0.000000e+00 0.000000e+00 -1.000000e+00
    outer loop
      vertex 9.264322e+00 1.292522e+01 0.000000e+00
      vertex 1.000044e+01 1.165022e+01 0.000000e+00
      vertex 9.264320e+00 1.207522e+01 0.000000e+00
    endloop
  endfacet
  facet normal 0.000000e+00 0.000000e+00 -1.000000e+00
    outer loop
      vertex 1.000044e+01 1.335022e+01 0.000000e+00
      vertex 1.000044e+01 1.165022e+01 0.000000e+00
      vertex 9.264322e+00 1.292522e+01 0.000000e+00
    endloop
  endfacet
  facet normal 0.000000e+00 0.000000e+00 -1.000000e+00
    outer loop
      vertex 1.073656e+01 1.292522e+01 0.000000e+00
      vertex 1.000044e+01 1.165022e+01 0.000000e+00
      vertex 1.000044e+01 1.335022e+01 0.000000e+00
    endloop
  endfacet
  facet normal 0.000000e+00 0.000000e+00 1.000000e+00
    outer loop
      vertex 6.400444e+00 1.207522e+01 4.000000e+00
      vertex 9.264322e+00 1.292522e+01 4.000000e+00
      vertex 6.400444e+00 1.292522e+01 4.000000e+00
    endloop
  endfacet
  facet normal -0.000000e+00 0.000000e+00 1.000000e+00
    outer loop
      vertex 9.264320e+00 1.207522e+01 4.000000e+00
      vertex 9.264322e+00 1.292522e+01 4.000000e+00
      vertex 6.400444e+00 1.207522e+01 4.000000e+00
    endloop
  endfacet
  facet normal 0.000000e+00 0.000000e+00 1.000000e+00
    outer loop
      vertex 1.360044e+01 1.292522e+01 4.000000e+00
      vertex 1.073657e+01 1.207522e+01 4.000000e+00
      vertex 1.360044e+01 1.207522e+01 4.000000e+00
    endloop
  endfacet
  facet normal 0.000000e+00 0.000000e+00 1.000000e+00
    outer loop
      vertex 1.073656e+01 1.292522e+01 4.000000e+00
      vertex 1.073657e+01 1.207522e+01 4.000000e+00
      vertex 1.360044e+01 1.292522e+01 4.000000e+00
    endloop
  endfacet
  facet normal 0.000000e+00 0.000000e+00 1.000000e+00
    outer loop
      vertex 9.264322e+00 1.292522e+01 4.000000e+00
      vertex 8.568504e+00 1.583041e+01 4.000000e+00
      vertex 7.832383e+00 1.540541e+01 4.000000e+00
    endloop
  endfacet
  facet normal 0.000000e+00 0.000000e+00 1.000000e+00
    outer loop
      vertex 9.264322e+00 1.292522e+01 4.000000e+00
      vertex 1.000044e+01 1.335022e+01 4.000000e+00
      vertex 8.568504e+00 1.583041e+01 4.000000e+00
    endloop
  endfacet
  facet normal 0.000000e+00 0.000000e+00 1.000000e+00
    outer loop
      vertex 1.073657e+01 1.207522e+01 4.000000e+00
      vertex 1.143238e+01 9.170027e+00 4.000000e+00
      vertex 1.216850e+01 9.595027e+00 4.000000e+00
    endloop
  endfacet
  facet normal 0.000000e+00 -0.000000e+00 1.000000e+00
    outer loop
      vertex 1.073657e+01 1.207522e+01 4.000000e+00
      vertex 1.000044e+01 1.165022e+01 4.000000e+00
      vertex 1.143238e+01 9.170027e+00 4.000000e+00
    endloop
  endfacet
  facet normal 0.000000e+00 0.000000e+00 1.000000e+00
    outer loop
      vertex 8.568503e+00 9.170028e+00 4.000000e+00
      vertex 9.264320e+00 1.207522e+01 4.000000e+00
      vertex 7.832382e+00 9.595028e+00 4.000000e+00
    endloop
  endfacet
  facet normal -0.000000e+00 0.000000e+00 1.000000e+00
    outer loop
      vertex 1.000044e+01 1.165022e+01 4.000000e+00
      vertex 9.264320e+00 1.207522e+01 4.000000e+00
      vertex 8.568503e+00 9.170028e+00 4.000000e+00
    endloop
  endfacet
  facet normal 0.000000e+00 0.000000e+00 1.000000e+00
    outer loop
      vertex 1.000044e+01 1.335022e+01 4.000000e+00
      vertex 1.216850e+01 1.540541e+01 4.000000e+00
      vertex 1.143238e+01 1.583041e+01 4.000000e+00
    endloop
  endfacet
  facet normal 0.000000e+00 0.000000e+00 1.000000e+00
    outer loop
      vertex 1.000044e+01 1.335022e+01 4.000000e+00
      vertex 1.073656e+01 1.292522e+01 4.000000e+00
      vertex 1.216850e+01 1.540541e+01 4.000000e+00
    endloop
  endfacet
  facet normal 0.000000e+00 0.000000e+00 1.000000e+00
    outer loop
      vertex 1.000044e+01 1.165022e+01 4.000000e+00
      vertex 9.264322e+00 1.292522e+01 4.000000e+00
      vertex 9.264320e+00 1.207522e+01 4.000000e+00
    endloop
  endfacet
  facet normal 0.000000e+00 0.000000e+00 1.000000e+00
    outer loop
      vertex 1.000044e+01 1.165022e+01 4.000000e+00
      vertex 1.000044e+01 1.335022e+01 4.000000e+00
      vertex 9.264322e+00 1.292522e+01 4.000000e+00
    endloop
  endfacet
  facet normal 0.000000e+00 -0.000000e+00 1.000000e+00
    outer loop
      vertex 1.073656e+01 1.292522e+01 4.000000e+00
      vertex 1.000044e+01 1.165022e+01 4.000000e+00
      vertex 1.073657e+01 1.207522e+01 4.000000e+00
    endloop
  endfacet
  facet normal 8.660255e-01 -4.999999e-01 0.000000e+00
    outer loop
      vertex 1.216850e+01 1.540541e+01 0.000000e+00
      vertex 1.073656e+01 1.292522e+01 4.000000e+00
      vertex 1.073656e+01 1.292522e+01 0.000000e+00
    endloop
  endfacet
  facet normal -8.660254e-01 -5.000000e-01 -0.000000e+00
    outer loop
      vertex 7.832383e+00 1.540541e+01 0.000000e+00
      vertex 9.264322e+00 1.292522e+01 4.000000e+00
      vertex 7.832383e+00 1.540541e+01 4.000000e+00
    endloop
  endfacet
  facet normal 8.660254e-01 5.000000e-01 0.000000e+00
    outer loop
      vertex 1.216850e+01 9.595027e+00 0.000000e+00
      vertex 1.073657e+01 1.207522e+01 4.000000e+00
      vertex 1.216850e+01 9.595027e+00 4.000000e+00
    endloop
  endfacet
  facet normal -8.660254e-01 5.000001e-01 0.000000e+00
    outer loop
      vertex 7.832382e+00 9.595028e+00 0.000000e+00
      vertex 9.264320e+00 1.207522e+01 4.000000e+00
      vertex 9.264320e+00 1.207522e+01 0.000000e+00
    endloop
  endfacet
  facet normal 3.330010e-07 -1.000000e+00 0.000000e+00
    outer loop
      vertex 1.360044e+01 1.207522e+01 0.000000e+00
      vertex 1.073657e+01 1.207522e+01 4.000000e+00
      vertex 1.073657e+01 1.207522e+01 0.000000e+00
    endloop
  endfacet
  facet normal 0.000000e+00 1.000000e+00 -0.000000e+00
    outer loop
      vertex 1.073656e+01 1.292522e+01 4.000000e+00
      vertex 1.360044e+01 1.292522e+01 0.000000e+00
      vertex 1.073656e+01 1.292522e+01 0.000000e+00
    endloop
  endfacet
  facet normal 1.000000e+00 0.000000e+00 0.000000e+00
    outer loop
      vertex 1.360044e+01 1.207522e+01 0.000000e+00
      vertex 1.360044e+01 1.292522e+01 4.000000e+00
      vertex 1.360044e+01 1.207522e+01 4.000000e+00
    endloop
  endfacet
  facet normal -3.330010e-07 1.000000e+00 0.000000e+00
    outer loop
      vertex 6.400444e+00 1.292522e+01 0.000000e+00
      vertex 9.264322e+00 1.292522e+01 4.000000e+00
      vertex 9.264322e+00 1.292522e+01 0.000000e+00
    endloop
  endfacet
  facet normal 0.000000e+00 -1.000000e+00 0.000000e+00
    outer loop
      vertex 9.264320e+00 1.207522e+01 4.000000e+00
      vertex 6.400444e+00 1.207522e+01 0.000000e+00
      vertex 9.264320e+00 1.207522e+01 0.000000e+00
    endloop
  endfacet
  facet normal -1.000000e+00 0.000000e+00 0.000000e+00
    outer loop
      vertex 6.400444e+00 1.292522e+01 0.000000e+00
      vertex 6.400444e+00 1.207522e+01 4.000000e+00
      vertex 6.400444e+00 1.292522e+01 4.000000e+00
    endloop
  endfacet
endsolid UWTROC
