solid rochers
  facet normal 2.680349e-01 1.947388e-01 9.435222e-01
    outer loop
      vertex 2.680349e-01 1.947388e-01 3.443522e+00
      vertex 1.582363e+00 1.947388e-01 3.070149e+00
      vertex 6.741846e-01 1.444739e+00 3.070149e+00
    endloop
  endfacet
  facet normal -1.023803e-01 3.150939e-01 9.435222e-01
    outer loop
      vertex 0.000000e+00 0.000000e+00 2.500000e+00
      vertex 4.061496e-01 1.250000e+00 2.126627e+00
      vertex -1.063314e+00 7.725424e-01 2.126627e+00
    endloop
  endfacet
  facet normal -3.313094e-01 -5.134637e-08 9.435222e-01
    outer loop
      vertex -3.313094e-01 -1.711546e-08 3.443522e+00
      vertex -1.394623e+00 7.725424e-01 3.070149e+00
      vertex -1.394623e+00 -7.725426e-01 3.070149e+00
    endloop
  endfacet
  facet normal -1.023802e-01 -3.150940e-01 9.435222e-01
    outer loop
      vertex 0.000000e+00 0.000000e+00 2.500000e+00
      vertex -1.063313e+00 -7.725426e-01 2.126627e+00
      vertex 4.061498e-01 -1.250000e+00 2.126627e+00
    endloop
  endfacet
  facet normal 2.680349e-01 -1.947387e-01 9.435222e-01
    outer loop
      vertex 0.000000e+00 0.000000e+00 2.500000e+00
      vertex 4.061498e-01 -1.250000e+00 2.126627e+00
      vertex 1.314328e+00 0.000000e+00 2.126627e+00
    endloop
  endfacet
  facet normal 4.911235e-01 3.568221e-01 7.946545e-01
    outer loop
      vertex 1.720477e+00 1.250000e+00 1.314328e+00
      vertex 4.061496e-01 1.250000e+00 2.126627e+00
      vertex 1.314328e+00 0.000000e+00 2.126627e+00
    endloop
  endfacet
  facet normal -1.875925e-01 5.773502e-01 7.946545e-01
    outer loop
      vertex -6.571640e-01 2.022542e+00 1.314328e+00
      vertex -1.063314e+00 7.725424e-01 2.126627e+00
      vertex 4.061496e-01 1.250000e+00 2.126627e+00
    endloop
  endfacet
  facet normal -6.070620e-01 -5.766002e-08 7.946544e-01
    outer loop
      vertex -2.126627e+00 -2.665601e-07 1.314328e+00
      vertex -1.063313e+00 -7.725426e-01 2.126627e+00
      vertex -1.063314e+00 7.725424e-01 2.126627e+00
    endloop
  endfacet
  facet normal -1.875924e-01 -5.773503e-01 7.946545e-01
    outer loop
      vertex -6.571637e-01 -2.022542e+00 1.314328e+00
      vertex 4.061498e-01 -1.250000e+00 2.126627e+00
      vertex -1.063313e+00 -7.725426e-01 2.126627e+00
    endloop
  endfacet
  facet normal 4.911234e-01 -3.568220e-01 7.946545e-01
    outer loop
      vertex 2.211601e+00 -1.606822e+00 2.108982e+00
      vertex 1.805451e+00 -3.568221e-01 2.921281e+00
      vertex 8.972732e-01 -1.606822e+00 2.921281e+00
    endloop
  endfacet
  facet normal 7.240430e-01 -1.947387e-01 6.616937e-01
    outer loop
      vertex 1.314328e+00 0.000000e+00 2.126627e+00
      vertex 1.720477e+00 -1.250000e+00 1.314328e+00
      vertex 2.236068e+00 0.000000e+00 1.118034e+00
    endloop
  endfacet
  facet normal 7.240430e-01 1.947388e-01 6.616937e-01
    outer loop
      vertex 1.314328e+00 0.000000e+00 2.126627e+00
      vertex 2.236068e+00 0.000000e+00 1.118034e+00
      vertex 1.720477e+00 1.250000e+00 1.314328e+00
    endloop
  endfacet
  facet normal 4.089492e-01 6.284282e-01 6.616938e-01
    outer loop
      vertex 8.150988e-01 1.878428e+00 2.788321e+00
      vertex 2.129426e+00 1.878428e+00 1.976021e+00
      vertex 1.099932e+00 2.755055e+00 1.779728e+00
    endloop
  endfacet
  facet normal 3.853391e-02 7.487834e-01 6.616937e-01
    outer loop
      vertex 4.061496e-01 1.250000e+00 2.126627e+00
      vertex 6.909829e-01 2.126627e+00 1.118034e+00
      vertex -6.571640e-01 2.022542e+00 1.314328e+00
    endloop
  endfacet
  facet normal -4.712986e-01 5.831288e-01 6.616936e-01
    outer loop
      vertex -1.063314e+00 7.725424e-01 2.126627e+00
      vertex -6.571640e-01 2.022542e+00 1.314328e+00
      vertex -1.809017e+00 1.314328e+00 1.118034e+00
    endloop
  endfacet
  facet normal -7.002277e-01 2.680347e-01 6.616937e-01
    outer loop
      vertex -1.763541e+00 1.040577e+00 2.788321e+00
      vertex -2.509245e+00 1.582362e+00 1.779728e+00
      vertex -2.826855e+00 2.680345e-01 1.976021e+00
    endloop
  endfacet
  facet normal -7.002276e-01 -2.680348e-01 6.616938e-01
    outer loop
      vertex -1.763541e+00 -1.040577e+00 2.788321e+00
      vertex -2.826855e+00 -2.680351e-01 1.976021e+00
      vertex -2.509245e+00 -1.582363e+00 1.779728e+00
    endloop
  endfacet
  facet normal -4.712984e-01 -5.831289e-01 6.616937e-01
    outer loop
      vertex -1.063313e+00 -7.725426e-01 2.126627e+00
      vertex -1.809017e+00 -1.314328e+00 1.118034e+00
      vertex -6.571637e-01 -2.022542e+00 1.314328e+00
    endloop
  endfacet
  facet normal 3.853405e-02 -7.487834e-01 6.616937e-01
    outer loop
      vertex 4.446838e-01 -1.998783e+00 2.788321e+00
      vertex -6.186296e-01 -2.771326e+00 1.976021e+00
      vertex 7.295173e-01 -2.875410e+00 1.779728e+00
    endloop
  endfacet
  facet normal 4.089491e-01 -6.284282e-01 6.616937e-01
    outer loop
      vertex 4.061498e-01 -1.250000e+00 2.126627e+00
      vertex 6.909833e-01 -2.126627e+00 1.118034e+00
      vertex 1.720477e+00 -1.250000e+00 1.314328e+00
    endloop
  endfacet
  facet normal 8.896977e-01 3.150939e-01 3.303844e-01
    outer loop
      vertex 3.267339e+00 1.087636e+00 3.303844e-01
      vertex 2.610175e+00 1.565094e+00 1.644712e+00
      vertex 3.125766e+00 3.150939e-01 1.448418e+00
    endloop
  endfacet
  facet normal 5.746039e-01 7.487834e-01 3.303843e-01
    outer loop
      vertex 1.469463e+00 2.022542e+00 0.000000e+00
      vertex 6.909829e-01 2.126627e+00 1.118034e+00
      vertex 1.720477e+00 1.250000e+00 1.314328e+00
    endloop
  endfacet
  facet normal -2.474057e-02 9.435222e-01 3.303842e-01
    outer loop
      vertex -2.474068e-02 3.443522e+00 3.303842e-01
      vertex -6.819046e-01 2.966065e+00 1.644712e+00
      vertex 6.662424e-01 3.070149e+00 1.448418e+00
    endloop
  endfacet
  facet normal -5.345731e-01 7.778675e-01 3.303843e-01
    outer loop
      vertex -1.469463e+00 2.022542e+00 0.000000e+00
      vertex -1.809017e+00 1.314328e+00 1.118034e+00
      vertex -6.571640e-01 2.022542e+00 1.314328e+00
    endloop
  endfacet
  facet normal -9.049882e-01 2.680347e-01 3.303843e-01
    outer loop
      vertex -2.377641e+00 7.725420e-01 0.000000e+00
      vertex -2.126627e+00 -2.665601e-07 1.314328e+00
      vertex -1.809017e+00 1.314328e+00 1.118034e+00
    endloop
  endfacet
  facet normal -9.049881e-01 -2.680348e-01 3.303844e-01
    outer loop
      vertex -2.377641e+00 -7.725424e-01 0.000000e+00
      vertex -1.809017e+00 -1.314328e+00 1.118034e+00
      vertex -2.126627e+00 -2.665601e-07 1.314328e+00
    endloop
  endfacet
  facet normal -5.345728e-01 -7.778677e-01 3.303842e-01
    outer loop
      vertex -1.469463e+00 -2.022543e+00 0.000000e+00
      vertex -6.571637e-01 -2.022542e+00 1.314328e+00
      vertex -1.809017e+00 -1.314328e+00 1.118034e+00
    endloop
  endfacet
  facet normal -2.474040e-02 -9.435222e-01 3.303843e-01
    outer loop
      vertex 1.221905e-06 -2.500000e+00 0.000000e+00
      vertex 6.909833e-01 -2.126627e+00 1.118034e+00
      vertex -6.571637e-01 -2.022542e+00 1.314328e+00
    endloop
  endfacet
  facet normal 5.746040e-01 -7.487834e-01 3.303843e-01
    outer loop
      vertex 1.469464e+00 -2.022542e+00 0.000000e+00
      vertex 1.720477e+00 -1.250000e+00 1.314328e+00
      vertex 6.909833e-01 -2.126627e+00 1.118034e+00
    endloop
  endfacet
  facet normal 8.896977e-01 -3.150939e-01 3.303844e-01
    outer loop
      vertex 2.377641e+00 -7.725424e-01 0.000000e+00
      vertex 2.236068e+00 0.000000e+00 1.118034e+00
      vertex 1.720477e+00 -1.250000e+00 1.314328e+00
    endloop
  endfacet
  facet normal 9.920779e-01 0.000000e+00 1.256240e-01
    outer loop
      vertex 2.236068e+00 0.000000e+00 1.118034e+00
      vertex 2.377641e+00 -7.725424e-01 0.000000e+00
      vertex 2.377641e+00 7.725425e-01 0.000000e+00
    endloop
  endfacet
  facet normal 7.946544e-01 5.773504e-01 1.875926e-01
    outer loop
      vertex 1.720477e+00 1.250000e+00 1.314328e+00
      vertex 2.377641e+00 7.725425e-01 0.000000e+00
      vertex 1.469463e+00 2.022542e+00 0.000000e+00
    endloop
  endfacet
  facet normal 3.065690e-01 9.435222e-01 1.256237e-01
    outer loop
      vertex 6.909829e-01 2.126627e+00 1.118034e+00
      vertex 1.469463e+00 2.022542e+00 0.000000e+00
      vertex -1.092785e-07 2.500000e+00 0.000000e+00
    endloop
  endfacet
  facet normal -3.035311e-01 9.341723e-01 1.875925e-01
    outer loop
      vertex -6.571640e-01 2.022542e+00 1.314328e+00
      vertex -1.092785e-07 2.500000e+00 0.000000e+00
      vertex -1.469463e+00 2.022542e+00 0.000000e+00
    endloop
  endfacet
  facet normal -8.026079e-01 5.831288e-01 1.256237e-01
    outer loop
      vertex -1.809017e+00 1.314328e+00 1.118034e+00
      vertex -1.469463e+00 2.022542e+00 0.000000e+00
      vertex -2.377641e+00 7.725420e-01 0.000000e+00
    endloop
  endfacet
  facet normal -9.822469e-01 0.000000e+00 1.875926e-01
    outer loop
      vertex -2.126627e+00 -2.665601e-07 1.314328e+00
      vertex -2.377641e+00 7.725420e-01 0.000000e+00
      vertex -2.377641e+00 -7.725424e-01 0.000000e+00
    endloop
  endfacet
  facet normal -8.026078e-01 -5.831290e-01 1.256237e-01
    outer loop
      vertex -1.809017e+00 -1.314328e+00 1.118034e+00
      vertex -2.377641e+00 -7.725424e-01 0.000000e+00
      vertex -1.469463e+00 -2.022543e+00 0.000000e+00
    endloop
  endfacet
  facet normal -3.035307e-01 -9.341725e-01 1.875924e-01
    outer loop
      vertex -6.571637e-01 -2.022542e+00 1.314328e+00
      vertex -1.469463e+00 -2.022543e+00 0.000000e+00
      vertex 1.221905e-06 -2.500000e+00 0.000000e+00
    endloop
  endfacet
  facet normal 3.065694e-01 -9.435220e-01 1.256239e-01
    outer loop
      vertex 6.909833e-01 -2.126627e+00 1.118034e+00
      vertex 1.221905e-06 -2.500000e+00 0.000000e+00
      vertex 1.469464e+00 -2.022542e+00 0.000000e+00
    endloop
  endfacet
  facet normal 7.946545e-01 -5.773502e-01 1.875926e-01
    outer loop
      vertex 1.720477e+00 -1.250000e+00 1.314328e+00
      vertex 1.469464e+00 -2.022542e+00 0.000000e+00
      vertex 2.377641e+00 -7.725424e-01 0.000000e+00
    endloop
  endfacet
  facet normal 0.000000e+00 0.000000e+00 -1.000000e+00
    outer loop
      vertex 2.377641e+00 7.725425e-01 0.000000e+00
      vertex 2.377641e+00 -7.725424e-01 0.000000e+00
      vertex 0.000000e+00 0.000000e+00 0.000000e+00
    endloop
  endfacet
  facet normal 0.000000e+00 0.000000e+00 -1.000000e+00
    outer loop
      vertex 1.469463e+00 2.022542e+00 0.000000e+00
      vertex 2.377641e+00 7.725425e-01 0.000000e+00
      vertex 0.000000e+00 0.000000e+00 0.000000e+00
    endloop
  endfacet
  facet normal 0.000000e+00 0.000000e+00 -1.000000e+00
    outer loop
      vertex -1.092785e-07 2.500000e+00 0.000000e+00
      vertex 1.469463e+00 2.022542e+00 0.000000e+00
      vertex 0.000000e+00 0.000000e+00 0.000000e+00
    endloop
  endfacet
  facet normal -0.000000e+00 0.000000e+00 -1.000000e+00
    outer loop
      vertex -1.469463e+00 2.022542e+00 0.000000e+00
      vertex -1.092785e-07 2.500000e+00 0.000000e+00
      vertex 0.000000e+00 0.000000e+00 0.000000e+00
    endloop
  endfacet
  facet normal -0.000000e+00 0.000000e+00 -1.000000e+00
    outer loop
      vertex -2.377641e+00 7.725420e-01 0.000000e+00
      vertex -1.469463e+00 2.022542e+00 0.000000e+00
      vertex 0.000000e+00 0.000000e+00 0.000000e+00
    endloop
  endfacet
  facet normal 0.000000e+00 -0.000000e+00 -1.000000e+00
    outer loop
      vertex -2.377641e+00 -7.725424e-01 0.000000e+00
      vertex -2.377641e+00 7.725420e-01 0.000000e+00
      vertex 0.000000e+00 0.000000e+00 0.000000e+00
    endloop
  endfacet
  facet normal 0.000000e+00 -0.000000e+00 -1.000000e+00
    outer loop
      vertex -1.469463e+00 -2.022543e+00 0.000000e+00
      vertex -2.377641e+00 -7.725424e-01 0.000000e+00
      vertex 0.000000e+00 0.000000e+00 0.000000e+00
    endloop
  endfacet
  facet normal 0.000000e+00 0.000000e+00 -1.000000e+00
    outer loop
      vertex 1.221905e-06 -2.500000e+00 0.000000e+00
      vertex -1.469463e+00 -2.022543e+00 0.000000e+00
      vertex 0.000000e+00 0.000000e+00 0.000000e+00
    endloop
  endfacet
  facet normal 0.000000e+00 0.000000e+00 -1.000000e+00
    outer loop
      vertex 1.469464e+00 -2.022542e+00 0.000000e+00
      vertex 1.221905e-06 -2.500000e+00 0.000000e+00
      vertex 0.000000e+00 0.000000e+00 0.000000e+00
    endloop
  endfacet
  facet normal 0.000000e+00 0.000000e+00 -1.000000e+00
    outer loop
      vertex 2.377641e+00 -7.725424e-01 0.000000e+00
      vertex 1.469464e+00 -2.022542e+00 0.000000e+00
      vertex 0.000000e+00 0.000000e+00 0.000000e+00
    endloop
  endfacet
  facet normal 5.321559e-02 -9.808552e-01 1.873267e-01
    outer loop
      vertex 0.000000e+00 0.000000e+00 2.500000e+00
      vertex 1.314328e+00 0.000000e+00 2.126627e+00
      vertex 1.582363e+00 1.947388e-01 3.070149e+00
    endloop
  endfacet
  facet normal 5.321559e-02 -9.808552e-01 1.873267e-01
    outer loop
      vertex 1.582363e+00 1.947388e-01 3.070149e+00
      vertex 2.680349e-01 1.947388e-01 3.443522e+00
      vertex 0.000000e+00 0.000000e+00 2.500000e+00
    endloop
  endfacet
  facet normal 7.633255e-01 5.545884e-01 -3.313093e-01
    outer loop
      vertex 1.314328e+00 0.000000e+00 2.126627e+00
      vertex 4.061496e-01 1.250000e+00 2.126627e+00
      vertex 6.741846e-01 1.444739e+00 3.070149e+00
    endloop
  endfacet
  facet normal 7.633255e-01 5.545884e-01 -3.313093e-01
    outer loop
      vertex 6.741846e-01 1.444739e+00 3.070149e+00
      vertex 1.582363e+00 1.947388e-01 3.070149e+00
      vertex 1.314328e+00 0.000000e+00 2.126627e+00
    endloop
  endfacet
  facet normal -9.164041e-01 3.537119e-01 1.873267e-01
    outer loop
      vertex 4.061496e-01 1.250000e+00 2.126627e+00
      vertex 0.000000e+00 0.000000e+00 2.500000e+00
      vertex 2.680349e-01 1.947388e-01 3.443522e+00
    endloop
  endfacet
  facet normal -9.164041e-01 3.537119e-01 1.873267e-01
    outer loop
      vertex 2.680349e-01 1.947388e-01 3.443522e+00
      vertex 6.741846e-01 1.444739e+00 3.070149e+00
      vertex 4.061496e-01 1.250000e+00 2.126627e+00
    endloop
  endfacet
  facet normal 5.334798e-01 8.248079e-01 1.873266e-01
    outer loop
      vertex 0.000000e+00 0.000000e+00 2.500000e+00
      vertex -1.063314e+00 7.725424e-01 2.126627e+00
      vertex -1.394623e+00 7.725424e-01 3.070149e+00
    endloop
  endfacet
  facet normal 5.334798e-01 8.248079e-01 1.873266e-01
    outer loop
      vertex -1.394623e+00 7.725424e-01 3.070149e+00
      vertex -3.313094e-01 -1.711546e-08 3.443522e+00
      vertex 0.000000e+00 0.000000e+00 2.500000e+00
    endloop
  endfacet
  facet normal -9.435222e-01 -7.279640e-08 -3.313093e-01
    outer loop
      vertex -1.063314e+00 7.725424e-01 2.126627e+00
      vertex -1.063313e+00 -7.725426e-01 2.126627e+00
      vertex -1.394623e+00 -7.725426e-01 3.070149e+00
    endloop
  endfacet
  facet normal -9.435222e-01 -1.455928e-07 -3.313094e-01
    outer loop
      vertex -1.394623e+00 -7.725426e-01 3.070149e+00
      vertex -1.394623e+00 7.725424e-01 3.070149e+00
      vertex -1.063314e+00 7.725424e-01 2.126627e+00
    endloop
  endfacet
  facet normal 5.334799e-01 -8.248078e-01 1.873267e-01
    outer loop
      vertex -1.063313e+00 -7.725426e-01 2.126627e+00
      vertex 0.000000e+00 0.000000e+00 2.500000e+00
      vertex -3.313094e-01 -1.711546e-08 3.443522e+00
    endloop
  endfacet
  facet normal 5.334799e-01 -8.248078e-01 1.873267e-01
    outer loop
      vertex -3.313094e-01 -1.711546e-08 3.443522e+00
      vertex -1.394623e+00 -7.725426e-01 3.070149e+00
      vertex -1.063313e+00 -7.725426e-01 2.126627e+00
    endloop
  endfacet
  facet normal -6.428890e-01 4.670861e-01 6.070620e-01
    outer loop
      vertex 1.314328e+00 0.000000e+00 2.126627e+00
      vertex 4.061498e-01 -1.250000e+00 2.126627e+00
      vertex 8.972732e-01 -1.606822e+00 2.921281e+00
    endloop
  endfacet
  facet normal -6.428890e-01 4.670861e-01 6.070620e-01
    outer loop
      vertex 8.972732e-01 -1.606822e+00 2.921281e+00
      vertex 1.805451e+00 -3.568221e-01 2.921281e+00
      vertex 1.314328e+00 0.000000e+00 2.126627e+00
    endloop
  endfacet
  facet normal -1.875925e-01 -9.341723e-01 -3.035311e-01
    outer loop
      vertex 4.061498e-01 -1.250000e+00 2.126627e+00
      vertex 1.720477e+00 -1.250000e+00 1.314328e+00
      vertex 2.211601e+00 -1.606822e+00 2.108982e+00
    endloop
  endfacet
  facet normal -1.875925e-01 -9.341723e-01 -3.035311e-01
    outer loop
      vertex 2.211601e+00 -1.606822e+00 2.108982e+00
      vertex 8.972732e-01 -1.606822e+00 2.921281e+00
      vertex 4.061498e-01 -1.250000e+00 2.126627e+00
    endloop
  endfacet
  facet normal 8.304815e-01 4.670862e-01 -3.035310e-01
    outer loop
      vertex 1.720477e+00 -1.250000e+00 1.314328e+00
      vertex 1.314328e+00 0.000000e+00 2.126627e+00
      vertex 1.805451e+00 -3.568221e-01 2.921281e+00
    endloop
  endfacet
  facet normal 8.304815e-01 4.670861e-01 -3.035309e-01
    outer loop
      vertex 1.805451e+00 -3.568221e-01 2.921281e+00
      vertex 2.211601e+00 -1.606822e+00 2.108982e+00
      vertex 1.720477e+00 -1.250000e+00 1.314328e+00
    endloop
  endfacet
  facet normal 3.303843e-01 -7.778676e-01 5.345730e-01
    outer loop
      vertex 4.061496e-01 1.250000e+00 2.126627e+00
      vertex 1.720477e+00 1.250000e+00 1.314328e+00
      vertex 2.129426e+00 1.878428e+00 1.976021e+00
    endloop
  endfacet
  facet normal 3.303843e-01 -7.778675e-01 5.345731e-01
    outer loop
      vertex 2.129426e+00 1.878428e+00 1.976021e+00
      vertex 8.150988e-01 1.878428e+00 2.788321e+00
      vertex 4.061496e-01 1.250000e+00 2.126627e+00
    endloop
  endfacet
  facet normal 5.148199e-01 4.398166e-01 -7.358817e-01
    outer loop
      vertex 1.720477e+00 1.250000e+00 1.314328e+00
      vertex 6.909829e-01 2.126627e+00 1.118034e+00
      vertex 1.099932e+00 2.755055e+00 1.779728e+00
    endloop
  endfacet
  facet normal 5.148199e-01 4.398166e-01 -7.358817e-01
    outer loop
      vertex 1.099932e+00 2.755055e+00 1.779728e+00
      vertex 2.129426e+00 1.878428e+00 1.976021e+00
      vertex 1.720477e+00 1.250000e+00 1.314328e+00
    endloop
  endfacet
  facet normal -8.884271e-01 4.398166e-01 1.313726e-01
    outer loop
      vertex 6.909829e-01 2.126627e+00 1.118034e+00
      vertex 4.061496e-01 1.250000e+00 2.126627e+00
      vertex 8.150988e-01 1.878428e+00 2.788321e+00
    endloop
  endfacet
  facet normal -8.884271e-01 4.398166e-01 1.313726e-01
    outer loop
      vertex 8.150988e-01 1.878428e+00 2.788321e+00
      vertex 1.099932e+00 2.755055e+00 1.779728e+00
      vertex 6.909829e-01 2.126627e+00 1.118034e+00
    endloop
  endfacet
  facet normal 1.899327e-01 -8.235031e-01 5.345730e-01
    outer loop
      vertex -2.126627e+00 -2.665601e-07 1.314328e+00
      vertex -1.063314e+00 7.725424e-01 2.126627e+00
      vertex -1.763541e+00 1.040577e+00 2.788321e+00
    endloop
  endfacet
  facet normal 1.899327e-01 -8.235031e-01 5.345730e-01
    outer loop
      vertex -1.763541e+00 1.040577e+00 2.788321e+00
      vertex -2.826855e+00 2.680345e-01 1.976021e+00
      vertex -2.126627e+00 -2.665601e-07 1.314328e+00
    endloop
  endfacet
  facet normal 4.602348e-01 8.780234e-01 1.313726e-01
    outer loop
      vertex -1.063314e+00 7.725424e-01 2.126627e+00
      vertex -1.809017e+00 1.314328e+00 1.118034e+00
      vertex -2.509245e+00 1.582362e+00 1.779728e+00
    endloop
  endfacet
  facet normal 4.602348e-01 8.780234e-01 1.313726e-01
    outer loop
      vertex -2.509245e+00 1.582362e+00 1.779728e+00
      vertex -1.763541e+00 1.040577e+00 2.788321e+00
      vertex -1.063314e+00 7.725424e-01 2.126627e+00
    endloop
  endfacet
  facet normal -6.750156e-01 5.321549e-02 -7.358818e-01
    outer loop
      vertex -1.809017e+00 1.314328e+00 1.118034e+00
      vertex -2.126627e+00 -2.665601e-07 1.314328e+00
      vertex -2.826855e+00 2.680345e-01 1.976021e+00
    endloop
  endfacet
  facet normal -6.750157e-01 5.321558e-02 -7.358817e-01
    outer loop
      vertex -2.826855e+00 2.680345e-01 1.976021e+00
      vertex -2.509245e+00 1.582362e+00 1.779728e+00
      vertex -1.809017e+00 1.314328e+00 1.118034e+00
    endloop
  endfacet
  facet normal 1.899325e-01 8.235031e-01 5.345730e-01
    outer loop
      vertex -1.063313e+00 -7.725426e-01 2.126627e+00
      vertex -2.126627e+00 -2.665601e-07 1.314328e+00
      vertex -2.826855e+00 -2.680351e-01 1.976021e+00
    endloop
  endfacet
  facet normal 1.899325e-01 8.235031e-01 5.345730e-01
    outer loop
      vertex -2.826855e+00 -2.680351e-01 1.976021e+00
      vertex -1.763541e+00 -1.040577e+00 2.788321e+00
      vertex -1.063313e+00 -7.725426e-01 2.126627e+00
    endloop
  endfacet
  facet normal -6.750157e-01 -5.321563e-02 -7.358817e-01
    outer loop
      vertex -2.126627e+00 -2.665601e-07 1.314328e+00
      vertex -1.809017e+00 -1.314328e+00 1.118034e+00
      vertex -2.509245e+00 -1.582363e+00 1.779728e+00
    endloop
  endfacet
  facet normal -6.750156e-01 -5.321563e-02 -7.358817e-01
    outer loop
      vertex -2.509245e+00 -1.582363e+00 1.779728e+00
      vertex -2.826855e+00 -2.680351e-01 1.976021e+00
      vertex -2.126627e+00 -2.665601e-07 1.314328e+00
    endloop
  endfacet
  facet normal 4.602349e-01 -8.780234e-01 1.313726e-01
    outer loop
      vertex -1.809017e+00 -1.314328e+00 1.118034e+00
      vertex -1.063313e+00 -7.725426e-01 2.126627e+00
      vertex -1.763541e+00 -1.040577e+00 2.788321e+00
    endloop
  endfacet
  facet normal 4.602349e-01 -8.780234e-01 1.313726e-01
    outer loop
      vertex -1.763541e+00 -1.040577e+00 2.788321e+00
      vertex -2.509245e+00 -1.582363e+00 1.779728e+00
      vertex -1.809017e+00 -1.314328e+00 1.118034e+00
    endloop
  endfacet
  facet normal -7.245056e-01 4.351131e-01 5.345730e-01
    outer loop
      vertex 4.061498e-01 -1.250000e+00 2.126627e+00
      vertex -6.571637e-01 -2.022542e+00 1.314328e+00
      vertex -6.186296e-01 -2.771326e+00 1.976021e+00
    endloop
  endfacet
  facet normal -7.245055e-01 4.351130e-01 5.345730e-01
    outer loop
      vertex -6.186296e-01 -2.771326e+00 1.976021e+00
      vertex 4.446838e-01 -1.998783e+00 2.788321e+00
      vertex 4.061498e-01 -1.250000e+00 2.126627e+00
    endloop
  endfacet
  facet normal -1.579802e-01 -6.584227e-01 -7.358817e-01
    outer loop
      vertex -6.571637e-01 -2.022542e+00 1.314328e+00
      vertex 6.909833e-01 -2.126627e+00 1.118034e+00
      vertex 7.295173e-01 -2.875410e+00 1.779728e+00
    endloop
  endfacet
  facet normal -1.579802e-01 -6.584227e-01 -7.358817e-01
    outer loop
      vertex 7.295173e-01 -2.875410e+00 1.779728e+00
      vertex -6.186296e-01 -2.771326e+00 1.976021e+00
      vertex -6.571637e-01 -2.022542e+00 1.314328e+00
    endloop
  endfacet
  facet normal 9.772702e-01 1.663853e-01 1.313726e-01
    outer loop
      vertex 6.909833e-01 -2.126627e+00 1.118034e+00
      vertex 4.061498e-01 -1.250000e+00 2.126627e+00
      vertex 4.446838e-01 -1.998783e+00 2.788321e+00
    endloop
  endfacet
  facet normal 9.772702e-01 1.663854e-01 1.313726e-01
    outer loop
      vertex 4.446838e-01 -1.998783e+00 2.788321e+00
      vertex 7.295173e-01 -2.875410e+00 1.779728e+00
      vertex 6.909833e-01 -2.126627e+00 1.118034e+00
    endloop
  endfacet
  facet normal -2.569868e-01 -2.524899e-01 9.328487e-01
    outer loop
      vertex 1.720477e+00 1.250000e+00 1.314328e+00
      vertex 2.236068e+00 0.000000e+00 1.118034e+00
      vertex 3.125766e+00 3.150939e-01 1.448418e+00
    endloop
  endfacet
  facet normal -2.569868e-01 -2.524899e-01 9.328487e-01
    outer loop
      vertex 3.125766e+00 3.150939e-01 1.448418e+00
      vertex 2.610175e+00 1.565094e+00 1.644712e+00
      vertex 1.720477e+00 1.250000e+00 1.314328e+00
    endloop
  endfacet
  facet normal 4.446367e-01 -7.622492e-01 -4.703981e-01
    outer loop
      vertex 2.236068e+00 0.000000e+00 1.118034e+00
      vertex 2.377641e+00 7.725425e-01 0.000000e+00
      vertex 3.267339e+00 1.087636e+00 3.303844e-01
    endloop
  endfacet
  facet normal 4.446367e-01 -7.622492e-01 -4.703982e-01
    outer loop
      vertex 3.267339e+00 1.087636e+00 3.303844e-01
      vertex 3.125766e+00 3.150939e-01 1.448418e+00
      vertex 2.236068e+00 0.000000e+00 1.118034e+00
    endloop
  endfacet
  facet normal -1.659406e-01 8.973429e-01 -4.089492e-01
    outer loop
      vertex 2.377641e+00 7.725425e-01 0.000000e+00
      vertex 1.720477e+00 1.250000e+00 1.314328e+00
      vertex 2.610175e+00 1.565094e+00 1.644712e+00
    endloop
  endfacet
  facet normal -1.659406e-01 8.973429e-01 -4.089492e-01
    outer loop
      vertex 2.610175e+00 1.565094e+00 1.644712e+00
      vertex 3.267339e+00 1.087636e+00 3.303844e-01
      vertex 2.377641e+00 7.725425e-01 0.000000e+00
    endloop
  endfacet
  facet normal 1.607189e-01 -3.224325e-01 9.328487e-01
    outer loop
      vertex -6.571640e-01 2.022542e+00 1.314328e+00
      vertex 6.909829e-01 2.126627e+00 1.118034e+00
      vertex 6.662424e-01 3.070149e+00 1.448418e+00
    endloop
  endfacet
  facet normal 1.607189e-01 -3.224325e-01 9.328487e-01
    outer loop
      vertex 6.662424e-01 3.070149e+00 1.448418e+00
      vertex -6.819046e-01 2.966065e+00 1.644712e+00
      vertex -6.571640e-01 2.022542e+00 1.314328e+00
    endloop
  endfacet
  facet normal 8.623423e-01 1.873268e-01 -4.703982e-01
    outer loop
      vertex 6.909829e-01 2.126627e+00 1.118034e+00
      vertex -1.092785e-07 2.500000e+00 0.000000e+00
      vertex -2.474068e-02 3.443522e+00 3.303842e-01
    endloop
  endfacet
  facet normal 8.623423e-01 1.873268e-01 -4.703982e-01
    outer loop
      vertex -2.474068e-02 3.443522e+00 3.303842e-01
      vertex 6.662424e-01 3.070149e+00 1.448418e+00
      vertex 6.909829e-01 2.126627e+00 1.118034e+00
    endloop
  endfacet
  facet normal -9.047023e-01 1.194752e-01 -4.089492e-01
    outer loop
      vertex -1.092785e-07 2.500000e+00 0.000000e+00
      vertex -6.571640e-01 2.022542e+00 1.314328e+00
      vertex -6.819046e-01 2.966065e+00 1.644712e+00
    endloop
  endfacet
  facet normal -9.047023e-01 1.194752e-01 -4.089492e-01
    outer loop
      vertex -6.819046e-01 2.966065e+00 1.644712e+00
      vertex -2.474068e-02 3.443522e+00 3.303842e-01
      vertex -1.092785e-07 2.500000e+00 0.000000e+00
    endloop
  endfacet
endsolid rochers
