solid UWTROC
  facet normal -8.660254e-01 5.000000e-01 0.000000e+00
    outer loop
      vertex -1.918061e+00 -2.472179e+00 4.000000e+00
      vertex -7.361217e-01 -4.250001e-01 4.000000e+00
      vertex -7.361217e-01 -4.250001e-01 0.000000e+00
    endloop
  endfacet
  facet normal -8.660254e-01 5.000000e-01 0.000000e+00
    outer loop
      vertex -7.361217e-01 -4.250001e-01 0.000000e+00
      vertex -1.918061e+00 -2.472179e+00 0.000000e+00
      vertex -1.918061e+00 -2.472179e+00 4.000000e+00
    endloop
  endfacet
  facet normal -4.999999e-01 -8.660254e-01 0.000000e+00
    outer loop
      vertex -1.181939e+00 -2.897179e+00 4.000000e+00
      vertex -1.918061e+00 -2.472179e+00 4.000000e+00
      vertex -1.918061e+00 -2.472179e+00 0.000000e+00
    endloop
  endfacet
  facet normal -4.999999e-01 -8.660254e-01 0.000000e+00
    outer loop
      vertex -1.918061e+00 -2.472179e+00 0.000000e+00
      vertex -1.181939e+00 -2.897179e+00 0.000000e+00
      vertex -1.181939e+00 -2.897179e+00 4.000000e+00
    endloop
  endfacet
  facet normal 8.660254e-01 -5.000000e-01 0.000000e+00
    outer loop
      vertex 1.918061e+00 2.472179e+00 4.000000e+00
      vertex 7.361217e-01 4.250001e-01 4.000000e+00
      vertex 7.361217e-01 4.250001e-01 0.000000e+00
    endloop
  endfacet
  facet normal 8.660254e-01 -5.000000e-01 0.000000e+00
    outer loop
      vertex 7.361217e-01 4.250001e-01 0.000000e+00
      vertex 1.918061e+00 2.472179e+00 0.000000e+00
      vertex 1.918061e+00 2.472179e+00 4.000000e+00
    endloop
  endfacet
  facet normal 4.999999e-01 8.660254e-01 0.000000e+00
    outer loop
      vertex 1.181939e+00 2.897179e+00 4.000000e+00
      vertex 1.918061e+00 2.472179e+00 4.000000e+00
      vertex 1.918061e+00 2.472179e+00 0.000000e+00
    endloop
  endfacet
  facet normal 4.999999e-01 8.660254e-01 0.000000e+00
    outer loop
      vertex 1.918061e+00 2.472179e+00 0.000000e+00
      vertex 1.181939e+00 2.897179e+00 0.000000e+00
      vertex 1.181939e+00 2.897179e+00 4.000000e+00
    endloop
  endfacet
  facet normal -8.660254e-01 5.000000e-01 0.000000e+00
    outer loop
      vertex -7.017712e-08 8.500000e-01 4.000000e+00
      vertex 1.181939e+00 2.897179e+00 4.000000e+00
      vertex 1.181939e+00 2.897179e+00 0.000000e+00
    endloop
  endfacet
  facet normal -8.660254e-01 5.000000e-01 0.000000e+00
    outer loop
      vertex 1.181939e+00 2.897179e+00 0.000000e+00
      vertex -7.017712e-08 8.500000e-01 0.000000e+00
      vertex -7.017712e-08 8.500000e-01 4.000000e+00
    endloop
  endfacet
  facet normal 8.825170e-08 -1.000000e+00 0.000000e+00
    outer loop
      vertex 7.361215e-01 -4.250000e-01 4.000000e+00
      vertex 7.361215e-01 -4.250000e-01 0.000000e+00
      vertex 3.100000e+00 -4.249997e-01 0.000000e+00
    endloop
  endfacet
  facet normal 8.825170e-08 -1.000000e+00 0.000000e+00
    outer loop
      vertex 3.100000e+00 -4.249997e-01 0.000000e+00
      vertex 3.100000e+00 -4.249997e-01 4.000000e+00
      vertex 7.361215e-01 -4.250000e-01 4.000000e+00
    endloop
  endfacet
  facet normal -8.825170e-08 1.000000e+00 0.000000e+00
    outer loop
      vertex -3.100000e+00 4.249997e-01 4.000000e+00
      vertex -7.361215e-01 4.250000e-01 4.000000e+00
      vertex -7.361215e-01 4.250000e-01 0.000000e+00
    endloop
  endfacet
  facet normal -8.825170e-08 1.000000e+00 0.000000e+00
    outer loop
      vertex -7.361215e-01 4.250000e-01 0.000000e+00
      vertex -3.100000e+00 4.249997e-01 0.000000e+00
      vertex -3.100000e+00 4.249997e-01 4.000000e+00
    endloop
  endfacet
  facet normal 8.660254e-01 -5.000000e-01 0.000000e+00
    outer loop
      vertex 7.017712e-08 -8.500000e-01 4.000000e+00
      vertex -1.181939e+00 -2.897179e+00 4.000000e+00
      vertex -1.181939e+00 -2.897179e+00 0.000000e+00
    endloop
  endfacet
  facet normal 8.660254e-01 -5.000000e-01 0.000000e+00
    outer loop
      vertex -1.181939e+00 -2.897179e+00 0.000000e+00
      vertex 7.017712e-08 -8.500000e-01 0.000000e+00
      vertex 7.017712e-08 -8.500000e-01 4.000000e+00
    endloop
  endfacet
  facet normal 8.660254e-01 4.999999e-01 0.000000e+00
    outer loop
      vertex -1.181939e+00 2.897179e+00 4.000000e+00
      vertex -7.017712e-08 8.500000e-01 4.000000e+00
      vertex -7.017712e-08 8.500000e-01 0.000000e+00
    endloop
  endfacet
  facet normal 8.660254e-01 4.999999e-01 0.000000e+00
    outer loop
      vertex -7.017712e-08 8.500000e-01 0.000000e+00
      vertex -1.181939e+00 2.897179e+00 0.000000e+00
      vertex -1.181939e+00 2.897179e+00 4.000000e+00
    endloop
  endfacet
  facet normal -8.660254e-01 -5.000000e-01 0.000000e+00
    outer loop
      vertex -1.918061e+00 2.472179e+00 0.000000e+00
      vertex -7.361215e-01 4.250000e-01 0.000000e+00
      vertex -7.361215e-01 4.250000e-01 4.000000e+00
    endloop
  endfacet
  facet normal -8.660254e-01 -5.000000e-01 0.000000e+00
    outer loop
      vertex -7.361215e-01 4.250000e-01 4.000000e+00
      vertex -1.918061e+00 2.472179e+00 4.000000e+00
      vertex -1.918061e+00 2.472179e+00 0.000000e+00
    endloop
  endfacet
  facet normal -4.999999e-01 8.660254e-01 0.000000e+00
    outer loop
      vertex -1.918061e+00 2.472179e+00 4.000000e+00
      vertex -1.181939e+00 2.897179e+00 4.000000e+00
      vertex -1.181939e+00 2.897179e+00 0.000000e+00
    endloop
  endfacet
  facet normal -4.999999e-01 8.660254e-01 0.000000e+00
    outer loop
      vertex -1.181939e+00 2.897179e+00 0.000000e+00
      vertex -1.918061e+00 2.472179e+00 0.000000e+00
      vertex -1.918061e+00 2.472179e+00 4.000000e+00
    endloop
  endfacet
  facet normal -8.660254e-01 -4.999999e-01 0.000000e+00
    outer loop
      vertex 1.181939e+00 -2.897179e+00 4.000000e+00
      vertex 7.017712e-08 -8.500000e-01 4.000000e+00
      vertex 7.017712e-08 -8.500000e-01 0.000000e+00
    endloop
  endfacet
  facet normal -8.660254e-01 -4.999999e-01 0.000000e+00
    outer loop
      vertex 7.017712e-08 -8.500000e-01 0.000000e+00
      vertex 1.181939e+00 -2.897179e+00 0.000000e+00
      vertex 1.181939e+00 -2.897179e+00 4.000000e+00
    endloop
  endfacet
  facet normal 8.660254e-01 5.000000e-01 0.000000e+00
    outer loop
      vertex 7.361215e-01 -4.250000e-01 0.000000e+00
      vertex 7.361215e-01 -4.250000e-01 4.000000e+00
      vertex 1.918061e+00 -2.472179e+00 4.000000e+00
    endloop
  endfacet
  facet normal 8.660254e-01 5.000000e-01 -0.000000e+00
    outer loop
      vertex 1.918061e+00 -2.472179e+00 4.000000e+00
      vertex 1.918061e+00 -2.472179e+00 0.000000e+00
      vertex 7.361215e-01 -4.250000e-01 0.000000e+00
    endloop
  endfacet
  facet normal 4.999999e-01 -8.660254e-01 0.000000e+00
    outer loop
      vertex 1.918061e+00 -2.472179e+00 4.000000e+00
      vertex 1.181939e+00 -2.897179e+00 4.000000e+00
      vertex 1.181939e+00 -2.897179e+00 0.000000e+00
    endloop
  endfacet
  facet normal 4.999999e-01 -8.660254e-01 0.000000e+00
    outer loop
      vertex 1.181939e+00 -2.897179e+00 0.000000e+00
      vertex 1.918061e+00 -2.472179e+00 0.000000e+00
      vertex 1.918061e+00 -2.472179e+00 4.000000e+00
    endloop
  endfacet
  facet normal 8.825170e-08 -1.000000e+00 0.000000e+00
    outer loop
      vertex -3.100000e+00 -4.250003e-01 0.000000e+00
      vertex -7.361217e-01 -4.250001e-01 0.000000e+00
      vertex -7.361217e-01 -4.250001e-01 4.000000e+00
    endloop
  endfacet
  facet normal 8.825170e-08 -1.000000e+00 0.000000e+00
    outer loop
      vertex -7.361217e-01 -4.250001e-01 4.000000e+00
      vertex -3.100000e+00 -4.250003e-01 4.000000e+00
      vertex -3.100000e+00 -4.250003e-01 0.000000e+00
    endloop
  endfacet
  facet normal 1.000000e+00 0.000000e+00 0.000000e+00
    outer loop
      vertex 3.100000e+00 -4.249997e-01 0.000000e+00
      vertex 3.100000e+00 4.250003e-01 0.000000e+00
      vertex 3.100000e+00 4.250003e-01 4.000000e+00
    endloop
  endfacet
  facet normal 1.000000e+00 0.000000e+00 0.000000e+00
    outer loop
      vertex 3.100000e+00 4.250003e-01 4.000000e+00
      vertex 3.100000e+00 -4.249997e-01 4.000000e+00
      vertex 3.100000e+00 -4.249997e-01 0.000000e+00
    endloop
  endfacet
  facet normal -8.825170e-08 1.000000e+00 0.000000e+00
    outer loop
      vertex 3.100000e+00 4.250003e-01 0.000000e+00
      vertex 7.361217e-01 4.250001e-01 0.000000e+00
      vertex 7.361217e-01 4.250001e-01 4.000000e+00
    endloop
  endfacet
  facet normal -8.825170e-08 1.000000e+00 0.000000e+00
    outer loop
      vertex 7.361217e-01 4.250001e-01 4.000000e+00
      vertex 3.100000e+00 4.250003e-01 4.000000e+00
      vertex 3.100000e+00 4.250003e-01 0.000000e+00
    endloop
  endfacet
  facet normal -1.000000e+00 0.000000e+00 0.000000e+00
    outer loop
      vertex -3.100000e+00 4.249997e-01 0.000000e+00
      vertex -3.100000e+00 -4.250003e-01 0.000000e+00
      vertex -3.100000e+00 -4.250003e-01 4.000000e+00
    endloop
  endfacet
  facet normal -1.000000e+00 0.000000e+00 0.000000e+00
    outer loop
      vertex -3.100000e+00 -4.250003e-01 4.000000e+00
      vertex -3.100000e+00 4.249997e-01 4.000000e+00
      vertex -3.100000e+00 4.249997e-01 0.000000e+00
    endloop
  endfacet
  facet normal 0.000000e+00 0.000000e+00 -1.000000e+00
    outer loop
      vertex 7.361215e-01 -4.250000e-01 0.000000e+00
      vertex 1.918061e+00 -2.472179e+00 0.000000e+00
      vertex 1.181939e+00 -2.897179e+00 0.000000e+00
    endloop
  endfacet
  facet normal 0.000000e+00 0.000000e+00 -1.000000e+00
    outer loop
      vertex 7.361215e-01 -4.250000e-01 0.000000e+00
      vertex 1.181939e+00 -2.897179e+00 0.000000e+00
      vertex 7.017712e-08 -8.500000e-01 0.000000e+00
    endloop
  endfacet
  facet normal 0.000000e+00 0.000000e+00 -1.000000e+00
    outer loop
      vertex 7.017712e-08 -8.500000e-01 0.000000e+00
      vertex -1.181939e+00 -2.897179e+00 0.000000e+00
      vertex -1.918061e+00 -2.472179e+00 0.000000e+00
    endloop
  endfacet
  facet normal 0.000000e+00 0.000000e+00 -1.000000e+00
    outer loop
      vertex 7.017712e-08 -8.500000e-01 0.000000e+00
      vertex -1.918061e+00 -2.472179e+00 0.000000e+00
      vertex -7.361217e-01 -4.250001e-01 0.000000e+00
    endloop
  endfacet
  facet normal 0.000000e+00 0.000000e+00 -1.000000e+00
    outer loop
      vertex -7.361217e-01 -4.250001e-01 0.000000e+00
      vertex -3.100000e+00 -4.250003e-01 0.000000e+00
      vertex -3.100000e+00 4.249997e-01 0.000000e+00
    endloop
  endfacet
  facet normal 0.000000e+00 -0.000000e+00 -1.000000e+00
    outer loop
      vertex -7.361217e-01 -4.250001e-01 0.000000e+00
      vertex -3.100000e+00 4.249997e-01 0.000000e+00
      vertex -7.361215e-01 4.250000e-01 0.000000e+00
    endloop
  endfacet
  facet normal 0.000000e+00 0.000000e+00 -1.000000e+00
    outer loop
      vertex 7.017712e-08 -8.500000e-01 0.000000e+00
      vertex -7.361217e-01 -4.250001e-01 0.000000e+00
      vertex -7.361215e-01 4.250000e-01 0.000000e+00
    endloop
  endfacet
  facet normal 0.000000e+00 0.000000e+00 -1.000000e+00
    outer loop
      vertex 7.361215e-01 -4.250000e-01 0.000000e+00
      vertex 7.017712e-08 -8.500000e-01 0.000000e+00
      vertex -7.361215e-01 4.250000e-01 0.000000e+00
    endloop
  endfacet
  facet normal 0.000000e+00 0.000000e+00 -1.000000e+00
    outer loop
      vertex -7.361215e-01 4.250000e-01 0.000000e+00
      vertex -1.918061e+00 2.472179e+00 0.000000e+00
      vertex -1.181939e+00 2.897179e+00 0.000000e+00
    endloop
  endfacet
  facet normal 0.000000e+00 -0.000000e+00 -1.000000e+00
    outer loop
      vertex -7.361215e-01 4.250000e-01 0.000000e+00
      vertex -1.181939e+00 2.897179e+00 0.000000e+00
      vertex -7.017712e-08 8.500000e-01 0.000000e+00
    endloop
  endfacet
  facet normal 0.000000e+00 0.000000e+00 -1.000000e+00
    outer loop
      vertex 7.361215e-01 -4.250000e-01 0.000000e+00
      vertex -7.361215e-01 4.250000e-01 0.000000e+00
      vertex -7.017712e-08 8.500000e-01 0.000000e+00
    endloop
  endfacet
  facet normal 0.000000e+00 0.000000e+00 -1.000000e+00
    outer loop
      vertex -7.017712e-08 8.500000e-01 0.000000e+00
      vertex 1.181939e+00 2.897179e+00 0.000000e+00
      vertex 1.918061e+00 2.472179e+00 0.000000e+00
    endloop
  endfacet
  facet normal -0.000000e+00 0.000000e+00 -1.000000e+00
    outer loop
      vertex -7.017712e-08 8.500000e-01 0.000000e+00
      vertex 1.918061e+00 2.472179e+00 0.000000e+00
      vertex 7.361217e-01 4.250001e-01 0.000000e+00
    endloop
  endfacet
  facet normal 0.000000e+00 -0.000000e+00 -1.000000e+00
    outer loop
      vertex 7.361215e-01 -4.250000e-01 0.000000e+00
      vertex -7.017712e-08 8.500000e-01 0.000000e+00
      vertex 7.361217e-01 4.250001e-01 0.000000e+00
    endloop
  endfacet
  facet normal 0.000000e+00 0.000000e+00 -1.000000e+00
    outer loop
      vertex 3.100000e+00 -4.249997e-01 0.000000e+00
      vertex 7.361215e-01 -4.250000e-01 0.000000e+00
      vertex 7.361217e-01 4.250001e-01 0.000000e+00
    endloop
  endfacet
  facet normal 0.000000e+00 0.000000e+00 -1.000000e+00
    outer loop
      vertex 3.100000e+00 -4.249997e-01 0.000000e+00
      vertex 7.361217e-01 4.250001e-01 0.000000e+00
      vertex 3.100000e+00 4.250003e-01 0.000000e+00
    endloop
  endfacet
  facet normal 0.000000e+00 0.000000e+00 1.000000e+00
    outer loop
      vertex -1.918061e+00 -2.472179e+00 4.000000e+00
      vertex -1.181939e+00 -2.897179e+00 4.000000e+00
      vertex 7.017712e-08 -8.500000e-01 4.000000e+00
    endloop
  endfacet
  facet normal 0.000000e+00 -0.000000e+00 1.000000e+00
    outer loop
      vertex -7.361217e-01 -4.250001e-01 4.000000e+00
      vertex -1.918061e+00 -2.472179e+00 4.000000e+00
      vertex 7.017712e-08 -8.500000e-01 4.000000e+00
    endloop
  endfacet
  facet normal 0.000000e+00 0.000000e+00 1.000000e+00
    outer loop
      vertex 1.181939e+00 -2.897179e+00 4.000000e+00
      vertex 1.918061e+00 -2.472179e+00 4.000000e+00
      vertex 7.361215e-01 -4.250000e-01 4.000000e+00
    endloop
  endfacet
  facet normal 0.000000e+00 0.000000e+00 1.000000e+00
    outer loop
      vertex 7.017712e-08 -8.500000e-01 4.000000e+00
      vertex 1.181939e+00 -2.897179e+00 4.000000e+00
      vertex 7.361215e-01 -4.250000e-01 4.000000e+00
    endloop
  endfacet
  facet normal 0.000000e+00 0.000000e+00 1.000000e+00
    outer loop
      vertex 3.100000e+00 -4.249997e-01 4.000000e+00
      vertex 3.100000e+00 4.250003e-01 4.000000e+00
      vertex 7.361217e-01 4.250001e-01 4.000000e+00
    endloop
  endfacet
  facet normal 0.000000e+00 0.000000e+00 1.000000e+00
    outer loop
      vertex 7.361215e-01 -4.250000e-01 4.000000e+00
      vertex 3.100000e+00 -4.249997e-01 4.000000e+00
      vertex 7.361217e-01 4.250001e-01 4.000000e+00
    endloop
  endfacet
  facet normal -0.000000e+00 0.000000e+00 1.000000e+00
    outer loop
      vertex 1.918061e+00 2.472179e+00 4.000000e+00
      vertex 1.181939e+00 2.897179e+00 4.000000e+00
      vertex -7.017712e-08 8.500000e-01 4.000000e+00
    endloop
  endfacet
  facet normal 0.000000e+00 0.000000e+00 1.000000e+00
    outer loop
      vertex 7.361217e-01 4.250001e-01 4.000000e+00
      vertex 1.918061e+00 2.472179e+00 4.000000e+00
      vertex -7.017712e-08 8.500000e-01 4.000000e+00
    endloop
  endfacet
  facet normal 0.000000e+00 0.000000e+00 1.000000e+00
    outer loop
      vertex 7.361215e-01 -4.250000e-01 4.000000e+00
      vertex 7.361217e-01 4.250001e-01 4.000000e+00
      vertex -7.017712e-08 8.500000e-01 4.000000e+00
    endloop
  endfacet
  facet normal 0.000000e+00 -0.000000e+00 1.000000e+00
    outer loop
      vertex -1.181939e+00 2.897179e+00 4.000000e+00
      vertex -1.918061e+00 2.472179e+00 4.000000e+00
      vertex -7.361215e-01 4.250000e-01 4.000000e+00
    endloop
  endfacet
  facet normal -0.000000e+00 0.000000e+00 1.000000e+00
    outer loop
      vertex -7.017712e-08 8.500000e-01 4.000000e+00
      vertex -1.181939e+00 2.897179e+00 4.000000e+00
      vertex -7.361215e-01 4.250000e-01 4.000000e+00
    endloop
  endfacet
  facet normal 0.000000e+00 0.000000e+00 1.000000e+00
    outer loop
      vertex 7.361215e-01 -4.250000e-01 4.000000e+00
      vertex -7.017712e-08 8.500000e-01 4.000000e+00
      vertex -7.361215e-01 4.250000e-01 4.000000e+00
    endloop
  endfacet
  facet normal 0.000000e+00 0.000000e+00 1.000000e+00
    outer loop
      vertex 7.017712e-08 -8.500000e-01 4.000000e+00
      vertex 7.361215e-01 -4.250000e-01 4.000000e+00
      vertex -7.361215e-01 4.250000e-01 4.000000e+00
    endloop
  endfacet
  facet normal 0.000000e+00 0.000000e+00 1.000000e+00
    outer loop
      vertex -7.361217e-01 -4.250001e-01 4.000000e+00
      vertex 7.017712e-08 -8.500000e-01 4.000000e+00
      vertex -7.361215e-01 4.250000e-01 4.000000e+00
    endloop
  endfacet
  facet normal 0.000000e+00 0.000000e+00 1.000000e+00
    outer loop
      vertex -7.361217e-01 -4.250001e-01 4.000000e+00
      vertex -7.361215e-01 4.250000e-01 4.000000e+00
      vertex -3.100000e+00 4.249997e-01 4.000000e+00
    endloop
  endfacet
  facet normal -0.000000e+00 0.000000e+00 1.000000e+00
    outer loop
      vertex -7.361217e-01 -4.250001e-01 4.000000e+00
      vertex -3.100000e+00 4.249997e-01 4.000000e+00
      vertex -3.100000e+00 -4.250003e-01 4.000000e+00
    endloop
  endfacet
endsolid UWTROC
