solid wreck
  facet normal 5.000001e-01 8.660253e-01 0.000000e+00
    outer loop
      vertex 2.168061e+00 2.905191e+00 0.000000e+00
      vertex 1.431939e+00 3.330191e+00 4.000000e+00
      vertex 2.168061e+00 2.905191e+00 4.000000e+00
    endloop
  endfacet
  facet normal -5.000001e-01 -8.660253e-01 -0.000000e+00
    outer loop
      vertex -2.168061e+00 -2.905191e+00 0.000000e+00
      vertex -1.431939e+00 -3.330191e+00 4.000000e+00
      vertex -2.168061e+00 -2.905191e+00 4.000000e+00
    endloop
  endfacet
  facet normal -8.660254e-01 5.000001e-01 0.000000e+00
    outer loop
      vertex 1.431939e+00 3.330191e+00 0.000000e+00
      vertex 6.854534e-07 8.500010e-01 4.000000e+00
      vertex 1.431939e+00 3.330191e+00 4.000000e+00
    endloop
  endfacet
  facet normal 8.660253e-01 -5.000001e-01 0.000000e+00
    outer loop
      vertex -1.431939e+00 -3.330191e+00 0.000000e+00
      vertex 4.172325e-07 -8.499991e-01 4.000000e+00
      vertex -1.431939e+00 -3.330191e+00 4.000000e+00
    endloop
  endfacet
  facet normal 8.660254e-01 5.000000e-01 -0.000000e+00
    outer loop
      vertex -1.431937e+00 3.330190e+00 4.000000e+00
      vertex 6.854534e-07 8.500010e-01 0.000000e+00
      vertex -1.431937e+00 3.330190e+00 0.000000e+00
    endloop
  endfacet
  facet normal -4.999997e-01 8.660256e-01 0.000000e+00
    outer loop
      vertex -2.168059e+00 2.905190e+00 4.000000e+00
      vertex -1.431937e+00 3.330190e+00 0.000000e+00
      vertex -2.168059e+00 2.905190e+00 0.000000e+00
    endloop
  endfacet
  facet normal -8.660254e-01 -5.000000e-01 0.000000e+00
    outer loop
      vertex 1.431940e+00 -3.330192e+00 4.000000e+00
      vertex 4.172325e-07 -8.499991e-01 0.000000e+00
      vertex 1.431940e+00 -3.330192e+00 0.000000e+00
    endloop
  endfacet
  facet normal 4.999997e-01 -8.660256e-01 0.000000e+00
    outer loop
      vertex 2.168062e+00 -2.905192e+00 4.000000e+00
      vertex 1.431940e+00 -3.330192e+00 0.000000e+00
      vertex 2.168062e+00 -2.905192e+00 0.000000e+00
    endloop
  endfacet
  facet normal 0.000000e+00 0.000000e+00 -1.000000e+00
    outer loop
      vertex 4.172325e-07 -8.499991e-01 0.000000e+00
      vertex 7.361211e-01 4.249991e-01 0.000000e+00
      vertex 7.361234e-01 -4.250011e-01 0.000000e+00
    endloop
  endfacet
  facet normal 0.000000e+00 0.000000e+00 1.000000e+00
    outer loop
      vertex 4.172325e-07 -8.499991e-01 4.000000e+00
      vertex 7.361211e-01 4.249991e-01 4.000000e+00
      vertex 6.854534e-07 8.500010e-01 4.000000e+00
    endloop
  endfacet
  facet normal 8.660253e-01 -5.000001e-01 0.000000e+00
    outer loop
      vertex 7.361211e-01 4.249991e-01 4.000000e+00
      vertex 2.168061e+00 2.905191e+00 0.000000e+00
      vertex 2.168061e+00 2.905191e+00 4.000000e+00
    endloop
  endfacet
  facet normal -8.660254e-01 -5.000000e-01 0.000000e+00
    outer loop
      vertex -7.361201e-01 4.249991e-01 4.000000e+00
      vertex -2.168059e+00 2.905190e+00 0.000000e+00
      vertex -7.361201e-01 4.249991e-01 0.000000e+00
    endloop
  endfacet
  facet normal 8.660254e-01 5.000000e-01 -0.000000e+00
    outer loop
      vertex 7.361234e-01 -4.250011e-01 4.000000e+00
      vertex 2.168062e+00 -2.905192e+00 0.000000e+00
      vertex 7.361234e-01 -4.250011e-01 0.000000e+00
    endloop
  endfacet
  facet normal -8.660253e-01 5.000001e-01 0.000000e+00
    outer loop
      vertex -7.361223e-01 -4.250010e-01 4.000000e+00
      vertex -2.168061e+00 -2.905191e+00 0.000000e+00
      vertex -2.168061e+00 -2.905191e+00 4.000000e+00
    endloop
  endfacet
  facet normal -3.121884e-08 -1.000000e+00 0.000000e+00
    outer loop
      vertex 7.361234e-01 -4.250011e-01 4.000000e+00
      vertex 3.600002e+00 -4.250011e-01 0.000000e+00
      vertex 3.600002e+00 -4.250011e-01 4.000000e+00
    endloop
  endfacet
  facet normal -2.081255e-08 1.000000e+00 0.000000e+00
    outer loop
      vertex 3.600001e+00 4.249991e-01 0.000000e+00
      vertex 7.361211e-01 4.249991e-01 4.000000e+00
      vertex 3.600001e+00 4.249991e-01 4.000000e+00
    endloop
  endfacet
  facet normal 1.000000e+00 2.804924e-07 -0.000000e+00
    outer loop
      vertex 3.600001e+00 4.249991e-01 4.000000e+00
      vertex 3.600002e+00 -4.250011e-01 0.000000e+00
      vertex 3.600001e+00 4.249991e-01 0.000000e+00
    endloop
  endfacet
  facet normal 3.121884e-08 1.000000e+00 0.000000e+00
    outer loop
      vertex -7.361201e-01 4.249991e-01 4.000000e+00
      vertex -3.599998e+00 4.249992e-01 0.000000e+00
      vertex -3.599998e+00 4.249992e-01 4.000000e+00
    endloop
  endfacet
  facet normal 2.081258e-08 -1.000000e+00 0.000000e+00
    outer loop
      vertex -3.599998e+00 -4.250010e-01 0.000000e+00
      vertex -7.361223e-01 -4.250010e-01 4.000000e+00
      vertex -3.599998e+00 -4.250010e-01 4.000000e+00
    endloop
  endfacet
  facet normal -1.000000e+00 0.000000e+00 0.000000e+00
    outer loop
      vertex -3.599998e+00 -4.250010e-01 4.000000e+00
      vertex -3.599998e+00 4.249992e-01 0.000000e+00
      vertex -3.599998e+00 -4.250010e-01 0.000000e+00
    endloop
  endfacet
  facet normal 5.000001e-01 8.660253e-01 -0.000000e+00
    outer loop
      vertex 1.431939e+00 3.330191e+00 4.000000e+00
      vertex 2.168061e+00 2.905191e+00 0.000000e+00
      vertex 1.431939e+00 3.330191e+00 0.000000e+00
    endloop
  endfacet
  facet normal -5.000001e-01 -8.660253e-01 0.000000e+00
    outer loop
      vertex -1.431939e+00 -3.330191e+00 4.000000e+00
      vertex -2.168061e+00 -2.905191e+00 0.000000e+00
      vertex -1.431939e+00 -3.330191e+00 0.000000e+00
    endloop
  endfacet
  facet normal -8.660254e-01 5.000001e-01 0.000000e+00
    outer loop
      vertex 6.854534e-07 8.500010e-01 4.000000e+00
      vertex 1.431939e+00 3.330191e+00 0.000000e+00
      vertex 6.854534e-07 8.500010e-01 0.000000e+00
    endloop
  endfacet
  facet normal 8.660253e-01 -5.000001e-01 0.000000e+00
    outer loop
      vertex 4.172325e-07 -8.499991e-01 4.000000e+00
      vertex -1.431939e+00 -3.330191e+00 0.000000e+00
      vertex 4.172325e-07 -8.499991e-01 0.000000e+00
    endloop
  endfacet
  facet normal 8.660254e-01 5.000000e-01 0.000000e+00
    outer loop
      vertex 6.854534e-07 8.500010e-01 0.000000e+00
      vertex -1.431937e+00 3.330190e+00 4.000000e+00
      vertex 6.854534e-07 8.500010e-01 4.000000e+00
    endloop
  endfacet
  facet normal -4.999997e-01 8.660256e-01 0.000000e+00
    outer loop
      vertex -1.431937e+00 3.330190e+00 0.000000e+00
      vertex -2.168059e+00 2.905190e+00 4.000000e+00
      vertex -1.431937e+00 3.330190e+00 4.000000e+00
    endloop
  endfacet
  facet normal -8.660254e-01 -5.000000e-01 -0.000000e+00
    outer loop
      vertex 4.172325e-07 -8.499991e-01 0.000000e+00
      vertex 1.431940e+00 -3.330192e+00 4.000000e+00
      vertex 4.172325e-07 -8.499991e-01 4.000000e+00
    endloop
  endfacet
  facet normal 4.999997e-01 -8.660256e-01 0.000000e+00
    outer loop
      vertex 1.431940e+00 -3.330192e+00 0.000000e+00
      vertex 2.168062e+00 -2.905192e+00 4.000000e+00
      vertex 1.431940e+00 -3.330192e+00 4.000000e+00
    endloop
  endfacet
  facet normal -0.000000e+00 0.000000e+00 -1.000000e+00
    outer loop
      vertex 7.361234e-01 -4.250011e-01 0.000000e+00
      vertex 3.600001e+00 4.249991e-01 0.000000e+00
      vertex 3.600002e+00 -4.250011e-01 0.000000e+00
    endloop
  endfacet
  facet normal 0.000000e+00 -0.000000e+00 -1.000000e+00
    outer loop
      vertex 7.361234e-01 -4.250011e-01 0.000000e+00
      vertex 7.361211e-01 4.249991e-01 0.000000e+00
      vertex 3.600001e+00 4.249991e-01 0.000000e+00
    endloop
  endfacet
  facet normal 0.000000e+00 0.000000e+00 -1.000000e+00
    outer loop
      vertex -7.361201e-01 4.249991e-01 0.000000e+00
      vertex -3.599998e+00 -4.250010e-01 0.000000e+00
      vertex -3.599998e+00 4.249992e-01 0.000000e+00
    endloop
  endfacet
  facet normal 0.000000e+00 0.000000e+00 -1.000000e+00
    outer loop
      vertex -7.361201e-01 4.249991e-01 0.000000e+00
      vertex -7.361223e-01 -4.250010e-01 0.000000e+00
      vertex -3.599998e+00 -4.250010e-01 0.000000e+00
    endloop
  endfacet
  facet normal 0.000000e+00 0.000000e+00 -1.000000e+00
    outer loop
      vertex -1.431937e+00 3.330190e+00 0.000000e+00
      vertex -7.361201e-01 4.249991e-01 0.000000e+00
      vertex -2.168059e+00 2.905190e+00 0.000000e+00
    endloop
  endfacet
  facet normal 0.000000e+00 0.000000e+00 -1.000000e+00
    outer loop
      vertex 6.854534e-07 8.500010e-01 0.000000e+00
      vertex -7.361201e-01 4.249991e-01 0.000000e+00
      vertex -1.431937e+00 3.330190e+00 0.000000e+00
    endloop
  endfacet
  facet normal 0.000000e+00 -0.000000e+00 -1.000000e+00
    outer loop
      vertex 1.431940e+00 -3.330192e+00 0.000000e+00
      vertex 7.361234e-01 -4.250011e-01 0.000000e+00
      vertex 2.168062e+00 -2.905192e+00 0.000000e+00
    endloop
  endfacet
  facet normal -0.000000e+00 0.000000e+00 -1.000000e+00
    outer loop
      vertex 4.172325e-07 -8.499991e-01 0.000000e+00
      vertex 7.361234e-01 -4.250011e-01 0.000000e+00
      vertex 1.431940e+00 -3.330192e+00 0.000000e+00
    endloop
  endfacet
  facet normal 0.000000e+00 0.000000e+00 -1.000000e+00
    outer loop
      vertex -7.361223e-01 -4.250010e-01 0.000000e+00
      vertex -1.431939e+00 -3.330191e+00 0.000000e+00
      vertex -2.168061e+00 -2.905191e+00 0.000000e+00
    endloop
  endfacet
  facet normal 0.000000e+00 0.000000e+00 -1.000000e+00
    outer loop
      vertex -7.361223e-01 -4.250010e-01 0.000000e+00
      vertex 4.172325e-07 -8.499991e-01 0.000000e+00
      vertex -1.431939e+00 -3.330191e+00 0.000000e+00
    endloop
  endfacet
  facet normal 0.000000e+00 0.000000e+00 -1.000000e+00
    outer loop
      vertex 2.168061e+00 2.905191e+00 0.000000e+00
      vertex 6.854534e-07 8.500010e-01 0.000000e+00
      vertex 1.431939e+00 3.330191e+00 0.000000e+00
    endloop
  endfacet
  facet normal 0.000000e+00 -0.000000e+00 -1.000000e+00
    outer loop
      vertex 7.361211e-01 4.249991e-01 0.000000e+00
      vertex 6.854534e-07 8.500010e-01 0.000000e+00
      vertex 2.168061e+00 2.905191e+00 0.000000e+00
    endloop
  endfacet
  facet normal 0.000000e+00 0.000000e+00 -1.000000e+00
    outer loop
      vertex -7.361201e-01 4.249991e-01 0.000000e+00
      vertex 4.172325e-07 -8.499991e-01 0.000000e+00
      vertex -7.361223e-01 -4.250010e-01 0.000000e+00
    endloop
  endfacet
  facet normal 0.000000e+00 0.000000e+00 -1.000000e+00
    outer loop
      vertex 6.854534e-07 8.500010e-01 0.000000e+00
      vertex 4.172325e-07 -8.499991e-01 0.000000e+00
      vertex -7.361201e-01 4.249991e-01 0.000000e+00
    endloop
  endfacet
  facet normal 0.000000e+00 0.000000e+00 -1.000000e+00
    outer loop
      vertex 7.361211e-01 4.249991e-01 0.000000e+00
      vertex 4.172325e-07 -8.499991e-01 0.000000e+00
      vertex 6.854534e-07 8.500010e-01 0.000000e+00
    endloop
  endfacet
  facet normal 0.000000e+00 0.000000e+00 1.000000e+00
    outer loop
      vertex -3.599998e+00 -4.250010e-01 4.000000e+00
      vertex -7.361201e-01 4.249991e-01 4.000000e+00
      vertex -3.599998e+00 4.249992e-01 4.000000e+00
    endloop
  endfacet
  facet normal -0.000000e+00 0.000000e+00 1.000000e+00
    outer loop
      vertex -7.361223e-01 -4.250010e-01 4.000000e+00
      vertex -7.361201e-01 4.249991e-01 4.000000e+00
      vertex -3.599998e+00 -4.250010e-01 4.000000e+00
    endloop
  endfacet
  facet normal 0.000000e+00 -0.000000e+00 1.000000e+00
    outer loop
      vertex 3.600001e+00 4.249991e-01 4.000000e+00
      vertex 7.361234e-01 -4.250011e-01 4.000000e+00
      vertex 3.600002e+00 -4.250011e-01 4.000000e+00
    endloop
  endfacet
  facet normal 0.000000e+00 0.000000e+00 1.000000e+00
    outer loop
      vertex 7.361211e-01 4.249991e-01 4.000000e+00
      vertex 7.361234e-01 -4.250011e-01 4.000000e+00
      vertex 3.600001e+00 4.249991e-01 4.000000e+00
    endloop
  endfacet
  facet normal 0.000000e+00 0.000000e+00 1.000000e+00
    outer loop
      vertex -7.361201e-01 4.249991e-01 4.000000e+00
      vertex -1.431937e+00 3.330190e+00 4.000000e+00
      vertex -2.168059e+00 2.905190e+00 4.000000e+00
    endloop
  endfacet
  facet normal 0.000000e+00 0.000000e+00 1.000000e+00
    outer loop
      vertex -7.361201e-01 4.249991e-01 4.000000e+00
      vertex 6.854534e-07 8.500010e-01 4.000000e+00
      vertex -1.431937e+00 3.330190e+00 4.000000e+00
    endloop
  endfacet
  facet normal 0.000000e+00 0.000000e+00 1.000000e+00
    outer loop
      vertex 7.361234e-01 -4.250011e-01 4.000000e+00
      vertex 1.431940e+00 -3.330192e+00 4.000000e+00
      vertex 2.168062e+00 -2.905192e+00 4.000000e+00
    endloop
  endfacet
  facet normal 0.000000e+00 -0.000000e+00 1.000000e+00
    outer loop
      vertex 7.361234e-01 -4.250011e-01 4.000000e+00
      vertex 4.172325e-07 -8.499991e-01 4.000000e+00
      vertex 1.431940e+00 -3.330192e+00 4.000000e+00
    endloop
  endfacet
  facet normal 0.000000e+00 0.000000e+00 1.000000e+00
    outer loop
      vertex -1.431939e+00 -3.330191e+00 4.000000e+00
      vertex -7.361223e-01 -4.250010e-01 4.000000e+00
      vertex -2.168061e+00 -2.905191e+00 4.000000e+00
    endloop
  endfacet
  facet normal -0.000000e+00 0.000000e+00 1.000000e+00
    outer loop
      vertex 4.172325e-07 -8.499991e-01 4.000000e+00
      vertex -7.361223e-01 -4.250010e-01 4.000000e+00
      vertex -1.431939e+00 -3.330191e+00 4.000000e+00
    endloop
  endfacet
  facet normal 0.000000e+00 0.000000e+00 1.000000e+00
    outer loop
      vertex 6.854534e-07 8.500010e-01 4.000000e+00
      vertex 2.168061e+00 2.905191e+00 4.000000e+00
      vertex 1.431939e+00 3.330191e+00 4.000000e+00
    endloop
  endfacet
  facet normal 0.000000e+00 0.000000e+00 1.000000e+00
    outer loop
      vertex 6.854534e-07 8.500010e-01 4.000000e+00
      vertex 7.361211e-01 4.249991e-01 4.000000e+00
      vertex 2.168061e+00 2.905191e+00 4.000000e+00
    endloop
  endfacet
  facet normal 0.000000e+00 0.000000e+00 1.000000e+00
    outer loop
      vertex 4.172325e-07 -8.499991e-01 4.000000e+00
      vertex -7.361201e-01 4.249991e-01 4.000000e+00
      vertex -7.361223e-01 -4.250010e-01 4.000000e+00
    endloop
  endfacet
  facet normal 0.000000e+00 0.000000e+00 1.000000e+00
    outer loop
      vertex 4.172325e-07 -8.499991e-01 4.000000e+00
      vertex 6.854534e-07 8.500010e-01 4.000000e+00
      vertex -7.361201e-01 4.249991e-01 4.000000e+00
    endloop
  endfacet
  facet normal 0.000000e+00 -0.000000e+00 1.000000e+00
    outer loop
      vertex 7.361211e-01 4.249991e-01 4.000000e+00
      vertex 4.172325e-07 -8.499991e-01 4.000000e+00
      vertex 7.361234e-01 -4.250011e-01 4.000000e+00
    endloop
  endfacet
  facet normal 8.660253e-01 -5.000001e-01 0.000000e+00
    outer loop
      vertex 2.168061e+00 2.905191e+00 0.000000e+00
      vertex 7.361211e-01 4.249991e-01 4.000000e+00
      vertex 7.361211e-01 4.249991e-01 0.000000e+00
    endloop
  endfacet
  facet normal -8.660254e-01 -5.000000e-01 -0.000000e+00
    outer loop
      vertex -2.168059e+00 2.905190e+00 0.000000e+00
      vertex -7.361201e-01 4.249991e-01 4.000000e+00
      vertex -2.168059e+00 2.905190e+00 4.000000e+00
    endloop
  endfacet
  facet normal 8.660254e-01 5.000000e-01 0.000000e+00
    outer loop
      vertex 2.168062e+00 -2.905192e+00 0.000000e+00
      vertex 7.361234e-01 -4.250011e-01 4.000000e+00
      vertex 2.168062e+00 -2.905192e+00 4.000000e+00
    endloop
  endfacet
  facet normal -8.660253e-01 5.000001e-01 0.000000e+00
    outer loop
      vertex -2.168061e+00 -2.905191e+00 0.000000e+00
      vertex -7.361223e-01 -4.250010e-01 4.000000e+00
      vertex -7.361223e-01 -4.250010e-01 0.000000e+00
    endloop
  endfacet
  facet normal -3.121884e-08 -1.000000e+00 0.000000e+00
    outer loop
      vertex 3.600002e+00 -4.250011e-01 0.000000e+00
      vertex 7.361234e-01 -4.250011e-01 4.000000e+00
      vertex 7.361234e-01 -4.250011e-01 0.000000e+00
    endloop
  endfacet
  facet normal -2.081255e-08 1.000000e+00 0.000000e+00
    outer loop
      vertex 7.361211e-01 4.249991e-01 4.000000e+00
      vertex 3.600001e+00 4.249991e-01 0.000000e+00
      vertex 7.361211e-01 4.249991e-01 0.000000e+00
    endloop
  endfacet
  facet normal 1.000000e+00 2.804924e-07 0.000000e+00
    outer loop
      vertex 3.600002e+00 -4.250011e-01 0.000000e+00
      vertex 3.600001e+00 4.249991e-01 4.000000e+00
      vertex 3.600002e+00 -4.250011e-01 4.000000e+00
    endloop
  endfacet
  facet normal 3.121884e-08 1.000000e+00 0.000000e+00
    outer loop
      vertex -3.599998e+00 4.249992e-01 0.000000e+00
      vertex -7.361201e-01 4.249991e-01 4.000000e+00
      vertex -7.361201e-01 4.249991e-01 0.000000e+00
    endloop
  endfacet
  facet normal 2.081258e-08 -1.000000e+00 0.000000e+00
    outer loop
      vertex -7.361223e-01 -4.250010e-01 4.000000e+00
      vertex -3.599998e+00 -4.250010e-01 0.000000e+00
      vertex -7.361223e-01 -4.250010e-01 0.000000e+00
    endloop
  endfacet
  facet normal -1.000000e+00 0.000000e+00 0.000000e+00
    outer loop
      vertex -3.599998e+00 4.249992e-01 0.000000e+00
      vertex -3.599998e+00 -4.250010e-01 4.000000e+00
      vertex -3.599998e+00 4.249992e-01 4.000000e+00
    endloop
  endfacet
endsolid wreck
