solid wreck
  facet normal 1.000000e+00 0.000000e+00 0.000000e+00
    outer loop
      vertex 4.250000e+00 -5.000000e-01 0.000000e+00
      vertex 4.250000e+00 5.000000e-01 7.000000e+00
      vertex 4.250000e+00 -5.000000e-01 7.000000e+00
    endloop
  endfacet
  facet normal -1.000000e+00 0.000000e+00 0.000000e+00
    outer loop
      vertex -4.250000e+00 5.000000e-01 0.000000e+00
      vertex -4.250000e+00 -5.000000e-01 7.000000e+00
      vertex -4.250000e+00 5.000000e-01 7.000000e+00
    endloop
  endfacet
  facet normal 0.000000e+00 -1.000000e+00 0.000000e+00
    outer loop
      vertex 4.250000e+00 -5.000000e-01 7.000000e+00
      vertex 3.000000e+00 -5.000000e-01 0.000000e+00
      vertex 4.250000e+00 -5.000000e-01 0.000000e+00
    endloop
  endfacet
  facet normal 0.000000e+00 1.000000e+00 0.000000e+00
    outer loop
      vertex 4.250000e+00 5.000000e-01 0.000000e+00
      vertex 3.000000e+00 5.000000e-01 7.000000e+00
      vertex 4.250000e+00 5.000000e-01 7.000000e+00
    endloop
  endfacet
  facet normal 1.000000e+00 0.000000e+00 0.000000e+00
    outer loop
      vertex 3.000000e+00 1.750000e+00 7.000000e+00
      vertex 3.000000e+00 5.000000e-01 0.000000e+00
      vertex 3.000000e+00 1.750000e+00 0.000000e+00
    endloop
  endfacet
  facet normal -1.000000e+00 0.000000e+00 0.000000e+00
    outer loop
      vertex 2.000000e+00 5.000000e-01 7.000000e+00
      vertex 2.000000e+00 1.750000e+00 0.000000e+00
      vertex 2.000000e+00 5.000000e-01 0.000000e+00
    endloop
  endfacet
  facet normal 0.000000e+00 1.000000e+00 -0.000000e+00
    outer loop
      vertex 2.000000e+00 1.750000e+00 7.000000e+00
      vertex 3.000000e+00 1.750000e+00 0.000000e+00
      vertex 2.000000e+00 1.750000e+00 0.000000e+00
    endloop
  endfacet
  facet normal -1.000000e+00 0.000000e+00 0.000000e+00
    outer loop
      vertex 2.000000e+00 -5.000000e-01 0.000000e+00
      vertex 2.000000e+00 -1.750000e+00 7.000000e+00
      vertex 2.000000e+00 -5.000000e-01 7.000000e+00
    endloop
  endfacet
  facet normal 1.000000e+00 0.000000e+00 0.000000e+00
    outer loop
      vertex 3.000000e+00 -1.750000e+00 0.000000e+00
      vertex 3.000000e+00 -5.000000e-01 7.000000e+00
      vertex 3.000000e+00 -1.750000e+00 7.000000e+00
    endloop
  endfacet
  facet normal 0.000000e+00 -1.000000e+00 -0.000000e+00
    outer loop
      vertex 2.000000e+00 -1.750000e+00 0.000000e+00
      vertex 3.000000e+00 -1.750000e+00 7.000000e+00
      vertex 2.000000e+00 -1.750000e+00 7.000000e+00
    endloop
  endfacet
  facet normal 0.000000e+00 0.000000e+00 -1.000000e+00
    outer loop
      vertex 2.000000e+00 5.000000e-01 0.000000e+00
      vertex -2.000000e+00 -5.000000e-01 0.000000e+00
      vertex -2.000000e+00 5.000000e-01 0.000000e+00
    endloop
  endfacet
  facet normal 0.000000e+00 0.000000e+00 1.000000e+00
    outer loop
      vertex -2.000000e+00 5.000000e-01 7.000000e+00
      vertex 2.000000e+00 -5.000000e-01 7.000000e+00
      vertex 2.000000e+00 5.000000e-01 7.000000e+00
    endloop
  endfacet
  facet normal 0.000000e+00 1.000000e+00 -0.000000e+00
    outer loop
      vertex -2.000000e+00 5.000000e-01 7.000000e+00
      vertex 2.000000e+00 5.000000e-01 0.000000e+00
      vertex -2.000000e+00 5.000000e-01 0.000000e+00
    endloop
  endfacet
  facet normal 0.000000e+00 -1.000000e+00 0.000000e+00
    outer loop
      vertex -2.000000e+00 -5.000000e-01 7.000000e+00
      vertex 2.000000e+00 -5.000000e-01 0.000000e+00
      vertex 2.000000e+00 -5.000000e-01 7.000000e+00
    endloop
  endfacet
  facet normal 0.000000e+00 1.000000e+00 0.000000e+00
    outer loop
      vertex -3.000000e+00 5.000000e-01 0.000000e+00
      vertex -4.250000e+00 5.000000e-01 7.000000e+00
      vertex -3.000000e+00 5.000000e-01 7.000000e+00
    endloop
  endfacet
  facet normal 0.000000e+00 -1.000000e+00 0.000000e+00
    outer loop
      vertex -3.000000e+00 -5.000000e-01 7.000000e+00
      vertex -4.250000e+00 -5.000000e-01 0.000000e+00
      vertex -3.000000e+00 -5.000000e-01 0.000000e+00
    endloop
  endfacet
  facet normal 1.000000e+00 0.000000e+00 0.000000e+00
    outer loop
      vertex -2.000000e+00 1.750000e+00 7.000000e+00
      vertex -2.000000e+00 5.000000e-01 0.000000e+00
      vertex -2.000000e+00 1.750000e+00 0.000000e+00
    endloop
  endfacet
  facet normal -1.000000e+00 0.000000e+00 0.000000e+00
    outer loop
      vertex -3.000000e+00 1.750000e+00 0.000000e+00
      vertex -3.000000e+00 5.000000e-01 7.000000e+00
      vertex -3.000000e+00 1.750000e+00 7.000000e+00
    endloop
  endfacet
  facet normal 0.000000e+00 1.000000e+00 -0.000000e+00
    outer loop
      vertex -3.000000e+00 1.750000e+00 7.000000e+00
      vertex -2.000000e+00 1.750000e+00 0.000000e+00
      vertex -3.000000e+00 1.750000e+00 0.000000e+00
    endloop
  endfacet
  facet normal -1.000000e+00 0.000000e+00 0.000000e+00
    outer loop
      vertex -3.000000e+00 -1.750000e+00 7.000000e+00
      vertex -3.000000e+00 -5.000000e-01 0.000000e+00
      vertex -3.000000e+00 -1.750000e+00 0.000000e+00
    endloop
  endfacet
  facet normal 1.000000e+00 0.000000e+00 0.000000e+00
    outer loop
      vertex -2.000000e+00 -1.750000e+00 0.000000e+00
      vertex -2.000000e+00 -5.000000e-01 7.000000e+00
      vertex -2.000000e+00 -1.750000e+00 7.000000e+00
    endloop
  endfacet
  facet normal 0.000000e+00 -1.000000e+00 -0.000000e+00
    outer loop
      vertex -3.000000e+00 -1.750000e+00 0.000000e+00
      vertex -2.000000e+00 -1.750000e+00 7.000000e+00
      vertex -3.000000e+00 -1.750000e+00 7.000000e+00
    endloop
  endfacet
  facet normal 1.000000e+00 0.000000e+00 0.000000e+00
    outer loop
      vertex 4.250000e+00 5.000000e-01 7.000000e+00
      vertex 4.250000e+00 -5.000000e-01 0.000000e+00
      vertex 4.250000e+00 5.000000e-01 0.000000e+00
    endloop
  endfacet
  facet normal -1.000000e+00 0.000000e+00 0.000000e+00
    outer loop
      vertex -4.250000e+00 -5.000000e-01 7.000000e+00
      vertex -4.250000e+00 5.000000e-01 0.000000e+00
      vertex -4.250000e+00 -5.000000e-01 0.000000e+00
    endloop
  endfacet
  facet normal 0.000000e+00 -1.000000e+00 -0.000000e+00
    outer loop
      vertex 3.000000e+00 -5.000000e-01 0.000000e+00
      vertex 4.250000e+00 -5.000000e-01 7.000000e+00
      vertex 3.000000e+00 -5.000000e-01 7.000000e+00
    endloop
  endfacet
  facet normal 0.000000e+00 1.000000e+00 -0.000000e+00
    outer loop
      vertex 3.000000e+00 5.000000e-01 7.000000e+00
      vertex 4.250000e+00 5.000000e-01 0.000000e+00
      vertex 3.000000e+00 5.000000e-01 0.000000e+00
    endloop
  endfacet
  facet normal 1.000000e+00 0.000000e+00 0.000000e+00
    outer loop
      vertex 3.000000e+00 5.000000e-01 0.000000e+00
      vertex 3.000000e+00 1.750000e+00 7.000000e+00
      vertex 3.000000e+00 5.000000e-01 7.000000e+00
    endloop
  endfacet
  facet normal -1.000000e+00 0.000000e+00 0.000000e+00
    outer loop
      vertex 2.000000e+00 1.750000e+00 0.000000e+00
      vertex 2.000000e+00 5.000000e-01 7.000000e+00
      vertex 2.000000e+00 1.750000e+00 7.000000e+00
    endloop
  endfacet
  facet normal 0.000000e+00 1.000000e+00 0.000000e+00
    outer loop
      vertex 3.000000e+00 1.750000e+00 0.000000e+00
      vertex 2.000000e+00 1.750000e+00 7.000000e+00
      vertex 3.000000e+00 1.750000e+00 7.000000e+00
    endloop
  endfacet
  facet normal -1.000000e+00 0.000000e+00 0.000000e+00
    outer loop
      vertex 2.000000e+00 -1.750000e+00 7.000000e+00
      vertex 2.000000e+00 -5.000000e-01 0.000000e+00
      vertex 2.000000e+00 -1.750000e+00 0.000000e+00
    endloop
  endfacet
  facet normal 1.000000e+00 0.000000e+00 0.000000e+00
    outer loop
      vertex 3.000000e+00 -5.000000e-01 7.000000e+00
      vertex 3.000000e+00 -1.750000e+00 0.000000e+00
      vertex 3.000000e+00 -5.000000e-01 0.000000e+00
    endloop
  endfacet
  facet normal 0.000000e+00 -1.000000e+00 0.000000e+00
    outer loop
      vertex 3.000000e+00 -1.750000e+00 7.000000e+00
      vertex 2.000000e+00 -1.750000e+00 0.000000e+00
      vertex 3.000000e+00 -1.750000e+00 0.000000e+00
    endloop
  endfacet
  facet normal 0.000000e+00 0.000000e+00 -1.000000e+00
    outer loop
      vertex -3.000000e+00 -5.000000e-01 0.000000e+00
      vertex -2.000000e+00 -1.750000e+00 0.000000e+00
      vertex -3.000000e+00 -1.750000e+00 0.000000e+00
    endloop
  endfacet
  facet normal 0.000000e+00 0.000000e+00 -1.000000e+00
    outer loop
      vertex -3.000000e+00 -5.000000e-01 0.000000e+00
      vertex -2.000000e+00 -5.000000e-01 0.000000e+00
      vertex -2.000000e+00 -1.750000e+00 0.000000e+00
    endloop
  endfacet
  facet normal 0.000000e+00 0.000000e+00 -1.000000e+00
    outer loop
      vertex -4.250000e+00 5.000000e-01 0.000000e+00
      vertex -3.000000e+00 -5.000000e-01 0.000000e+00
      vertex -4.250000e+00 -5.000000e-01 0.000000e+00
    endloop
  endfacet
  facet normal 0.000000e+00 0.000000e+00 -1.000000e+00
    outer loop
      vertex -3.000000e+00 5.000000e-01 0.000000e+00
      vertex -3.000000e+00 -5.000000e-01 0.000000e+00
      vertex -4.250000e+00 5.000000e-01 0.000000e+00
    endloop
  endfacet
  facet normal 0.000000e+00 0.000000e+00 -1.000000e+00
    outer loop
      vertex -3.000000e+00 5.000000e-01 0.000000e+00
      vertex -2.000000e+00 -5.000000e-01 0.000000e+00
      vertex -3.000000e+00 -5.000000e-01 0.000000e+00
    endloop
  endfacet
  facet normal 0.000000e+00 0.000000e+00 -1.000000e+00
    outer loop
      vertex -2.000000e+00 1.750000e+00 0.000000e+00
      vertex -3.000000e+00 5.000000e-01 0.000000e+00
      vertex -3.000000e+00 1.750000e+00 0.000000e+00
    endloop
  endfacet
  facet normal 0.000000e+00 0.000000e+00 -1.000000e+00
    outer loop
      vertex -2.000000e+00 5.000000e-01 0.000000e+00
      vertex -3.000000e+00 5.000000e-01 0.000000e+00
      vertex -2.000000e+00 1.750000e+00 0.000000e+00
    endloop
  endfacet
  facet normal 0.000000e+00 0.000000e+00 -1.000000e+00
    outer loop
      vertex -2.000000e+00 5.000000e-01 0.000000e+00
      vertex -2.000000e+00 -5.000000e-01 0.000000e+00
      vertex -3.000000e+00 5.000000e-01 0.000000e+00
    endloop
  endfacet
  facet normal 0.000000e+00 0.000000e+00 -1.000000e+00
    outer loop
      vertex 3.000000e+00 1.750000e+00 0.000000e+00
      vertex 2.000000e+00 5.000000e-01 0.000000e+00
      vertex 2.000000e+00 1.750000e+00 0.000000e+00
    endloop
  endfacet
  facet normal 0.000000e+00 0.000000e+00 -1.000000e+00
    outer loop
      vertex 3.000000e+00 5.000000e-01 0.000000e+00
      vertex 2.000000e+00 5.000000e-01 0.000000e+00
      vertex 3.000000e+00 1.750000e+00 0.000000e+00
    endloop
  endfacet
  facet normal 0.000000e+00 0.000000e+00 -1.000000e+00
    outer loop
      vertex 4.250000e+00 -5.000000e-01 0.000000e+00
      vertex 3.000000e+00 5.000000e-01 0.000000e+00
      vertex 4.250000e+00 5.000000e-01 0.000000e+00
    endloop
  endfacet
  facet normal -0.000000e+00 -0.000000e+00 -1.000000e+00
    outer loop
      vertex 3.000000e+00 -5.000000e-01 0.000000e+00
      vertex 3.000000e+00 5.000000e-01 0.000000e+00
      vertex 4.250000e+00 -5.000000e-01 0.000000e+00
    endloop
  endfacet
  facet normal 0.000000e+00 0.000000e+00 -1.000000e+00
    outer loop
      vertex 3.000000e+00 -5.000000e-01 0.000000e+00
      vertex 2.000000e+00 5.000000e-01 0.000000e+00
      vertex 3.000000e+00 5.000000e-01 0.000000e+00
    endloop
  endfacet
  facet normal -0.000000e+00 0.000000e+00 -1.000000e+00
    outer loop
      vertex 2.000000e+00 -1.750000e+00 0.000000e+00
      vertex 3.000000e+00 -5.000000e-01 0.000000e+00
      vertex 3.000000e+00 -1.750000e+00 0.000000e+00
    endloop
  endfacet
  facet normal 0.000000e+00 0.000000e+00 -1.000000e+00
    outer loop
      vertex 2.000000e+00 -5.000000e-01 0.000000e+00
      vertex 3.000000e+00 -5.000000e-01 0.000000e+00
      vertex 2.000000e+00 -1.750000e+00 0.000000e+00
    endloop
  endfacet
  facet normal -0.000000e+00 -0.000000e+00 -1.000000e+00
    outer loop
      vertex 2.000000e+00 -5.000000e-01 0.000000e+00
      vertex 2.000000e+00 5.000000e-01 0.000000e+00
      vertex 3.000000e+00 -5.000000e-01 0.000000e+00
    endloop
  endfacet
  facet normal -0.000000e+00 0.000000e+00 -1.000000e+00
    outer loop
      vertex -2.000000e+00 -5.000000e-01 0.000000e+00
      vertex 2.000000e+00 5.000000e-01 0.000000e+00
      vertex 2.000000e+00 -5.000000e-01 0.000000e+00
    endloop
  endfacet
  facet normal -0.000000e+00 0.000000e+00 1.000000e+00
    outer loop
      vertex -2.000000e+00 -1.750000e+00 7.000000e+00
      vertex -3.000000e+00 -5.000000e-01 7.000000e+00
      vertex -3.000000e+00 -1.750000e+00 7.000000e+00
    endloop
  endfacet
  facet normal 0.000000e+00 0.000000e+00 1.000000e+00
    outer loop
      vertex -2.000000e+00 -5.000000e-01 7.000000e+00
      vertex -3.000000e+00 -5.000000e-01 7.000000e+00
      vertex -2.000000e+00 -1.750000e+00 7.000000e+00
    endloop
  endfacet
  facet normal -0.000000e+00 0.000000e+00 1.000000e+00
    outer loop
      vertex 3.000000e+00 -1.750000e+00 7.000000e+00
      vertex 2.000000e+00 -5.000000e-01 7.000000e+00
      vertex 2.000000e+00 -1.750000e+00 7.000000e+00
    endloop
  endfacet
  facet normal 0.000000e+00 0.000000e+00 1.000000e+00
    outer loop
      vertex 3.000000e+00 -5.000000e-01 7.000000e+00
      vertex 2.000000e+00 -5.000000e-01 7.000000e+00
      vertex 3.000000e+00 -1.750000e+00 7.000000e+00
    endloop
  endfacet
  facet normal 0.000000e+00 0.000000e+00 1.000000e+00
    outer loop
      vertex 4.250000e+00 5.000000e-01 7.000000e+00
      vertex 3.000000e+00 -5.000000e-01 7.000000e+00
      vertex 4.250000e+00 -5.000000e-01 7.000000e+00
    endloop
  endfacet
  facet normal 0.000000e+00 -0.000000e+00 1.000000e+00
    outer loop
      vertex 3.000000e+00 5.000000e-01 7.000000e+00
      vertex 3.000000e+00 -5.000000e-01 7.000000e+00
      vertex 4.250000e+00 5.000000e-01 7.000000e+00
    endloop
  endfacet
  facet normal 0.000000e+00 0.000000e+00 1.000000e+00
    outer loop
      vertex 3.000000e+00 5.000000e-01 7.000000e+00
      vertex 2.000000e+00 -5.000000e-01 7.000000e+00
      vertex 3.000000e+00 -5.000000e-01 7.000000e+00
    endloop
  endfacet
  facet normal 0.000000e+00 0.000000e+00 1.000000e+00
    outer loop
      vertex 2.000000e+00 1.750000e+00 7.000000e+00
      vertex 3.000000e+00 5.000000e-01 7.000000e+00
      vertex 3.000000e+00 1.750000e+00 7.000000e+00
    endloop
  endfacet
  facet normal 0.000000e+00 0.000000e+00 1.000000e+00
    outer loop
      vertex 2.000000e+00 5.000000e-01 7.000000e+00
      vertex 3.000000e+00 5.000000e-01 7.000000e+00
      vertex 2.000000e+00 1.750000e+00 7.000000e+00
    endloop
  endfacet
  facet normal 0.000000e+00 -0.000000e+00 1.000000e+00
    outer loop
      vertex 2.000000e+00 5.000000e-01 7.000000e+00
      vertex 2.000000e+00 -5.000000e-01 7.000000e+00
      vertex 3.000000e+00 5.000000e-01 7.000000e+00
    endloop
  endfacet
  facet normal 0.000000e+00 0.000000e+00 1.000000e+00
    outer loop
      vertex -3.000000e+00 1.750000e+00 7.000000e+00
      vertex -2.000000e+00 5.000000e-01 7.000000e+00
      vertex -2.000000e+00 1.750000e+00 7.000000e+00
    endloop
  endfacet
  facet normal 0.000000e+00 0.000000e+00 1.000000e+00
    outer loop
      vertex -3.000000e+00 5.000000e-01 7.000000e+00
      vertex -2.000000e+00 5.000000e-01 7.000000e+00
      vertex -3.000000e+00 1.750000e+00 7.000000e+00
    endloop
  endfacet
  facet normal 0.000000e+00 0.000000e+00 1.000000e+00
    outer loop
      vertex -4.250000e+00 -5.000000e-01 7.000000e+00
      vertex -3.000000e+00 5.000000e-01 7.000000e+00
      vertex -4.250000e+00 5.000000e-01 7.000000e+00
    endloop
  endfacet
  facet normal -0.000000e+00 0.000000e+00 1.000000e+00
    outer loop
      vertex -3.000000e+00 -5.000000e-01 7.000000e+00
      vertex -3.000000e+00 5.000000e-01 7.000000e+00
      vertex -4.250000e+00 -5.000000e-01 7.000000e+00
    endloop
  endfacet
  facet normal 0.000000e+00 0.000000e+00 1.000000e+00
    outer loop
      vertex -3.000000e+00 -5.000000e-01 7.000000e+00
      vertex -2.000000e+00 5.000000e-01 7.000000e+00
      vertex -3.000000e+00 5.000000e-01 7.000000e+00
    endloop
  endfacet
  facet normal -0.000000e+00 0.000000e+00 1.000000e+00
    outer loop
      vertex -2.000000e+00 -5.000000e-01 7.000000e+00
      vertex -2.000000e+00 5.000000e-01 7.000000e+00
      vertex -3.000000e+00 -5.000000e-01 7.000000e+00
    endloop
  endfacet
  facet normal -0.000000e+00 0.000000e+00 1.000000e+00
    outer loop
      vertex 2.000000e+00 -5.000000e-01 7.000000e+00
      vertex -2.000000e+00 5.000000e-01 7.000000e+00
      vertex -2.000000e+00 -5.000000e-01 7.000000e+00
    endloop
  endfacet
  facet normal 0.000000e+00 1.000000e+00 0.000000e+00
    outer loop
      vertex 2.000000e+00 5.000000e-01 0.000000e+00
      vertex -2.000000e+00 5.000000e-01 7.000000e+00
      vertex 2.000000e+00 5.000000e-01 7.000000e+00
    endloop
  endfacet
  facet normal 0.000000e+00 -1.000000e+00 0.000000e+00
    outer loop
      vertex 2.000000e+00 -5.000000e-01 0.000000e+00
      vertex -2.000000e+00 -5.000000e-01 7.000000e+00
      vertex -2.000000e+00 -5.000000e-01 0.000000e+00
    endloop
  endfacet
  facet normal 0.000000e+00 1.000000e+00 -0.000000e+00
    outer loop
      vertex -4.250000e+00 5.000000e-01 7.000000e+00
      vertex -3.000000e+00 5.000000e-01 0.000000e+00
      vertex -4.250000e+00 5.000000e-01 0.000000e+00
    endloop
  endfacet
  facet normal 0.000000e+00 -1.000000e+00 -0.000000e+00
    outer loop
      vertex -4.250000e+00 -5.000000e-01 0.000000e+00
      vertex -3.000000e+00 -5.000000e-01 7.000000e+00
      vertex -4.250000e+00 -5.000000e-01 7.000000e+00
    endloop
  endfacet
  facet normal 1.000000e+00 0.000000e+00 0.000000e+00
    outer loop
      vertex -2.000000e+00 5.000000e-01 0.000000e+00
      vertex -2.000000e+00 1.750000e+00 7.000000e+00
      vertex -2.000000e+00 5.000000e-01 7.000000e+00
    endloop
  endfacet
  facet normal -1.000000e+00 0.000000e+00 0.000000e+00
    outer loop
      vertex -3.000000e+00 5.000000e-01 7.000000e+00
      vertex -3.000000e+00 1.750000e+00 0.000000e+00
      vertex -3.000000e+00 5.000000e-01 0.000000e+00
    endloop
  endfacet
  facet normal 0.000000e+00 1.000000e+00 0.000000e+00
    outer loop
      vertex -2.000000e+00 1.750000e+00 0.000000e+00
      vertex -3.000000e+00 1.750000e+00 7.000000e+00
      vertex -2.000000e+00 1.750000e+00 7.000000e+00
    endloop
  endfacet
  facet normal -1.000000e+00 0.000000e+00 0.000000e+00
    outer loop
      vertex -3.000000e+00 -5.000000e-01 0.000000e+00
      vertex -3.000000e+00 -1.750000e+00 7.000000e+00
      vertex -3.000000e+00 -5.000000e-01 7.000000e+00
    endloop
  endfacet
  facet normal 1.000000e+00 0.000000e+00 0.000000e+00
    outer loop
      vertex -2.000000e+00 -5.000000e-01 7.000000e+00
      vertex -2.000000e+00 -1.750000e+00 0.000000e+00
      vertex -2.000000e+00 -5.000000e-01 0.000000e+00
    endloop
  endfacet
  facet normal 0.000000e+00 -1.000000e+00 0.000000e+00
    outer loop
      vertex -2.000000e+00 -1.750000e+00 7.000000e+00
      vertex -3.000000e+00 -1.750000e+00 0.000000e+00
      vertex -2.000000e+00 -1.750000e+00 0.000000e+00
    endloop
  endfacet
endsolid wreck
