<?xml version="1.0" encoding="UTF-8" standalone="no"?>
<!-- Created with Bouml (http://bouml.free.fr/) -->
<!DOCTYPE svg PUBLIC "-//W3C//DTD SVG 1.1//EN" "http://www.w3.org/Graphics/SVG/1.1/DTD/svg11.dtd">
<svg width="756" height="545" version="1.1" xmlns="http://www.w3.org/2000/svg">
<g>
	<rect fill="#808080" stroke="none" stroke-opacity="1" x="197" y="419" width="3" height="59" />
	<rect fill="#808080" stroke="none" stroke-opacity="1" x="157" y="475" width="43" height="3" />
	<rect fill="#ffffc0" stroke="black" stroke-width="1" stroke-opacity="1" x="153" y="415" width="44" height="60" />
	<text font-family="Helvetica" font-size="10" fill="#000000" xml:space="preserve" font-weight="bold" text-anchor="middle" x="175" y="428">Link</text>
	<line stroke="black" stroke-opacity="1" x1="153" y1="433" x2="197" y2="433" />
	<text font-family="Helvetica" font-size="10" fill="#000000" xml:space="preserve" x="157" y="446">tlien</text>
	<text font-family="Helvetica" font-size="10" fill="#000000" xml:space="preserve" x="157" y="462">numero</text>
</g>
<g>
	<rect fill="#808080" stroke="none" stroke-opacity="1" x="271" y="50" width="3" height="33" />
	<rect fill="#808080" stroke="none" stroke-opacity="1" x="235" y="80" width="39" height="3" />
	<rect fill="#ffffc0" stroke="black" stroke-width="1" stroke-opacity="1" x="231" y="46" width="40" height="34" />
	<text font-family="Helvetica" font-size="10" fill="#000000" xml:space="preserve" font-weight="bold" text-anchor="middle" x="251" y="59">Book</text>
	<line stroke="black" stroke-opacity="1" x1="231" y1="64" x2="271" y2="64" />
</g>
<g>
	<rect fill="#808080" stroke="none" stroke-opacity="1" x="106" y="27" width="3" height="33" />
	<rect fill="#808080" stroke="none" stroke-opacity="1" x="46" y="57" width="63" height="3" />
	<rect fill="#ffffc0" stroke="black" stroke-width="1" stroke-opacity="1" x="42" y="23" width="64" height="34" />
	<text font-family="Helvetica" font-size="10" fill="#000000" xml:space="preserve" font-weight="bold" text-anchor="middle" x="74" y="36">Document</text>
	<line stroke="black" stroke-opacity="1" x1="42" y1="41" x2="106" y2="41" />
</g>
<g>
	<line stroke="black" stroke-opacity="1" x1="230" y1="61" x2="224" y2="54" />
	<line stroke="black" stroke-opacity="1" x1="230" y1="61" x2="223" y2="66" />
	<line stroke="black" stroke-opacity="1" x1="110" y1="45" x2="230" y2="61" />
</g>
<g>
	<text font-family="Helvetica" font-size="10" fill="#000000" xml:space="preserve" x="234" y="176">illustration</text>
</g>
<g>
	<text font-family="Helvetica" font-size="10" fill="#000000" xml:space="preserve" x="542" y="366">texte</text>
</g>
<g>
	<text font-family="Helvetica" font-size="10" fill="#000000" xml:space="preserve" x="46" y="114">metaData</text>
</g>
<g>
	<text font-family="Helvetica" font-size="10" fill="#000000" xml:space="preserve" x="464" y="128">sChapitre</text>
</g>
<g>
	<text font-family="Helvetica" font-size="10" fill="#000000" xml:space="preserve" x="227" y="117">illustration</text>
</g>
<g>
	<text font-family="Helvetica" font-size="10" fill="#000000" xml:space="preserve" x="483" y="236">alinea</text>
</g>
<g>
	<text font-family="Helvetica" font-size="10" fill="#000000" xml:space="preserve" x="327" y="293">tableau</text>
</g>
<g>
	<text font-family="Helvetica" font-size="10" fill="#000000" xml:space="preserve" x="632" y="327">liste</text>
</g>
<g>
	<text font-family="Helvetica" font-size="10" fill="#000000" xml:space="preserve" x="331" y="58">chapitre</text>
</g>
<g>
	<text font-family="Helvetica" font-size="10" fill="#000000" xml:space="preserve" x="590" y="374">texte</text>
</g>
<g>
	<text font-family="Helvetica" font-size="10" fill="#000000" xml:space="preserve" x="197" y="55">book</text>
</g>
<g>
	<text font-family="Helvetica" font-size="10" fill="#000000" xml:space="preserve" x="177" y="300">txt</text>
</g>
<g>
	<text font-family="Helvetica" font-size="10" fill="#000000" xml:space="preserve" x="514" y="253">alinea</text>
</g>
<g>
	<text font-family="Helvetica" font-size="10" fill="#000000" xml:space="preserve" x="646" y="147">para</text>
</g>
<g>
	<text font-family="Helvetica" font-size="10" fill="#000000" xml:space="preserve" x="395" y="388">textParts</text>
</g>
<g>
	<text font-family="Helvetica" font-size="10" fill="#000000" xml:space="preserve" x="712" y="257">sPara</text>
</g>
<g>
	<text font-family="Helvetica" font-size="10" fill="#000000" xml:space="preserve" x="514" y="277">alinea</text>
</g>
<g>
	<text font-family="Helvetica" font-size="10" fill="#000000" xml:space="preserve" x="195" y="317">txt</text>
</g>
<g>
	<rect fill="#808080" stroke="none" stroke-opacity="1" x="433" y="51" width="3" height="33" />
	<rect fill="#808080" stroke="none" stroke-opacity="1" x="385" y="81" width="51" height="3" />
	<rect fill="#ffffc0" stroke="black" stroke-width="1" stroke-opacity="1" x="381" y="47" width="52" height="34" />
	<text font-family="Helvetica" font-size="10" fill="#000000" xml:space="preserve" font-weight="bold" text-anchor="middle" x="407" y="60">Chapter</text>
	<line stroke="black" stroke-opacity="1" x1="381" y1="65" x2="433" y2="65" />
</g>
<g>
	<rect fill="#808080" stroke="none" stroke-opacity="1" x="82" y="126" width="3" height="33" />
	<rect fill="#808080" stroke="none" stroke-opacity="1" x="28" y="156" width="57" height="3" />
	<rect fill="#ffffc0" stroke="black" stroke-width="1" stroke-opacity="1" x="24" y="122" width="58" height="34" />
	<text font-family="Helvetica" font-size="10" fill="#000000" xml:space="preserve" font-weight="bold" text-anchor="middle" x="53" y="135">Metadata</text>
	<line stroke="black" stroke-opacity="1" x1="24" y1="140" x2="82" y2="140" />
</g>
<g>
	<line stroke="black" stroke-opacity="1" x1="380" y1="65" x2="374" y2="59" />
	<line stroke="black" stroke-opacity="1" x1="380" y1="65" x2="374" y2="71" />
	<line stroke="black" stroke-opacity="1" x1="275" y1="65" x2="380" y2="65" />
</g>
<g>
	<text font-family="Helvetica" font-size="10" fill="#000000" xml:space="preserve" x="307" y="75">&lt;&lt;List&gt;&gt;</text>
</g>
<g>
	<line stroke="black" stroke-opacity="1" x1="32" y1="121" x2="40" y2="119" />
	<line stroke="black" stroke-opacity="1" x1="32" y1="121" x2="30" y2="112" />
	<line stroke="black" stroke-opacity="1" x1="70" y1="61" x2="32" y2="121" />
</g>
<g>
	<rect fill="#808080" stroke="none" stroke-opacity="1" x="507" y="140" width="3" height="33" />
	<rect fill="#808080" stroke="none" stroke-opacity="1" x="439" y="170" width="71" height="3" />
	<rect fill="#ffffc0" stroke="black" stroke-width="1" stroke-opacity="1" x="435" y="136" width="72" height="34" />
	<text font-family="Helvetica" font-size="10" fill="#000000" xml:space="preserve" font-weight="bold" text-anchor="middle" x="471" y="149">SubChapter</text>
	<line stroke="black" stroke-opacity="1" x1="435" y1="154" x2="507" y2="154" />
</g>
<g>
	<text font-family="Helvetica" font-size="10" fill="#000000" xml:space="preserve" x="420" y="121">&lt;&lt;List&gt;&gt;</text>
</g>
<g>
	<line stroke="black" stroke-opacity="1" x1="459" y1="135" x2="460" y2="126" />
	<line stroke="black" stroke-opacity="1" x1="459" y1="135" x2="450" y2="133" />
	<line stroke="black" stroke-opacity="1" x1="423" y1="85" x2="459" y2="135" />
</g>
<g>
	<rect fill="#808080" stroke="none" stroke-opacity="1" x="500" y="248" width="3" height="75" />
	<rect fill="#808080" stroke="none" stroke-opacity="1" x="448" y="320" width="55" height="3" />
	<rect fill="#ffffc0" stroke="black" stroke-width="1" stroke-opacity="1" x="444" y="244" width="56" height="76" />
	<text font-family="Helvetica" font-size="10" fill="#000000" xml:space="preserve" font-weight="bold" text-anchor="middle" x="472" y="257">Alinea</text>
	<line stroke="black" stroke-opacity="1" x1="444" y1="262" x2="500" y2="262" />
	<text font-family="Helvetica" font-size="10" fill="#000000" xml:space="preserve" x="448" y="275">nmrAlinea</text>
	<text font-family="Helvetica" font-size="10" fill="#000000" xml:space="preserve" x="448" y="291">tDate</text>
	<text font-family="Helvetica" font-size="10" fill="#000000" xml:space="preserve" x="448" y="307">tMaj</text>
</g>
<g>
	<text font-family="Helvetica" font-size="10" fill="#000000" xml:space="preserve" x="453" y="219">&lt;&lt;List&gt;&gt;</text>
</g>
<g>
	<line stroke="black" stroke-opacity="1" x1="473" y1="243" x2="479" y2="237" />
	<line stroke="black" stroke-opacity="1" x1="473" y1="243" x2="467" y2="237" />
	<line stroke="black" stroke-opacity="1" x1="473" y1="174" x2="473" y2="243" />
</g>
<g>
	<rect fill="#808080" stroke="none" stroke-opacity="1" x="719" y="139" width="3" height="33" />
	<rect fill="#808080" stroke="none" stroke-opacity="1" x="683" y="169" width="39" height="3" />
	<rect fill="#ffffc0" stroke="black" stroke-width="1" stroke-opacity="1" x="679" y="135" width="40" height="34" />
	<text font-family="Helvetica" font-size="10" fill="#000000" xml:space="preserve" font-weight="bold" text-anchor="middle" x="699" y="148">Para</text>
	<line stroke="black" stroke-opacity="1" x1="679" y1="153" x2="719" y2="153" />
</g>
<g>
	<rect fill="#808080" stroke="none" stroke-opacity="1" x="313" y="285" width="3" height="43" />
	<rect fill="#808080" stroke="none" stroke-opacity="1" x="269" y="325" width="47" height="3" />
	<rect fill="#ffffc0" stroke="black" stroke-width="1" stroke-opacity="1" x="265" y="281" width="48" height="44" />
	<text font-family="Helvetica" font-size="10" fill="#000000" xml:space="preserve" font-weight="bold" text-anchor="middle" x="289" y="294">Tabular</text>
	<line stroke="black" stroke-opacity="1" x1="265" y1="299" x2="313" y2="299" />
	<text font-family="Helvetica" font-size="10" fill="#000000" xml:space="preserve" x="269" y="312">numero</text>
</g>
<g>
	<rect fill="#808080" stroke="none" stroke-opacity="1" x="220" y="129" width="3" height="75" />
	<rect fill="#808080" stroke="none" stroke-opacity="1" x="158" y="201" width="65" height="3" />
	<rect fill="#ffffc0" stroke="black" stroke-width="1" stroke-opacity="1" x="154" y="125" width="66" height="76" />
	<text font-family="Helvetica" font-size="10" fill="#000000" xml:space="preserve" font-weight="bold" text-anchor="middle" x="187" y="138">Illustration</text>
	<line stroke="black" stroke-opacity="1" x1="154" y1="143" x2="220" y2="143" />
	<text font-family="Helvetica" font-size="10" fill="#000000" xml:space="preserve" x="158" y="156">tIllustration</text>
	<text font-family="Helvetica" font-size="10" fill="#000000" xml:space="preserve" x="158" y="172">orientation</text>
	<text font-family="Helvetica" font-size="10" fill="#000000" xml:space="preserve" x="158" y="188">numero</text>
</g>
<g>
	<rect fill="#808080" stroke="none" stroke-opacity="1" x="576" y="378" width="3" height="43" />
	<rect fill="#808080" stroke="none" stroke-opacity="1" x="532" y="418" width="47" height="3" />
	<rect fill="#ffffc0" stroke="black" stroke-width="1" stroke-opacity="1" x="528" y="374" width="48" height="44" />
	<text font-family="Helvetica" font-size="10" fill="#000000" xml:space="preserve" font-weight="bold" text-anchor="middle" x="552" y="387">Text</text>
	<line stroke="black" stroke-opacity="1" x1="528" y1="392" x2="576" y2="392" />
	<text font-family="Helvetica" font-size="10" fill="#000000" xml:space="preserve" x="532" y="405">contains</text>
</g>
<g>
	<text font-family="Helvetica" font-size="10" fill="#000000" xml:space="preserve" x="205" y="115">&lt;&lt;List&gt;&gt;</text>
</g>
<g>
	<line stroke="black" stroke-opacity="1" x1="213" y1="124" x2="221" y2="122" />
	<line stroke="black" stroke-opacity="1" x1="213" y1="124" x2="211" y2="115" />
	<line stroke="black" stroke-opacity="1" x1="239" y1="84" x2="213" y2="124" />
</g>
<g>
	<line stroke="black" stroke-opacity="1" x1="224" y1="179" x2="227" y2="186" />
	<line stroke="black" stroke-opacity="1" x1="224" y1="179" x2="231" y2="175" />
	<line stroke="black" stroke-opacity="1" x1="443" y1="270" x2="224" y2="179" />
</g>
<g>
	<line stroke="black" stroke-opacity="1" x1="504" y1="265" x2="512" y2="267" />
	<line stroke="black" stroke-opacity="1" x1="504" y1="265" x2="506" y2="256" />
	<line stroke="black" stroke-opacity="1" x1="678" y1="166" x2="504" y2="265" />
</g>
<g>
	<line stroke="black" stroke-opacity="1" x1="678" y1="154" x2="672" y2="148" />
	<line stroke="black" stroke-opacity="1" x1="678" y1="154" x2="672" y2="160" />
	<line stroke="black" stroke-opacity="1" x1="511" y1="154" x2="678" y2="154" />
</g>
<g>
	<text font-family="Helvetica" font-size="10" fill="#000000" xml:space="preserve" x="574" y="164">&lt;&lt;List&gt;&gt;</text>
</g>
<g>
	<text font-family="Helvetica" font-size="10" fill="#000000" xml:space="preserve" x="570" y="226">&lt;&lt;List&gt;&gt;</text>
</g>
<g>
	<line stroke="black" stroke-opacity="1" x1="536" y1="373" x2="537" y2="364" />
	<line stroke="black" stroke-opacity="1" x1="536" y1="373" x2="527" y2="371" />
	<line stroke="black" stroke-opacity="1" x1="502" y1="324" x2="536" y2="373" />
</g>
<g>
	<line stroke="black" stroke-opacity="1" x1="317" y1="301" x2="323" y2="306" />
	<line stroke="black" stroke-opacity="1" x1="317" y1="301" x2="322" y2="294" />
	<line stroke="black" stroke-opacity="1" x1="443" y1="286" x2="317" y2="301" />
</g>
<g>
	<rect fill="#808080" stroke="none" stroke-opacity="1" x="181" y="312" width="3" height="43" />
	<rect fill="#808080" stroke="none" stroke-opacity="1" x="145" y="352" width="39" height="3" />
	<rect fill="#ffffc0" stroke="black" stroke-width="1" stroke-opacity="1" x="141" y="308" width="40" height="44" />
	<text font-family="Helvetica" font-size="10" fill="#000000" xml:space="preserve" font-weight="bold" text-anchor="middle" x="161" y="321">Txt</text>
	<line stroke="black" stroke-opacity="1" x1="141" y1="326" x2="181" y2="326" />
	<text font-family="Helvetica" font-size="10" fill="#000000" xml:space="preserve" x="145" y="339">value</text>
</g>
<g>
	<rect fill="#808080" stroke="none" stroke-opacity="1" x="740" y="269" width="3" height="33" />
	<rect fill="#808080" stroke="none" stroke-opacity="1" x="666" y="299" width="77" height="3" />
	<rect fill="#ffffc0" stroke="black" stroke-width="1" stroke-opacity="1" x="662" y="265" width="78" height="34" />
	<text font-family="Helvetica" font-size="10" fill="#000000" xml:space="preserve" font-weight="bold" text-anchor="middle" x="701" y="278">SubParagrah</text>
	<line stroke="black" stroke-opacity="1" x1="662" y1="283" x2="740" y2="283" />
</g>
<g>
	<rect fill="#808080" stroke="none" stroke-opacity="1" x="714" y="326" width="3" height="33" />
	<rect fill="#808080" stroke="none" stroke-opacity="1" x="666" y="356" width="51" height="3" />
	<rect fill="#ffffc0" stroke="black" stroke-width="1" stroke-opacity="1" x="662" y="322" width="52" height="34" />
	<text font-family="Helvetica" font-size="10" fill="#000000" xml:space="preserve" font-weight="bold" text-anchor="middle" x="688" y="335">TextList</text>
	<line stroke="black" stroke-opacity="1" x1="662" y1="340" x2="714" y2="340" />
</g>
<g>
	<text font-family="Helvetica" font-size="10" fill="#000000" xml:space="preserve" x="600" y="379">&lt;&lt;List&gt;&gt;</text>
</g>
<g>
	<line stroke="black" stroke-opacity="1" x1="185" y1="326" x2="192" y2="330" />
	<line stroke="black" stroke-opacity="1" x1="185" y1="326" x2="189" y2="318" />
	<line stroke="black" stroke-opacity="1" x1="264" y1="309" x2="185" y2="326" />
</g>
<g>
	<line stroke="black" stroke-opacity="1" x1="166" y1="307" x2="172" y2="302" />
	<line stroke="black" stroke-opacity="1" x1="166" y1="307" x2="161" y2="300" />
	<line stroke="black" stroke-opacity="1" x1="182" y1="205" x2="166" y2="307" />
</g>
<g>
	<line stroke="black" stroke-opacity="1" x1="504" y1="284" x2="510" y2="290" />
	<line stroke="black" stroke-opacity="1" x1="504" y1="284" x2="510" y2="278" />
	<line stroke="black" stroke-opacity="1" x1="661" y1="284" x2="504" y2="284" />
</g>
<g>
	<line stroke="black" stroke-opacity="1" x1="702" y1="264" x2="707" y2="257" />
	<line stroke="black" stroke-opacity="1" x1="702" y1="264" x2="695" y2="258" />
	<line stroke="black" stroke-opacity="1" x1="701" y1="173" x2="702" y2="264" />
</g>
<g>
	<text font-family="Helvetica" font-size="10" fill="#000000" xml:space="preserve" x="681" y="229">&lt;&lt;List&gt;&gt;</text>
</g>
<g>
	<text font-family="Helvetica" font-size="10" fill="#000000" xml:space="preserve" x="562" y="294">&lt;&lt;List&gt;&gt;</text>
</g>
<g>
	<line stroke="black" stroke-opacity="1" x1="580" y1="385" x2="587" y2="388" />
	<line stroke="black" stroke-opacity="1" x1="580" y1="385" x2="583" y2="377" />
	<line stroke="black" stroke-opacity="1" x1="661" y1="352" x2="580" y2="385" />
</g>
<g>
	<line stroke="black" stroke-opacity="1" x1="661" y1="332" x2="656" y2="324" />
	<line stroke="black" stroke-opacity="1" x1="661" y1="332" x2="653" y2="336" />
	<line stroke="black" stroke-opacity="1" x1="504" y1="291" x2="661" y2="332" />
</g>
<g>
	<ellipse fill="#ffffc0" stroke="black" stroke-width="1" stroke-opacity="1" cx="358" cy="378" rx="10" ry="10" />
	<text font-family="Helvetica" font-size="10" fill="#000000" xml:space="preserve" font-weight="bold" text-anchor="middle" x="358" y="401">TextPart</text>
	<line stroke="black" stroke-opacity="1" x1="331" y1="406" x2="385" y2="406" />
</g>
<g>
	<line stroke-dasharray="4,4" stroke="black" stroke-opacity="1" x1="185" y1="338" x2="324" y2="383" />
	<line stroke="black" stroke-opacity="1" x1="330" y1="385" x2="326" y2="377" />
	<line stroke="black" stroke-opacity="1" x1="330" y1="385" x2="322" y2="388" />
	<line stroke="black" stroke-opacity="1" x1="326" y1="377" x2="322" y2="388" />
</g>
<g>
	<line stroke="black" stroke-opacity="1" x1="385" y1="395" x2="390" y2="401" />
	<line stroke="black" stroke-opacity="1" x1="385" y1="395" x2="391" y2="389" />
	<line stroke="black" stroke-opacity="1" x1="527" y1="397" x2="385" y2="395" />
</g>
<g>
	<line stroke-dasharray="4,4" stroke="black" stroke-opacity="1" x1="201" y1="438" x2="324" y2="402" />
	<line stroke="black" stroke-opacity="1" x1="330" y1="401" x2="322" y2="396" />
	<line stroke="black" stroke-opacity="1" x1="330" y1="401" x2="325" y2="408" />
	<line stroke="black" stroke-opacity="1" x1="322" y1="396" x2="325" y2="408" />
</g>
<g>
	<text font-family="Helvetica" font-size="10" fill="#000000" xml:space="preserve" x="436" y="406">&lt;&lt;List&gt;&gt;</text>
</g>
<g>
	<rect fill="#808080" stroke="none" stroke-opacity="1" x="545" y="443" width="3" height="59" />
	<rect fill="#808080" stroke="none" stroke-opacity="1" x="495" y="499" width="53" height="3" />
	<rect fill="#ffffc0" stroke="black" stroke-width="1" stroke-opacity="1" x="491" y="439" width="54" height="60" />
	<text font-family="Helvetica" font-size="10" fill="#000000" xml:space="preserve" font-weight="bold" text-anchor="middle" x="518" y="452">Principal</text>
	<line stroke="black" stroke-opacity="1" x1="491" y1="457" x2="545" y2="457" />
	<text font-family="Helvetica" font-size="10" fill="#000000" xml:space="preserve" x="495" y="470">id</text>
	<text font-family="Helvetica" font-size="10" fill="#000000" xml:space="preserve" x="495" y="486">value</text>
</g>
<g>
	<rect fill="#808080" stroke="none" stroke-opacity="1" x="453" y="473" width="3" height="59" />
	<rect fill="#808080" stroke="none" stroke-opacity="1" x="391" y="529" width="65" height="3" />
	<rect fill="#ffffc0" stroke="black" stroke-width="1" stroke-opacity="1" x="387" y="469" width="66" height="60" />
	<text font-family="Helvetica" font-size="10" fill="#000000" xml:space="preserve" font-weight="bold" text-anchor="middle" x="420" y="482">Secondary</text>
	<line stroke="black" stroke-opacity="1" x1="387" y1="487" x2="453" y2="487" />
	<text font-family="Helvetica" font-size="10" fill="#000000" xml:space="preserve" x="391" y="500">idref</text>
	<text font-family="Helvetica" font-size="10" fill="#000000" xml:space="preserve" x="391" y="516">value</text>
</g>
<g>
	<rect fill="#808080" stroke="none" stroke-opacity="1" x="304" y="467" width="3" height="59" />
	<rect fill="#808080" stroke="none" stroke-opacity="1" x="244" y="523" width="63" height="3" />
	<rect fill="#ffffc0" stroke="black" stroke-width="1" stroke-opacity="1" x="240" y="463" width="64" height="60" />
	<text font-family="Helvetica" font-size="10" fill="#000000" xml:space="preserve" font-weight="bold" text-anchor="middle" x="272" y="476">Reference</text>
	<line stroke="black" stroke-opacity="1" x1="240" y1="481" x2="304" y2="481" />
	<text font-family="Helvetica" font-size="10" fill="#000000" xml:space="preserve" x="244" y="494">tReference</text>
	<text font-family="Helvetica" font-size="10" fill="#000000" xml:space="preserve" x="244" y="510">value</text>
</g>
<g>
	<line stroke-dasharray="4,4" stroke="black" stroke-opacity="1" x1="403" y1="468" x2="377" y2="427" />
	<line stroke="black" stroke-opacity="1" x1="374" y1="422" x2="372" y2="430" />
	<line stroke="black" stroke-opacity="1" x1="374" y1="422" x2="382" y2="423" />
	<line stroke="black" stroke-opacity="1" x1="372" y1="430" x2="382" y2="423" />
</g>
<g>
	<line stroke-dasharray="4,4" stroke="black" stroke-opacity="1" x1="490" y1="456" x2="390" y2="409" />
	<line stroke="black" stroke-opacity="1" x1="385" y1="407" x2="387" y2="414" />
	<line stroke="black" stroke-opacity="1" x1="385" y1="407" x2="392" y2="404" />
	<line stroke="black" stroke-opacity="1" x1="387" y1="414" x2="392" y2="404" />
</g>
<g>
	<line stroke-dasharray="4,4" stroke="black" stroke-opacity="1" x1="300" y1="462" x2="328" y2="426" />
	<line stroke="black" stroke-opacity="1" x1="332" y1="422" x2="323" y2="422" />
	<line stroke="black" stroke-opacity="1" x1="332" y1="422" x2="332" y2="430" />
	<line stroke="black" stroke-opacity="1" x1="323" y1="422" x2="332" y2="430" />
</g>
</svg>
