<?xml version="1.0" encoding="UTF-8" standalone="no"?>
<!-- Created with Bouml (http://bouml.free.fr/) -->
<!DOCTYPE svg PUBLIC "-//W3C//DTD SVG 1.1//EN" "http://www.w3.org/Graphics/SVG/1.1/DTD/svg11.dtd">
<svg width="835" height="521" version="1.1" xmlns="http://www.w3.org/2000/svg">
<g>
	<rect fill="#808080" stroke="none" stroke-opacity="1" x="130" y="255" width="3" height="123" />
	<rect fill="#808080" stroke="none" stroke-opacity="1" x="78" y="375" width="55" height="3" />
	<rect fill="#ffffc0" stroke="black" stroke-width="1" stroke-opacity="1" x="74" y="251" width="56" height="124" />
	<text font-family="Helvetica" font-size="10" fill="#000000" xml:space="preserve" font-weight="bold" text-anchor="middle" x="102" y="264">Address</text>
	<line stroke="black" stroke-opacity="1" x1="74" y1="269" x2="130" y2="269" />
	<text font-family="Helvetica" font-size="10" fill="#000000" xml:space="preserve" x="78" y="282">number</text>
	<text font-family="Helvetica" font-size="10" fill="#000000" xml:space="preserve" x="78" y="298">street</text>
	<text font-family="Helvetica" font-size="10" fill="#000000" xml:space="preserve" x="78" y="314">cedex0</text>
	<text font-family="Helvetica" font-size="10" fill="#000000" xml:space="preserve" x="78" y="330">town</text>
	<text font-family="Helvetica" font-size="10" fill="#000000" xml:space="preserve" x="78" y="346">cedex</text>
	<text font-family="Helvetica" font-size="10" fill="#000000" xml:space="preserve" x="78" y="362">country</text>
</g>
<g>
	<rect fill="#808080" stroke="none" stroke-opacity="1" x="732" y="294" width="3" height="59" />
	<rect fill="#808080" stroke="none" stroke-opacity="1" x="692" y="350" width="43" height="3" />
	<rect fill="#ffffc0" stroke="black" stroke-width="1" stroke-opacity="1" x="688" y="290" width="44" height="60" />
	<text font-family="Helvetica" font-size="10" fill="#000000" xml:space="preserve" font-weight="bold" text-anchor="middle" x="710" y="303">Link</text>
	<line stroke="black" stroke-opacity="1" x1="688" y1="308" x2="732" y2="308" />
	<text font-family="Helvetica" font-size="10" fill="#000000" xml:space="preserve" x="692" y="321">tlien</text>
	<text font-family="Helvetica" font-size="10" fill="#000000" xml:space="preserve" x="692" y="337">numero</text>
</g>
<g>
	<rect fill="#808080" stroke="none" stroke-opacity="1" x="290" y="417" width="3" height="91" />
	<rect fill="#808080" stroke="none" stroke-opacity="1" x="246" y="505" width="47" height="3" />
	<rect fill="#ffffc0" stroke="black" stroke-width="1" stroke-opacity="1" x="242" y="413" width="48" height="92" />
	<text font-family="Helvetica" font-size="10" fill="#000000" xml:space="preserve" font-weight="bold" text-anchor="middle" x="266" y="426">MdTitle</text>
	<line stroke="black" stroke-opacity="1" x1="242" y1="431" x2="290" y2="431" />
	<text font-family="Helvetica" font-size="10" fill="#000000" xml:space="preserve" x="246" y="444">tTitle</text>
	<text font-family="Helvetica" font-size="10" fill="#000000" xml:space="preserve" x="246" y="460">sTitle</text>
	<text font-family="Helvetica" font-size="10" fill="#000000" xml:space="preserve" x="246" y="476">country</text>
	<text font-family="Helvetica" font-size="10" fill="#000000" xml:space="preserve" x="246" y="492">region</text>
</g>
<g>
	<rect fill="#808080" stroke="none" stroke-opacity="1" x="77" y="173" width="3" height="33" />
	<rect fill="#808080" stroke="none" stroke-opacity="1" x="41" y="203" width="39" height="3" />
	<rect fill="#ffffc0" stroke="black" stroke-width="1" stroke-opacity="1" x="37" y="169" width="40" height="34" />
	<text font-family="Helvetica" font-size="10" fill="#000000" xml:space="preserve" font-weight="bold" text-anchor="middle" x="57" y="182">Book</text>
	<line stroke="black" stroke-opacity="1" x1="37" y1="187" x2="77" y2="187" />
</g>
<g>
	<rect fill="#808080" stroke="none" stroke-opacity="1" x="106" y="27" width="3" height="33" />
	<rect fill="#808080" stroke="none" stroke-opacity="1" x="46" y="57" width="63" height="3" />
	<rect fill="#ffffc0" stroke="black" stroke-width="1" stroke-opacity="1" x="42" y="23" width="64" height="34" />
	<text font-family="Helvetica" font-size="10" fill="#000000" xml:space="preserve" font-weight="bold" text-anchor="middle" x="74" y="36">Document</text>
	<line stroke="black" stroke-opacity="1" x1="42" y1="41" x2="106" y2="41" />
</g>
<g>
	<line stroke="black" stroke-opacity="1" x1="60" y1="168" x2="66" y2="162" />
	<line stroke="black" stroke-opacity="1" x1="60" y1="168" x2="54" y2="161" />
	<line stroke="black" stroke-opacity="1" x1="72" y1="61" x2="60" y2="168" />
</g>
<g>
	<text font-family="Helvetica" font-size="10" fill="#000000" xml:space="preserve" x="270" y="69">metaData</text>
</g>
<g>
	<text font-family="Helvetica" font-size="10" fill="#000000" xml:space="preserve" x="70" y="161">book</text>
</g>
<g>
	<text font-family="Helvetica" font-size="10" fill="#000000" xml:space="preserve" x="604" y="348">copyright</text>
</g>
<g>
	<text font-family="Helvetica" font-size="10" fill="#000000" xml:space="preserve" x="556" y="184">numbering</text>
</g>
<g>
	<text font-family="Helvetica" font-size="10" fill="#000000" xml:space="preserve" x="304" y="422">mdTitles</text>
</g>
<g>
	<text font-family="Helvetica" font-size="10" fill="#000000" xml:space="preserve" x="91" y="187">book</text>
</g>
<g>
	<text font-family="Helvetica" font-size="10" fill="#000000" xml:space="preserve" x="366" y="190">editor</text>
</g>
<g>
	<text font-family="Helvetica" font-size="10" fill="#000000" xml:space="preserve" x="269" y="140">author</text>
</g>
<g>
	<text font-family="Helvetica" font-size="10" fill="#000000" xml:space="preserve" x="568" y="255">update</text>
</g>
<g>
	<text font-family="Helvetica" font-size="10" fill="#000000" xml:space="preserve" x="398" y="366">identity</text>
</g>
<g>
	<text font-family="Helvetica" font-size="10" fill="#000000" xml:space="preserve" x="523" y="388">identity</text>
</g>
<g>
	<text font-family="Helvetica" font-size="10" fill="#000000" xml:space="preserve" x="704" y="176">publisher</text>
</g>
<g>
	<text font-family="Helvetica" font-size="10" fill="#000000" xml:space="preserve" x="448" y="340">identity</text>
</g>
<g>
	<text font-family="Helvetica" font-size="10" fill="#000000" xml:space="preserve" x="150" y="272">address</text>
</g>
<g>
	<text font-family="Helvetica" font-size="10" fill="#000000" xml:space="preserve" x="523" y="360">identity</text>
</g>
<g>
	<text font-family="Helvetica" font-size="10" fill="#000000" xml:space="preserve" x="271" y="345">contact</text>
</g>
<g>
	<text font-family="Helvetica" font-size="10" fill="#000000" xml:space="preserve" x="545" y="368">copyright</text>
</g>
<g>
	<text font-family="Helvetica" font-size="10" fill="#000000" xml:space="preserve" x="384" y="362">titles</text>
</g>
<g>
	<text font-family="Helvetica" font-size="10" fill="#000000" xml:space="preserve" x="144" y="292">address</text>
</g>
<g>
	<text font-family="Helvetica" font-size="10" fill="#000000" xml:space="preserve" x="144" y="300">address</text>
</g>
<g>
	<text font-family="Helvetica" font-size="10" fill="#000000" xml:space="preserve" x="244" y="325">contact</text>
</g>
<g>
	<text font-family="Helvetica" font-size="10" fill="#000000" xml:space="preserve" x="274" y="325">contact</text>
</g>
<g>
	<text font-family="Helvetica" font-size="10" fill="#000000" xml:space="preserve" x="451" y="244">publication</text>
</g>
<g>
	<text font-family="Helvetica" font-size="10" fill="#000000" xml:space="preserve" x="95" y="392">mailBoxAddress</text>
</g>
<g>
	<rect fill="#808080" stroke="none" stroke-opacity="1" x="126" y="404" width="3" height="59" />
	<rect fill="#808080" stroke="none" stroke-opacity="1" x="32" y="460" width="97" height="3" />
	<rect fill="#ffffc0" stroke="black" stroke-width="1" stroke-opacity="1" x="28" y="400" width="98" height="60" />
	<text font-family="Helvetica" font-size="10" fill="#000000" xml:space="preserve" font-weight="bold" text-anchor="middle" x="77" y="413">MailBoxAddress</text>
	<line stroke="black" stroke-opacity="1" x1="28" y1="418" x2="126" y2="418" />
	<text font-family="Helvetica" font-size="10" fill="#000000" xml:space="preserve" x="32" y="431">mailBox</text>
	<text font-family="Helvetica" font-size="10" fill="#000000" xml:space="preserve" x="32" y="447">value</text>
</g>
<g>
	<rect fill="#808080" stroke="none" stroke-opacity="1" x="384" y="74" width="3" height="33" />
	<rect fill="#808080" stroke="none" stroke-opacity="1" x="330" y="104" width="57" height="3" />
	<rect fill="#ffffc0" stroke="black" stroke-width="1" stroke-opacity="1" x="326" y="70" width="58" height="34" />
	<text font-family="Helvetica" font-size="10" fill="#000000" xml:space="preserve" font-weight="bold" text-anchor="middle" x="355" y="83">Metadata</text>
	<line stroke="black" stroke-opacity="1" x1="326" y1="88" x2="384" y2="88" />
</g>
<g>
	<line stroke="black" stroke-opacity="1" x1="84" y1="399" x2="91" y2="394" />
	<line stroke="black" stroke-opacity="1" x1="84" y1="399" x2="79" y2="391" />
	<line stroke="black" stroke-opacity="1" x1="89" y1="379" x2="84" y2="399" />
</g>
<g>
	<line stroke="black" stroke-opacity="1" x1="325" y1="75" x2="319" y2="68" />
	<line stroke="black" stroke-opacity="1" x1="325" y1="75" x2="318" y2="80" />
	<line stroke="black" stroke-opacity="1" x1="110" y1="46" x2="325" y2="75" />
</g>
<g>
	<rect fill="#808080" stroke="none" stroke-opacity="1" x="256" y="158" width="3" height="33" />
	<rect fill="#808080" stroke="none" stroke-opacity="1" x="214" y="188" width="45" height="3" />
	<rect fill="#ffffc0" stroke="black" stroke-width="1" stroke-opacity="1" x="210" y="154" width="46" height="34" />
	<text font-family="Helvetica" font-size="10" fill="#000000" xml:space="preserve" font-weight="bold" text-anchor="middle" x="233" y="167">Author</text>
	<line stroke="black" stroke-opacity="1" x1="210" y1="172" x2="256" y2="172" />
</g>
<g>
	<line stroke="black" stroke-opacity="1" x1="134" y1="279" x2="142" y2="278" />
	<line stroke="black" stroke-opacity="1" x1="134" y1="279" x2="133" y2="270" />
	<line stroke="black" stroke-opacity="1" x1="215" y1="192" x2="134" y2="279" />
</g>
<g>
	<line stroke="black" stroke-opacity="1" x1="259" y1="153" x2="267" y2="154" />
	<line stroke="black" stroke-opacity="1" x1="259" y1="153" x2="260" y2="144" />
	<line stroke="black" stroke-opacity="1" x1="326" y1="108" x2="259" y2="153" />
</g>
<g>
	<rect fill="#808080" stroke="none" stroke-opacity="1" x="509" y="338" width="3" height="123" />
	<rect fill="#808080" stroke="none" stroke-opacity="1" x="447" y="458" width="65" height="3" />
	<rect fill="#ffffc0" stroke="black" stroke-width="1" stroke-opacity="1" x="443" y="334" width="66" height="124" />
	<text font-family="Helvetica" font-size="10" fill="#000000" xml:space="preserve" font-weight="bold" text-anchor="middle" x="476" y="347">Identity</text>
	<line stroke="black" stroke-opacity="1" x1="443" y1="352" x2="509" y2="352" />
	<text font-family="Helvetica" font-size="10" fill="#000000" xml:space="preserve" x="447" y="365">firstname</text>
	<text font-family="Helvetica" font-size="10" fill="#000000" xml:space="preserve" x="447" y="381">lastname</text>
	<text font-family="Helvetica" font-size="10" fill="#000000" xml:space="preserve" x="447" y="397">grade</text>
	<text font-family="Helvetica" font-size="10" fill="#000000" xml:space="preserve" x="447" y="413">occupation</text>
	<text font-family="Helvetica" font-size="10" fill="#000000" xml:space="preserve" x="447" y="429">organization</text>
	<text font-family="Helvetica" font-size="10" fill="#000000" xml:space="preserve" x="447" y="445">breviation</text>
</g>
<g>
	<rect fill="#808080" stroke="none" stroke-opacity="1" x="257" y="337" width="3" height="59" />
	<rect fill="#808080" stroke="none" stroke-opacity="1" x="211" y="393" width="49" height="3" />
	<rect fill="#ffffc0" stroke="black" stroke-width="1" stroke-opacity="1" x="207" y="333" width="50" height="60" />
	<text font-family="Helvetica" font-size="10" fill="#000000" xml:space="preserve" font-weight="bold" text-anchor="middle" x="232" y="346">Contact</text>
	<line stroke="black" stroke-opacity="1" x1="207" y1="351" x2="257" y2="351" />
	<text font-family="Helvetica" font-size="10" fill="#000000" xml:space="preserve" x="211" y="364">email</text>
	<text font-family="Helvetica" font-size="10" fill="#000000" xml:space="preserve" x="211" y="380">site</text>
</g>
<g>
	<line stroke="black" stroke-opacity="1" x1="234" y1="332" x2="240" y2="326" />
	<line stroke="black" stroke-opacity="1" x1="234" y1="332" x2="228" y2="326" />
	<line stroke="black" stroke-opacity="1" x1="234" y1="192" x2="234" y2="332" />
</g>
<g>
	<line stroke="black" stroke-opacity="1" x1="442" y1="364" x2="441" y2="355" />
	<line stroke="black" stroke-opacity="1" x1="442" y1="364" x2="433" y2="364" />
	<line stroke="black" stroke-opacity="1" x1="255" y1="192" x2="442" y2="364" />
</g>
<g>
	<rect fill="#808080" stroke="none" stroke-opacity="1" x="819" y="174" width="3" height="33" />
	<rect fill="#808080" stroke="none" stroke-opacity="1" x="763" y="204" width="59" height="3" />
	<rect fill="#ffffc0" stroke="black" stroke-width="1" stroke-opacity="1" x="759" y="170" width="60" height="34" />
	<text font-family="Helvetica" font-size="10" fill="#000000" xml:space="preserve" font-weight="bold" text-anchor="middle" x="789" y="183">Publisher</text>
	<line stroke="black" stroke-opacity="1" x1="759" y1="188" x2="819" y2="188" />
</g>
<g>
	<rect fill="#808080" stroke="none" stroke-opacity="1" x="663" y="348" width="3" height="91" />
	<rect fill="#808080" stroke="none" stroke-opacity="1" x="605" y="436" width="61" height="3" />
	<rect fill="#ffffc0" stroke="black" stroke-width="1" stroke-opacity="1" x="601" y="344" width="62" height="92" />
	<text font-family="Helvetica" font-size="10" fill="#000000" xml:space="preserve" font-weight="bold" text-anchor="middle" x="632" y="357">Copyright</text>
	<line stroke="black" stroke-opacity="1" x1="601" y1="362" x2="663" y2="362" />
	<text font-family="Helvetica" font-size="10" fill="#000000" xml:space="preserve" x="605" y="375">label</text>
	<text font-family="Helvetica" font-size="10" fill="#000000" xml:space="preserve" x="605" y="391">year</text>
	<text font-family="Helvetica" font-size="10" fill="#000000" xml:space="preserve" x="605" y="407">country</text>
	<text font-family="Helvetica" font-size="10" fill="#000000" xml:space="preserve" x="605" y="423">text</text>
</g>
<g>
	<rect fill="#808080" stroke="none" stroke-opacity="1" x="376" y="202" width="3" height="43" />
	<rect fill="#808080" stroke="none" stroke-opacity="1" x="336" y="242" width="43" height="3" />
	<rect fill="#ffffc0" stroke="black" stroke-width="1" stroke-opacity="1" x="332" y="198" width="44" height="44" />
	<text font-family="Helvetica" font-size="10" fill="#000000" xml:space="preserve" font-weight="bold" text-anchor="middle" x="354" y="211">Editor</text>
	<line stroke="black" stroke-opacity="1" x1="332" y1="216" x2="376" y2="216" />
	<text font-family="Helvetica" font-size="10" fill="#000000" xml:space="preserve" x="336" y="229">number</text>
</g>
<g>
	<line stroke="black" stroke-opacity="1" x1="261" y1="355" x2="268" y2="358" />
	<line stroke="black" stroke-opacity="1" x1="261" y1="355" x2="264" y2="347" />
	<line stroke="black" stroke-opacity="1" x1="758" y1="198" x2="261" y2="355" />
</g>
<g>
	<line stroke="black" stroke-opacity="1" x1="758" y1="181" x2="753" y2="173" />
	<line stroke="black" stroke-opacity="1" x1="758" y1="181" x2="750" y2="185" />
	<line stroke="black" stroke-opacity="1" x1="388" y1="95" x2="758" y2="181" />
</g>
<g>
	<line stroke="black" stroke-opacity="1" x1="600" y1="355" x2="600" y2="346" />
	<line stroke="black" stroke-opacity="1" x1="600" y1="355" x2="591" y2="354" />
	<line stroke="black" stroke-opacity="1" x1="375" y1="108" x2="600" y2="355" />
</g>
<g>
	<line stroke="black" stroke-opacity="1" x1="134" y1="302" x2="141" y2="305" />
	<line stroke="black" stroke-opacity="1" x1="134" y1="302" x2="137" y2="294" />
	<line stroke="black" stroke-opacity="1" x1="331" y1="230" x2="134" y2="302" />
</g>
<g>
	<line stroke="black" stroke-opacity="1" x1="259" y1="332" x2="267" y2="331" />
	<line stroke="black" stroke-opacity="1" x1="259" y1="332" x2="258" y2="323" />
	<line stroke="black" stroke-opacity="1" x1="332" y1="246" x2="259" y2="332" />
</g>
<g>
	<line stroke="black" stroke-opacity="1" x1="513" y1="395" x2="519" y2="400" />
	<line stroke="black" stroke-opacity="1" x1="513" y1="395" x2="518" y2="388" />
	<line stroke="black" stroke-opacity="1" x1="600" y1="392" x2="513" y2="395" />
</g>
<g>
	<line stroke="black" stroke-opacity="1" x1="356" y1="197" x2="362" y2="191" />
	<line stroke="black" stroke-opacity="1" x1="356" y1="197" x2="350" y2="191" />
	<line stroke="black" stroke-opacity="1" x1="356" y1="108" x2="356" y2="197" />
</g>
<g>
	<line stroke="black" stroke-opacity="1" x1="513" y1="373" x2="521" y2="374" />
	<line stroke="black" stroke-opacity="1" x1="513" y1="373" x2="514" y2="364" />
	<line stroke="black" stroke-opacity="1" x1="758" y1="208" x2="513" y2="373" />
</g>
<g>
	<line stroke="black" stroke-opacity="1" x1="442" y1="347" x2="443" y2="338" />
	<line stroke="black" stroke-opacity="1" x1="442" y1="347" x2="433" y2="345" />
	<line stroke="black" stroke-opacity="1" x1="372" y1="246" x2="442" y2="347" />
</g>
<g>
	<line stroke="black" stroke-opacity="1" x1="134" y1="308" x2="140" y2="312" />
	<line stroke="black" stroke-opacity="1" x1="134" y1="308" x2="138" y2="301" />
	<line stroke="black" stroke-opacity="1" x1="758" y1="193" x2="134" y2="308" />
</g>
<g>
	<rect fill="#808080" stroke="none" stroke-opacity="1" x="487" y="256" width="3" height="33" />
	<rect fill="#808080" stroke="none" stroke-opacity="1" x="423" y="286" width="67" height="3" />
	<rect fill="#ffffc0" stroke="black" stroke-width="1" stroke-opacity="1" x="419" y="252" width="68" height="34" />
	<text font-family="Helvetica" font-size="10" fill="#000000" xml:space="preserve" font-weight="bold" text-anchor="middle" x="453" y="265">Publication</text>
	<line stroke="black" stroke-opacity="1" x1="419" y1="270" x2="487" y2="270" />
</g>
<g>
	<line stroke="black" stroke-opacity="1" x1="81" y1="192" x2="85" y2="199" />
	<line stroke="black" stroke-opacity="1" x1="81" y1="192" x2="88" y2="187" />
	<line stroke="black" stroke-opacity="1" x1="418" y1="262" x2="81" y2="192" />
</g>
<g>
	<line stroke="black" stroke-opacity="1" x1="444" y1="251" x2="446" y2="242" />
	<line stroke="black" stroke-opacity="1" x1="444" y1="251" x2="435" y2="248" />
	<line stroke="black" stroke-opacity="1" x1="367" y1="108" x2="444" y2="251" />
</g>
<g>
	<line stroke="black" stroke-opacity="1" x1="600" y1="369" x2="598" y2="360" />
	<line stroke="black" stroke-opacity="1" x1="600" y1="369" x2="591" y2="370" />
	<line stroke="black" stroke-opacity="1" x1="484" y1="290" x2="600" y2="369" />
</g>
<g>
	<rect fill="#808080" stroke="none" stroke-opacity="1" x="658" y="210" width="3" height="107" />
	<rect fill="#808080" stroke="none" stroke-opacity="1" x="616" y="314" width="45" height="3" />
	<rect fill="#ffffc0" stroke="black" stroke-width="1" stroke-opacity="1" x="612" y="206" width="46" height="108" />
	<text font-family="Helvetica" font-size="10" fill="#000000" xml:space="preserve" font-weight="bold" text-anchor="middle" x="635" y="219">Update</text>
	<line stroke="black" stroke-opacity="1" x1="612" y1="224" x2="658" y2="224" />
	<text font-family="Helvetica" font-size="10" fill="#000000" xml:space="preserve" x="616" y="237">gan</text>
	<text font-family="Helvetica" font-size="10" fill="#000000" xml:space="preserve" x="616" y="253">bat</text>
	<text font-family="Helvetica" font-size="10" fill="#000000" xml:space="preserve" x="616" y="269">dms</text>
	<text font-family="Helvetica" font-size="10" fill="#000000" xml:space="preserve" x="616" y="285">oldPub</text>
	<text font-family="Helvetica" font-size="10" fill="#000000" xml:space="preserve" x="616" y="301">text</text>
</g>
<g>
	<rect fill="#808080" stroke="none" stroke-opacity="1" x="621" y="87" width="3" height="91" />
	<rect fill="#808080" stroke="none" stroke-opacity="1" x="557" y="175" width="67" height="3" />
	<rect fill="#ffffc0" stroke="black" stroke-width="1" stroke-opacity="1" x="553" y="83" width="68" height="92" />
	<text font-family="Helvetica" font-size="10" fill="#000000" xml:space="preserve" font-weight="bold" text-anchor="middle" x="587" y="96">Numbering</text>
	<line stroke="black" stroke-opacity="1" x1="553" y1="101" x2="621" y2="101" />
	<text font-family="Helvetica" font-size="10" fill="#000000" xml:space="preserve" x="557" y="114">issn</text>
	<text font-family="Helvetica" font-size="10" fill="#000000" xml:space="preserve" x="557" y="130">isbn</text>
	<text font-family="Helvetica" font-size="10" fill="#000000" xml:space="preserve" x="557" y="146">serie</text>
	<text font-family="Helvetica" font-size="10" fill="#000000" xml:space="preserve" x="557" y="162">volume</text>
</g>
<g>
	<rect fill="#808080" stroke="none" stroke-opacity="1" x="372" y="374" width="3" height="33" />
	<rect fill="#808080" stroke="none" stroke-opacity="1" x="336" y="404" width="39" height="3" />
	<rect fill="#ffffc0" stroke="black" stroke-width="1" stroke-opacity="1" x="332" y="370" width="40" height="34" />
	<text font-family="Helvetica" font-size="10" fill="#000000" xml:space="preserve" font-weight="bold" text-anchor="middle" x="352" y="383">Titles</text>
	<line stroke="black" stroke-opacity="1" x1="332" y1="388" x2="372" y2="388" />
</g>
<g>
	<line stroke="black" stroke-opacity="1" x1="294" y1="437" x2="302" y2="437" />
	<line stroke="black" stroke-opacity="1" x1="294" y1="437" x2="294" y2="428" />
	<line stroke="black" stroke-opacity="1" x1="331" y1="407" x2="294" y2="437" />
</g>
<g>
	<line stroke="black" stroke-opacity="1" x1="552" y1="166" x2="543" y2="166" />
	<line stroke="black" stroke-opacity="1" x1="552" y1="166" x2="552" y2="174" />
	<line stroke="black" stroke-opacity="1" x1="471" y1="251" x2="552" y2="166" />
</g>
<g>
	<line stroke="black" stroke-opacity="1" x1="369" y1="369" x2="377" y2="368" />
	<line stroke="black" stroke-opacity="1" x1="369" y1="369" x2="368" y2="360" />
	<line stroke="black" stroke-opacity="1" x1="435" y1="290" x2="369" y2="369" />
</g>
<g>
	<line stroke="black" stroke-opacity="1" x1="611" y1="262" x2="604" y2="256" />
	<line stroke="black" stroke-opacity="1" x1="611" y1="262" x2="605" y2="268" />
	<line stroke="black" stroke-opacity="1" x1="491" y1="268" x2="611" y2="262" />
</g>
<g>
	<text font-family="Helvetica" font-size="10" fill="#000000" xml:space="preserve" x="292" y="432">&lt;&lt;List&gt;&gt;</text>
</g>
</svg>
