<?xml version="1.0" encoding="utf-8"?>
<!-- Generator: Adobe Illustrator 16.0.3, SVG Export Plug-In . SVG Version: 6.00 Build 0)  -->
<!DOCTYPE svg PUBLIC "-//W3C//DTD SVG 1.1//EN" "http://www.w3.org/Graphics/SVG/1.1/DTD/svg11.dtd">
<svg version="1.1" id="Layer_1" xmlns="http://www.w3.org/2000/svg" xmlns:xlink="http://www.w3.org/1999/xlink" x="0px" y="0px"
	 width="100px" height="100px" viewBox="0 0 100 100" enable-background="new 0 0 100 100" xml:space="preserve">
<linearGradient id="SVGID_1_" gradientUnits="userSpaceOnUse" x1="50.7578" y1="35.2134" x2="50.7578" y2="65.5112" gradientTransform="matrix(1 0 0 -1 0.04 99.1543)">
	<stop  offset="0" style="stop-color:#FFFFFF"/>
	<stop  offset="1" style="stop-color:#000000"/>
</linearGradient>
<path fill="url(#SVGID_1_)" d="M36.8,63.48c-4.777-2.769-8-7.922-8-13.84c0-8.835,7.163-15.997,15.998-15.997
	c6.004,0,11.229,3.311,13.966,8.203c0.663-0.113,1.338-0.205,2.032-0.205c6.627,0,11.998,5.372,11.998,12
	c0,5.223-3.34,8.652-7.998,10.301L36.8,63.48z"/>
<linearGradient id="SVGID_2_" gradientUnits="userSpaceOnUse" x1="42.2261" y1="67.5215" x2="42.2261" y2="59.6992" gradientTransform="matrix(-0.7071 0.7071 -0.7071 -0.7071 117.0637 78.7295)">
	<stop  offset="0" style="stop-color:#99A3B5"/>
	<stop  offset="0.882" style="stop-color:#FFFFFF"/>
</linearGradient>
<path fill="url(#SVGID_2_)" d="M40.753,66.588l1.323-2.506c-0.033-0.015-0.062-0.033-0.086-0.058
	c-0.026-0.025-0.044-0.055-0.058-0.086l-2.685,1.144l-0.799-0.461l0.462-0.798l3.002-0.099c0.014-0.083,0.052-0.17,0.108-0.252
	l-2.559-1.707l0-0.922h0.922l1.832,2.435c0.082-0.058,0.131-0.087,0.213-0.102l0.012-2.884l0.797-0.462l0.461,0.799l-1.057,2.566
	c0.032,0.014,0.062,0.032,0.086,0.058c0.025,0.024,0.044,0.054,0.057,0.086l2.42-1.204l0.798,0.461l-0.461,0.798l-2.699,0.151
	c-0.015,0.083-0.052,0.17-0.109,0.252l2.257,1.654l0,0.923l-0.922-0.001l-1.529-2.382c-0.082,0.058-0.168,0.095-0.252,0.108
	l-0.276,2.825l-0.798,0.461L40.753,66.588z"/>
<linearGradient id="SVGID_3_" gradientUnits="userSpaceOnUse" x1="38.4517" y1="58.4043" x2="38.4517" y2="50.582" gradientTransform="matrix(-0.7071 0.7071 -0.7071 -0.7071 117.0637 78.7295)">
	<stop  offset="0" style="stop-color:#99A3B5"/>
	<stop  offset="0.882" style="stop-color:#FFFFFF"/>
</linearGradient>
<path fill="url(#SVGID_3_)" d="M49.869,70.365l1.323-2.506c-0.033-0.015-0.063-0.033-0.086-0.058
	c-0.025-0.025-0.044-0.055-0.058-0.086l-2.685,1.144l-0.799-0.461l0.462-0.798l3.001-0.099c0.015-0.083,0.053-0.17,0.109-0.252
	l-2.56-1.707l0-0.922h0.922l1.832,2.435c0.081-0.058,0.131-0.087,0.214-0.102l0.012-2.884l0.797-0.462l0.461,0.799l-1.057,2.566
	c0.032,0.014,0.062,0.032,0.086,0.058c0.025,0.024,0.045,0.054,0.058,0.086l2.42-1.204l0.798,0.461l-0.461,0.798l-2.699,0.151
	c-0.014,0.083-0.051,0.17-0.108,0.252l2.257,1.654v0.923l-0.922-0.001l-1.529-2.382c-0.082,0.058-0.168,0.095-0.252,0.108
	l-0.276,2.825l-0.798,0.461L49.869,70.365z"/>
<linearGradient id="SVGID_4_" gradientUnits="userSpaceOnUse" x1="46.604" y1="58.9238" x2="46.604" y2="51.1016" gradientTransform="matrix(-0.7071 0.7071 -0.7071 -0.7071 117.0637 78.7295)">
	<stop  offset="0" style="stop-color:#99A3B5"/>
	<stop  offset="0.882" style="stop-color:#FFFFFF"/>
</linearGradient>
<path fill="url(#SVGID_4_)" d="M43.736,75.763l1.323-2.506c-0.033-0.015-0.063-0.033-0.086-0.058
	c-0.025-0.025-0.044-0.055-0.058-0.086l-2.685,1.144l-0.799-0.461l0.462-0.798l3.001-0.099c0.015-0.083,0.053-0.17,0.109-0.252
	l-2.56-1.707l0-0.922h0.922l1.832,2.435c0.081-0.058,0.131-0.087,0.214-0.102l0.012-2.884l0.797-0.462l0.461,0.799l-1.057,2.566
	c0.032,0.014,0.062,0.032,0.086,0.058c0.025,0.024,0.045,0.054,0.058,0.086l2.42-1.204l0.798,0.461l-0.461,0.798l-2.699,0.151
	c-0.014,0.083-0.051,0.17-0.108,0.252l2.257,1.654v0.923l-0.922-0.001l-1.529-2.382c-0.082,0.058-0.168,0.095-0.252,0.108
	l-0.276,2.825l-0.798,0.461L43.736,75.763z"/>
<linearGradient id="SVGID_5_" gradientUnits="userSpaceOnUse" x1="36.9185" y1="49.7617" x2="36.9185" y2="41.9395" gradientTransform="matrix(0.6254 -0.7803 0.7803 0.6254 -0.3257 72.5474)">
	<stop  offset="0" style="stop-color:#99A3B5"/>
	<stop  offset="0.882" style="stop-color:#FFFFFF"/>
</linearGradient>
<path fill="url(#SVGID_5_)" d="M59.678,69.292l-1.04,2.635c0.035,0.012,0.066,0.026,0.092,0.048c0.028,0.022,0.05,0.05,0.067,0.079
	l2.543-1.431l0.845,0.371l-0.371,0.844l-2.973,0.427c-0.006,0.084-0.034,0.175-0.081,0.263l2.73,1.416l0.103,0.916l-0.918,0.102
	l-2.087-2.22c-0.075,0.066-0.121,0.101-0.202,0.125l0.305,2.867l-0.741,0.547l-0.546-0.744l0.769-2.666
	c-0.033-0.011-0.064-0.025-0.092-0.048c-0.027-0.021-0.05-0.049-0.066-0.079l-2.273,1.462l-0.844-0.371l0.371-0.844l2.666-0.446
	c0.005-0.084,0.032-0.174,0.08-0.262l-2.424-1.397l-0.102-0.917l0.917-0.101l1.78,2.2c0.075-0.066,0.157-0.112,0.239-0.136
	l-0.035-2.838l0.742-0.546L59.678,69.292z"/>
<linearGradient id="SVGID_6_" gradientUnits="userSpaceOnUse" x1="28.0195" y1="53.3145" x2="28.0195" y2="45.4922" gradientTransform="matrix(-0.7071 0.7071 -0.7071 -0.7071 117.0637 78.7295)">
	<stop  offset="0" style="stop-color:#99A3B5"/>
	<stop  offset="0.882" style="stop-color:#FFFFFF"/>
</linearGradient>
<path fill="url(#SVGID_6_)" d="M60.844,66.588l1.323-2.506c-0.033-0.015-0.063-0.033-0.086-0.058
	c-0.025-0.025-0.044-0.055-0.058-0.086l-2.686,1.144l-0.799-0.461l0.463-0.798l3.001-0.099c0.015-0.083,0.053-0.17,0.109-0.252
	l-2.56-1.707v-0.922h0.922l1.832,2.435c0.081-0.058,0.131-0.087,0.214-0.102l0.012-2.884l0.797-0.462l0.461,0.799l-1.057,2.566
	c0.032,0.014,0.062,0.032,0.086,0.058c0.025,0.024,0.045,0.054,0.058,0.086l2.42-1.204l0.798,0.461l-0.461,0.798l-2.699,0.151
	c-0.014,0.083-0.051,0.17-0.108,0.252l2.257,1.654v0.923l-0.922-0.001l-1.529-2.382c-0.082,0.058-0.168,0.095-0.252,0.108
	l-0.276,2.825l-0.799,0.461L60.844,66.588z"/>
</svg>
